<svg width="202" height="202" viewBox="0 0 202 202" fill="none" xmlns="http://www.w3.org/2000/svg">
<g clip-path="url(#clip0)">
<path d="M164.534 62.8141C153.714 62.7312 140.509 62.6301 129.484 62.5457L107.177 144.737C106.651 146.675 108.101 148.587 110.109 148.603L182.586 149.158C184.596 149.173 186.075 147.283 185.579 145.337L164.534 62.8141Z" fill="#C94250"/>
<path d="M173.694 6.32865C170.319 6.23872 167.537 9.08463 167.511 12.4582L167.285 41.9908L154.139 56.5741C154.139 56.5741 154.43 56.59 134.868 56.4265C128.758 56.3797 123.374 60.4463 121.774 66.3408L109.126 112.92C108.255 116.13 110.149 119.438 113.359 120.309C116.567 121.181 119.875 119.285 120.746 116.077L133.394 69.4969C133.564 68.8757 134.132 68.4451 134.776 68.4501L156.766 68.6185C158.441 68.6313 160.044 67.9279 161.169 66.6853L177.762 48.3502C178.747 47.256 179.297 45.8396 179.308 44.3687L179.553 12.3933C179.578 9.10664 176.965 6.41474 173.694 6.32865Z" fill="#FFB69E"/>
<path d="M137.289 181.057C133.377 181.027 130.23 177.831 130.26 173.92L130.731 112.45C130.761 108.538 133.956 105.391 137.868 105.421C141.78 105.451 144.927 108.646 144.897 112.559L144.426 174.027C144.396 177.939 141.201 181.087 137.289 181.057Z" fill="#FFB69E"/>
<path d="M130.718 150.869C129.655 147.104 131.846 143.192 135.613 142.128L152.29 137.423L143.468 115.21C142.025 111.575 143.802 107.457 147.437 106.013C151.072 104.57 155.191 106.345 156.636 109.982L168.356 139.493C169.096 141.357 169.011 143.447 168.123 145.246C167.235 147.042 165.625 148.381 163.696 148.924L139.459 155.762C135.701 156.823 131.783 154.643 130.718 150.869Z" fill="#FFB69E"/>
<path d="M167.512 12.4597L167.285 41.9937L154.141 56.5755C154.141 56.5755 154.431 56.5915 134.868 56.4279C128.76 56.3811 123.376 60.4477 121.774 66.3423L109.126 112.923L120.747 116.078L128.59 87.1943L121.326 129.303C121.116 130.386 121.381 131.51 122.047 132.368C122.713 133.226 123.712 133.731 124.771 133.739L168.434 134.074C169.493 134.082 170.5 133.595 171.18 132.747C171.86 131.898 172.142 130.777 171.949 129.691L161.936 65.8396L177.763 48.3516C178.748 47.259 179.297 45.8425 179.308 44.3701L179.553 12.3947L167.512 12.4597Z" fill="#FF6473"/>
<path d="M160.049 38.6978C160.105 31.3616 154.457 25.3719 147.434 25.3181C140.412 25.2643 134.672 31.1669 134.616 38.5031C134.56 45.8378 140.209 51.8276 147.231 51.8813C154.254 51.9351 159.992 46.0325 160.049 38.6978Z" fill="#FFB69E"/>
<path d="M140.109 81.8984L145.875 72.0103C146.415 71.0867 147.753 71.0969 148.277 72.0287L153.891 82.0039C154.412 82.9296 153.738 84.0734 152.674 84.0653L141.294 83.9781C140.231 83.97 139.574 82.8159 140.109 81.8984Z" fill="white"/>
<path d="M72.6233 196.768C72.6393 194.681 64.8156 192.927 55.1479 192.853C45.4802 192.779 37.6306 194.412 37.6146 196.5C37.5986 198.589 45.4223 200.342 55.09 200.416C64.7577 200.49 72.6073 198.857 72.6233 196.768Z" fill="#82878C"/>
<path d="M159.227 197.43C159.243 195.343 151.419 193.589 141.751 193.515C132.084 193.441 124.234 195.075 124.218 197.162C124.202 199.251 132.026 201.004 141.694 201.078C151.361 201.153 159.211 199.519 159.227 197.43Z" fill="#82878C"/>
<path d="M67.6699 44.9276C67.6155 52.0396 61.8067 57.76 54.6963 57.7056C47.586 57.6511 41.8655 51.8424 41.92 44.7305C41.9744 37.6201 47.7832 31.8996 54.8935 31.9541C62.0039 32.0085 67.7244 37.8173 67.6699 44.9276Z" fill="#FFB69E"/>
<path d="M70.4311 73.544L89.8096 61.0913C91.2372 60.173 92.2084 58.6911 92.4791 57.0147L96.5603 31.798C97.0873 28.5381 94.8723 25.4662 91.6123 24.9392C88.3494 24.4122 85.2806 26.6272 84.7536 29.8871L81.1 52.4703L63.965 63.4814C61.1863 65.2683 60.3813 68.9671 62.1667 71.7457C63.9461 74.5152 67.6433 75.3355 70.4311 73.544Z" fill="#FFB69E"/>
<path d="M44.9817 76.5184C48.242 75.9956 50.4643 72.9302 49.9415 69.6684L39.6478 5.28253C39.1265 2.02222 36.0596 -0.198595 32.7978 0.322707C29.5374 0.84402 27.3151 3.90937 27.8379 7.17122L38.1316 71.5571C38.6515 74.8097 41.7122 77.0412 44.9817 76.5184Z" fill="#FFB69E"/>
<path d="M17.7704 159.155L70.3018 159.557L71.0462 62.3598L37.609 62.1037L15.2483 155.936C14.8589 157.57 16.0905 159.142 17.7704 159.155Z" fill="#FA503C"/>
<path d="M69.2091 170.573L77.2012 138.973C77.5521 137.585 77.4961 136.127 77.0411 134.772L68.9774 110.758C67.666 106.855 63.44 104.754 59.5374 106.064C55.6332 107.375 53.5332 111.601 54.843 115.504L62.2085 137.44L54.7545 166.917C53.7443 170.909 56.1624 174.962 60.1525 175.972C64.1443 176.981 68.1988 174.565 69.2091 170.573Z" fill="#5F6E9B"/>
<path d="M44.6748 182.526C48.7915 182.557 52.1556 179.246 52.1871 175.129L52.6434 115.542C52.6749 111.426 49.362 108.063 45.2453 108.032C41.1286 108 37.7645 111.312 37.733 115.428L37.2767 175.014C37.2451 179.132 40.5581 182.494 44.6748 182.526Z" fill="#414B82"/>
<path d="M39.6482 5.28368L48.7464 62.1894L65.7747 62.3198L81.0987 52.4714L84.7523 29.8882L96.559 31.7991L92.4793 57.0158C92.2086 58.6922 91.2374 60.1741 89.8083 61.0924L70.9634 73.2028L70.6381 115.68L37.7335 115.428L38.0723 71.1854L27.8384 7.17237L39.6482 5.28368Z" fill="#64AFFF"/>
<path d="M61.7187 79.2206C61.6883 83.1893 58.4457 86.3826 54.477 86.3522C50.5083 86.3218 47.315 83.0792 47.3454 79.1105C47.3757 75.1418 50.6184 71.9485 54.5871 71.9789C58.5558 72.0093 61.7491 75.2519 61.7187 79.2206Z" fill="white"/>
</g>
<defs>
<clipPath id="clip0">
<rect width="200" height="200" fill="white" transform="translate(1.53125) rotate(0.43876)"/>
</clipPath>
</defs>
</svg>
