<svg width="104" height="99" viewBox="0 0 104 99" fill="none" xmlns="http://www.w3.org/2000/svg">
<rect width="104" height="99" rx="15" fill="black"/>
<g opacity="0.199997">
<g opacity="0.199997">
<g opacity="0.199997">
<g opacity="0.199997">
<path opacity="0.199997" d="M41.1796 72.5664L35.2783 69.3566C39.3093 68.7901 42.2174 68.208 44.0038 67.6165C44.5985 67.4168 45.1531 67.1965 45.6688 66.953L51.5689 70.1634C51.0537 70.4063 50.4992 70.6266 49.9045 70.8263C48.1187 71.4178 45.21 71.9999 41.1796 72.5664Z" fill="#B9B9B9"/>
</g>
<g opacity="0.199997">
<path opacity="0.199997" d="M51.569 70.1621L45.6689 66.9517C46.263 66.6719 46.8056 66.3614 47.2964 66.0228L53.1964 69.2326C52.7057 69.5719 52.1643 69.8811 51.569 70.1621Z" fill="#B6B7B7"/>
</g>
<g opacity="0.199997">
<path opacity="0.199997" d="M53.196 69.2344L47.2959 66.0246C47.6264 65.7961 47.9331 65.5539 48.2166 65.2985L54.118 68.5077C53.8344 68.763 53.5271 69.0053 53.196 69.2344Z" fill="#B3B4B4"/>
</g>
<g opacity="0.199997">
<path opacity="0.199997" d="M54.1171 68.5059L48.2158 65.2967C48.2415 65.2735 48.2671 65.2504 48.2928 65.2266C48.5826 64.9637 48.8593 64.6833 49.1222 64.386L55.0222 67.5958C54.76 67.8931 54.4839 68.1735 54.1941 68.4364L54.1171 68.5059Z" fill="#B0B1B1"/>
</g>
<g opacity="0.199997">
<path opacity="0.199997" d="M55.0228 67.5977L49.1221 64.3879C49.3987 64.0743 49.6604 63.7419 49.907 63.3901L55.8083 66.5999C55.5611 66.9517 55.2994 67.2841 55.0228 67.5977Z" fill="#AEAEAE"/>
</g>
<g opacity="0.199997">
<path opacity="0.199997" d="M55.8085 66.5996L49.9072 63.3898C50.1883 62.9886 50.4499 62.5636 50.6921 62.1123L56.5935 65.3227C56.3506 65.7734 56.089 66.199 55.8085 66.5996Z" fill="#ABABAB"/>
</g>
<g opacity="0.199997">
<path opacity="0.199997" d="M56.5937 65.3223L50.6924 62.1118C50.9465 61.6411 51.1794 61.1416 51.3903 60.6152L57.291 63.825C57.0788 64.3514 56.8466 64.8503 56.5937 65.3223Z" fill="#A8A9A9"/>
</g>
</g>
</g>
<g opacity="0.199997">
<g opacity="0.199997">
<g opacity="0.199997">
<path opacity="0.199997" d="M57.2923 63.8262L51.3916 60.6164C51.4448 60.4818 51.4968 60.3472 51.5462 60.212L57.4469 63.4218C57.3974 63.557 57.3455 63.6922 57.2923 63.8262Z" fill="#A8A9A9"/>
</g>
<g opacity="0.199997">
<path opacity="0.199997" d="M57.4464 63.4199L51.5457 60.2095C52.1979 58.4344 52.5266 56.5472 52.5303 54.5404C52.5341 52.0348 52.0878 49.9223 51.1933 48.2028C50.3902 46.6524 49.2579 45.4806 47.792 44.6832L53.6933 47.893C55.158 48.6904 56.2909 49.8622 57.0946 51.4126C57.9885 53.1321 58.4354 55.2446 58.4304 57.7496C58.4266 59.7557 58.0993 61.6448 57.4464 63.4199Z" fill="#A5A6A6"/>
</g>
</g>
</g>
<g opacity="0.199997">
<g opacity="0.199997">
<g opacity="0.199997">
<path opacity="0.199997" d="M54.2444 41.4386L48.3438 38.2294C49.4373 38.2576 50.4644 38.3972 51.4252 38.6457L57.3265 41.8555C56.3657 41.6063 55.3379 41.468 54.2444 41.4386Z" fill="#B9B9B9"/>
</g>
<g opacity="0.199997">
<path opacity="0.199997" d="M57.3261 41.8545L51.4248 38.6447C52.1753 38.84 52.8857 39.1016 53.5561 39.4302L59.4562 42.6406C58.787 42.3108 58.0766 42.0491 57.3261 41.8545Z" fill="#B6B7B7"/>
</g>
<g opacity="0.199997">
<path opacity="0.199997" d="M59.4563 42.6395L53.5557 39.4291C53.6865 39.4942 53.8154 39.5606 53.9431 39.6294L59.8438 42.8398C59.7161 42.7704 59.5872 42.704 59.4563 42.6395Z" fill="#B3B4B4"/>
</g>
</g>
</g>
<g opacity="0.199997">
<path opacity="0.199997" d="M35.3083 73.3926L29.4082 70.1828L35.2788 69.3578L41.1802 72.5676L35.3083 73.3926Z" fill="#BFC0C0"/>
</g>
<g opacity="0.199997">
<g opacity="0.199997">
<g opacity="0.199997">
<path opacity="0.199997" d="M41.2386 41.0586L35.3379 37.8488C38.8506 37.3556 41.6874 36.5988 43.8487 35.5792L49.7488 38.789C47.5887 39.808 44.7507 40.5647 41.2386 41.0586Z" fill="#B9B9B9"/>
</g>
<g opacity="0.199997">
<path opacity="0.199997" d="M49.7487 38.7891L43.8486 35.5793C44.5497 35.2482 45.18 34.8901 45.7396 34.5033L51.6396 37.7131C51.0813 38.0993 50.4504 38.4586 49.7487 38.7891Z" fill="#B6B7B7"/>
</g>
<g opacity="0.199997">
<path opacity="0.199997" d="M51.6399 37.7129L45.7393 34.5031C46.0929 34.2584 46.4171 34.003 46.7145 33.7363L52.6145 36.9467C52.3185 37.2128 51.993 37.4682 51.6399 37.7129Z" fill="#B3B4B4"/>
</g>
<g opacity="0.199997">
<path opacity="0.199997" d="M52.6149 36.9473L46.7148 33.7368C46.723 33.7293 46.7311 33.7225 46.7393 33.7143C46.9846 33.4921 47.2162 33.2574 47.434 33.0108L53.3347 36.2212C53.1169 36.4672 52.8853 36.7019 52.6406 36.9241C52.6318 36.9316 52.6237 36.9391 52.6149 36.9473Z" fill="#B0B1B1"/>
</g>
<g opacity="0.199997">
<path opacity="0.199997" d="M53.3349 36.2207L47.4336 33.0103C47.6552 32.7605 47.8617 32.4976 48.0545 32.2216L53.9558 35.432C53.763 35.7074 53.5552 35.9703 53.3349 36.2207Z" fill="#AEAEAE"/>
</g>
<g opacity="0.199997">
<path opacity="0.199997" d="M53.955 35.4316L48.0537 32.2212C48.2634 31.9227 48.4574 31.6084 48.634 31.2792L54.5346 34.489C54.3575 34.8182 54.1641 35.1318 53.955 35.4316Z" fill="#ABABAB"/>
</g>
<g opacity="0.199997">
<path opacity="0.199997" d="M54.5355 34.4902L48.6348 31.2804C48.8614 30.8598 49.0604 30.4148 49.2325 29.9459L55.1332 33.1551C54.9611 33.6246 54.7614 34.0696 54.5355 34.4902Z" fill="#A8A9A9"/>
</g>
<g opacity="0.199997">
<path opacity="0.199997" d="M55.1328 33.1543L49.2321 29.9451C49.7829 28.4466 50.0602 26.699 50.064 24.7029C50.0727 20.2863 49.0556 17.3394 47.0132 15.8579C46.836 15.7295 46.6451 15.61 46.4404 15.4986L52.3417 18.7077C52.5458 18.8191 52.7367 18.9393 52.9138 19.0676C54.9563 20.5499 55.9734 23.4961 55.9653 27.9121C55.9609 29.9088 55.6842 31.6558 55.1328 33.1543Z" fill="#A5A6A6"/>
</g>
</g>
</g>
<g opacity="0.199997">
<path opacity="0.199997" d="M35.3681 41.8828L29.4668 38.673L35.3381 37.848L41.2387 41.0578L35.3681 41.8828Z" fill="#BFC0C0"/>
</g>
<g opacity="0.199997">
<g opacity="0.199997">
<g opacity="0.199997">
<path opacity="0.199997" d="M41.2952 10.9609L35.3945 7.75052C40.0628 7.09517 43.5066 6.86545 45.7268 7.07263C46.5593 7.149 47.3493 7.28357 48.0947 7.47761L53.9954 10.6874C53.2499 10.494 52.4606 10.3582 51.6269 10.2824C49.4073 10.0752 45.9628 10.3043 41.2952 10.9609Z" fill="#B9B9B9"/>
</g>
<g opacity="0.199997">
<path opacity="0.199997" d="M53.9954 10.6852L48.0947 7.47544C48.9047 7.68513 49.6633 7.9643 50.3687 8.31169L56.2694 11.5215C55.5634 11.1741 54.8054 10.8955 53.9954 10.6852Z" fill="#B6B7B7"/>
</g>
<g opacity="0.199997">
<path opacity="0.199997" d="M56.2698 11.5232L50.3691 8.31342C50.5025 8.37977 50.6345 8.44737 50.7641 8.5181L56.6654 11.7285C56.5358 11.6578 56.4038 11.5889 56.2698 11.5232Z" fill="#B3B4B4"/>
</g>
</g>
</g>
<g opacity="0.199997">
<path opacity="0.199997" d="M27.9001 81.5703L22 78.3605L22.1283 9.61727L28.0296 12.8264L27.9001 81.5703Z" fill="#A4A5A5"/>
</g>
<g opacity="0.199997">
<path opacity="0.199997" d="M35.4116 18.8767L35.369 41.8836L41.2397 41.0586C46.6346 40.3006 50.4365 38.921 52.6404 36.9237C54.85 34.9194 55.9579 31.9174 55.966 27.9127C55.9742 23.4967 54.957 20.5505 52.9146 19.0682C50.8722 17.5854 46.9989 17.248 41.2822 18.0517L35.4116 18.8767ZM57.2918 63.8263C58.0466 61.9341 58.4272 59.9117 58.4303 57.7516C58.4354 55.2466 57.9884 53.1341 57.0946 51.4147C56.2008 49.6902 54.9001 48.434 53.1869 47.6409C52.1754 47.1283 50.9974 46.8234 49.6648 46.7295C48.3315 46.6357 46.2616 46.7859 43.4486 47.1808L41.2272 47.4932L35.3565 48.3188L35.309 73.3925L41.1808 72.5669C45.2112 72.0004 48.1199 71.4183 49.9057 70.8268C51.6909 70.229 53.1162 69.4341 54.1959 68.4382C55.501 67.2533 56.5313 65.7179 57.2918 63.8263ZM63.1749 45.6523C65.3557 48.3651 66.4467 52.0206 66.4379 56.6274C66.4329 59.3816 65.9616 62.0775 65.0289 64.7083C64.0969 67.3441 62.8 69.6688 61.1469 71.6868C59.343 73.85 57.1246 75.5094 54.4807 76.6599C51.8424 77.816 47.4045 78.8287 41.1671 79.7063L27.9004 81.5703L28.03 12.8264L41.2954 10.9618C45.963 10.3058 49.4075 10.0761 51.6271 10.2833C53.8422 10.4867 55.7513 11.1051 57.3437 12.1316C59.3705 13.4749 60.9416 15.3427 62.0495 17.735C63.163 20.1323 63.7145 22.847 63.7082 25.8828C63.702 29.5145 62.8939 32.6635 61.2796 35.3307C59.6659 37.9978 57.3218 40.0371 54.246 41.4373C58.0103 41.5362 60.9898 42.9408 63.1749 45.6523" fill="#D6D7D7"/>
</g>
<g opacity="0.199997">
<path opacity="0.199997" d="M28.0292 12.8262L22.1279 9.61701L35.3946 7.75172L41.2947 10.9615L28.0292 12.8262Z" fill="#BFC0C0"/>
</g>
</g>
<path d="M47.0042 75.7363L41.1035 72.5272C45.1345 71.9601 48.0426 71.3779 49.8284 70.7864C50.4237 70.5868 50.9783 70.3671 51.4934 70.1236L57.3941 73.3334C56.8783 73.5762 56.3237 73.7972 55.7291 73.9969C53.9433 74.5884 51.0346 75.1705 47.0042 75.7363Z" fill="#2A2D7D"/>
<path d="M57.3938 73.332L51.4932 70.1222C52.0872 69.8418 52.6305 69.532 53.1206 69.1927L59.0213 72.4025C58.5305 72.7424 57.9885 73.0516 57.3938 73.332Z" fill="#2A2C7C"/>
<path d="M59.0218 72.4023L53.1211 69.1926C53.4516 68.9641 53.7583 68.7218 54.0425 68.4665L59.9432 71.6763C59.6596 71.9316 59.3523 72.1739 59.0218 72.4023Z" fill="#292C7B"/>
<path d="M59.9427 71.6758L54.042 68.466C54.0677 68.4428 54.0933 68.4197 54.1184 68.3959C54.4082 68.133 54.6848 67.8532 54.9477 67.5553L60.8484 70.765C60.5855 71.063 60.3095 71.3434 60.0197 71.6063L59.9427 71.6758Z" fill="#292C7B"/>
<path d="M60.8486 70.7637L54.9473 67.5539C55.2246 67.2403 55.4862 66.9079 55.7322 66.5561L61.6335 69.7659C61.3863 70.1183 61.1246 70.4507 60.8486 70.7637Z" fill="#292C7A"/>
<path d="M61.6328 69.7676L55.7314 66.5578C56.0125 66.1572 56.2741 65.7322 56.517 65.2809L62.4177 68.4913C62.1754 68.9413 61.9138 69.367 61.6328 69.7676Z" fill="#292B79"/>
<path d="M62.4183 68.4902L56.5176 65.2798C56.7717 64.8085 57.0039 64.309 57.2149 63.7832L63.1162 66.9924C62.904 67.5194 62.6718 68.0183 62.4183 68.4902Z" fill="#282B79"/>
<path d="M63.1152 66.9922L57.2139 63.783C57.2677 63.6484 57.319 63.5139 57.3691 63.3787L63.2698 66.5878C63.2203 66.723 63.1684 66.8582 63.1152 66.9922Z" fill="#282B79"/>
<path d="M63.2696 66.5859L57.369 63.3761C58.0212 61.601 58.3498 59.7132 58.3536 57.7064C58.3573 55.2014 57.9104 53.0889 57.0166 51.3695C56.2129 49.8184 55.0805 48.6467 53.6152 47.8498L59.5159 51.059C60.9812 51.8564 62.1135 53.0288 62.9172 54.5786C63.8117 56.2981 64.258 58.4106 64.2536 60.9162C64.2499 62.9223 63.9219 64.8114 63.2696 66.5859Z" fill="#282B78"/>
<path d="M60.0696 44.6066L54.1689 41.3968C55.2618 41.4256 56.2896 41.5645 57.2504 41.813L63.1511 45.0234C62.1903 44.7743 61.1631 44.6354 60.0696 44.6066Z" fill="#2A2D7D"/>
<path d="M63.1507 45.0224L57.25 41.812C58.0005 42.0073 58.7109 42.2696 59.3807 42.5982L65.2814 45.8086C64.6116 45.4787 63.9012 45.2171 63.1507 45.0224Z" fill="#2A2C7C"/>
<path d="M65.2812 45.8075L59.3799 42.5971C59.5107 42.6616 59.6403 42.7279 59.7673 42.7974L65.6686 46.0078C65.541 45.9383 65.412 45.8714 65.2812 45.8075Z" fill="#292C7B"/>
<path d="M41.1331 76.5586L35.2324 73.3494L41.1037 72.5244L47.0044 75.7336L41.1331 76.5586Z" fill="#2A2D7F"/>
<path d="M47.0631 44.2266L41.1631 41.0161C44.6758 40.5229 47.5126 39.7662 49.6733 38.7471L55.574 41.9563C53.4132 42.9759 50.5759 43.7327 47.0631 44.2266Z" fill="#2A2D7D"/>
<path d="M55.5735 41.9551L49.6729 38.7459C50.3745 38.4148 51.0048 38.0561 51.5644 37.6693L57.4645 40.8791C56.9055 41.2653 56.2752 41.6252 55.5735 41.9551Z" fill="#2A2C7C"/>
<path d="M57.4635 40.8809L51.5635 37.6711C51.9171 37.427 52.2414 37.1716 52.5381 36.9049L58.4387 40.1147C58.142 40.3807 57.8172 40.6361 57.4635 40.8809Z" fill="#292C7B"/>
<path d="M58.4388 40.1152L52.5381 36.9054C52.5468 36.8979 52.555 36.8904 52.5631 36.8823C52.8085 36.6601 53.0395 36.426 53.2573 36.1794L59.158 39.3892C58.9408 39.6351 58.7092 39.8699 58.4638 40.0927C58.455 40.1002 58.4475 40.1071 58.4388 40.1152Z" fill="#292C7B"/>
<path d="M59.1581 39.3887L53.2568 36.1789C53.4784 35.9285 53.685 35.6656 53.8778 35.3902L59.7791 38.6C59.5863 38.876 59.3791 39.1389 59.1581 39.3887Z" fill="#292C7A"/>
<path d="M59.7802 38.5996L53.8789 35.3898C54.0892 35.0906 54.2826 34.7764 54.4598 34.4472L60.3598 37.6576C60.1833 37.9868 59.9899 38.3004 59.7802 38.5996Z" fill="#292B79"/>
<path d="M60.359 37.6582L54.459 34.4478C54.6856 34.0272 54.8846 33.5821 55.0568 33.1133L60.9574 36.3231C60.7847 36.7925 60.585 37.2376 60.359 37.6582Z" fill="#282B79"/>
<path d="M60.957 36.3223L55.0563 33.1125C55.6071 31.6146 55.8844 29.867 55.8876 27.8703C55.8963 23.4537 54.8792 20.5074 52.8374 19.0258C52.6602 18.8969 52.4693 18.7773 52.2646 18.6659L58.1653 21.8757C58.37 21.9871 58.5609 22.1067 58.7374 22.235C60.7805 23.7178 61.7976 26.6641 61.7889 31.0801C61.7851 33.0762 61.5078 34.8232 60.957 36.3223Z" fill="#282B78"/>
<path d="M41.1913 45.0508L35.29 41.8404L41.1619 41.0154L47.062 44.2258L41.1913 45.0508Z" fill="#2A2D7F"/>
<path d="M47.1194 14.1289L41.2188 10.9185C45.8863 10.2625 49.3302 10.0334 51.5504 10.24C52.3829 10.3163 53.1728 10.4515 53.9183 10.645L59.8196 13.8554C59.0742 13.6613 58.2842 13.5261 57.4511 13.4504C55.2315 13.2426 51.787 13.4723 47.1194 14.1289Z" fill="#2A2D7D"/>
<path d="M59.8203 13.8552L53.9189 10.6447C54.7295 10.8551 55.4875 11.1336 56.193 11.481L62.0943 14.6914C61.3882 14.344 60.6302 14.0655 59.8203 13.8552Z" fill="#2A2C7C"/>
<path d="M62.0937 14.6918L56.1924 11.4814C56.3263 11.5477 56.4584 11.616 56.588 11.6867L62.4887 14.8965C62.3591 14.8258 62.227 14.7575 62.0937 14.6918Z" fill="#292C7B"/>
<path d="M33.7249 84.7402L27.8242 81.5298L27.9525 12.7866L33.8538 15.9964L33.7249 84.7402Z" fill="#282B78"/>
<path d="M41.2342 22.0466L41.1917 45.0535L47.0623 44.2285C52.4572 43.4699 56.2591 42.0909 58.4631 40.0936C60.6726 38.0887 61.7811 35.0874 61.7887 31.0826C61.7974 26.6667 60.7803 23.7204 58.7372 22.2376C56.6954 20.7553 52.8215 20.418 47.1055 21.2217L41.2342 22.0466ZM63.115 66.9956C63.8699 65.104 64.2498 63.081 64.2536 60.9215C64.258 58.4159 63.8117 56.3034 62.9172 54.584C62.0234 52.8595 60.7227 51.6039 59.0095 50.8102C57.9986 50.2982 56.8206 49.9927 55.4874 49.8988C54.1548 49.8056 52.0842 49.9552 49.2718 50.3508L47.0504 50.6625L41.1791 51.4881L41.1322 76.5618L47.0035 75.7362C51.0338 75.1703 53.9426 74.5882 55.7284 73.9967C57.5141 73.3989 58.9388 72.604 60.0185 71.6081C61.3242 70.4232 62.3545 68.8878 63.115 66.9956V66.9956ZM68.9975 48.8222C71.1789 51.535 72.2693 55.1905 72.2605 59.7967C72.2562 62.5509 71.7842 65.2468 70.8522 67.8776C69.9195 70.514 68.6226 72.8387 66.9695 74.8561C65.1662 77.02 62.9473 78.6793 60.3039 79.8292C57.665 80.9853 53.2271 81.998 46.9897 82.8756L33.7236 84.7402L33.8526 15.9964L47.1186 14.1317C51.7862 13.4757 55.2307 13.2454 57.4503 13.4532C59.6655 13.656 61.5746 14.275 63.1663 15.3009C65.1937 16.6442 66.7642 18.5126 67.8727 20.9049C68.9856 23.3023 69.5371 26.0163 69.5315 29.0527C69.5246 32.6838 68.7165 35.8328 67.1028 38.4999C65.4892 41.1671 63.1444 43.2064 60.0692 44.6072C63.833 44.7061 66.813 46.1107 68.9975 48.8222" fill="#2C2F84"/>
<path d="M33.8535 15.9961L27.9521 12.7863L41.2195 10.9216L47.1195 14.1314L33.8535 15.9961Z" fill="#2A2D7F"/>
<path d="M52.8278 78.9961L46.9277 75.7869C50.9588 75.2198 53.8668 74.6377 55.6526 74.0462C56.2473 73.8465 56.8025 73.6268 57.317 73.3833L63.2183 76.5931C62.7019 76.836 62.148 77.0569 61.5527 77.2566C59.7675 77.8481 56.8588 78.4302 52.8278 78.9961Z" fill="#CBCBCB"/>
<path d="M63.2177 76.5918L57.3164 73.382C57.911 73.1016 58.4537 72.7917 58.9438 72.4525L64.8451 75.6623C64.3544 76.0022 63.8117 76.3114 63.2177 76.5918Z" fill="#C8C8C8"/>
<path d="M64.8456 75.6641L58.9443 72.4543C59.2755 72.2258 59.5822 71.9836 59.8663 71.7282L65.767 74.938C65.4828 75.1934 65.1755 75.4356 64.8456 75.6641Z" fill="#C5C5C5"/>
<path d="M65.7669 74.9355L59.8662 71.7258C59.8919 71.7026 59.9175 71.6794 59.9426 71.6557C60.2324 71.3928 60.509 71.113 60.7719 70.815L66.672 74.0248C66.4091 74.3228 66.1331 74.6032 65.8433 74.8661C65.8182 74.8892 65.7926 74.9124 65.7669 74.9355Z" fill="#C2C2C2"/>
<path d="M66.6722 74.0273L60.7715 70.8176C61.0488 70.504 61.3104 70.1716 61.5564 69.8198L67.4571 73.0296C67.2098 73.382 66.9482 73.7144 66.6722 74.0273Z" fill="#BFBFBF"/>
<path d="M67.4573 73.0293L61.5566 69.8195C61.8371 69.4189 62.0987 68.9939 62.3422 68.5426L68.2422 71.753C68 72.2031 67.7384 72.6287 67.4573 73.0293Z" fill="#BCBCBC"/>
<path d="M68.2419 71.752L62.3418 68.5415C62.5953 68.0702 62.8275 67.5707 63.0385 67.0449L68.9398 70.2541C68.7282 70.7811 68.496 71.28 68.2419 71.752Z" fill="#B9B9B9"/>
<path d="M68.9404 70.2559L63.0391 67.0467C63.0929 66.9121 63.1442 66.7775 63.1943 66.6423L69.0956 69.8515C69.0455 69.9867 68.9942 70.1219 68.9404 70.2559Z" fill="#B9B9B9"/>
<path d="M69.0958 69.8516L63.1945 66.6418C63.8474 64.8666 64.1753 62.9788 64.1791 60.9721C64.1835 58.4671 63.7359 56.3545 62.8427 54.6351C62.039 53.084 60.9061 51.9123 59.4414 51.1155L65.3421 54.3246C66.8074 55.1221 67.9391 56.2944 68.7434 57.8443C69.6373 59.5637 70.0842 61.6762 70.0798 64.1818C70.076 66.188 69.7474 68.077 69.0958 69.8516Z" fill="#B6B6B6"/>
<path d="M65.8945 47.8683L59.9932 44.6585C61.0867 44.6873 62.1145 44.8262 63.0753 45.0747L68.9753 48.2852C68.0145 48.036 66.9874 47.8971 65.8945 47.8683Z" fill="#CBCBCB"/>
<path d="M68.9753 48.2861L63.0752 45.0757C63.8257 45.271 64.5361 45.5332 65.2059 45.8618L71.1059 49.0723C70.4368 48.7424 69.7264 48.4808 68.9753 48.2861Z" fill="#C8C8C8"/>
<path d="M71.1058 49.0712L65.2051 45.8608C65.3353 45.9252 65.4648 45.9916 65.5919 46.0611L71.4932 49.2715C71.3662 49.202 71.2366 49.135 71.1058 49.0712Z" fill="#C5C5C5"/>
<path d="M46.958 79.8223L41.0566 76.6131L46.9285 75.7881L52.8286 78.9973L46.958 79.8223Z" fill="#D2D2D2"/>
<path d="M52.888 47.4883L46.9873 44.2779C50.5 43.7846 53.3374 43.0279 55.4975 42.0089L61.3988 45.218C59.2381 46.2377 56.4007 46.9944 52.888 47.4883Z" fill="#CBCBCB"/>
<path d="M61.3984 45.2188L55.4971 42.0096C56.1987 41.6785 56.8297 41.3198 57.3886 40.933L63.2893 44.1428C62.7297 44.529 62.1001 44.8889 61.3984 45.2188Z" fill="#C8C8C8"/>
<path d="M63.2884 44.1406L57.3877 40.9308C57.7413 40.6867 58.0662 40.4313 58.3623 40.1647L64.2636 43.3745C63.9669 43.6405 63.642 43.8959 63.2884 44.1406Z" fill="#C5C5C5"/>
<path d="M64.2636 43.377L58.3623 40.1672C58.3711 40.1597 58.3798 40.1521 58.388 40.144C58.6327 39.9218 58.8637 39.6877 59.0821 39.4411L64.9822 42.6509C64.765 42.8969 64.534 43.1316 64.288 43.3544C64.2799 43.3619 64.2724 43.3688 64.2636 43.377Z" fill="#C2C2C2"/>
<path d="M64.9827 42.6484L59.082 39.4386C59.303 39.1883 59.5102 38.9254 59.703 38.65L65.6036 41.8598C65.4109 42.1358 65.2043 42.3987 64.9827 42.6484Z" fill="#BFBFBF"/>
<path d="M65.6038 41.8594L59.7031 38.6496C59.9128 38.3504 60.1062 38.0362 60.2834 37.7069L66.1841 40.9173C66.0075 41.2466 65.8141 41.5602 65.6038 41.8594Z" fill="#BCBCBC"/>
<path d="M66.1839 40.9199L60.2832 37.7095C60.5098 37.2889 60.7088 36.8438 60.881 36.375L66.7823 39.5848C66.6095 40.0543 66.4098 40.4993 66.1839 40.9199Z" fill="#B9B9B9"/>
<path d="M66.7832 39.584L60.8819 36.3742C61.4333 34.8763 61.7106 33.1287 61.7137 31.132C61.7219 26.7154 60.7053 23.7691 58.6629 22.2875C58.4858 22.1586 58.2949 22.039 58.0908 21.9276L63.9909 25.1374C64.1962 25.2488 64.3871 25.3684 64.5636 25.4967C66.606 26.9795 67.6232 29.9258 67.6144 34.3418C67.6107 36.3379 67.3334 38.0849 66.7832 39.584Z" fill="#B6B6B6"/>
<path d="M47.0159 48.3125L41.1152 45.1021L46.9865 44.2771L52.8872 47.4875L47.0159 48.3125Z" fill="#D2D2D2"/>
<path d="M52.9443 17.3887L47.043 14.1783C51.7106 13.5223 55.1545 13.2932 57.3746 13.4997C58.2078 13.5761 58.9977 13.7113 59.7432 13.9047L65.6439 17.1151C64.8984 16.9211 64.1084 16.7859 63.276 16.7102C61.0558 16.5023 57.6119 16.7321 52.9443 17.3887Z" fill="#CBCBCB"/>
<path d="M65.6438 17.1169L59.7432 13.9065C60.5531 14.1168 61.3111 14.3953 62.0172 14.7427L67.9179 17.9531C67.2124 17.6057 66.4544 17.3272 65.6438 17.1169Z" fill="#C8C8C8"/>
<path d="M67.9183 17.9535L62.0176 14.7431C62.1515 14.8095 62.2836 14.8777 62.4132 14.9484L68.3139 18.1582C68.1837 18.0875 68.0522 18.0192 67.9183 17.9535Z" fill="#C5C5C5"/>
<path d="M39.5497 88L33.6484 84.7896L33.7774 16.0463L39.6781 19.2561L39.5497 88Z" fill="#B4B4B4"/>
<path d="M47.0594 25.3064L47.0162 48.3133L52.8875 47.4883C58.2824 46.7296 62.0837 45.3507 64.2876 43.3533C66.4978 41.3485 67.6057 38.3471 67.6132 34.3424C67.622 29.9264 66.6048 26.9802 64.5624 25.4973C62.52 24.0151 58.6461 23.6777 52.9307 24.4814L47.0594 25.3064ZM68.9396 70.2554C69.6951 68.3638 70.0744 66.3408 70.0788 64.1813C70.0832 61.6757 69.6362 59.5632 68.7424 57.8437C67.848 56.1193 66.5473 54.8637 64.8341 54.07C63.8232 53.558 62.6458 53.2525 61.3126 53.1586C59.98 53.0653 57.9087 53.2149 55.097 53.6105L52.8756 53.9222L47.0037 54.7479L46.9574 79.8215L52.828 78.9959C56.859 78.4301 59.7678 77.848 61.5529 77.2565C63.3393 76.6587 64.7633 75.8638 65.8431 74.8679C67.1488 73.683 68.1791 72.1476 68.9396 70.2554V70.2554ZM74.8227 52.082C77.0035 54.7948 78.0939 58.4503 78.0851 63.0565C78.0807 65.8106 77.6094 68.5065 76.6768 71.1373C75.7447 73.7738 74.4472 76.0985 72.7941 78.1159C70.9908 80.2797 68.7718 81.9391 66.1291 83.0889C63.4896 84.245 59.0517 85.2578 52.8143 86.1353L39.5488 88L39.6771 19.2561L52.9438 17.3915C57.6114 16.7355 61.0553 16.5051 63.2755 16.7129C65.4907 16.9158 67.3992 17.5348 68.9909 18.5607C71.0189 19.904 72.5888 21.7724 73.6979 24.1647C74.8108 26.562 75.3617 29.2761 75.3567 32.3125C75.3492 35.9435 74.5411 39.0926 72.9274 41.7597C71.3138 44.4268 68.969 46.4661 65.8944 47.867C69.6582 47.9659 72.6376 49.3705 74.8227 52.082" fill="#ECECEC"/>
<path d="M39.6771 19.2559L33.7764 16.0461L47.043 14.1814L52.9437 17.3912L39.6771 19.2559Z" fill="#D2D2D2"/>
<path d="M47.0042 75.7363L41.1035 72.5272C45.1345 71.9601 48.0426 71.3779 49.8284 70.7864C50.4237 70.5868 50.9783 70.3671 51.4934 70.1236L57.3941 73.3334C56.8783 73.5762 56.3237 73.7972 55.7291 73.9969C53.9433 74.5884 51.0346 75.1705 47.0042 75.7363Z" fill="#5F2697"/>
<path d="M57.3938 73.332L51.4932 70.1222C52.0872 69.8418 52.6305 69.532 53.1206 69.1927L59.0213 72.4025C58.5305 72.7424 57.9885 73.0516 57.3938 73.332Z" fill="#5F2697"/>
<path d="M59.0218 72.4023L53.1211 69.1926C53.4516 68.9641 53.7583 68.7218 54.0425 68.4665L59.9432 71.6763C59.6596 71.9316 59.3523 72.1739 59.0218 72.4023Z" fill="#5F2697"/>
<path d="M59.9427 71.6758L54.042 68.466C54.0677 68.4428 54.0933 68.4197 54.1184 68.3959C54.4082 68.133 54.6848 67.8532 54.9477 67.5553L60.8484 70.765C60.5855 71.063 60.3095 71.3434 60.0197 71.6063L59.9427 71.6758Z" fill="#5F2697"/>
<path d="M60.8486 70.7637L54.9473 67.5539C55.2246 67.2403 55.4862 66.9079 55.7322 66.5561L61.6335 69.7659C61.3863 70.1183 61.1246 70.4507 60.8486 70.7637Z" fill="#5F2697"/>
<path d="M61.6328 69.7676L55.7314 66.5578C56.0125 66.1572 56.2741 65.7322 56.517 65.2809L62.4177 68.4913C62.1754 68.9413 61.9138 69.367 61.6328 69.7676Z" fill="#5F2697"/>
<path d="M62.4183 68.4902L56.5176 65.2798C56.7717 64.8085 57.0039 64.309 57.2149 63.7832L63.1162 66.9924C62.904 67.5194 62.6718 68.0183 62.4183 68.4902Z" fill="#5F2697"/>
<path d="M63.1152 66.9922L57.2139 63.783C57.2677 63.6484 57.319 63.5139 57.3691 63.3787L63.2698 66.5878C63.2203 66.723 63.1684 66.8582 63.1152 66.9922Z" fill="#5F2697"/>
<path d="M63.2696 66.5859L57.369 63.3761C58.0212 61.601 58.3498 59.7132 58.3536 57.7064C58.3573 55.2014 57.9104 53.0889 57.0166 51.3695C56.2129 49.8184 55.0805 48.6467 53.6152 47.8498L59.5159 51.059C60.9812 51.8564 62.1135 53.0288 62.9172 54.5786C63.8117 56.2981 64.258 58.4106 64.2536 60.9162C64.2499 62.9223 63.9219 64.8114 63.2696 66.5859Z" fill="#5F2697"/>
<path d="M60.0696 44.6066L54.1689 41.3968C55.2618 41.4256 56.2896 41.5645 57.2504 41.813L63.1511 45.0234C62.1903 44.7743 61.1631 44.6354 60.0696 44.6066Z" fill="#5F2697"/>
<path d="M63.1507 45.0224L57.25 41.812C58.0005 42.0073 58.7109 42.2696 59.3807 42.5982L65.2814 45.8086C64.6116 45.4787 63.9012 45.2171 63.1507 45.0224Z" fill="#5F2697"/>
<path d="M65.2812 45.8075L59.3799 42.5971C59.5107 42.6616 59.6403 42.7279 59.7673 42.7974L65.6686 46.0078C65.541 45.9383 65.412 45.8714 65.2812 45.8075Z" fill="#5F2697"/>
<path d="M41.1331 76.5586L35.2324 73.3494L41.1037 72.5244L47.0044 75.7336L41.1331 76.5586Z" fill="#5F2697"/>
<path d="M47.0631 44.2266L41.1631 41.0161C44.6758 40.5229 47.5126 39.7662 49.6733 38.7471L55.574 41.9563C53.4132 42.9759 50.5759 43.7327 47.0631 44.2266Z" fill="#5F2697"/>
<path d="M55.5735 41.9551L49.6729 38.7459C50.3745 38.4148 51.0048 38.0561 51.5644 37.6693L57.4645 40.8791C56.9055 41.2653 56.2752 41.6252 55.5735 41.9551Z" fill="#5F2697"/>
<path d="M56.0911 41.9922L50.1904 38.7824C50.1992 38.7749 50.2073 38.7674 50.2155 38.7592C50.4608 38.537 50.6918 38.3029 50.9096 38.0563L56.8103 41.2661C56.5931 41.5121 56.3615 41.7468 56.1162 41.9697C56.1074 41.9772 56.0999 41.9841 56.0911 41.9922Z" fill="#5F2697"/>
<path d="M57.4635 40.8809L51.5635 37.6711C51.9171 37.427 52.2414 37.1716 52.5381 36.9049L58.4387 40.1147C58.142 40.3807 57.8172 40.6361 57.4635 40.8809Z" fill="#5F2697"/>
<path d="M58.4388 40.1152L52.5381 36.9054C52.5468 36.8979 52.555 36.8904 52.5631 36.8823C52.8085 36.6601 53.0395 36.426 53.2573 36.1794L59.158 39.3892C58.9408 39.6351 58.7092 39.8699 58.4638 40.0927C58.455 40.1002 58.4475 40.1071 58.4388 40.1152Z" fill="#5F2697"/>
<path d="M59.1581 39.3887L53.2568 36.1789C53.4784 35.9285 53.685 35.6656 53.8778 35.3902L59.7791 38.6C59.5863 38.876 59.3791 39.1389 59.1581 39.3887Z" fill="#5F2697"/>
<path d="M59.7802 38.5996L53.8789 35.3898C54.0892 35.0906 54.2826 34.7764 54.4598 34.4472L60.3598 37.6576C60.1833 37.9868 59.9899 38.3004 59.7802 38.5996Z" fill="#5F2697"/>
<path d="M60.359 37.6582L54.459 34.4478C54.6856 34.0272 54.8846 33.5821 55.0568 33.1133L60.9574 36.3231C60.7847 36.7925 60.585 37.2376 60.359 37.6582Z" fill="#5F2697"/>
<path d="M60.957 36.3223L55.0563 33.1125C55.6071 31.6146 55.8844 29.867 55.8876 27.8703C55.8963 23.4537 54.8792 20.5074 52.8374 19.0258C52.6602 18.8969 52.4693 18.7773 52.2646 18.6659L58.1653 21.8757C58.37 21.9871 58.5609 22.1067 58.7374 22.235C60.7805 23.7178 61.7976 26.6641 61.7889 31.0801C61.7851 33.0762 61.5078 34.8232 60.957 36.3223Z" fill="#5F2697"/>
<path d="M41.1913 45.0508L35.29 41.8404L41.1619 41.0154L47.062 44.2258L41.1913 45.0508Z" fill="#5F2697"/>
<path d="M47.1194 14.1289L41.2188 10.9185C45.8863 10.2625 49.3302 10.0334 51.5504 10.24C52.3829 10.3163 53.1728 10.4515 53.9183 10.645L59.8196 13.8554C59.0742 13.6613 58.2842 13.5261 57.4511 13.4504C55.2315 13.2426 51.787 13.4723 47.1194 14.1289Z" fill="#5F2697"/>
<path d="M47.1194 14.1289L41.2188 10.9185C45.8863 10.2625 49.3302 10.0334 51.5504 10.24C52.3829 10.3163 53.1728 10.4515 53.9183 10.645L59.8196 13.8554C59.0742 13.6613 58.2842 13.5261 57.4511 13.4504C55.2315 13.2426 51.787 13.4723 47.1194 14.1289Z" fill="#5F2697"/>
<path d="M59.8203 13.8552L53.9189 10.6447C54.7295 10.8551 55.4875 11.1336 56.193 11.481L62.0943 14.6914C61.3882 14.344 60.6302 14.0655 59.8203 13.8552Z" fill="#5F2697"/>
<path d="M62.0937 14.6918L56.1924 11.4814C56.3263 11.5477 56.4584 11.616 56.588 11.6867L62.4887 14.8965C62.3591 14.8258 62.227 14.7575 62.0937 14.6918Z" fill="#5F2697"/>
<path d="M33.7249 84.7402L27.8242 81.5298L27.9525 12.7866L33.8538 15.9964L33.7249 84.7402Z" fill="#4F1950"/>
<path d="M41.2342 22.0466L41.1917 45.0535L47.0623 44.2285C52.4572 43.4699 56.2591 42.0909 58.4631 40.0936C60.6726 38.0887 61.7811 35.0874 61.7887 31.0826C61.7974 26.6667 60.7803 23.7204 58.7372 22.2376C56.6954 20.7553 52.8215 20.418 47.1055 21.2217L41.2342 22.0466ZM63.115 66.9956C63.8699 65.104 64.2498 63.081 64.2536 60.9215C64.258 58.4159 63.8117 56.3034 62.9172 54.584C62.0234 52.8595 60.7227 51.6039 59.0095 50.8102C57.9986 50.2982 56.8206 49.9927 55.4874 49.8988C54.1548 49.8056 52.0842 49.9552 49.2718 50.3508L47.0504 50.6625L41.1791 51.4881L41.1322 76.5618L47.0035 75.7362C51.0338 75.1703 53.9426 74.5882 55.7284 73.9967C57.5141 73.3989 58.9388 72.604 60.0185 71.6081C61.3242 70.4232 62.3545 68.8878 63.115 66.9956V66.9956ZM68.9975 48.8222C71.1789 51.535 72.2693 55.1905 72.2605 59.7967C72.2562 62.5509 71.7842 65.2468 70.8522 67.8776C69.9195 70.514 68.6226 72.8387 66.9695 74.8561C65.1662 77.02 62.9473 78.6793 60.3039 79.8292C57.665 80.9853 53.2271 81.998 46.9897 82.8756L33.7236 84.7402L33.8526 15.9964L47.1186 14.1317C51.7862 13.4757 55.2307 13.2454 57.4503 13.4532C59.6655 13.656 61.5746 14.275 63.1663 15.3009C65.1937 16.6442 66.7642 18.5126 67.8727 20.9049C68.9856 23.3023 69.5371 26.0163 69.5315 29.0527C69.5246 32.6838 68.7165 35.8328 67.1028 38.4999C65.4892 41.1671 63.1444 43.2064 60.0692 44.6072C63.833 44.7061 66.813 46.1107 68.9975 48.8222" fill="#5F2697"/>
<path d="M33.8535 15.9961L27.9521 12.7863L41.2195 10.9216L47.1195 14.1314L33.8535 15.9961Z" fill="#5F2697"/>
<g opacity="0.699997">
<g opacity="0.699997">
<g opacity="0.699997">
<g opacity="0.699997">
<path opacity="0.699997" d="M52.8278 78.9961L46.9277 75.7869C50.9588 75.2198 53.8668 74.6377 55.6526 74.0462C56.2473 73.8465 56.8025 73.6268 57.317 73.3833L63.2183 76.5931C62.7019 76.836 62.148 77.0569 61.5527 77.2566C59.7675 77.8481 56.8588 78.4302 52.8278 78.9961Z" fill="#CBCBCB"/>
</g>
<g opacity="0.699997">
<path opacity="0.699997" d="M63.2177 76.5918L57.3164 73.382C57.911 73.1016 58.4537 72.7917 58.9438 72.4525L64.8451 75.6623C64.3544 76.0022 63.8117 76.3114 63.2177 76.5918Z" fill="#C8C8C8"/>
</g>
<g opacity="0.699997">
<path opacity="0.699997" d="M64.8456 75.6641L58.9443 72.4543C59.2755 72.2258 59.5822 71.9836 59.8663 71.7282L65.767 74.938C65.4828 75.1934 65.1755 75.4356 64.8456 75.6641Z" fill="#C5C5C5"/>
</g>
<g opacity="0.699997">
<path opacity="0.699997" d="M65.7669 74.9355L59.8662 71.7258C59.8919 71.7026 59.9175 71.6794 59.9426 71.6557C60.2324 71.3928 60.509 71.113 60.7719 70.815L66.672 74.0248C66.4091 74.3228 66.1331 74.6032 65.8433 74.8661C65.8182 74.8892 65.7926 74.9124 65.7669 74.9355Z" fill="#C2C2C2"/>
</g>
<g opacity="0.699997">
<path opacity="0.699997" d="M66.6722 74.0273L60.7715 70.8176C61.0488 70.504 61.3104 70.1716 61.5564 69.8198L67.4571 73.0296C67.2098 73.382 66.9482 73.7144 66.6722 74.0273Z" fill="#BFBFBF"/>
</g>
<g opacity="0.699997">
<path opacity="0.699997" d="M67.4573 73.0293L61.5566 69.8195C61.8371 69.4189 62.0987 68.9939 62.3422 68.5426L68.2422 71.753C68 72.2031 67.7384 72.6287 67.4573 73.0293Z" fill="#BCBCBC"/>
</g>
<g opacity="0.699997">
<path opacity="0.699997" d="M68.2419 71.752L62.3418 68.5415C62.5953 68.0702 62.8275 67.5707 63.0385 67.0449L68.9398 70.2541C68.7282 70.7811 68.496 71.28 68.2419 71.752Z" fill="#B9B9B9"/>
</g>
</g>
</g>
<g opacity="0.699997">
<g opacity="0.699997">
<g opacity="0.699997">
<path opacity="0.699997" d="M68.9404 70.2559L63.0391 67.0467C63.0929 66.9121 63.1442 66.7775 63.1943 66.6423L69.0956 69.8515C69.0455 69.9867 68.9942 70.1219 68.9404 70.2559Z" fill="#B9B9B9"/>
</g>
<g opacity="0.699997">
<path opacity="0.699997" d="M69.0958 69.8516L63.1945 66.6418C63.8474 64.8666 64.1753 62.9788 64.1791 60.9721C64.1835 58.4671 63.7359 56.3545 62.8427 54.6351C62.039 53.084 60.9061 51.9123 59.4414 51.1155L65.3421 54.3246C66.8074 55.1221 67.9391 56.2944 68.7434 57.8443C69.6373 59.5637 70.0842 61.6762 70.0798 64.1818C70.076 66.188 69.7474 68.077 69.0958 69.8516Z" fill="#B6B6B6"/>
</g>
</g>
</g>
<g opacity="0.699997">
<g opacity="0.699997">
<g opacity="0.699997">
<path opacity="0.699997" d="M65.8945 47.8683L59.9932 44.6585C61.0867 44.6873 62.1145 44.8262 63.0753 45.0747L68.9753 48.2852C68.0145 48.036 66.9874 47.8971 65.8945 47.8683Z" fill="#CBCBCB"/>
</g>
<g opacity="0.699997">
<path opacity="0.699997" d="M68.9753 48.2861L63.0752 45.0757C63.8257 45.271 64.5361 45.5332 65.2059 45.8618L71.1059 49.0723C70.4368 48.7424 69.7264 48.4808 68.9753 48.2861Z" fill="#C8C8C8"/>
</g>
<g opacity="0.699997">
<path opacity="0.699997" d="M71.1058 49.0712L65.2051 45.8608C65.3353 45.9252 65.4648 45.9916 65.5919 46.0611L71.4932 49.2715C71.3662 49.202 71.2366 49.135 71.1058 49.0712Z" fill="#C5C5C5"/>
</g>
</g>
</g>
<g opacity="0.699997">
<path opacity="0.699997" d="M46.958 79.8223L41.0566 76.6131L46.9285 75.7881L52.8286 78.9973L46.958 79.8223Z" fill="#D2D2D2"/>
</g>
<g opacity="0.699997">
<g opacity="0.699997">
<g opacity="0.699997">
<path opacity="0.699997" d="M52.888 47.4883L46.9873 44.2779C50.5 43.7846 53.3374 43.0279 55.4975 42.0089L61.3988 45.218C59.2381 46.2377 56.4007 46.9944 52.888 47.4883Z" fill="#CBCBCB"/>
</g>
<g opacity="0.699997">
<path opacity="0.699997" d="M61.3984 45.2188L55.4971 42.0096C56.1987 41.6785 56.8297 41.3198 57.3886 40.933L63.2893 44.1428C62.7297 44.529 62.1001 44.8889 61.3984 45.2188Z" fill="#C8C8C8"/>
</g>
<g opacity="0.699997">
<path opacity="0.699997" d="M63.2884 44.1406L57.3877 40.9308C57.7413 40.6867 58.0662 40.4313 58.3623 40.1647L64.2636 43.3745C63.9669 43.6405 63.642 43.8959 63.2884 44.1406Z" fill="#C5C5C5"/>
</g>
<g opacity="0.699997">
<path opacity="0.699997" d="M64.2636 43.377L58.3623 40.1672C58.3711 40.1597 58.3798 40.1521 58.388 40.144C58.6327 39.9218 58.8637 39.6877 59.0821 39.4411L64.9822 42.6509C64.765 42.8969 64.534 43.1316 64.288 43.3544C64.2799 43.3619 64.2724 43.3688 64.2636 43.377Z" fill="#C2C2C2"/>
</g>
<g opacity="0.699997">
<path opacity="0.699997" d="M64.9827 42.6484L59.082 39.4386C59.303 39.1883 59.5102 38.9254 59.703 38.65L65.6036 41.8598C65.4109 42.1358 65.2043 42.3987 64.9827 42.6484Z" fill="#BFBFBF"/>
</g>
<g opacity="0.699997">
<path opacity="0.699997" d="M65.6038 41.8594L59.7031 38.6496C59.9128 38.3504 60.1062 38.0362 60.2834 37.7069L66.1841 40.9173C66.0075 41.2466 65.8141 41.5602 65.6038 41.8594Z" fill="#BCBCBC"/>
</g>
<g opacity="0.699997">
<path opacity="0.699997" d="M66.1839 40.9199L60.2832 37.7095C60.5098 37.2889 60.7088 36.8438 60.881 36.375L66.7823 39.5848C66.6095 40.0543 66.4098 40.4993 66.1839 40.9199Z" fill="#B9B9B9"/>
</g>
<g opacity="0.699997">
<path opacity="0.699997" d="M66.7832 39.584L60.8819 36.3742C61.4333 34.8763 61.7106 33.1287 61.7137 31.132C61.7219 26.7154 60.7053 23.7691 58.6629 22.2875C58.4858 22.1586 58.2949 22.039 58.0908 21.9276L63.9909 25.1374C64.1962 25.2488 64.3871 25.3684 64.5636 25.4967C66.606 26.9795 67.6232 29.9258 67.6144 34.3418C67.6107 36.3379 67.3334 38.0849 66.7832 39.584Z" fill="#B6B6B6"/>
</g>
</g>
</g>
<g opacity="0.699997">
<path opacity="0.699997" d="M47.0159 48.3125L41.1152 45.1021L46.9865 44.2771L52.8872 47.4875L47.0159 48.3125Z" fill="#D2D2D2"/>
</g>
<g opacity="0.699997">
<g opacity="0.699997">
<g opacity="0.699997">
<path opacity="0.699997" d="M52.9443 17.3887L47.043 14.1783C51.7106 13.5223 55.1545 13.2932 57.3746 13.4997C58.2078 13.5761 58.9977 13.7113 59.7432 13.9047L65.6439 17.1151C64.8984 16.9211 64.1084 16.7859 63.276 16.7102C61.0558 16.5023 57.6119 16.7321 52.9443 17.3887Z" fill="#CBCBCB"/>
</g>
<g opacity="0.699997">
<path opacity="0.699997" d="M65.6438 17.1169L59.7432 13.9065C60.5531 14.1168 61.3111 14.3953 62.0172 14.7427L67.9179 17.9531C67.2124 17.6057 66.4544 17.3272 65.6438 17.1169Z" fill="#C8C8C8"/>
</g>
<g opacity="0.699997">
<path opacity="0.699997" d="M67.9183 17.9535L62.0176 14.7431C62.1515 14.8095 62.2836 14.8777 62.4132 14.9484L68.3139 18.1582C68.1837 18.0875 68.0522 18.0192 67.9183 17.9535Z" fill="#C5C5C5"/>
</g>
</g>
</g>
<g opacity="0.699997">
<path opacity="0.699997" d="M39.5497 88L33.6484 84.7896L33.7774 16.0463L39.6781 19.2561L39.5497 88Z" fill="#B4B4B4"/>
</g>
<g opacity="0.699997">
<path opacity="0.699997" d="M47.0594 25.3064L47.0162 48.3133L52.8875 47.4883C58.2824 46.7296 62.0837 45.3507 64.2876 43.3533C66.4978 41.3485 67.6057 38.3471 67.6132 34.3424C67.622 29.9264 66.6048 26.9802 64.5624 25.4973C62.52 24.0151 58.6461 23.6777 52.9307 24.4814L47.0594 25.3064ZM68.9396 70.2554C69.6951 68.3638 70.0744 66.3408 70.0788 64.1813C70.0832 61.6757 69.6362 59.5632 68.7424 57.8437C67.848 56.1193 66.5473 54.8637 64.8341 54.07C63.8232 53.558 62.6458 53.2525 61.3126 53.1586C59.98 53.0653 57.9087 53.2149 55.097 53.6105L52.8756 53.9222L47.0037 54.7479L46.9574 79.8215L52.828 78.9959C56.859 78.4301 59.7678 77.848 61.5529 77.2565C63.3393 76.6587 64.7633 75.8638 65.8431 74.8679C67.1488 73.683 68.1791 72.1476 68.9396 70.2554V70.2554ZM74.8227 52.082C77.0035 54.7948 78.0939 58.4503 78.0851 63.0565C78.0807 65.8106 77.6094 68.5065 76.6768 71.1373C75.7447 73.7738 74.4472 76.0985 72.7941 78.1159C70.9908 80.2797 68.7718 81.9391 66.1291 83.0889C63.4896 84.245 59.0517 85.2578 52.8143 86.1353L39.5488 88L39.6771 19.2561L52.9438 17.3915C57.6114 16.7355 61.0553 16.5051 63.2755 16.7129C65.4907 16.9158 67.3992 17.5348 68.9909 18.5607C71.0189 19.904 72.5888 21.7724 73.6979 24.1647C74.8108 26.562 75.3617 29.2761 75.3567 32.3125C75.3492 35.9435 74.5411 39.0926 72.9274 41.7597C71.3138 44.4268 68.969 46.4661 65.8944 47.867C69.6582 47.9659 72.6376 49.3705 74.8227 52.082" fill="#ECECEC"/>
</g>
<g opacity="0.699997">
<path opacity="0.699997" d="M39.6771 19.2559L33.7764 16.0461L47.043 14.1814L52.9437 17.3912L39.6771 19.2559Z" fill="#D2D2D2"/>
</g>
</g>
</svg>
