<svg width="323" height="307" viewBox="0 0 323 307" fill="none" xmlns="http://www.w3.org/2000/svg">
<path fill-rule="evenodd" clip-rule="evenodd" d="M28.6376 244.56L168.24 34.3973C163.822 30.8996 161 25.5695 161 19.5986C161 9.06369 169.786 0.523438 180.623 0.523438C191.461 0.523438 200.246 9.06369 200.246 19.5986C200.246 26.6844 196.272 32.8678 190.372 36.1572L295.35 269.666C297.591 268.8 300.035 268.324 302.594 268.324C313.431 268.324 322.217 276.864 322.217 287.399C322.217 297.934 313.431 306.475 302.594 306.475C292.15 306.475 283.613 298.544 283.005 288.541L39.066 265.187C37.3362 274.003 29.3642 280.667 19.791 280.667C8.95351 280.667 0.167969 272.127 0.167969 261.592C0.167969 251.057 8.95351 242.517 19.791 242.517C22.9737 242.517 25.9794 243.253 28.6376 244.56ZM180.623 38.6738C181.4 38.6738 182.166 38.63 182.919 38.5446L213.597 178.432C205.835 180.975 200.246 188.109 200.246 196.512C200.246 198.341 200.511 200.111 201.006 201.786L37.6904 253.763C36.3766 250.929 34.3715 248.463 31.884 246.568L171.447 36.4644C174.186 37.8749 177.308 38.6738 180.623 38.6738ZM202.431 205.268L38.9173 257.308C39.2328 258.644 39.4038 260.035 39.4136 261.462L283.152 284.796C283.648 281.262 285.14 278.036 287.344 275.394L230.557 212.512C227.482 214.457 223.811 215.587 219.869 215.587C212.279 215.587 205.695 211.398 202.431 205.268ZM233.565 210.173L290.055 272.726C290.649 272.245 291.274 271.798 291.925 271.387L186.862 37.6896C186.801 37.7095 186.74 37.729 186.679 37.7483L217.347 177.593C218.173 177.49 219.014 177.437 219.869 177.437C230.707 177.437 239.492 185.977 239.492 196.512C239.492 201.868 237.221 206.708 233.565 210.173Z" fill="#597EF7"/>
</svg>
