<svg width="202" height="202" viewBox="0 0 202 202" fill="none" xmlns="http://www.w3.org/2000/svg">
<g clip-path="url(#clip0)">
<path d="M154.178 162.524L119.54 51.6045L82.9524 51.3243L46.6203 161.698C45.6048 164.788 47.8891 167.972 51.1407 167.997L149.562 168.751C152.813 168.776 155.147 165.627 154.178 162.524Z" fill="#C94250"/>
<path d="M89.4245 200.677C84.2702 200.638 80.1214 196.426 80.1609 191.27L80.7449 115.011C80.7844 109.855 84.9972 105.708 90.1515 105.747C95.3073 105.787 99.456 109.998 99.4166 115.154L98.8326 191.413C98.7931 196.569 94.5803 200.717 89.4245 200.677Z" fill="#FFB69E"/>
<path d="M127.904 200.975C123.594 200.942 119.744 197.909 118.841 193.517L103.147 117.132C102.11 112.083 105.363 107.147 110.413 106.11C115.462 105.073 120.398 108.326 121.437 113.375L137.129 189.759C138.168 194.809 134.915 199.743 129.864 200.782C129.206 200.917 128.55 200.979 127.904 200.975Z" fill="#FFB69E"/>
<path d="M150.392 74.221C151.881 72.6225 152.63 70.4706 152.455 68.2933C152.279 66.1145 151.194 64.1102 149.468 62.771C143.37 58.0428 121.784 41.2876 121.203 40.8544C119.886 39.8723 118.304 39.1262 116.735 39.0913C85.424 38.3953 86.6046 38.8606 86.4764 38.8596C78.9403 38.8019 71.9818 44.0252 69.9295 51.5827L54.2384 109.37C53.1126 113.516 55.561 117.791 59.7075 118.917C60.3699 119.097 61.036 119.185 61.6906 119.19C65.139 119.216 68.3075 116.932 69.2528 113.448L80.7373 71.153L70.885 128.263C70.6355 129.557 70.9518 130.897 71.7466 131.921C72.5414 132.945 73.7331 133.548 74.995 133.557L127.092 133.956C128.355 133.966 129.557 133.385 130.368 132.373C131.18 131.36 131.513 130.023 131.284 128.726L126.411 97.6464C128.022 97.3658 129.56 96.5825 130.76 95.2947L150.392 74.221ZM120.507 59.9963L133.204 69.8458L123.659 80.091L120.507 59.9963Z" fill="#FF6473"/>
<path d="M117.712 17.3675C117.782 8.26746 110.775 0.835966 102.063 0.769246C93.3502 0.702526 86.2306 8.02585 86.1609 17.1259C86.0912 26.226 93.0978 33.6575 101.81 33.7242C110.523 33.7909 117.642 26.4676 117.712 17.3675Z" fill="#FFB69E"/>
<path d="M125.436 92.6031L77.101 92.2329L75.9642 98.8147L126.655 99.2029L125.436 92.6031Z" fill="#FFDA52"/>
<path d="M110.661 95.7862C110.693 91.6207 106.555 88.2121 101.419 88.1728C96.2831 88.1335 92.0933 91.4782 92.0614 95.6438C92.0295 99.8093 96.1676 103.218 101.304 103.257C106.44 103.297 110.629 99.9517 110.661 95.7862Z" fill="#FFDA52"/>
<path d="M54.2388 109.371C53.113 113.518 55.5614 117.792 59.7079 118.918C60.3703 119.097 61.0364 119.186 61.691 119.191C65.1394 119.217 68.3079 116.931 69.2532 113.449L54.2388 109.371Z" fill="#FFB69E"/>
<path d="M119.376 84.6895C116.446 87.8318 116.621 92.7543 119.764 95.6837C121.248 97.0654 123.127 97.7573 125.005 97.7717C127.109 97.7878 129.212 96.9555 130.759 95.2949L119.376 84.6895Z" fill="#FFB69E"/>
</g>
<defs>
<clipPath id="clip0">
<rect width="200" height="200" fill="white" transform="translate(1.53125) rotate(0.43876)"/>
</clipPath>
</defs>
</svg>
