<?xml version="1.0" encoding="iso-8859-1"?>
<!-- Generator: Adobe Illustrator 16.0.0, SVG Export Plug-In . SVG Version: 6.00 Build 0)  -->
<!DOCTYPE svg PUBLIC "-//W3C//DTD SVG 1.1//EN" "http://www.w3.org/Graphics/SVG/1.1/DTD/svg11.dtd">
<svg version="1.1" id="Capa_1" xmlns="http://www.w3.org/2000/svg" xmlns:xlink="http://www.w3.org/1999/xlink" x="0px" y="0px"
	 width="490px" height="490px" viewBox="0 0 490 490" style="enable-background:new 0 0 490 490;" xml:space="preserve">
<g>
	<path d="M5.594,0v490h478.812V0H5.594z M91.731,439.5H35.25v-56.482h56.482V439.5z M91.731,271.691H35.25V215.21h56.482V271.691z
		 M91.731,103.884H35.25V47.401h56.482V103.884z M365.449,442.314H124.55V270.365h240.899V442.314L365.449,442.314z
		 M365.449,219.635H124.55V47.686h240.899V219.635L365.449,219.635z M454.75,439.5h-56.482v-56.482h56.482V439.5z M454.75,271.691
		h-56.482V215.21h56.482V271.691z M454.75,103.884h-56.482V47.401h56.482V103.884z"/>
</g>
<g>
</g>
<g>
</g>
<g>
</g>
<g>
</g>
<g>
</g>
<g>
</g>
<g>
</g>
<g>
</g>
<g>
</g>
<g>
</g>
<g>
</g>
<g>
</g>
<g>
</g>
<g>
</g>
<g>
</g>
</svg>
