<svg width="203" height="202" viewBox="0 0 203 202" fill="none" xmlns="http://www.w3.org/2000/svg">
<g clip-path="url(#clip0)">
<path d="M154.764 199.711L129.811 182.52C126.886 180.505 125.528 176.878 126.411 173.436C127.295 169.993 130.231 167.468 133.767 167.111L182.2 162.211C186.857 161.74 191.013 165.134 191.484 169.79C191.955 174.448 188.563 178.603 183.907 179.075L158.426 181.651L164.38 185.754C168.234 188.41 169.206 193.686 166.552 197.54C163.902 201.385 158.629 202.373 154.764 199.711Z" fill="#414B82"/>
<path d="M191.632 201.455C191.627 201.455 191.624 201.455 191.619 201.455L148.375 201.062C144.618 201.027 141.334 198.526 140.302 194.915C139.273 191.303 140.741 187.443 143.914 185.432L178.514 163.488C182.467 160.983 187.703 162.155 190.21 166.106C192.716 170.059 191.544 175.295 187.592 177.802L177.227 184.376L191.774 184.507C196.453 184.549 200.213 188.379 200.169 193.059C200.128 197.734 196.305 201.49 191.632 201.455Z" fill="#5F6E9B"/>
<path d="M171.371 175.556L191.169 168.2L175.81 119.752C175.217 117.877 174.158 116.164 172.668 114.883C169.898 112.503 166.16 111.794 162.797 112.869L145.334 118.458C139.917 120.193 136.932 125.988 138.666 131.405L149.37 164.856C152.31 174.044 162.329 178.916 171.371 175.556Z" fill="#64AFFF"/>
<path d="M132.201 143.007L110.248 126.222C107.273 123.947 106.706 119.693 108.979 116.718C111.253 113.743 115.509 113.176 118.483 115.451L136.592 129.295L156.359 116.134C159.474 114.059 163.684 114.904 165.758 118.021C167.834 121.137 166.988 125.345 163.873 127.42L140.076 143.264C137.679 144.862 134.515 144.775 132.201 143.007Z" fill="#4393E8"/>
<path d="M160.77 97.0957C160.706 105.514 153.829 112.287 145.409 112.222C136.991 112.158 130.218 105.28 130.283 96.8622C130.347 88.4442 137.224 81.6714 145.642 81.7359C154.062 81.8003 160.835 88.6777 160.77 97.0957Z" fill="#FFB69E"/>
<path d="M133.01 138.016L120.938 106.576C119.596 103.081 121.341 99.1605 124.837 97.8185C128.332 96.4765 132.254 98.2217 133.596 101.717L142.634 125.257L156.364 116.134C159.482 114.063 163.69 114.91 165.763 118.03C167.834 121.148 166.986 125.356 163.868 127.427L143.09 141.233C139.492 143.623 134.571 142.082 133.01 138.016Z" fill="#4699F2"/>
<path d="M118.483 115.451C115.508 113.176 111.254 113.743 108.979 116.718C106.706 119.693 107.273 123.947 110.248 126.222L118.483 115.451Z" fill="#FFB69E"/>
<path d="M133.596 101.717C132.254 98.2217 128.332 96.4765 124.837 97.8185C121.341 99.1605 119.596 103.081 120.938 106.576L133.596 101.717Z" fill="#FFB69E"/>
<path d="M25.4913 170.36C21.3532 169.13 18.9954 164.779 20.2249 160.641L30.9008 124.707L32.2384 97.6982C32.453 93.386 36.1224 90.0556 40.4329 90.2778C44.7436 90.4924 48.0664 94.1602 47.8533 98.4724L46.4689 126.42C46.4382 127.044 46.3328 127.661 46.1542 128.259L35.2105 165.094C33.9872 169.21 29.6506 171.596 25.4913 170.36Z" fill="#748488"/>
<path d="M60.5259 150.747C56.4738 149.26 54.3932 144.77 55.88 140.716L64.7399 116.56L47.3939 95.3436C44.6606 92.0007 45.1561 87.0773 48.4975 84.344C51.8388 81.6123 56.7637 82.1063 59.497 85.4476L79.6655 110.118C81.4146 112.257 81.9035 115.161 80.9528 117.757L70.5563 146.101C69.0758 150.139 64.5933 152.238 60.5259 150.747Z" fill="#55696E"/>
<path d="M70.0002 98.3126L31.2684 98.016L31.6706 45.4907C31.7139 39.8375 36.3326 35.289 41.9858 35.3323L60.2424 35.4721C65.8957 35.5154 70.4442 40.1341 70.4009 45.7873L69.9986 98.3126L70.0002 98.3126Z" fill="#FA503C"/>
<path d="M55.3479 74.5922L44.4062 47.7956C43.0177 44.399 44.6481 40.5203 48.0448 39.1333C51.4414 37.7464 55.32 39.3752 56.707 42.7719L64.8597 62.7354L80.9573 54.0892C84.1888 52.3546 88.2171 53.5665 89.9532 56.7995C91.6894 60.0325 90.4775 64.0608 87.2445 65.7969L64.6426 77.935C61.166 79.802 56.8367 78.2399 55.3479 74.5922Z" fill="#E83E29"/>
<path d="M89.9536 56.7984C88.2174 53.5669 84.1891 52.3535 80.9576 54.0896L87.2448 65.7958C90.4778 64.0597 91.6897 60.0314 89.9536 56.7984Z" fill="#80391B"/>
<path d="M5.45643 155.576L38.7669 155.831C41.3044 155.85 43.377 153.809 43.3964 151.271L44.2841 35.3508L39.7447 35.3161C35.4999 35.2836 31.7791 38.1452 30.7207 42.254L2.51626 151.752C2.0193 153.68 3.46521 155.56 5.45643 155.576Z" fill="#414B82"/>
<path d="M66.8923 15.6484C66.8282 24.0191 59.9909 30.7526 51.6217 30.6885C43.251 30.6244 36.5191 23.787 36.5832 15.4163C36.6473 7.0471 43.4831 0.313669 51.8538 0.377772C60.223 0.441863 66.9564 7.27921 66.8923 15.6484Z" fill="#80391B"/>
</g>
<defs>
<clipPath id="clip0">
<rect width="200" height="200" fill="white" transform="translate(2.41309) rotate(0.43876)"/>
</clipPath>
</defs>
</svg>
