<svg width="202" height="202" viewBox="0 0 202 202" fill="none" xmlns="http://www.w3.org/2000/svg">
<g clip-path="url(#clip0)">
<path d="M54.4923 186.241C50.0491 186.207 46.3511 182.71 46.1261 178.215L42.7184 110.502C42.484 105.841 46.0729 101.872 50.7333 101.638C55.3922 101.403 59.3642 104.991 59.5986 109.653L63.0047 177.366C63.2391 182.028 59.6503 185.995 54.9898 186.23C54.8234 186.239 54.6571 186.242 54.4923 186.241Z" fill="#55696E"/>
<path d="M26.9122 186.074C26.7474 186.073 26.5827 186.067 26.4164 186.055C21.7586 185.75 18.231 181.726 18.5367 177.07L22.981 109.417C23.2867 104.761 27.3132 101.233 31.9664 101.539C36.6243 101.844 40.1504 105.868 39.8446 110.524L35.4019 178.179C35.1065 182.669 31.3554 186.108 26.9122 186.074Z" fill="#748488"/>
<path d="M80.7348 90.2127C82.5043 88.1022 82.8809 85.1555 81.7005 82.6699L67.0965 51.9022C65.9387 49.4625 63.4894 47.9011 60.7886 47.8804L23.0486 47.5914C20.3479 47.5707 17.8749 49.0945 16.6784 51.5161L1.60642 82.0565C0.388134 84.5253 0.719553 87.4759 2.45647 89.6133L22.6127 114.285L22.6066 115.073L59.9057 115.359L59.9099 114.813L80.7348 90.2127ZM16.2355 84.2377L22.9485 70.6382L22.7826 92.2959L16.2355 84.2377ZM60.0774 92.9324L60.2506 70.3226L67.0397 84.6267L60.0774 92.9324Z" fill="#FA503C"/>
<path d="M18.6484 109.433L22.6138 114.285L22.6859 104.87L18.6484 109.433Z" fill="#BA6746"/>
<path d="M59.2998 104.746L59.9094 114.813L64.1701 109.781L59.2998 104.746Z" fill="#BA6746"/>
<path d="M56.2072 28.5977C56.1475 36.3932 49.7806 42.6633 41.9867 42.6036C34.1912 42.5439 27.9211 36.177 27.9808 28.3815C28.0405 20.5876 34.4073 14.316 42.2028 14.3757C49.9968 14.4353 56.2669 20.8037 56.2072 28.5977Z" fill="#BA6746"/>
<path d="M40.216 79.8923L33.0222 72.5891C32.191 71.745 32.2014 70.3855 33.0455 69.5542L40.3502 62.3605C41.1943 61.5292 42.5538 61.5396 43.3851 62.3837L50.5773 69.6884C51.4086 70.5325 51.3982 71.8921 50.5541 72.7233L43.2509 79.9155C42.4052 80.7483 41.0472 80.7379 40.216 79.8923Z" fill="white"/>
<path d="M107.639 186.502C105.528 186.486 103.421 185.67 101.809 184.057C98.5581 180.8 98.5634 175.527 101.819 172.277L117.841 156.28C121.097 153.03 126.372 153.034 129.623 156.291C132.873 159.548 132.869 164.821 129.612 168.071L113.589 184.068C111.947 185.708 109.791 186.519 107.639 186.502Z" fill="#414B82"/>
<path d="M107.64 186.505C103.04 186.469 99.3377 182.712 99.3729 178.111L99.5837 150.591C99.6189 145.991 103.378 142.29 107.979 142.326C112.579 142.361 116.279 146.118 116.244 150.719L116.034 178.239C115.998 182.839 112.241 186.54 107.64 186.505Z" fill="#5F6E9B"/>
<path d="M138.444 186.741C137.538 186.734 136.618 186.577 135.715 186.256C131.38 184.712 129.118 179.948 130.66 175.614L138.174 154.505L126.69 152.354C122.167 151.508 119.188 147.154 120.035 142.634C120.881 138.111 125.234 135.132 129.755 135.979L150.827 139.924C153.221 140.373 155.3 141.848 156.515 143.96C157.729 146.073 157.958 148.611 157.141 150.906L146.356 181.201C145.135 184.633 141.893 186.766 138.444 186.741Z" fill="#414B82"/>
<path d="M195.986 112.127L161.734 102.326C161.393 102.227 161.043 102.159 160.691 102.118C152.086 101.153 143.159 99.9895 138.964 99.4309C137.31 99.2107 135.646 99.0942 133.978 99.0815L107.889 98.9351C100.209 98.8915 93.5759 104.3 92.0732 111.833L85.6814 143.876C85.6322 144.118 85.5968 144.364 85.5766 144.611L82.6961 179.619C82.4066 183.145 85.0289 186.24 88.5561 186.529C88.7178 186.543 88.8779 186.55 89.0381 186.551C92.3599 186.577 95.1886 184.035 95.4661 180.669L98.3163 146.033L99.6679 139.301L99.56 153.399L118.99 153.547C128.566 153.621 136.389 145.917 136.462 136.341L136.646 112.3L158.723 114.791L192.462 124.445C195.856 125.417 199.408 123.457 200.383 120.048C201.357 116.647 199.388 113.101 195.986 112.127Z" fill="#64AFFF"/>
<path d="M82.6959 179.617C82.4049 183.143 85.0287 186.238 88.5544 186.527C88.7176 186.541 88.8777 186.548 89.038 186.549C92.3597 186.575 95.1884 184.033 95.4659 180.667L82.6959 179.617Z" fill="#FFAC91"/>
<path d="M195.986 112.126L192.461 124.445C195.855 125.417 199.407 123.458 200.382 120.049C201.356 116.646 199.387 113.1 195.986 112.126Z" fill="#FFAC91"/>
<path d="M132.81 91.1856C132.749 99.1306 126.257 105.523 118.312 105.462C110.367 105.402 103.974 98.9102 104.035 90.9652C104.096 83.0187 110.588 76.6275 118.533 76.6883C126.478 76.7491 132.87 83.239 132.81 91.1856Z" fill="#FFAC91"/>
<path d="M126.07 123.671C126.034 128.338 122.223 132.092 117.555 132.056C112.887 132.02 109.134 128.209 109.17 123.541C109.205 118.874 113.017 115.119 117.684 115.155C122.352 115.19 126.106 119.003 126.07 123.671Z" fill="white"/>
</g>
<defs>
<clipPath id="clip0">
<rect width="200" height="200" fill="white" transform="translate(1.53125) rotate(0.43876)"/>
</clipPath>
</defs>
</svg>
