<?xml version="1.0" encoding="iso-8859-1"?>
<!-- Generator: Adobe Illustrator 19.0.0, SVG Export Plug-In . SVG Version: 6.00 Build 0)  -->
<svg version="1.1" id="Layer_1" xmlns="http://www.w3.org/2000/svg" xmlns:xlink="http://www.w3.org/1999/xlink" x="0px" y="0px"
	 viewBox="0 0 511.996 511.996" style="enable-background:new 0 0 511.996 511.996;" xml:space="preserve">
<polygon style="fill:#8765B8;" points="409.938,503.854 102.056,503.854 102.056,434.372 130.889,365.915 251.719,338.113 
	375.758,361.257 409.938,434.372 "/>
<rect x="206.525" y="338.117" style="fill:#F2CC7B;" width="98.934" height="165.738"/>
<g>
	<rect x="235.729" y="338.117" style="fill:#FFF7E6;" width="40.532" height="165.738"/>
	<path style="fill:#FFF7E6;" d="M350.08,314.651H161.913c-33.058,0-59.858,26.8-59.858,59.858v59.863
		c21.287-35.41,82.164-60.972,153.941-60.972s132.654,25.562,153.941,60.972v-59.863C409.938,341.45,383.138,314.651,350.08,314.651
		z"/>
</g>
<path style="fill:#A07DD2;" d="M126.973,413.705c3.478-7.51,5.432-15.869,5.432-24.689l0,0c0-32.489-26.338-58.826-58.826-58.826
	l0,0c-32.489,0-58.826,26.338-58.826,58.826l0,0c0,8.82,1.954,17.179,5.432,24.689l51.482,11.377L126.973,413.705z"/>
<rect x="43.829" y="425.085" style="fill:#74579E;" width="59.501" height="78.771"/>
<path style="fill:#F2CC7B;" d="M20.187,413.705c9.334,20.152,29.724,34.137,53.393,34.137l0,0c23.669,0,44.06-13.986,53.393-34.137
	H20.187z"/>
<path style="fill:#A07DD2;" d="M385.02,413.705c-3.478-7.51-5.432-15.869-5.432-24.689l0,0c0-32.489,26.338-58.826,58.826-58.826
	l0,0c32.489,0,58.826,26.338,58.826,58.826l0,0c0,8.82-1.954,17.179-5.432,24.689l-51.482,11.377L385.02,413.705z"/>
<rect x="408.665" y="425.085" style="fill:#74579E;" width="59.501" height="78.771"/>
<path style="fill:#F2CC7B;" d="M491.807,413.705c-9.333,20.152-29.724,34.137-53.393,34.137l0,0
	c-23.669,0-44.06-13.986-53.393-34.137H491.807z"/>
<g>
	<path style="fill:#5A4146;" d="M93.96,200.74v-30.559c0-89.347,72.69-162.036,162.037-162.036s162.036,72.69,162.036,162.036
		v30.559H93.96z"/>
	<path style="fill:#5A4146;" d="M418.034,217.294c1.565,52.384,24.019,67.775,24.019,67.775s-130.508,41.281-183.946,26.311h-4.223
		c-53.437,14.97-183.946-26.311-183.946-26.311s22.457-15.391,24.021-67.775H418.034z"/>
</g>
<g>
	<path style="fill:#F2B09D;" d="M394.649,156.676h-27.356v91.258l0,0c31.659,0,57.323-25.664,57.323-57.323v-3.969
		C424.614,170.092,411.198,156.676,394.649,156.676z"/>
	<path style="fill:#F2B09D;" d="M117.345,156.676h27.356v91.258l0,0c-31.659,0-57.323-25.664-57.323-57.323v-3.969
		C87.379,170.092,100.795,156.676,117.345,156.676z"/>
</g>
<path style="fill:#FFBBA8;" d="M126.039,170.183v61.117c0,71.774,58.184,129.958,129.958,129.958l0,0
	c71.774,0,129.958-58.184,129.958-129.958v-61.117c0-71.774-58.184-129.958-129.958-129.958l0,0
	C184.222,40.225,126.039,98.409,126.039,170.183z"/>
<path style="fill:#5A4146;" d="M259.08,235.818c48.592,64.465,94.971,5.346,94.971,5.346
	c-59.595,15.682-52.325-24.237-94.971-24.237s-35.377,39.921-94.971,24.237C164.108,241.164,210.486,300.283,259.08,235.818z"/>
<path style="fill:#E18CAF;" d="M259.08,183.779c-11.619,0-21.038,9.419-21.038,21.038v9.964c0,11.618,9.419,21.038,21.038,21.038
	s21.038-9.419,21.038-21.038v-9.964C280.117,193.198,270.698,183.779,259.08,183.779z"/>
<path d="M287.485,157.778c2.081,0,4.158-0.818,5.708-2.44c3.435-3.595,11.919-7.793,24.532-7.793c12.55,0,21.032,4.172,24.485,7.744
	c3.029,3.134,8.026,3.221,11.159,0.192c3.135-3.029,3.221-8.025,0.193-11.16c-7.6-7.865-20.996-12.561-35.836-12.561
	c-14.927,0-28.364,4.738-35.945,12.675c-3.011,3.152-2.897,8.149,0.255,11.159C283.563,157.053,285.525,157.778,287.485,157.778z"/>
<path d="M169.784,155.289c3.452-3.573,11.936-7.744,24.486-7.744c12.611,0,21.096,4.198,24.531,7.793
	c1.55,1.623,3.626,2.44,5.708,2.44c1.96,0,3.922-0.725,5.451-2.186c3.152-3.011,3.267-8.008,0.255-11.159
	c-7.581-7.937-21.018-12.675-35.944-12.675c-14.841,0-28.237,4.696-35.838,12.561c-3.029,3.135-2.943,8.132,0.193,11.16
	C161.757,158.51,166.754,158.422,169.784,155.289z"/>
<circle cx="317.688" cy="178.114" r="12.222"/>
<circle cx="194.307" cy="178.114" r="12.222"/>
<path d="M291.575,286.72c-7.262-6.134-19.41-9.798-32.495-9.798c-13.086,0-25.235,3.662-32.497,9.8
	c-3.329,2.813-3.749,7.793-0.935,11.123c1.561,1.848,3.79,2.798,6.032,2.798c1.797,0,3.608-0.611,5.089-1.864
	c10.4-8.786,34.13-8.86,44.617,0c3.331,2.814,8.31,2.392,11.123-0.937C295.325,294.513,294.905,289.533,291.575,286.72z"/>
<path d="M230.149,214.528c0,0.536,0.017,1.066,0.046,1.594c-4.546,2.611-8.379,5.595-12.11,8.515
	c-8.592,6.723-15.378,12.033-29.513,12.034c-6.439,0-13.785-1.109-22.458-3.392c-3.281-0.865-6.743,0.465-8.604,3.298
	c-1.863,2.833-1.707,6.539,0.386,9.207c0.89,1.134,22.143,27.779,52.511,27.779c17.373,0,33.713-8.573,48.669-25.507
	c14.958,16.936,31.297,25.507,48.67,25.507c30.373,0,51.622-26.646,52.511-27.781c2.092-2.668,2.248-6.374,0.385-9.207
	c-1.864-2.833-5.33-4.163-8.604-3.297c-8.552,2.25-16.108,3.392-22.458,3.392c-14.138,0-20.922-5.31-29.512-12.033
	c-3.731-2.919-7.563-5.904-12.11-8.515c0.028-0.528,0.046-1.06,0.046-1.595v-9.964c0-15.952-12.978-28.93-28.931-28.93
	c-15.952,0-28.93,12.978-28.93,28.93v9.964H230.149z M210.41,257.777c-7.342,0-14.129-2.273-19.951-5.348
	c18.371-0.506,28.437-8.383,37.355-15.36c2.587-2.025,5.093-3.985,7.747-5.726c2.519,3.514,5.802,6.445,9.608,8.541
	C233.971,251.768,222.314,257.777,210.41,257.777z M290.344,237.069c8.928,6.987,19.011,14.876,37.433,15.363
	c-5.822,3.074-12.627,5.346-20.028,5.346c-11.904,0-23.562-6.01-34.76-17.892c3.807-2.096,7.089-5.027,9.609-8.542
	C285.251,233.083,287.758,235.044,290.344,237.069z M245.935,204.563c0-7.248,5.898-13.144,13.144-13.144
	c7.249,0,13.145,5.896,13.145,13.144c0,0,0,9.96,0,9.964c0,7.006-6.114,13.144-13.145,13.144c-7.048,0-13.144-6.094-13.144-13.144
	L245.935,204.563L245.935,204.563z"/>
<path d="M505.132,388.763c0-13.121-3.818-25.829-11.04-36.752c-2.404-3.636-7.3-4.635-10.937-2.23
	c-3.636,2.404-4.635,7.301-2.23,10.937c5.509,8.333,8.422,18.03,8.422,28.045c0,5.783-0.955,11.413-2.844,16.796h-96.181
	c-0.167-0.476-0.318-0.956-0.469-1.435c-0.017-0.059-0.022-0.12-0.041-0.179c-3.304-10.556-3.064-22.13,0.715-32.529
	c0.055-0.153,0.115-0.303,0.172-0.455c7.236-19.33,25.892-33.131,47.716-33.131c7.617,0,14.95,1.646,21.795,4.891
	c3.94,1.867,8.646,0.192,10.513-3.75c1.868-3.938,0.189-8.645-3.75-10.513c-8.975-4.257-18.583-6.415-28.559-6.415
	c-12.947,0-25.037,3.719-35.28,10.128c-7.687-9.658-17.874-17.008-29.315-21.315c38.347-8.359,70.27-18.407,70.614-18.517
	c2.919-0.923,5.143-3.384,5.546-6.421c0.4-3.015-0.868-5.924-3.412-7.581c-0.506-0.393-5.025-4.041-9.661-12.74
	c-4.479-8.406-9.927-23.311-10.899-46.825c4.186-8.659,6.501-18.322,6.501-28.416v-3.969c0-7.955-2.472-15.34-6.679-21.441
	c-1.266-43.853-19.143-84.932-50.532-115.915C343.263,17.414,300.895,0,255.996,0S168.73,17.414,136.697,49.033
	c-31.389,30.984-49.267,72.062-50.532,115.916c-4.207,6.1-6.678,13.485-6.678,21.439v3.968c0,10.093,2.314,19.755,6.499,28.414
	c-0.971,23.515-6.419,38.42-10.898,46.827c-4.635,8.7-9.154,12.348-9.661,12.74c-2.544,1.658-3.812,4.566-3.412,7.581
	c0.403,3.036,2.626,5.498,5.546,6.421c0.344,0.109,32.267,10.158,70.614,18.517c-11.441,4.306-21.628,11.657-29.315,21.314
	c-10.243-6.408-22.331-10.128-35.279-10.128c-36.789,0-66.718,29.93-66.718,66.718c0,9.755,2.074,19.178,6.163,28.006
	c5.143,11.104,13.159,20.349,22.911,27.019v59.812c0,4.36,3.533,7.893,7.893,7.893h56.74c0.861,0.322,1.789,0.506,2.761,0.506
	h305.334c0.973,0,1.902-0.184,2.762-0.506h56.739c4.36,0,7.893-3.533,7.893-7.893v-59.812c9.752-6.67,17.769-15.915,22.917-27.029
	C503.059,407.931,505.132,398.512,505.132,388.763z M400.77,496.214h-87.414V387.423c23.939,5.115,45.367,13.435,62.301,24.458
	c0.671,1.875,1.408,3.682,2.202,5.394c5.091,10.991,12.962,20.273,22.912,27.072L400.77,496.214L400.77,496.214z M243.624,381.811
	c4.095-0.174,8.22-0.265,12.373-0.265s8.279,0.092,12.374,0.265v113.896h-24.747V381.811z M297.57,384.571v111.136h-13.415V382.921
	C288.685,383.366,293.161,383.916,297.57,384.571z M390.811,342.017c-8.226,8.36-14.023,18.644-16.944,29.851
	c-0.026,0.1-0.056,0.198-0.082,0.297c-0.807,3.132-1.379,6.325-1.719,9.541c-0.102,0.969-1.193,8.66-0.34,9.108
	c-21.763-11.433-48.383-19.362-77.264-23.106c-1.649-0.214-3.301-0.408-4.954-0.597c-2.414-0.276-4.838-0.516-7.259-0.726
	c0.121-0.023,0.241-0.054,0.363-0.078c8.384-1.647,16.623-4.082,24.553-7.265c19.499-7.795,37.16-20.015,51.506-36.029
	C371.325,325.138,382.826,331.964,390.811,342.017z M396.713,164.645c13.457,2.288,20.009,12.476,20.009,25.713
	c0,8.254-2.05,16.12-5.712,23.068c-4.008,7.571-10.002,13.988-17.166,18.582c0.002-0.321,0.004-0.642,0.004-0.962v-61.117
	c0-1.7-0.042-3.39-0.103-5.075c-0.006-0.179-0.004-0.358-0.011-0.539C393.734,164.182,395.1,164.37,396.713,164.645z
	 M378.868,293.555c0.364-0.083,1.292-2.674,1.488-3.088c5.901-12.423,10.079-25.899,12.059-39.6c0.017-0.117,0.04-0.232,0.057-0.348
	c0.028-0.012,0.056-0.025,0.085-0.038c4.729-1.982,9.23-4.522,13.36-7.563c0.66-0.486,6.208-4.056,6.059-5.027
	c3.255,21.12,10.071,34.741,15.857,42.942C416.824,284.023,399.109,288.908,378.868,293.555z M147.786,60.268
	c29.06-28.686,67.49-44.483,108.21-44.483s79.151,15.797,108.21,44.482c25.093,24.769,40.675,56.644,44.811,91.079
	c-0.135-1.01-6.019-1.889-6.765-2.038c-0.808-0.162-10.088-0.952-10.061-0.778c-4.838-30.998-20.148-59.439-43.589-80.713
	c-16.723-15.175-36.695-25.859-58.185-31.388c-0.047-0.013-0.095-0.023-0.143-0.035c-11.187-2.872-22.73-4.316-34.279-4.316
	c-34.363,0-67.282,12.719-92.691,35.814c-2.821,2.566-3.357,6.708-1.483,9.864c0.268,0.451,0.585,0.883,0.952,1.287
	c2.933,3.224,7.924,3.464,11.15,0.531c22.497-20.45,51.644-31.711,82.072-31.711c33.53,0,66.03,14.15,88.964,38.571
	c38.246,40.726,33.101,92.945,33.101,144.611c0,65.789-55.69,122.065-122.065,122.065c-9.35,0-18.725-1.051-27.826-3.207
	c-53.913-12.774-94.239-63.453-94.239-118.858v-61.117c0-24.014,7.206-47.869,20.569-67.827c0.909-1.359,1.342-2.897,1.335-4.417
	c-0.011-2.534-1.238-5.018-3.502-6.533c-3.62-2.425-8.524-1.455-10.949,2.167c-11.072,16.535-18.498,35.55-21.58,55.212
	c-5.789,0-11.432,0.605-16.83,2.818C107.11,116.911,122.693,85.036,147.786,60.268z M100.992,213.44
	c-3.668-6.951-5.721-14.824-5.721-23.083v-3.969c0-5.312,1.887-10.191,5.025-14.004c0.022-0.027,0.046-0.054,0.068-0.081
	c0.888-1.068,1.871-2.053,2.942-2.938c0.003-0.002,0.005-0.004,0.008-0.006c2.157-1.781,4.659-3.156,7.387-4.019
	c0.052-0.017,0.104-0.034,0.156-0.049c0.631-0.195,1.277-0.36,1.93-0.498c0.086-0.018,0.174-0.035,0.261-0.052
	c0.646-0.128,1.302-0.23,1.967-0.301c0.076-0.008,0.152-0.012,0.227-0.019c0.692-0.065,1.391-0.106,2.101-0.106h0.915
	c-0.002,0.063-0.001,0.126-0.004,0.188c-0.071,1.804-0.111,3.612-0.111,5.425v61.117c0,0.321,0.001,0.641,0.004,0.962
	C110.99,227.416,105.001,221.004,100.992,213.44z M84.213,280.848c1.313-1.856,2.678-3.99,4.039-6.425
	c5.705-10.208,9.647-22.433,11.788-36.509c-0.175,1.15,6.787,5.563,7.773,6.237c3.649,2.494,7.551,4.628,11.629,6.333
	c0.026,0.012,0.053,0.024,0.079,0.035c0.013,0.086,0.029,0.173,0.042,0.259c2.142,14.762,6.759,29.4,13.561,42.775
	C112.929,288.918,95.229,284.038,84.213,280.848z M153.319,323.015c14.345,16.012,32.003,28.231,51.501,36.026
	c7.94,3.184,16.174,5.622,24.569,7.269c0.119,0.023,0.236,0.053,0.354,0.076c-2.043-0.395-5.239,0.514-7.307,0.744
	c-21.017,2.338-41.888,6.945-61.67,14.485c-7.003,2.669-13.865,5.714-20.499,9.2c0.709-0.373-0.149-6.933-0.219-7.731
	c-1.343-15.397-8.018-30.041-18.867-41.066C129.166,331.965,140.669,325.138,153.319,323.015z M73.58,337.83
	c18.783,0,36.405,10.724,45.127,27.346c6.217,11.85,7.466,26.007,3.473,38.769c-0.018,0.058-0.023,0.118-0.04,0.176
	c-0.153,0.48-0.303,0.961-0.47,1.438H25.49c-1.888-5.381-2.842-11.011-2.842-16.796C22.646,360.679,45.495,337.83,73.58,337.83z
	 M112.703,421.344c-7.017,8.395-16.602,14.346-27.246,16.92c-3.878,0.938-7.885,1.431-11.877,1.431
	c-4.008,0-7.982-0.489-11.876-1.431c-10.645-2.574-20.23-8.525-27.247-16.921h78.246V421.344z M51.721,451.804
	c0.06,2.607,20.557,3.678,21.859,3.678c7.407,0,14.858-1.253,21.857-3.68v43.906H51.721
	C51.721,495.707,51.721,451.802,51.721,451.804z M111.222,444.346c9.949-6.797,17.821-16.078,22.913-27.073
	c0.792-1.713,1.528-3.518,2.198-5.391c16.935-11.024,38.362-19.345,62.303-24.459v43.086c0,4.36,3.533,7.893,7.893,7.893
	c4.36,0,7.893-3.533,7.893-7.893V384.57c4.409-0.656,8.885-1.205,13.415-1.65v112.786h-13.415v-33.77
	c0-4.36-3.533-7.893-7.893-7.893c-4.36,0-7.893,3.533-7.893,7.893v34.276h-87.414V444.346z M460.271,451.801v43.906h-43.715
	c0,0,0-43.906,0-43.904c0.021,2.681,20.365,3.679,21.858,3.679C445.818,455.481,453.274,454.227,460.271,451.801z M450.288,438.255
	c-3.886,0.943-7.892,1.442-11.875,1.442c-13.084,0-26.015-5.294-35.421-14.374c-0.569-0.549-3.094-3.978-3.703-3.978
	c0,0,78.243,0,78.247,0c-0.527,0-2.672,2.959-3.151,3.436C467.855,431.28,459.349,436.054,450.288,438.255z"/>
<g>
</g>
<g>
</g>
<g>
</g>
<g>
</g>
<g>
</g>
<g>
</g>
<g>
</g>
<g>
</g>
<g>
</g>
<g>
</g>
<g>
</g>
<g>
</g>
<g>
</g>
<g>
</g>
<g>
</g>
</svg>
