<?xml version="1.0" encoding="iso-8859-1"?>
<!-- Generator: Adobe Illustrator 19.0.0, SVG Export Plug-In . SVG Version: 6.00 Build 0)  -->
<svg version="1.1" id="Layer_1" xmlns="http://www.w3.org/2000/svg" xmlns:xlink="http://www.w3.org/1999/xlink" x="0px" y="0px"
	 viewBox="0 0 512 512" style="enable-background:new 0 0 512 512;" xml:space="preserve">
<g>
	<polygon style="fill:#735359;" points="409.883,37.064 339.935,99.519 360.948,208.744 409.883,208.744 	"/>
	<polygon style="fill:#735359;" points="140.363,68.501 102.117,99.519 102.117,208.744 151.052,208.744 151.052,99.519 	"/>
</g>
<g>
	<path style="fill:#FF6465;" d="M161.474,426.409l-28.486-77.729l-0.009,0.018c-37.485,0.379-67.76,30.871-67.76,68.447v86.977
		h67.769l0,0l0,0L161.474,426.409z"/>
	<path style="fill:#FF6465;" d="M379.023,348.698l-0.009-0.018l-28.486,77.729l28.486,77.711v-0.001v0.001h67.769v-86.977
		C446.782,379.569,416.508,349.078,379.023,348.698z"/>
</g>
<g>
	<polygon style="fill:#73B0FF;" points="157.535,348.68 157.535,348.68 157.535,348.68 132.987,348.68 132.987,504.12 
		219.926,504.12 227.534,420.219 	"/>
	<polygon style="fill:#73B0FF;" points="354.465,348.68 354.465,348.68 284.466,420.219 292.074,504.12 292.074,504.12 
		379.013,504.12 379.013,348.68 	"/>
</g>
<polygon style="fill:#FFFFFF;" points="219.926,504.12 292.074,504.12 354.465,348.68 157.535,348.68 "/>
<g>
	<path style="fill:#E6A795;" d="M386.744,176.745h-25.796v86.052l0,0c29.853,0,54.053-24.2,54.053-54.053v-3.742
		C415,189.396,402.35,176.745,386.744,176.745z"/>
	<path style="fill:#E6A795;" d="M125.256,176.745h25.796v86.052l0,0c-29.853,0-54.053-24.2-54.053-54.053v-3.742
		C97,189.396,109.651,176.745,125.256,176.745z"/>
</g>
<path style="opacity:0.1;enable-background:new    ;" d="M364.651,348.68h-10.186h-196.93h-10.186
	c27.176,29.052,65.826,47.243,108.651,47.243S337.475,377.732,364.651,348.68z"/>
<path style="fill:#FFBBA8;" d="M133.459,99.519c-0.002,0.313-0.003,147.593-0.003,147.593c0,67.68,54.865,122.546,122.546,122.546
	l0,0c67.68,0,122.546-54.865,122.546-122.546c0,0-0.001-168.292-0.003-168.605L133.459,99.519z"/>
<path style="fill:#E6A795;" d="M295.957,276.351c-7.615,4.487-21.359,7.483-37.051,7.483c-15.689,0-29.432-2.995-37.047-7.482
	v88.479c10.838,3.138,22.292,4.826,34.141,4.826l0,0c13.991,0,27.432-2.35,39.957-6.668V276.351z"/>
<path style="fill:#2B2B33;" d="M221.859,308.549c7.615,4.486,21.358,7.482,37.047,7.482c15.691,0,29.436-2.995,37.051-7.483v-32.197
	c-7.615,4.487-21.359,7.483-37.051,7.483c-15.689,0-29.432-2.995-37.047-7.482L221.859,308.549L221.859,308.549z"/>
<g>
	<path style="fill:#CC5051;" d="M202.071,392.538c2.471,22.883,42.937-9.468,42.937-9.468v-15.378c0,0-40.466-32.351-42.937-9.468
		V392.538z"/>
	<path style="fill:#CC5051;" d="M309.929,392.538c-2.471,22.883-42.937-9.468-42.937-9.468v-15.378c0,0,40.466-32.351,42.937-9.468
		V392.538z"/>
</g>
<path style="fill:#FF6465;" d="M261.259,357.894h-10.518c-9.657,0-17.486,7.828-17.486,17.486l0,0
	c0,9.657,7.828,17.486,17.486,17.486h10.518c9.657,0,17.486-7.828,17.486-17.486l0,0
	C278.745,365.724,270.917,357.894,261.259,357.894z"/>
<path style="fill:#E18CAF;" d="M256,198.447c-11.849,0-21.454,9.605-21.454,21.454v10.161c0,11.849,9.605,21.454,21.454,21.454
	c11.849,0,21.454-9.605,21.454-21.454v-10.161C277.454,208.052,267.849,198.447,256,198.447z"/>
<g>
	<circle style="fill:#FF6465;" cx="178.754" cy="260.367" r="22.294"/>
	<circle style="fill:#FF6465;" cx="333.239" cy="260.367" r="22.294"/>
</g>
<path style="fill:#8C656D;" d="M431.347,7.88H193.756c-50.611,0-91.639,41.028-91.639,91.639l0,0h237.591
	C390.319,99.519,431.347,58.491,431.347,7.88L431.347,7.88z"/>
<path style="fill:#A3767F;" d="M193.756,7.88c-27.606,0-52.359,12.208-69.16,31.519h301.187c3.6-9.828,5.564-20.444,5.564-31.519
	l0,0H193.756z"/>
<path d="M314.208,153.051c-14.192,0-26.982,4.519-34.212,12.086c-3.006,3.147-2.892,8.135,0.254,11.141
	c1.527,1.458,3.485,2.182,5.442,2.182c2.077,0,4.151-0.816,5.699-2.436c3.179-3.327,11.062-7.214,22.817-7.214
	c11.697,0,19.579,3.862,22.773,7.168c3.024,3.13,8.012,3.215,11.141,0.192c3.13-3.024,3.216-8.012,0.192-11.142
	C341.069,157.529,328.319,153.051,314.208,153.051z"/>
<path d="M197.793,153.051c-14.11,0-26.859,4.478-34.108,11.978c-3.024,3.13-2.939,8.118,0.191,11.142s8.118,2.938,11.142-0.191
	c3.196-3.307,11.078-7.17,22.775-7.17c11.754,0,19.635,3.886,22.816,7.214c1.549,1.62,3.622,2.436,5.699,2.436
	c1.956,0,3.917-0.724,5.442-2.182c3.147-3.006,3.261-7.994,0.254-11.141C224.774,157.569,211.985,153.051,197.793,153.051z"/>
<circle cx="314.17" cy="197.193" r="11.525"/>
<circle cx="197.834" cy="197.193" r="11.525"/>
<path d="M256.001,190.568c-16.176,0-29.335,13.159-29.335,29.334v10.161c0,16.174,13.159,29.334,29.335,29.334
	c16.176,0,29.334-13.159,29.334-29.334v-10.161C285.334,203.727,272.176,190.568,256.001,190.568z M269.574,230.063
	c0,7.485-6.089,13.574-13.574,13.574c-7.486,0-13.575-6.089-13.575-13.574v-10.161c0-7.486,6.089-13.574,13.575-13.574
	c7.485,0,13.574,6.089,13.574,13.574V230.063z"/>
<path d="M178.759,230.193c-16.637,0-30.171,13.534-30.171,30.17c0,16.637,13.534,30.171,30.171,30.171S208.93,277,208.93,260.363
	C208.93,243.728,195.395,230.193,178.759,230.193z M178.759,274.775c-7.946,0-14.412-6.465-14.412-14.412
	c0-7.946,6.465-14.41,14.412-14.41s14.411,6.465,14.411,14.41C193.17,268.31,186.706,274.775,178.759,274.775z"/>
<path d="M333.242,290.534c16.636,0,30.17-13.534,30.17-30.171c0-16.636-13.534-30.17-30.17-30.17
	c-16.637,0-30.171,13.534-30.171,30.17C303.071,277,316.606,290.534,333.242,290.534z M333.242,245.953
	c7.946,0,14.41,6.465,14.41,14.41s-6.465,14.412-14.41,14.412c-7.946,0-14.411-6.465-14.411-14.411
	C318.831,252.417,325.297,245.953,333.242,245.953z"/>
<path d="M378.318,340.629h-23.852h-6.906c7.159-6.958,13.545-14.737,18.991-23.233c10.124-15.794,16.65-33.482,19.256-51.939
	c22.367-9.795,37.074-31.989,37.074-56.713v-3.743c0-6.763-1.871-13.095-5.118-18.513V69.545
	c13.432-16.967,21.464-38.395,21.464-61.666c0-4.352-3.527-7.88-7.88-7.88h-77.242c-4.353,0-7.88,3.528-7.88,7.88
	s3.527,7.88,7.88,7.88c0,0,68.986,0,68.995,0c1.398,0-6.411,25.029-7.472,27.289c-13.591,28.938-43.612,48.591-75.921,48.591
	H202.763c-4.353,0-7.88,3.528-7.88,7.88s3.527,7.88,7.88,7.88h136.945h0.673c0.428,0,0.853-0.02,1.28-0.025
	c0.277-0.005,0.554-0.008,0.831-0.016c9.907-0.204,19.566-1.822,28.846-4.867l0.001,58.317v15.936l0.001,70.367
	c0,21.797-6.287,43.425-18.054,61.779c-8.425,13.141-19.38,24.356-32.162,33.052c-0.027,0.018-0.058,0.03-0.086,0.049
	c-2.54,1.727-5.148,3.34-7.795,4.849c-0.057-0.06-0.115-0.112-0.171-0.17c-2.42-2.472-5.807-4.054-9.234-4.44v-65.879
	c0-2.827-1.515-5.439-3.97-6.842c-2.454-1.402-5.474-1.384-7.909,0.054c-6.589,3.882-19.561,6.391-33.05,6.391
	c-13.486,0-26.459-2.509-33.049-6.39c-2.435-1.437-5.455-1.455-7.909-0.053c-2.454,1.404-3.969,4.013-3.969,6.842v66.02
	c-3.238-0.41-6.596-0.306-9.684,0.833c-0.517,0.19-5.191,3.08-5.065,3.153c-35.482-20.489-57.222-57.871-57.222-99.248
	c0-1.264,0.001-109.38,0.002-139.712h29.235c4.353,0,7.88-3.528,7.88-7.88c0-4.352-3.527-7.88-7.88-7.88h-37.114h-0.672h-23.094
	c3.981-42.503,39.861-75.881,83.388-75.881h128.829c4.353,0,7.88-3.528,7.88-7.88S326.939,0,322.586,0H193.756
	c-54.874,0-99.52,44.644-99.519,99.539v86.947c-3.246,5.419-5.119,11.751-5.119,18.515v3.743c0,25.355,15.31,47.871,38.512,57.326
	c2.629,17.991,8.982,35.248,18.767,50.701c5.528,8.731,12.044,16.727,19.382,23.858h-8.246h-23.851
	c-42.096,0-76.344,34.248-76.344,76.344v86.975c0,4.353,3.527,7.88,7.88,7.88h66.137c0.526,0.111,1.073,0.171,1.632,0.171
	c0.559,0,1.105-0.06,1.632-0.171h85.306h72.151h85.307c0.526,0.111,1.073,0.171,1.632,0.171c0.559,0,1.105-0.06,1.632-0.171h66.136
	c4.353,0,7.88-3.527,7.88-7.88v-86.975C454.662,374.878,420.414,340.629,378.318,340.629z M389.606,93.957
	c4.329-2.518,8.493-5.356,12.398-8.492c0,0,0,86.785-0.023,86.781c-1.285-0.232-2.414-1.017-3.631-1.458
	c-0.926-0.336-11.249-2.56-11.254-1.919c0.005-0.734,0.002-1.472,0.002-2.207l-0.001-71.262
	C387.941,94.936,388.772,94.441,389.606,93.957z M407.121,208.745c0,15.453-7.705,29.579-20.024,38.047v-1.25l-0.001-60.905
	c0.07,0.001,0.14,0.004,0.21,0.006c10.849,0.297,19.815,9.51,19.815,20.36L407.121,208.745L407.121,208.745z M125.578,107.399
	c-0.001,6.467-0.001,18.102-0.001,38.967l-0.001,22.499h-0.319c-5.234,0-10.458,1.168-15.206,3.366
	c-0.017,0.008-0.036,0.015-0.053,0.023v-64.855C109.998,107.399,125.578,107.399,125.578,107.399z M125.575,247.112
	c0,0.053,0,0.105,0,0.157c-12.722-8.392-20.695-22.72-20.695-38.523c0,0,0-3.741,0-3.743c0-10.943,9.35-20.377,20.378-20.377h0.319
	L125.575,247.112z M210.011,358.407c0.038-0.194,0.076-0.351,0.111-0.473c0.143-0.009,0.326-0.013,0.555-0.001
	c0.078,0.003,0.155,0.004,0.233,0.005c1.731,0.128,4.362,0.876,7.841,2.448c0.631,0.286,1.267,0.586,1.902,0.901
	c0.07,0.035,0.143,0.071,0.213,0.107c2.275,1.137,4.538,2.43,6.66,3.731c-1.411,3.187-2.153,6.662-2.153,10.256
	c0,3.545,0.724,6.971,2.097,10.122c-0.074,0.045-0.15,0.094-0.224,0.138c-2.696,1.64-5.463,3.18-8.336,4.491
	c-2.614,1.194-5.595,2.541-8.526,2.541c-0.103,0-0.194-0.002-0.272-0.007c-0.019-0.066-0.04-0.15-0.06-0.236
	c-0.007-0.032-0.015-0.055-0.022-0.089c-0.028-0.132-0.057-0.285-0.083-0.461v-33.168c0.013-0.083,0.026-0.145,0.039-0.219
	C209.995,358.463,210.005,358.435,210.011,358.407z M302.023,392.202c-0.018,0.107-0.036,0.219-0.056,0.308
	c-0.414,1.913-11.352-3.398-12.187-3.836c-0.059-0.032-0.119-0.062-0.178-0.094c-1.744-0.921-3.448-1.912-5.13-2.942
	c0.166,0.102,1.783-5.872,1.866-6.426c0.707-4.752,0.081-9.688-1.864-14.085c2.877-1.761,5.825-3.41,8.904-4.791
	c2.525-1.133,5.383-2.447,8.212-2.42c0.071,0.001,0.145,0,0.207,0.004c0.021,0.001,0.047,0.001,0.066,0.002
	c0.054,0.182,0.115,0.44,0.168,0.791c0.003,0.02,0.009,0.039,0.013,0.06c0.003,0.02,0.001,0.039,0.005,0.059v33.219
	C302.042,392.108,302.032,392.149,302.023,392.202z M262.241,365.829c8.951,0.994,11.56,13.371,3.694,17.772
	c-4.154,2.325-10.606,1.213-15.194,1.213c-5.15,0-9.606-4.247-9.606-9.435c0-5.102,4.427-9.606,9.606-9.606c0,0,10.495,0,10.518,0
	C261.588,365.774,261.916,365.793,262.241,365.829z M258.906,291.713c10.685,0,20.853-1.329,29.171-3.708v15.598
	c-7.13,2.813-17.966,4.548-29.171,4.548c-11.204,0-22.039-1.735-29.169-4.547v-15.599
	C238.055,290.385,248.222,291.713,258.906,291.713z M229.738,320.194c8.32,2.381,18.48,3.717,29.169,3.717s20.85-1.336,29.171-3.718
	v25.258c-0.034,0.015-0.067,0.03-0.101,0.045c-2.494,1.061-5.137,2.377-7.924,3.942c-1.95,1.095-3.963,2.301-6.054,3.641
	c-3.674-1.999-7.804-3.064-12.067-3.064h-0.673c0,0-10.517,0-10.518,0c-4.197,0-8.384,1.056-12.073,3.062
	c-3.137-2.01-6.112-3.734-8.93-5.19V320.194z M140.868,356.389h11.339l56.065,139.68h-67.404L140.868,356.389L140.868,356.389z
	 M73.098,416.974c0-30.496,22.652-55.787,52.01-59.967v139.063h-52.01V416.974z M225.253,496.069l-56.065-139.68h15.855
	c2.955,1.917,6.015,3.728,9.148,5.413v30.565v0.171c0,0.284,0.016,0.565,0.045,0.847c1.015,9.388,7.203,15.219,16.153,15.219
	c7.098,0,16.477-3.742,27.924-11.124c3.676,2.075,7.914,3.266,12.428,3.266h10.518c4.512,0,8.751-1.19,12.427-3.265
	c0.028,0.018,0.056,0.035,0.084,0.054c4.96,3.19,10.192,6.238,15.749,8.387c4.753,1.839,10.108,3.368,15.241,2.502
	c1.402-0.236,2.723-0.691,4.012-1.278c5.398-2.457,9.039-8.709,9.039-14.606c0,0,0-30.209,0-30.21
	c0.011-0.779,3.448-2.115,4.034-2.416c0.728-0.375,1.473-0.725,2.187-1.126c0.873-0.491,2.876-2.396,3.824-2.396h14.957
	l-29.538,73.592c-1.621,4.04,0.338,8.627,4.377,10.248c4.039,1.624,8.628-0.337,10.248-4.377l31.895-79.463h11.341v139.68h-67.405
	l12.743-31.749c1.621-4.04-0.338-8.627-4.377-10.248c-4.035-1.621-8.627,0.338-10.248,4.377l-15.1,37.62h-61.497V496.069z
	 M438.902,496.069h-52.009V357.007c29.359,4.179,52.009,29.471,52.009,59.967V496.069z"/>
<g>
</g>
<g>
</g>
<g>
</g>
<g>
</g>
<g>
</g>
<g>
</g>
<g>
</g>
<g>
</g>
<g>
</g>
<g>
</g>
<g>
</g>
<g>
</g>
<g>
</g>
<g>
</g>
<g>
</g>
</svg>
