<svg width="202" height="202" viewBox="0 0 202 202" fill="none" xmlns="http://www.w3.org/2000/svg">
<g clip-path="url(#clip0)">
<path d="M148.42 172.229L122.798 39.0985C118.059 39.0622 84.2526 38.8034 79.5133 38.7671L51.8559 171.489C51.3822 173.759 53.1054 175.895 55.4247 175.913L144.784 176.597C147.103 176.615 148.859 174.507 148.42 172.229Z" fill="#FA503C"/>
<path d="M117.868 17.3534C117.798 26.4444 110.372 33.7577 101.281 33.6881C92.1899 33.6185 84.8766 26.1922 84.9462 17.1013C85.0158 8.0104 92.442 0.697062 101.533 0.76668C110.624 0.836298 117.937 8.26252 117.868 17.3534Z" fill="#FFB69E"/>
<path d="M111.419 200.847C106.157 200.807 101.921 196.508 101.962 191.243L102.545 115.062C102.585 109.797 106.886 105.564 112.149 105.604C117.413 105.645 121.648 109.943 121.607 115.208L121.024 191.389C120.984 196.652 116.683 200.887 111.419 200.847Z" fill="#414B82"/>
<path d="M122.56 39.0977C117.723 39.0607 84.7556 38.8082 79.9202 38.7712C69.4469 38.691 60.8197 47.0144 60.6888 57.3256L60.6885 57.3653L60.2417 115.715C60.2081 120.102 63.7361 123.684 68.1228 123.718C72.5096 123.751 76.0935 120.223 76.1271 115.836L76.5738 57.5159C76.5991 56.0039 78.1339 54.6424 79.7986 54.6551L79.9985 54.6566L79.5372 114.886L121.608 115.208L122.069 54.9788L122.438 54.9816C124.103 54.9944 125.616 56.3793 125.619 57.8915L125.172 116.212C125.138 120.599 128.668 124.181 133.055 124.215C137.44 124.248 141.024 120.72 141.057 116.334L141.504 57.9842C141.504 57.9704 141.505 57.9582 141.505 57.9445C141.532 47.6325 133.033 39.1779 122.56 39.0977Z" fill="#FFB69E"/>
<path d="M88.4129 200.671C83.1487 200.631 78.9137 196.332 78.954 191.068L79.5374 114.886C79.5777 109.622 83.8781 105.388 89.1422 105.428C94.4048 105.469 98.6399 109.768 98.5996 115.032L98.0162 191.214C97.9759 196.476 93.677 200.711 88.4129 200.671Z" fill="#5F6E9B"/>
<path d="M76.1304 115.417L76.5738 57.5159C76.5991 56.0039 78.1339 54.6424 79.7986 54.6551L79.9985 54.6566L79.5372 114.886L121.608 115.208L122.069 54.9788L122.438 54.9816C124.103 54.9944 125.616 56.3793 125.619 57.8915L125.175 115.792L141.061 115.914L141.505 57.9445C141.532 47.6325 133.033 39.1779 122.56 39.0977L79.9202 38.7712C69.4469 38.691 60.8197 47.0144 60.6888 57.3256L60.2449 115.295L76.1304 115.417Z" fill="#64AFFF"/>
<path d="M110.308 65.1958C110.268 70.3608 106.049 74.5156 100.883 74.476C95.718 74.4365 91.5617 70.2175 91.6012 65.0526C91.6408 59.8861 95.8613 55.7313 101.026 55.7708C106.193 55.8104 110.348 60.0294 110.308 65.1958Z" fill="white"/>
</g>
<defs>
<clipPath id="clip0">
<rect width="200" height="200" fill="white" transform="translate(1.53125) rotate(0.43876)"/>
</clipPath>
</defs>
</svg>
