<?xml version="1.0" encoding="iso-8859-1"?>
<!-- Generator: Adobe Illustrator 19.0.0, SVG Export Plug-In . SVG Version: 6.00 Build 0)  -->
<svg version="1.1" id="Layer_1" xmlns="http://www.w3.org/2000/svg" xmlns:xlink="http://www.w3.org/1999/xlink" x="0px" y="0px"
	 viewBox="0 0 511.999 511.999" style="enable-background:new 0 0 511.999 511.999;" xml:space="preserve">
<g>
	<polygon style="fill:#CFD1E6;" points="366.948,242.074 504,159.328 504,209.092 366.948,319.8 344.921,319.8 344.921,242.074 	"/>
	<polygon style="fill:#CFD1E6;" points="7.999,242.074 145.052,159.328 145.052,209.092 7.999,319.8 	"/>
</g>
<path style="fill:#E6E8FF;" d="M7.999,242.074V319.8c0,18.154,14.717,32.87,32.87,32.87h93.186l31.329-55.298h44.176l31.329,55.298
	h93.186c18.154,0,32.87-14.717,32.87-32.87v-77.726L7.999,242.074L7.999,242.074z"/>
<path style="fill:#73B0FF;" d="M97.799,266.437H64.289c-17.085,0-30.935,13.85-30.935,30.935l0,0
	c0,17.085,13.85,30.935,30.935,30.935h33.508c17.085,0,30.935-13.85,30.935-30.935l0,0
	C128.733,280.287,114.883,266.437,97.799,266.437z"/>
<path style="opacity:0.1;enable-background:new    ;" d="M54.69,297.372L54.69,297.372c0-17.085,13.849-30.934,30.935-30.934H64.291
	c-17.085,0-30.935,13.849-30.935,30.934l0,0c0,17.085,13.849,30.935,30.935,30.935h21.335
	C68.539,328.307,54.69,314.457,54.69,297.372z"/>
<path style="fill:#FF7374;" d="M277.149,266.437h33.508c17.085,0,30.935,13.85,30.935,30.935l0,0
	c0,17.085-13.85,30.935-30.935,30.935h-33.508c-17.085,0-30.935-13.85-30.935-30.935l0,0
	C246.214,280.287,260.064,266.437,277.149,266.437z"/>
<path style="opacity:0.1;enable-background:new    ;" d="M267.549,297.372L267.549,297.372c0-17.085,13.85-30.934,30.935-30.934
	h-21.335c-17.085,0-30.935,13.849-30.935,30.934l0,0c0,17.085,13.85,30.935,30.935,30.935h21.335
	C281.399,328.307,267.549,314.457,267.549,297.372z"/>
<path d="M64.291,258.437c-21.469,0-38.936,17.467-38.936,38.934s17.467,38.936,38.936,38.936h33.508
	c21.469,0,38.936-17.467,38.936-38.936c0-21.469-17.467-38.934-38.936-38.934H64.291z M120.733,297.372
	c0,12.646-10.289,22.935-22.935,22.935H64.291c-12.646,0-22.935-10.289-22.935-22.935c0-12.645,10.289-22.935,22.935-22.935h33.508
	C110.445,274.438,120.733,284.727,120.733,297.372z"/>
<path d="M277.149,336.307h33.508c21.469,0,38.936-17.467,38.936-38.936c0-21.469-17.467-38.934-38.936-38.934h-33.508
	c-21.469,0-38.936,17.467-38.936,38.934S255.681,336.307,277.149,336.307z M277.149,274.438h33.508
	c12.646,0,22.935,10.289,22.935,22.935s-10.289,22.935-22.935,22.935h-33.508c-12.646,0-22.935-10.289-22.935-22.935
	C254.215,284.727,264.502,274.438,277.149,274.438z"/>
<path d="M507.932,152.361c-2.514-1.418-5.596-1.373-8.068,0.118l-135.145,81.594h-132.05c-4.419,0-8,3.582-8,8s3.581,8,8,8h126.278
	V319.8c0,13.714-11.157,24.87-24.87,24.87h-88.523l-29.031-51.242c-1.42-2.507-4.079-4.057-6.96-4.057h-44.177
	c-2.881,0-5.541,1.55-6.96,4.057l-29.031,51.242H40.871c-13.713,0-24.87-11.156-24.87-24.87v-69.726h88.221h96.445
	c4.419,0,8-3.582,8-8s-3.581-8-8-8h-73.809l23.222-18.757c1.881-1.519,2.973-3.806,2.973-6.223V159.33
	c0-2.887-1.554-5.549-4.067-6.968c-2.514-1.419-5.596-1.373-8.068,0.118L3.866,235.224c-0.028,0.017-0.05,0.039-0.078,0.057
	c-2.113,1.323-3.578,3.687-3.759,6.215c-0.006,0.087-0.01,0.174-0.013,0.262C0.012,241.864,0,241.967,0,242.074V319.8
	c0,22.536,18.335,40.871,40.871,40.871h93.184c2.881,0,5.541-1.55,6.96-4.057l29.031-51.241h34.852l29.031,51.241
	c1.42,2.508,4.079,4.057,6.96,4.057h93.186c21.194,0,38.666-16.215,40.674-36.891l84.328-68.118
	c3.438-2.777,3.974-7.814,1.196-11.251c-2.776-3.436-7.812-3.974-11.251-1.197l-74.076,59.838v-56.464l121.051-73.085v31.766
	l-14.973,12.095c-3.438,2.777-3.974,7.814-1.196,11.251c2.776,3.437,7.812,3.974,11.251,1.197l17.946-14.497
	c1.881-1.519,2.973-3.806,2.973-6.223v-49.763C512,156.442,510.446,153.78,507.932,152.361z M137.052,173.504v31.766l-35.656,28.803
	H36.731L137.052,173.504z"/>
<g>
</g>
<g>
</g>
<g>
</g>
<g>
</g>
<g>
</g>
<g>
</g>
<g>
</g>
<g>
</g>
<g>
</g>
<g>
</g>
<g>
</g>
<g>
</g>
<g>
</g>
<g>
</g>
<g>
</g>
</svg>
