<svg width="202" height="202" viewBox="0 0 202 202" fill="none" xmlns="http://www.w3.org/2000/svg">
<g clip-path="url(#clip0)">
<path d="M115.634 60.2196L77.8861 59.9305L47.7395 173.764C46.91 176.672 49.0806 179.57 52.1048 179.593L139.579 180.263C142.604 180.286 144.818 177.422 144.033 174.501L115.634 60.2196Z" fill="#FA503C"/>
<path d="M105.426 194.575C100.974 194.541 97.3912 190.904 97.4253 186.452L97.9187 122.018C97.9528 117.565 101.591 113.983 106.043 114.017C110.494 114.051 114.076 117.689 114.042 122.141L113.549 186.576C113.515 191.028 109.878 194.609 105.426 194.575Z" fill="#414B82"/>
<path d="M85.9656 194.426C81.5132 194.392 77.9322 190.756 77.9663 186.304L78.4597 121.869C78.4938 117.417 82.1301 113.834 86.5825 113.868C91.0333 113.902 94.6158 117.54 94.5817 121.993L94.0883 186.427C94.0542 190.879 90.4164 194.46 85.9656 194.426Z" fill="#5F6E9B"/>
<path d="M140.671 84.3432L127.488 65.0568C124.393 60.5285 119.268 57.7991 113.783 57.7571C108.568 57.7171 84.8546 57.5356 79.766 57.4966C73.9663 57.4522 68.4619 60.4878 65.4029 65.416L52.408 86.3513C50.571 89.3113 51.2997 93.182 54.0869 95.271L70.3545 107.461C72.87 109.347 76.2466 109.186 78.5711 107.329L78.4597 121.868L114.042 122.141L114.149 108.219C114.526 108.976 115.052 109.674 115.726 110.265C118.526 112.719 122.769 112.42 125.205 109.641L140.176 92.5626C142.197 90.2556 142.4 86.8742 140.671 84.3432ZM78.4113 96.7086L67.0686 88.2093L76.8174 72.5013C76.8252 72.4907 76.8313 72.48 76.839 72.4694C77.4182 71.5598 78.8415 72.0117 78.8333 73.0905L78.6509 96.9072C78.5705 96.841 78.4947 96.7718 78.4113 96.7086ZM115.101 100.784C114.737 101.201 114.44 101.654 114.195 102.123L114.416 73.2638C114.424 72.2186 115.785 71.7606 116.381 72.6196C116.385 72.6258 116.39 72.6334 116.394 72.6396L126.637 87.6232L115.101 100.784Z" fill="#64AFFF"/>
<path d="M20.8734 179.587C16.7552 179.556 13.4422 176.192 13.4737 172.074L13.9302 112.47C13.9617 108.352 17.3258 105.037 21.4441 105.069C25.5623 105.1 28.8752 108.466 28.8437 112.584L28.3873 172.188C28.3557 176.306 24.9916 179.619 20.8734 179.587Z" fill="#748488"/>
<path d="M38.8646 179.711C34.7464 179.679 31.4334 176.315 31.465 172.197L31.9214 112.592C31.9529 108.473 35.317 105.16 39.4353 105.192C43.5535 105.223 46.8664 108.587 46.8349 112.706L46.3785 172.311C46.3469 176.429 42.9828 179.742 38.8646 179.711Z" fill="#55696E"/>
<path d="M44.9994 43.6823C44.9449 50.7957 39.1346 56.5177 32.0212 56.4632C24.9077 56.4088 19.1858 50.5985 19.2402 43.485C19.2947 36.3716 25.105 30.6496 32.2184 30.7041C39.3319 30.7586 45.0538 36.5689 44.9994 43.6823Z" fill="#BA6746"/>
<path d="M68.8072 13.239C65.7761 12.3216 62.5739 14.0321 61.6549 17.0647L53.9622 42.4383L38.9308 59.3205L24.1286 59.2071L12.7593 43.2215L14.277 15.4079C14.4492 12.2444 12.0254 9.54177 8.86196 9.36801C5.69549 9.19269 2.99585 11.6196 2.82361 14.783L1.19601 44.5993C1.12505 45.8958 1.49671 47.1774 2.25004 48.2361L14.2897 65.1638L13.9274 112.471L46.8427 112.723L47.1906 67.2926L63.3687 49.1253C63.9212 48.5039 64.3328 47.77 64.5723 46.9753L72.6329 20.3929C73.5518 17.3603 71.8383 14.158 68.8072 13.239Z" fill="#FFDA52"/>
<path d="M72.6324 20.3911C73.5513 17.36 71.8378 14.1577 68.8068 13.2388C65.7772 12.3214 62.5734 14.0318 61.656 17.0645L72.6324 20.3911Z" fill="#BA6746"/>
<path d="M14.2767 15.4069C14.449 12.2434 12.0252 9.53925 8.86171 9.36701C5.69371 9.19168 2.9956 11.6186 2.82338 14.7805L14.2767 15.4069Z" fill="#BA6746"/>
<path d="M157.233 180.978C153.115 180.947 149.802 177.582 149.833 173.464L150.29 113.859C150.321 109.741 153.685 106.428 157.803 106.459C161.922 106.491 165.235 109.855 165.203 113.973L164.747 173.578C164.715 177.697 161.351 181.01 157.233 180.978Z" fill="#748488"/>
<path d="M175.229 181.109C171.111 181.077 167.798 177.713 167.829 173.595L168.286 113.99C168.317 109.872 171.681 106.559 175.8 106.59C179.919 106.622 183.232 109.986 183.201 114.104L182.744 173.709C182.713 177.828 179.349 181.141 175.229 181.109Z" fill="#55696E"/>
<path d="M201.129 45.9439L196.704 12.6831C196.286 9.54408 193.406 7.33538 190.263 7.75383C187.122 8.17229 184.917 11.0562 185.335 14.1952L189.413 44.8501L175.291 60.7093L159.216 60.5862L138.773 50.6896L141.333 23.6119C141.63 20.4586 139.316 17.6606 136.162 17.3618C133.015 17.0646 130.211 19.3777 129.912 22.5311L126.978 53.5764C126.752 55.9612 128.032 58.234 130.189 59.279L150.63 69.1739L150.287 113.86L183.203 114.112L183.551 68.6814L199.727 50.514C200.838 49.2667 201.35 47.5982 201.129 45.9439Z" fill="#FA503C"/>
<path d="M196.704 12.6821C196.286 9.54315 193.406 7.33445 190.263 7.7529C187.122 8.17136 184.917 11.0553 185.335 14.1942L196.704 12.6821Z" fill="#80391B"/>
<path d="M141.332 23.6084C141.63 20.4551 139.315 17.6571 136.162 17.3583C133.014 17.0611 130.212 19.3743 129.913 22.5291L141.332 23.6084Z" fill="#80391B"/>
<path d="M157.233 180.978C153.115 180.947 149.802 177.582 149.833 173.464L150.29 113.859C150.321 109.741 153.685 106.428 157.803 106.459C161.922 106.491 165.235 109.855 165.203 113.973L164.747 173.578C164.715 177.697 161.351 181.01 157.233 180.978Z" fill="#748488"/>
<path d="M175.229 181.109C171.111 181.077 167.798 177.713 167.829 173.595L168.286 113.99C168.317 109.872 171.681 106.559 175.8 106.59C179.919 106.622 183.232 109.986 183.201 114.104L182.744 173.709C182.713 177.828 179.349 181.141 175.229 181.109Z" fill="#55696E"/>
<path d="M180.22 45.0612C180.166 52.1746 174.355 57.8966 167.242 57.8421C160.13 57.7877 154.406 51.9774 154.461 44.8639C154.515 37.7505 160.327 32.0285 167.439 32.083C174.553 32.1375 180.275 37.9478 180.22 45.0612Z" fill="#80391B"/>
<path d="M201.129 45.9439L196.704 12.6831C196.286 9.54408 193.406 7.33538 190.263 7.75383C187.122 8.17229 184.917 11.0562 185.335 14.1952L189.413 44.8501L175.291 60.7093L159.216 60.5862L138.773 50.6896L141.333 23.6119C141.63 20.4586 139.316 17.6606 136.162 17.3618C133.015 17.0646 130.211 19.3777 129.912 22.5311L126.978 53.5764C126.752 55.9612 128.032 58.234 130.189 59.279L150.63 69.1739L150.287 113.86L183.203 114.112L183.551 68.6814L199.727 50.514C200.838 49.2667 201.35 47.5982 201.129 45.9439Z" fill="#FA503C"/>
<path d="M196.704 12.6821C196.286 9.54315 193.406 7.33445 190.263 7.7529C187.122 8.17136 184.917 11.0553 185.335 14.1942L196.704 12.6821Z" fill="#80391B"/>
<path d="M141.332 23.6084C141.63 20.4551 139.315 17.6571 136.162 17.3583C133.014 17.0611 130.212 19.3743 129.913 22.5291L141.332 23.6084Z" fill="#80391B"/>
<path d="M110.833 40.5432C110.774 48.2334 104.493 54.4187 96.8028 54.3598C89.1141 54.3009 82.9273 48.0201 82.9862 40.3299C83.045 32.6412 89.3273 26.4559 97.016 26.5148C104.706 26.5737 110.892 32.8545 110.833 40.5432Z" fill="#FFAC91"/>
<path d="M104.853 76.2463C104.819 80.7842 101.112 84.4348 96.5722 84.4C92.0344 84.3653 88.3838 80.6583 88.4185 76.1205C88.4533 71.5811 92.1602 67.9305 96.6981 67.9653C101.237 68 104.888 71.707 104.853 76.2463Z" fill="white"/>
<path d="M78.4115 96.7075L70.3547 107.46C73.3421 109.699 77.5494 109.062 79.7586 106.113C81.9832 103.144 81.3807 98.9322 78.4115 96.7075Z" fill="#FFAC91"/>
<path d="M115.102 100.786C112.656 103.576 112.936 107.821 115.727 110.267C118.526 112.72 122.769 112.422 125.206 109.642L115.102 100.786Z" fill="#FFAC91"/>
<path d="M31.6127 65.2591C34.8841 65.2842 37.5579 62.6526 37.5829 59.3812C37.5831 59.3568 37.5787 59.3339 37.5789 59.3094L25.7384 59.2188C25.7382 59.2432 25.735 59.2661 25.7348 59.2905C25.7098 62.5618 28.3413 65.2341 31.6127 65.2591Z" fill="#BA6746"/>
</g>
<defs>
<clipPath id="clip0">
<rect width="200" height="200" fill="white" transform="translate(1.53125) rotate(0.43876)"/>
</clipPath>
</defs>
</svg>
