<svg width="203" height="202" viewBox="0 0 203 202" fill="none" xmlns="http://www.w3.org/2000/svg">
<g clip-path="url(#clip0)">
<path d="M115.767 45.851L72.7432 45.5215L99.6562 186.945L165.494 187.449C168.491 187.472 170.56 184.455 169.459 181.666L115.767 45.851Z" fill="#FA503C"/>
<path d="M139.911 82.3672L129.625 56.4912C126.733 49.2179 119.806 44.4772 111.977 44.4173C97.1308 44.3036 92.9592 44.2717 78.0961 44.1578L60.1522 33.6762L47.9952 4.98281C46.342 1.07906 41.8347 -0.745362 37.9325 0.90937C34.0272 2.56408 32.2043 7.06989 33.8575 10.9736L47.0097 42.0139C47.6542 43.5386 48.7767 44.8138 50.2062 45.6487C60.6612 51.7027 73.7788 59.1688 73.7788 59.1688L72.7667 191.336C72.7277 196.423 76.822 200.579 81.9091 200.618C86.9962 200.657 91.1536 196.564 91.1926 191.477L91.7565 117.839L95.5695 117.868L95.0056 191.506C94.9667 196.594 99.0594 200.749 104.148 200.788C109.237 200.827 113.393 196.735 113.432 191.648L114.11 103.032L136.189 92.0832C139.768 90.307 141.389 86.0819 139.911 82.3672ZM114.242 85.8267L114.434 60.8062C114.827 61.1784 115.146 61.6356 115.357 62.1637L123.031 81.4688L114.242 85.8267Z" fill="#55696E"/>
<path d="M47.9953 4.98346C46.3421 1.07969 41.8347 -0.744734 37.9325 0.908477C34.0272 2.56319 32.2043 7.06901 33.8575 10.9728L47.9953 4.98346Z" fill="#BA6746"/>
<path d="M110.327 24.7586C110.26 33.5459 103.083 40.6139 94.2956 40.5466C85.5084 40.4793 78.4388 33.3022 78.5061 24.5149C78.5734 15.7276 85.7521 8.65807 94.5393 8.72536C103.327 8.79266 110.395 15.9713 110.327 24.7586Z" fill="#BA6746"/>
<path d="M92.7339 79.2699L84.8982 71.3117C83.9912 70.3923 84.0025 68.9122 84.9235 68.0053L92.8801 60.168C93.7996 59.2626 95.2812 59.2739 96.1866 60.1933L104.024 68.1515C104.929 69.071 104.918 70.5526 103.999 71.458L96.0403 79.2953C95.1209 80.2007 93.6393 80.1894 92.7339 79.2699Z" fill="#FFDA52"/>
<path d="M114.08 106.986L114.11 102.999L73.4453 102.688L73.4148 106.675L91.8174 117.839L95.5694 117.867L114.08 106.986Z" fill="#FFDA52"/>
</g>
<defs>
<clipPath id="clip0">
<rect width="200" height="200" fill="white" transform="translate(2.05664) rotate(0.43876)"/>
</clipPath>
</defs>
</svg>
