<?xml version="1.0" encoding="iso-8859-1"?>
<!-- Generator: Adobe Illustrator 19.0.0, SVG Export Plug-In . SVG Version: 6.00 Build 0)  -->
<svg version="1.1" id="Layer_1" xmlns="http://www.w3.org/2000/svg" xmlns:xlink="http://www.w3.org/1999/xlink" x="0px" y="0px"
	 viewBox="0 0 511.999 511.999" style="enable-background:new 0 0 511.999 511.999;" xml:space="preserve">
<rect x="169.457" y="282.168" style="fill:#FFBBA8;" width="169.489" height="221.901"/>
<polygon style="opacity:0.1;enable-background:new    ;" points="259.067,316.542 169.457,316.542 169.457,274.548 284.075,274.548 
	"/>
<path style="fill:#FFF7E6;" d="M239.284,7.93L239.284,7.93c-88.851,0-160.878,72.027-160.878,160.878v63.835
	c0,27.35,22.172,49.522,49.522,49.522h244.379l14.59-12.899l13.264-11.938v-88.52C400.161,79.957,328.134,7.93,239.284,7.93z"/>
<g>
	<path style="fill:#2B2B33;" d="M281.58,88.662L281.58,88.662c-19.272,0-34.895,15.623-34.895,34.895v18.414h69.79v-18.414
		C316.475,104.285,300.852,88.662,281.58,88.662z"/>
	<path style="fill:#2B2B33;" d="M152.346,88.662L152.346,88.662c-19.272,0-34.895,15.623-34.895,34.895v18.414h69.79v-18.414
		C187.241,104.285,171.618,88.662,152.346,88.662z"/>
	<path style="fill:#2B2B33;" d="M227.489,177.402l-7.762-15.523c-4.497-8.995-17.333-8.995-21.83,0l-7.762,15.523
		c-4.057,8.114,1.843,17.66,10.915,17.66h15.523C225.646,195.063,231.546,185.516,227.489,177.402z"/>
</g>
<path style="opacity:0.1;enable-background:new    ;" d="M372.307,282.165l14.59-12.899l13.264-11.938v-88.52
	c0-8.558-0.675-16.957-1.962-25.154c-31.537,1.326-56.788,27.387-56.788,59.244c0,13.113-10.668,23.781-23.781,23.781
	c-37.379,0-69.488,22.945-83.015,55.486H372.307z"/>
<path style="fill:#FFBBA8;" d="M254.2,316.542L254.2,316.542c0-35.031,28.399-63.43,63.43-63.43l0,0
	c27.733,0,50.214-22.482,50.214-50.214l0,0c0-18.156,14.718-32.874,32.874-32.874l0,0c18.156,0,32.874,14.718,32.874,32.874v13.367
	c0,52.273-42.375,94.649-94.649,94.649l0,0L254.2,316.542z"/>
<path d="M238.754,123.556v18.415c0,4.379,3.549,7.93,7.93,7.93h69.791c4.38,0,7.93-3.551,7.93-7.93v-18.415
	c0-23.613-19.212-42.825-42.825-42.825C257.966,80.731,238.754,99.943,238.754,123.556z M308.545,123.556v10.485h-53.931v-10.485
	c0-14.869,12.097-26.965,26.966-26.965S308.545,108.688,308.545,123.556z"/>
<path d="M195.171,141.971v-18.415c0-23.613-19.212-42.825-42.826-42.825c-23.613,0-42.825,19.211-42.825,42.825v18.415
	c0,4.379,3.549,7.93,7.93,7.93h69.791C191.622,149.901,195.171,146.351,195.171,141.971z M179.311,134.041H125.38v-10.485
	c0-14.869,12.096-26.965,26.965-26.965c14.869,0,26.966,12.096,26.966,26.965V134.041z"/>
<path d="M201.052,202.993h15.523c7.028,0,13.431-3.57,17.127-9.549c3.694-5.979,4.024-13.302,0.881-19.588l-7.762-15.523
	c-3.432-6.865-10.331-11.129-18.007-11.129c-7.675,0-14.574,4.264-18.007,11.129l-7.761,15.523
	c-3.143,6.287-2.814,13.61,0.881,19.588C187.62,199.423,194.023,202.993,201.052,202.993z M197.229,180.948l7.761-15.523
	c1.067-2.133,3.028-2.362,3.822-2.362c0.794,0,2.755,0.229,3.822,2.362l7.762,15.523c0.961,1.923,0.189,3.548-0.187,4.157
	c-0.376,0.61-1.484,2.027-3.635,2.027h-15.523c-2.151,0-3.259-1.417-3.635-2.027C197.04,184.497,196.267,182.872,197.229,180.948z"
	/>
<path d="M407.979,162.753c-1.251-36.101-13.682-70.041-36.157-98.496c-2.715-3.437-7.704-4.022-11.138-1.307
	c-3.437,2.714-4.023,7.702-1.308,11.138c20.296,25.695,31.558,56.329,32.751,88.924c-16.041,3.453-28.599,16.361-31.543,32.583
	c-0.022,0.119-0.043,0.238-0.065,0.357c-0.396,2.292-0.604,4.618-0.604,6.946c0,23.316-18.968,42.285-42.285,42.285
	c-11.931,0-23.401,2.947-33.555,8.36v-18.124c0-12.942,10.529-23.47,23.469-23.47c2.853,0,5.726-0.316,8.56-0.945
	c17.831-3.963,30.77-20.103,30.77-38.385v-20.075c0-4.379-3.549-7.93-7.93-7.93s-7.93,3.55-7.93,7.93v20.075
	c0,10.911-7.718,20.542-18.359,22.905c-1.691,0.374-3.41,0.565-5.11,0.565c-21.687,0-39.329,17.644-39.329,39.33v29.644
	c-2.908,2.8-5.601,5.861-8.038,9.171h-21.863v-49.069c0-4.379-3.549-7.93-7.93-7.93c-4.381,0-7.93,3.551-7.93,7.93v49.069h-29.9
	v-49.069c0-4.379-3.549-7.93-7.93-7.93c-4.381,0-7.93,3.551-7.93,7.93v49.069h-7.237h-22.664v-49.069c0-4.379-3.549-7.93-7.93-7.93
	c-4.381,0-7.93,3.551-7.93,7.93v49.069h-3.007c-22.933,0-41.592-18.658-41.592-41.592v-63.836
	c0-84.333,68.612-152.945,152.948-152.945c36.329,0,71.546,12.967,99.164,36.512c3.333,2.841,8.337,2.441,11.178-0.89
	c2.842-3.333,2.443-8.338-0.89-11.179C318.251,14.313,279.38,0,239.283,0C146.202,0,70.475,75.727,70.475,168.807v63.836
	c0,31.68,25.772,57.452,57.452,57.452h33.6v148.48c0,4.379,3.549,7.93,7.93,7.93c4.381,0,7.93-3.55,7.93-7.93v-148.48h86.948
	c2.691,0,5.199-1.365,6.66-3.625c10.292-15.922,27.726-25.428,46.634-25.428c32.061,0,58.144-26.083,58.144-58.144
	c0-0.423,0.011-0.844,0.032-1.261c0.659-12.949,11.391-23.451,24.487-23.67c0.017,0,0.034-0.003,0.051-0.003
	c0.126-0.002,0.25-0.01,0.376-0.01c13.755,0,24.944,11.19,24.944,24.944v13.367c0,20.83-7.495,40.967-21.104,56.7
	c-2.865,3.313-2.503,8.32,0.81,11.185c3.312,2.864,8.32,2.504,11.184-0.81c16.102-18.615,24.97-42.437,24.97-67.077v-13.367
	C441.523,182.876,427.025,166.189,407.979,162.753z"/>
<path d="M381.959,291.579c-13.033,7.46-27.907,11.403-43.015,11.403c-4.38,0-7.93,3.551-7.93,7.93v185.226H177.387v-25.845
	c0-4.379-3.549-7.93-7.93-7.93c-4.38,0-7.93,3.55-7.93,7.93v33.775c0,4.379,3.549,7.93,7.93,7.93h169.488
	c4.38,0,7.93-3.551,7.93-7.93V318.537c15.113-1.17,29.825-5.672,42.964-13.193c3.801-2.176,5.117-7.021,2.941-10.822
	C390.605,290.721,385.758,289.404,381.959,291.579z"/>
<g>
</g>
<g>
</g>
<g>
</g>
<g>
</g>
<g>
</g>
<g>
</g>
<g>
</g>
<g>
</g>
<g>
</g>
<g>
</g>
<g>
</g>
<g>
</g>
<g>
</g>
<g>
</g>
<g>
</g>
</svg>
