<?xml version="1.0" encoding="iso-8859-1"?>
<!-- Generator: Adobe Illustrator 19.0.0, SVG Export Plug-In . SVG Version: 6.00 Build 0)  -->
<svg version="1.1" id="Layer_1" xmlns="http://www.w3.org/2000/svg" xmlns:xlink="http://www.w3.org/1999/xlink" x="0px" y="0px"
	 viewBox="0 0 512 512" style="enable-background:new 0 0 512 512;" xml:space="preserve">
<g>
	<path style="fill:#CC5051;" d="M439.782,269.752c8.813-4.223,22.89,6.821,31.441,24.666c8.551,17.846,8.34,35.736-0.474,39.959
		l-34.619,16.589l-30.968-64.626L439.782,269.752z"/>
	<path style="fill:#CC5051;" d="M244.052,25.148c6.053-7.672,23.554-3.957,39.091,8.3s23.224,28.412,17.172,36.085l-23.776,30.138
		l-56.262-44.385L244.052,25.148z"/>
	<path style="fill:#CC5051;" d="M458.563,39.412c8.017-5.59,23.691,3.038,35.009,19.271c11.319,16.233,13.995,33.923,5.978,39.513
		l-31.489,21.957L427.074,61.37L458.563,39.412z"/>
</g>
<g>
	<path style="fill:#E65A5B;" d="M433.496,269.787L433.496,269.787c15.784,32.938,1.877,72.435-31.061,88.218l-32.678,15.658
		L337.5,353.726l-1.8-41.01l25.994-27.062l49.5-23.72C419.521,257.945,429.506,261.461,433.496,269.787z"/>
	<path style="fill:#E65A5B;" d="M238.423,27.947L238.423,27.947c28.676,22.622,33.583,64.207,10.962,92.882l-22.444,28.449
		l-37.741-3.695l-19.675-36.028l11.422-35.744l33.996-43.095C220.662,23.469,231.174,22.229,238.423,27.947z"/>
	<path style="fill:#E65A5B;" d="M452.364,40.46L452.364,40.46c20.89,29.96,13.539,71.183-16.423,92.074l-29.722,20.724
		l-35.051-14.472l-8.392-40.183l21.289-30.901l45.025-31.395C436.663,31.028,447.084,32.886,452.364,40.46z"/>
</g>
<path style="fill:#FF6465;" d="M466.784,339.256L466.784,339.256c-15.784-32.938-55.28-46.845-88.218-31.061l-32.678,15.658
	l-4.671,37.633l30.836,27.096l37.378-3.306l49.5-23.72C467.259,357.567,470.774,347.583,466.784,339.256z"/>
<path style="fill:#8CD76E;" d="M78.305,482.699c-3.422-7.142-0.406-15.706,6.735-19.128l227.936-109.224
	c7.142-3.422,15.706-0.406,19.128,6.735c3.422,7.142,0.406,15.706-6.735,19.128L97.433,489.435
	C90.291,492.856,81.727,489.841,78.305,482.699z"/>
<g>
	<path style="fill:#B9E578;" d="M226.976,323.468c-10.456,6.708-18.876,21.177-21.253,38.784
		c-2.377,17.606,1.904,33.791,10.207,43.032c10.456-6.708,18.876-21.177,21.253-38.784
		C239.56,348.893,235.279,332.708,226.976,323.468z"/>
	<path style="fill:#B9E578;" d="M261.072,483.111c-11.779,3.946-28.332,1.445-43.544-7.734
		c-15.213-9.179-25.144-22.656-27.144-34.916c11.779-3.946,28.332-1.445,43.544,7.734
		C249.14,457.373,259.071,470.85,261.072,483.111z"/>
</g>
<path style="fill:#FF6465;" d="M298.902,75.658L298.902,75.658c-28.676-22.622-70.261-17.714-92.882,10.962l-22.443,28.449
	l12.378,35.844l39.618,10.748l32.102-19.428l33.996-43.095C307.392,91.889,306.15,81.377,298.902,75.658z"/>
<path style="fill:#8CD76E;" d="M13.286,375.518c-6.217-4.905-7.282-13.922-2.377-20.139l156.546-198.439
	c4.905-6.217,13.922-7.282,20.139-2.377c6.217,4.905,7.282,13.922,2.377,20.139L33.426,373.142
	C28.521,379.359,19.504,380.424,13.286,375.518z"/>
<path style="fill:#B9E578;" d="M76.646,167.088c-6.433,10.626-7.621,27.326-2.002,44.181c5.619,16.854,16.591,29.499,28.114,34.14
	c6.433-10.626,7.621-27.326,2.002-44.181C99.14,184.373,88.169,171.728,76.646,167.088z"/>
<path style="fill:#FF6465;" d="M496.424,103.648L496.424,103.648c-20.89-29.96-62.113-37.313-92.074-16.423l-29.722,20.725
	l1.461,37.893l34.804,21.766l36.356-9.293l45.025-31.395C499.846,121.643,501.704,111.222,496.424,103.648z"/>
<path style="fill:#8CD76E;" d="M136.175,307.885c-4.53-6.496-2.935-15.435,3.561-19.964l207.33-144.566
	c6.496-4.53,15.435-2.935,19.964,3.561s2.935,15.435-3.561,19.964L156.14,311.446C149.643,315.976,140.705,314.382,136.175,307.885z
	"/>
<path style="fill:#B9E578;" d="M316.614,278.806c-10.988,5.795-27.728,5.996-44.222-0.609c-16.494-6.604-28.47-18.303-32.421-30.08
	c10.988-5.795,27.728-5.996,44.222,0.609C300.686,255.33,312.662,267.03,316.614,278.806z"/>
<path style="opacity:0.1;enable-background:new    ;" d="M332.105,361.083c-3.422-7.142-11.986-10.157-19.128-6.735l-22.528,10.795
	c1.314,4.546,2.996,9.048,5.108,13.454c2.095,4.371,4.55,8.51,7.3,12.403l22.514-10.789
	C332.512,376.789,335.527,368.224,332.105,361.083z"/>
<path style="fill:#8CD76E;" d="M371.27,375.855l17.311-41.835l-43.453-12.718l17.311-41.835l-14.853,7.117
	c-30.129,14.437-42.85,50.566-28.413,80.696l0,0c14.437,30.129,50.566,42.85,80.696,28.413l14.853-7.117L371.27,375.855z"/>
<path style="opacity:0.1;enable-background:new    ;" d="M187.596,154.564c-6.217-4.906-15.235-3.841-20.139,2.377l-15.479,19.621
	c3.206,3.52,6.704,6.814,10.516,9.822c3.784,2.984,7.803,5.634,12.005,7.934l15.473-19.613
	C194.877,168.485,193.814,159.468,187.596,154.564z"/>
<path style="fill:#8CD76E;" d="M229.265,150.58l-2.881-45.184l-44.613,7.716l-2.881-45.184l-10.201,12.931
	c-20.692,26.23-16.204,64.269,10.026,84.961l0,0c26.23,20.692,64.269,16.204,84.961-10.026l10.201-12.931L229.265,150.58z"/>
<path style="opacity:0.1;enable-background:new    ;" d="M347.066,143.356l-20.5,14.295c2.048,4.297,4.443,8.464,7.22,12.447
	c2.772,3.974,5.854,7.668,9.191,11.073l20.493-14.29c6.496-4.53,8.09-13.467,3.561-19.964
	C362.501,140.42,353.562,138.826,347.066,143.356z"/>
<path style="fill:#8CD76E;" d="M408.065,155.177l10.335-44.08l-44.935-5.542l10.335-44.08l-13.51,9.421
	c-27.405,19.11-34.131,56.816-15.022,84.222l0,0c19.11,27.405,56.816,34.131,84.222,15.022l13.51-9.421L408.065,155.177z"/>
<path d="M39.627,378.008l153.95-195.149c7.178,2.52,14.777,3.819,22.597,3.819c21.084,0,40.659-9.484,53.704-26.019l10.201-12.931
	c2.016-2.555,2.248-6.089,0.582-8.885c-0.039-0.065-0.088-0.119-0.129-0.182l27.34-34.657c4.066-5.153,5.88-11.582,5.112-18.1
	c-0.567-4.8-2.494-9.219-5.523-12.842c3.922-6.073,3.764-14.245-0.511-23.228C303.2,41.95,296.486,33.94,288.042,27.28
	c-11.099-8.754-23.765-13.982-33.881-13.982c-7.761,0-12.45,2.905-15.185,5.765c-3.367-1.659-7.09-2.565-10.864-2.565
	c-7.578,0-14.615,3.41-19.305,9.355l-27.34,34.657c-0.071-0.024-0.135-0.06-0.207-0.083c-3.105-0.967-6.49,0.08-8.506,2.635
	l-10.201,12.931c-18.53,23.489-19.129,55.462-3.793,79.327l-43.559,55.215c-0.671-3.906-1.642-7.856-2.954-11.793
	c-6.221-18.662-18.421-33.22-32.633-38.943c-3.574-1.438-7.662-0.075-9.656,3.219c-7.933,13.107-8.957,32.072-2.734,50.734
	c4.363,13.086,11.671,24.139,20.545,31.558L61.15,279.047c-2.687,3.407-2.105,8.347,1.302,11.034
	c3.406,2.687,8.346,2.106,11.035-1.302l28.091-35.609c0.044,0.006,0.087,0.004,0.131,0.01c0.327,0.045,0.653,0.074,0.978,0.079
	c0.022,0,0.044,0.003,0.066,0.003c0.01,0,0.021,0.001,0.031,0.001c0.354,0,0.706-0.027,1.055-0.074
	c0.102-0.014,0.2-0.041,0.301-0.059c0.252-0.044,0.504-0.093,0.75-0.162c0.132-0.037,0.259-0.085,0.388-0.128
	c0.212-0.071,0.42-0.146,0.624-0.235c0.134-0.058,0.265-0.123,0.396-0.189c0.193-0.096,0.38-0.199,0.565-0.311
	c0.127-0.076,0.251-0.155,0.374-0.24c0.182-0.126,0.356-0.261,0.528-0.402c0.11-0.09,0.221-0.178,0.327-0.274
	c0.18-0.166,0.349-0.346,0.514-0.529c0.082-0.09,0.17-0.175,0.247-0.269c0.236-0.287,0.458-0.591,0.655-0.917
	c0.549-0.907,1.058-1.849,1.541-2.811c0.08-0.159,0.151-0.328,0.229-0.488c0.422-0.869,0.819-1.758,1.188-2.666
	c0.028-0.071,0.056-0.145,0.085-0.217c0.86-2.149,1.573-4.401,2.135-6.742l54.295-68.824c0.275,0.263,0.565,0.511,0.844,0.77
	c0.493,0.456,0.981,0.916,1.49,1.359c0.768,0.669,1.551,1.318,2.348,1.951c0.073,0.059,0.142,0.122,0.217,0.179
	c0.834,0.658,1.68,1.29,2.536,1.904c0.091,0.065,0.184,0.127,0.277,0.192c0.813,0.578,1.637,1.137,2.469,1.677L27.29,368.275
	c-2.213,2.806-6.298,3.289-9.106,1.074c-1.359-1.072-2.219-2.609-2.423-4.33c-0.202-1.72,0.277-3.416,1.349-4.776l36.844-46.703
	c2.687-3.407,2.105-8.347-1.302-11.034c-3.406-2.686-8.346-2.105-11.035,1.302L4.774,350.512
	c-3.673,4.654-5.312,10.461-4.618,16.349s3.641,11.153,8.296,14.825c4.065,3.207,8.911,4.761,13.725,4.761
	C28.744,386.447,35.251,383.553,39.627,378.008z M295.535,94.272l-33.114,41.976l-1.454,0.88l-24.386,4.219l-2.325-36.451
	c-0.141-2.226-1.223-4.287-2.974-5.668c-0.003-0.002-0.007-0.004-0.012-0.007c-0.308-0.242-0.636-0.45-0.971-0.641
	c-0.075-0.043-0.149-0.086-0.225-0.126c-0.336-0.177-0.681-0.332-1.037-0.459c-0.062-0.022-0.125-0.038-0.188-0.058
	c-0.324-0.106-0.654-0.19-0.989-0.252c-0.071-0.014-0.14-0.03-0.212-0.042c-0.37-0.059-0.744-0.088-1.121-0.094
	c-0.038,0-0.075-0.009-0.113-0.009c-0.049,0-0.1,0.012-0.149,0.013c-0.394,0.007-0.789,0.035-1.183,0.102c-0.003,0-0.005,0-0.008,0
	l-20.524,3.55l7.666-9.717c0.854-1.081,1.75-2.115,2.667-3.125c11.029-12.142,26.519-19.041,43.126-19.041
	c0.831,0,1.659,0.021,2.491,0.057c0.007,0,0.014,0.001,0.021,0.002c11.437,0.489,22.378,4.303,31.643,11.029
	c0.036,0.026,0.076,0.044,0.112,0.068c0.601,0.44,1.199,0.888,1.787,1.352c1.858,1.466,3.034,3.567,3.311,5.918
	C297.654,90.096,297.001,92.413,295.535,94.272z M278.308,39.616c6.49,5.12,11.758,11.305,14.453,16.969
	c1.429,3.003,1.842,5.272,1.782,6.668c-8.547-4.89-17.898-7.983-27.695-9.14c-0.03-0.084-0.067-0.164-0.098-0.247
	c-0.809-2.164-1.715-4.28-2.713-6.345c-0.068-0.141-0.139-0.281-0.208-0.421c-0.458-0.931-0.935-1.852-1.432-2.761
	c-0.069-0.128-0.138-0.256-0.208-0.382c-1.713-3.096-3.646-6.057-5.787-8.871c-0.084-0.11-0.169-0.22-0.254-0.33
	c-0.671-0.872-1.361-1.731-2.071-2.573c-0.045-0.053-0.089-0.109-0.134-0.162c-0.779-0.918-1.579-1.819-2.404-2.7
	c0.639-0.183,1.506-0.311,2.623-0.311C260.664,29.011,270.141,33.173,278.308,39.616z M188.03,77.561l33.113-41.977
	c1.692-2.144,4.232-3.374,6.968-3.374c2.004,0,3.898,0.659,5.478,1.904c0.777,0.613,1.53,1.249,2.272,1.896
	c0.173,0.151,0.344,0.304,0.514,0.457c0.698,0.623,1.384,1.258,2.047,1.911c0.096,0.095,0.189,0.195,0.285,0.29
	c0.566,0.565,1.116,1.142,1.656,1.726c0.204,0.221,0.41,0.442,0.61,0.667c0.559,0.625,1.105,1.261,1.636,1.909
	c0.213,0.26,0.417,0.524,0.625,0.787c0.377,0.477,0.746,0.96,1.107,1.448c0.203,0.274,0.411,0.546,0.609,0.824
	c0.462,0.647,0.906,1.307,1.34,1.973c0.211,0.322,0.416,0.646,0.619,0.973c0.352,0.565,0.696,1.135,1.028,1.712
	c0.207,0.359,0.411,0.722,0.611,1.087c0.32,0.582,0.631,1.171,0.93,1.765c0.085,0.168,0.169,0.336,0.251,0.505
	c-11.018,1.218-21.475,4.859-30.724,10.598c-0.018,0.01-0.035,0.021-0.052,0.031c-0.987,0.613-1.958,1.252-2.915,1.912
	c-0.072,0.05-0.145,0.101-0.218,0.151c-0.94,0.654-1.867,1.327-2.778,2.026c-0.053,0.041-0.105,0.083-0.158,0.124
	c-1.825,1.407-3.589,2.905-5.287,4.49c-0.1,0.093-0.2,0.184-0.3,0.278c-0.789,0.745-1.563,1.51-2.322,2.292
	c-0.13,0.134-0.26,0.268-0.39,0.404c-0.749,0.783-1.484,1.582-2.202,2.401c-0.105,0.119-0.207,0.241-0.311,0.361
	c-0.746,0.862-1.479,1.738-2.189,2.639l-11.294,14.316l-0.399-6.26l-0.677-10.629L188.03,77.561z M172.402,89.149l1.56,24.464
	c0.141,2.226,1.223,4.287,2.974,5.668c0.312,0.246,0.644,0.457,0.986,0.651c0.074,0.042,0.147,0.085,0.221,0.124
	c0.337,0.177,0.683,0.333,1.04,0.46c0.06,0.021,0.12,0.036,0.18,0.056c0.328,0.108,0.663,0.193,1.003,0.256
	c0.067,0.013,0.132,0.028,0.199,0.04c0.374,0.06,0.752,0.089,1.133,0.094c0.036,0,0.07,0.008,0.105,0.008
	c0.046,0,0.092-0.012,0.138-0.012c0.4-0.007,0.801-0.035,1.201-0.103l35.99-6.225l2.325,36.451c0.141,2.226,1.223,4.287,2.974,5.668
	c0.312,0.246,0.645,0.458,0.986,0.652c0.073,0.042,0.146,0.084,0.22,0.123c0.338,0.178,0.686,0.334,1.044,0.461
	c0.057,0.02,0.115,0.035,0.172,0.053c0.333,0.109,0.671,0.195,1.015,0.259c0.063,0.012,0.125,0.027,0.189,0.038
	c0.376,0.061,0.756,0.09,1.139,0.095c0.035,0,0.068,0.008,0.103,0.008c0.045,0,0.091-0.01,0.136-0.012
	c0.401-0.006,0.802-0.034,1.203-0.103l24.157-4.179c-9.943,10.741-23.796,16.824-38.618,16.824c-7.549,0-14.829-1.573-21.54-4.605
	c-0.126-0.066-0.247-0.139-0.377-0.199c-2.784-1.281-5.444-2.802-7.948-4.529c-0.119-0.083-0.24-0.166-0.359-0.249
	c-0.795-0.557-1.577-1.132-2.336-1.732c-0.765-0.603-1.51-1.233-2.241-1.879c-0.167-0.147-0.327-0.3-0.491-0.448
	c-0.583-0.529-1.158-1.069-1.718-1.624c-0.141-0.14-0.282-0.283-0.422-0.424c-0.61-0.618-1.206-1.25-1.785-1.899
	c-0.069-0.078-0.141-0.154-0.21-0.233c-0.667-0.756-1.317-1.532-1.942-2.327c-0.029-0.038-0.063-0.069-0.093-0.107
	C160.985,133.119,159.695,108.198,172.402,89.149z M82.129,208.783c-3.556-10.666-4.094-21.832-1.716-30.491
	c7.098,5.5,13.369,14.754,16.924,25.421c3.243,9.727,3.968,19.862,2.269,28.139c-0.127,0.609-0.262,1.208-0.413,1.789
	c-0.014,0.051-0.025,0.105-0.039,0.156c-0.036,0.135-0.08,0.261-0.116,0.395C91.947,228.691,85.682,219.442,82.129,208.783z"/>
<path d="M500.048,54.189c-10.308-14.783-24.288-24.336-35.614-24.336c-3.253,0-6.309,0.781-8.946,2.255
	c-4.512-4.23-10.51-6.662-16.821-6.662c-5.042,0-9.896,1.527-14.04,4.418l-36.211,25.248c-0.061-0.044-0.112-0.096-0.174-0.138
	c-2.694-1.827-6.234-1.805-8.905,0.058l-13.51,9.421c-24.541,17.112-34.379,47.539-26.616,74.825l-203.937,142.2
	c-4.864,3.391-8.114,8.473-9.156,14.31c-1.041,5.837,0.252,11.731,3.644,16.593c3.39,4.864,8.473,8.115,14.31,9.156
	c1.317,0.236,2.636,0.351,3.945,0.351c4.497,0,8.882-1.369,12.648-3.994l78.549-54.77c6.882,9.296,17.485,17.243,30.29,22.37
	c9.015,3.61,18.515,5.519,27.471,5.519c8.75,0,16.82-1.816,23.337-5.255c3.407-1.797,5.008-5.797,3.783-9.449
	c-4.873-14.524-18.686-27.561-36.948-34.874c-3.812-1.526-7.712-2.729-11.62-3.631l39.135-27.287
	c3.559-2.482,4.432-7.379,1.951-10.938c-2.481-3.559-7.379-4.433-10.939-1.951l-56.176,39.17c-0.093,0.017-0.18,0.042-0.272,0.059
	c-0.985,0.18-1.954,0.385-2.906,0.618c-0.3,0.072-0.594,0.152-0.889,0.228c-0.765,0.202-1.516,0.42-2.256,0.655
	c-0.348,0.11-0.695,0.219-1.036,0.336c-0.706,0.243-1.394,0.507-2.075,0.783c-0.309,0.125-0.625,0.24-0.929,0.371
	c-0.948,0.409-1.874,0.841-2.766,1.311c-0.009,0.004-0.019,0.008-0.028,0.014c-0.003,0.001-0.005,0.003-0.008,0.005
	c-0.32,0.17-0.618,0.364-0.905,0.569c-0.053,0.039-0.108,0.074-0.16,0.114c-0.271,0.205-0.525,0.425-0.764,0.659
	c-0.049,0.048-0.095,0.097-0.142,0.147c-0.238,0.246-0.463,0.502-0.664,0.773c-0.015,0.02-0.026,0.04-0.04,0.06
	c-0.192,0.263-0.362,0.539-0.52,0.823c-0.03,0.053-0.062,0.107-0.09,0.16c-0.152,0.29-0.283,0.59-0.397,0.896
	c-0.025,0.066-0.047,0.133-0.07,0.2c-0.108,0.314-0.2,0.633-0.267,0.959c-0.008,0.04-0.013,0.08-0.02,0.118
	c-0.059,0.307-0.097,0.618-0.118,0.932c-0.004,0.061-0.012,0.119-0.014,0.18c-0.015,0.328-0.005,0.658,0.021,0.989
	c0.003,0.039-0.001,0.075,0.002,0.114l-80.504,56.132c-1.419,0.99-3.141,1.368-4.846,1.064c-1.704-0.305-3.189-1.254-4.179-2.674
	c-2.045-2.932-1.323-6.982,1.61-9.026l201.139-140.25c0.203,0.36,0.425,0.709,0.635,1.066c0.323,0.547,0.637,1.098,0.976,1.639
	c0.544,0.868,1.109,1.721,1.692,2.562c0.052,0.075,0.098,0.153,0.151,0.228c0.561,0.806,1.145,1.591,1.737,2.367
	c0.115,0.151,0.229,0.302,0.346,0.45c0.607,0.78,1.225,1.549,1.862,2.299c0.006,0.007,0.013,0.016,0.019,0.023l-24.224,16.89
	c-3.559,2.482-4.432,7.379-1.951,10.938c2.481,3.559,7.379,4.433,10.939,1.951l27.013-18.835
	c11.568,8.446,25.674,13.177,40.378,13.178c0.003,0,0.003,0,0.006,0c14.006,0,27.506-4.25,39.036-12.289l13.51-9.421
	c2.669-1.862,3.915-5.177,3.131-8.336c-0.018-0.072-0.05-0.138-0.07-0.211l36.21-25.249c5.385-3.754,8.985-9.381,10.138-15.843
	c0.849-4.76,0.29-9.553-1.562-13.9C515.869,94.652,513.751,73.841,500.048,54.189z M305.687,274.423
	c-2.687,0.576-5.617,0.873-8.713,0.873c-6.974,0-14.454-1.519-21.629-4.392c-10.432-4.177-19.294-10.975-24.367-18.38
	c0.851-0.18,1.719-0.344,2.623-0.47c0.024-0.003,0.048-0.01,0.072-0.015c1.912-0.264,3.914-0.411,6-0.411
	c6.975,0,14.454,1.519,21.63,4.392C291.745,260.201,300.617,267.011,305.687,274.423z M487.159,63.176
	c4.729,6.781,7.978,14.227,8.917,20.43c0.499,3.296,0.234,5.59-0.229,6.908c-0.769-0.809-1.561-1.594-2.363-2.365
	c-0.145-0.14-0.29-0.28-0.436-0.418c-0.749-0.708-1.511-1.402-2.287-2.076c-0.224-0.196-0.454-0.385-0.68-0.578
	c-0.609-0.516-1.224-1.022-1.848-1.517c-0.307-0.244-0.614-0.488-0.924-0.727c-0.655-0.503-1.318-0.992-1.987-1.472
	c-0.347-0.248-0.695-0.495-1.045-0.737c-0.731-0.505-1.469-0.999-2.217-1.477c-0.333-0.213-0.67-0.417-1.008-0.624
	c-0.62-0.382-1.246-0.755-1.876-1.119c-0.271-0.156-0.54-0.318-0.813-0.471c-0.864-0.483-1.741-0.943-2.623-1.392
	c-0.249-0.126-0.498-0.252-0.749-0.376c-0.956-0.473-1.923-0.927-2.9-1.359c-0.032-0.015-0.065-0.031-0.097-0.045
	c-0.002-0.036-0.006-0.07-0.009-0.105c-0.07-1.15-0.169-2.295-0.292-3.436c-0.019-0.172-0.043-0.343-0.063-0.513
	c-0.113-0.983-0.246-1.962-0.398-2.936c-0.036-0.227-0.073-0.455-0.11-0.681c-0.167-1.007-0.353-2.008-0.56-3.005
	c-0.024-0.116-0.046-0.234-0.071-0.349c-0.497-2.325-1.106-4.621-1.826-6.882c-0.027-0.085-0.056-0.169-0.083-0.254
	c-0.33-1.023-0.683-2.04-1.058-3.048c-0.054-0.146-0.108-0.292-0.163-0.438c-0.403-1.065-0.828-2.124-1.281-3.172
	c-0.006-0.016-0.013-0.03-0.019-0.045c-0.477-1.099-0.98-2.187-1.512-3.264c-0.009-0.02-0.018-0.041-0.028-0.061
	C469.605,45.634,479.227,51.801,487.159,63.176z M433.615,42.752c1.495-1.043,3.242-1.593,5.052-1.593
	c2.903,0,5.626,1.418,7.283,3.794c0.568,0.814,1.105,1.642,1.628,2.477c0.124,0.198,0.245,0.397,0.367,0.596
	c0.452,0.742,0.888,1.489,1.304,2.247c0.054,0.1,0.114,0.197,0.169,0.298c0.434,0.799,0.839,1.61,1.233,2.426
	c0.135,0.28,0.267,0.559,0.397,0.84c0.321,0.69,0.626,1.387,0.919,2.088c0.131,0.313,0.257,0.629,0.382,0.945
	c0.256,0.646,0.5,1.297,0.731,1.952c0.124,0.349,0.244,0.698,0.361,1.048c0.236,0.706,0.458,1.417,0.665,2.132
	c0.107,0.367,0.205,0.735,0.305,1.104c0.167,0.62,0.325,1.243,0.47,1.869c0.081,0.345,0.16,0.688,0.234,1.033
	c0.179,0.838,0.346,1.679,0.487,2.526c0.01,0.061,0.018,0.122,0.027,0.182c-4.408-0.816-8.918-1.237-13.481-1.237
	c-15.165,0-29.78,4.6-42.262,13.303l-14.958,10.431l3.863-16.478l0.964-1.4L433.615,42.752z M404.975,173.16
	c-13.485-0.001-26.301-5.179-35.958-14.186c-0.404-0.377-0.817-0.747-1.209-1.136c-0.257-0.255-0.498-0.526-0.748-0.786
	c-0.481-0.498-0.965-0.992-1.425-1.506c-0.255-0.286-0.492-0.589-0.742-0.88c-0.428-0.502-0.864-0.999-1.273-1.517
	c-0.648-0.82-1.275-1.66-1.877-2.524c-0.015-0.021-0.027-0.043-0.042-0.064c-0.538-0.775-1.054-1.568-1.551-2.373
	c-0.126-0.203-0.242-0.409-0.365-0.612c-0.395-0.66-0.78-1.327-1.147-2.005c-0.102-0.188-0.201-0.376-0.3-0.565
	c-0.396-0.755-0.777-1.519-1.138-2.294c-0.049-0.106-0.101-0.212-0.15-0.317c-0.418-0.915-0.813-1.84-1.18-2.778
	c-0.017-0.044-0.04-0.085-0.058-0.128c-8.041-20.816-2.054-45.042,15.628-59.593l-4.309,18.377l-1.286,5.487
	c-0.128,0.544-0.196,1.093-0.206,1.642c-0.033,1.645,0.454,3.274,1.41,4.647c0.1,0.142,0.211,0.273,0.318,0.409
	c0.585,0.73,1.282,1.351,2.071,1.827c0.934,0.564,1.986,0.932,3.093,1.069l3.907,0.482l32.342,3.989l-8.338,35.56
	c-0.128,0.544-0.196,1.093-0.206,1.642c-0.032,1.645,0.454,3.274,1.41,4.647c1.276,1.829,3.269,3.031,5.483,3.303l24.331,3
	c-8.045,4.713-17.119,7.184-26.485,7.184C404.977,173.16,404.976,173.16,404.975,173.16z M491.467,114.767
	c-0.416,2.33-1.714,4.359-3.656,5.712l-43.855,30.58l-1.649,0.421l-1.715-0.212l-22.847-2.818l8.338-35.56
	c0.128-0.543,0.196-1.093,0.206-1.642c0.032-1.645-0.454-3.274-1.41-4.646c-1.276-1.83-3.269-3.032-5.483-3.304l-20.67-2.55
	l10.153-7.079c0.944-0.657,1.907-1.276,2.88-1.874c9.159-5.626,19.583-8.593,30.364-8.593c0.479,0,0.956,0.019,1.434,0.03
	c0.454,0.012,0.908,0.02,1.361,0.042c0.579,0.027,1.159,0.066,1.736,0.11c0.433,0.034,0.864,0.075,1.295,0.118
	c0.883,0.088,1.763,0.197,2.641,0.325c0.521,0.076,1.042,0.149,1.56,0.239c0.541,0.093,1.077,0.203,1.614,0.312
	c0.463,0.094,0.925,0.194,1.385,0.299c0.514,0.117,1.03,0.236,1.542,0.367c0.704,0.181,1.403,0.378,2.097,0.585
	c0.547,0.162,1.092,0.337,1.634,0.515c0.587,0.194,1.171,0.392,1.752,0.603c0.382,0.139,0.764,0.282,1.143,0.428
	c0.841,0.328,1.677,0.667,2.502,1.032c0.205,0.091,0.408,0.189,0.612,0.282c0.84,0.384,1.673,0.784,2.494,1.207
	c0.104,0.053,0.21,0.105,0.313,0.158c0.946,0.495,1.877,1.018,2.795,1.564c0.101,0.06,0.201,0.12,0.301,0.18
	c1.901,1.147,3.74,2.403,5.503,3.764c0.045,0.035,0.091,0.068,0.136,0.104c0.836,0.649,1.652,1.326,2.454,2.022
	c0.141,0.123,0.281,0.246,0.421,0.371c0.758,0.671,1.502,1.359,2.226,2.071c0.149,0.147,0.292,0.3,0.44,0.448
	c0.555,0.558,1.098,1.131,1.631,1.713c0.237,0.259,0.476,0.513,0.708,0.776c0.555,0.627,1.094,1.271,1.623,1.924
	c0.299,0.37,0.593,0.744,0.883,1.122c0.564,0.731,1.125,1.464,1.656,2.226C491.365,110.083,491.882,112.436,491.467,114.767z"/>
<path d="M443.918,260.996c-2.091,0-4.092,0.36-5.978,1.046c-6.922-9.015-19.456-12.295-30.108-7.193l-39.81,19.076
	c-0.053-0.052-0.095-0.113-0.15-0.164c-2.363-2.239-5.861-2.788-8.796-1.38l-14.853,7.117c-16.465,7.889-28.872,21.718-34.934,38.94
	c-3.516,9.984-4.639,20.414-3.437,30.626l-63.391,30.376c1.118-3.803,1.985-7.775,2.54-11.889
	c2.633-19.494-1.909-37.937-12.149-49.334c-2.574-2.864-6.844-3.442-10.087-1.362c-12.895,8.273-22.165,24.85-24.798,44.346
	c-1.845,13.67-0.151,26.811,4.549,37.38L81.677,456.485c-5.347,2.562-9.377,7.052-11.346,12.645
	c-1.968,5.592-1.642,11.616,0.92,16.964c3.671,7.659,11.533,12.607,20.027,12.607c3.335,0,6.559-0.734,9.581-2.183l86.356-41.381
	c5.292,10.284,14.474,19.839,26.285,26.964c11.404,6.879,24.079,10.669,35.695,10.669c5.177,0,10.023-0.745,14.404-2.212
	c3.652-1.224,5.878-4.913,5.259-8.715c-2.466-15.12-13.995-30.216-30.838-40.378c-3.522-2.124-7.165-3.952-10.862-5.467
	l97.944-46.934c12.674,12.804,30.194,20.434,48.7,20.435c0.002,0,0.003,0,0.005,0c10.255,0,20.177-2.263,29.49-6.725l14.854-7.117
	c2.935-1.407,4.698-4.477,4.435-7.722c-0.006-0.075-0.027-0.146-0.035-0.22l39.809-19.076c5.919-2.837,10.379-7.809,12.559-14
	c1.605-4.56,1.827-9.378,0.703-13.965c6.192-3.727,9.647-11.132,9.765-21.077c0.104-8.73-2.399-18.879-7.047-28.577
	C469.734,273.062,455.901,260.996,443.918,260.996z M464.169,297.813c3.572,7.454,5.578,15.328,5.505,21.6
	c-0.04,3.329-0.67,5.549-1.338,6.776c-5.567-8.199-12.663-15.108-20.839-20.412c0.002-0.019,0.002-0.038,0.004-0.057
	c0.117-1.156,0.205-2.312,0.268-3.467c0.008-0.156,0.012-0.313,0.019-0.47c0.048-1.004,0.075-2.007,0.083-3.009
	c0.001-0.222,0.001-0.444,0.001-0.666c-0.002-1.027-0.024-2.051-0.069-3.076c-0.005-0.116-0.007-0.233-0.014-0.349
	c-0.115-2.373-0.347-4.736-0.691-7.083c-0.014-0.095-0.03-0.19-0.044-0.284c-0.159-1.056-0.343-2.109-0.549-3.158
	c-0.03-0.157-0.061-0.315-0.093-0.472c-0.226-1.114-0.473-2.225-0.751-3.329c-0.004-0.017-0.008-0.035-0.013-0.051
	c-0.293-1.161-0.615-2.317-0.966-3.466c-0.006-0.022-0.012-0.043-0.018-0.064C449.193,277.534,457.934,284.8,464.169,297.813z
	 M213.54,363.303c1.505-11.143,5.939-21.405,11.888-28.131c3.951,8.064,5.506,19.135,4.001,30.277
	c-1.37,10.152-5.177,19.563-10.342,26.246c-0.387,0.499-0.777,0.983-1.174,1.446c-0.034,0.04-0.067,0.08-0.101,0.119
	c-0.092,0.106-0.186,0.2-0.279,0.305C213.588,385.5,212.038,374.438,213.54,363.303z M250.993,477.015
	c-0.59,0.029-1.19,0.044-1.799,0.044c-8.795,0-18.588-2.988-27.577-8.41c-9.62-5.805-17.27-13.944-21.082-22.07
	c0.872-0.042,1.757-0.063,2.666-0.043c0.035,0.001,0.07-0.004,0.105-0.004c8.538,0.213,17.938,3.167,26.592,8.389
	C239.53,460.732,247.185,468.882,250.993,477.015z M315.201,376.385l-113.58,54.426c-3.072,0.041-6.027,0.341-8.831,0.907
	c-0.053,0.01-0.105,0.023-0.157,0.035c-0.5,0.103-0.996,0.211-1.486,0.33c-0.173,0.042-0.34,0.09-0.511,0.134
	c-0.374,0.096-0.748,0.191-1.116,0.296c-0.367,0.106-0.725,0.222-1.085,0.336c-0.172,0.056-0.347,0.104-0.516,0.16
	c-0.35,0.117-0.682,0.264-1.005,0.424c-0.052,0.026-0.106,0.05-0.158,0.078c-0.305,0.16-0.596,0.339-0.873,0.535
	c-0.051,0.037-0.1,0.073-0.15,0.111c-0.279,0.207-0.547,0.426-0.793,0.667c-0.01,0.01-0.021,0.022-0.031,0.034
	c-0.24,0.236-0.459,0.489-0.666,0.752c-0.035,0.044-0.07,0.086-0.104,0.13c-0.199,0.265-0.38,0.544-0.545,0.832
	c-0.032,0.057-0.062,0.113-0.093,0.171c-0.16,0.298-0.306,0.602-0.426,0.919c-0.01,0.028-0.019,0.058-0.029,0.086
	c-0.113,0.306-0.205,0.621-0.279,0.941c-0.012,0.049-0.025,0.097-0.036,0.147c-0.07,0.329-0.115,0.665-0.142,1.005
	c-0.002,0.033-0.012,0.065-0.014,0.097l-88.506,42.411c-0.886,0.424-1.825,0.64-2.791,0.64c-2.485,0-4.783-1.447-5.857-3.685
	c-0.748-1.562-0.844-3.322-0.269-4.955c0.576-1.633,1.753-2.945,3.314-3.694l122.989-58.935c0.036,0.025,0.075,0.042,0.111,0.066
	c0.246,0.167,0.5,0.316,0.759,0.453c0.085,0.044,0.17,0.087,0.256,0.128c0.281,0.134,0.567,0.254,0.859,0.352
	c0.032,0.012,0.064,0.026,0.096,0.037c0.325,0.105,0.655,0.183,0.989,0.245c0.088,0.017,0.176,0.028,0.265,0.042
	c0.27,0.041,0.541,0.067,0.814,0.08c0.079,0.003,0.156,0.01,0.236,0.012c0.041,0.001,0.083,0.006,0.124,0.006
	c0.184,0,0.37-0.025,0.554-0.039c0.154-0.01,0.307-0.013,0.461-0.032c0.233-0.03,0.462-0.085,0.691-0.136
	c0.139-0.031,0.279-0.05,0.417-0.089c0.259-0.073,0.511-0.173,0.764-0.273c0.105-0.042,0.213-0.07,0.316-0.116
	c0.354-0.158,0.7-0.344,1.035-0.558c0.008-0.005,0.016-0.012,0.024-0.017c0.685-0.44,1.36-0.916,2.028-1.407
	c0.175-0.129,0.351-0.255,0.525-0.387c0.556-0.423,1.105-0.864,1.649-1.323c0.342-0.286,0.677-0.581,1.012-0.879
	c0.129-0.115,0.256-0.235,0.383-0.352c1.656-1.51,3.232-3.164,4.717-4.956l79.053-37.881c0.37,1.003,0.761,2,1.18,2.99
	c0.424,1.008,0.873,2.005,1.344,2.99c0.005,0.012,0.013,0.023,0.018,0.035c0.415,0.864,0.852,1.714,1.301,2.556
	c0.146,0.272,0.296,0.542,0.445,0.812c0.325,0.589,0.657,1.171,0.997,1.747C314.991,376.01,315.09,376.201,315.201,376.385z
	 M373.805,393.788c-0.001,0-0.003,0-0.004,0c-16.26-0.001-31.535-7.642-41.405-20.13c-0.267-0.339-0.529-0.682-0.788-1.028
	c-0.291-0.388-0.577-0.778-0.858-1.174c-0.41-0.58-0.809-1.167-1.193-1.763c-0.126-0.194-0.252-0.385-0.375-0.581
	c-0.471-0.75-0.924-1.511-1.356-2.282c-0.083-0.149-0.163-0.299-0.245-0.447c-0.452-0.824-0.886-1.655-1.292-2.501
	c-0.422-0.881-0.815-1.776-1.188-2.681c-0.082-0.197-0.154-0.396-0.234-0.593c-0.294-0.741-0.576-1.485-0.837-2.24
	c-0.064-0.183-0.125-0.368-0.186-0.551c-0.277-0.829-0.535-1.664-0.771-2.507c-0.027-0.097-0.057-0.195-0.084-0.292
	c-0.267-0.974-0.509-1.957-0.72-2.947c-0.009-0.046-0.026-0.089-0.037-0.134c-4.577-21.841,5.24-44.783,25.038-56.291l-7.475,18.066
	l-1.897,4.584c-0.853,2.062-0.79,4.387,0.174,6.4c0.965,2.011,2.738,3.519,4.88,4.145l3.779,1.105l0,0l31.274,9.155l-13.965,33.749
	c-0.853,2.062-0.79,4.387,0.174,6.398c0.964,2.012,2.737,3.519,4.879,4.145l23.53,6.888
	C386.598,392.61,380.286,393.788,373.805,393.788z M460.098,349.423c-0.787,2.232-2.395,4.025-4.529,5.047l-48.216,23.105
	l-1.694,0.15l-23.752-6.952l13.965-33.75c0.426-1.03,0.624-2.128,0.594-3.218c-0.029-1.092-0.286-2.176-0.768-3.181
	c-0.964-2.011-2.737-3.519-4.879-4.145l-19.988-5.851l11.16-5.348c0.652-0.312,1.323-0.611,1.999-0.903
	c0.344-0.148,0.696-0.293,1.053-0.439c0.239-0.098,0.48-0.194,0.721-0.289c0.319-0.126,0.639-0.25,0.972-0.375
	c3.05-1.147,4.969-3.988,5.088-7.051c0.042-1.02-0.116-2.066-0.498-3.081c-1.526-4.062-6.057-6.116-10.119-4.589
	c-0.345,0.13-0.681,0.275-1.023,0.41c-0.458,0.178-0.907,0.359-1.348,0.541c-0.337,0.139-0.675,0.278-1.009,0.421
	c-0.9,0.385-1.772,0.778-2.623,1.185l-16.445,7.88l1.198-2.895l5.274-12.744l1.176-1.226l48.216-23.104
	c4.401-2.111,9.709-0.244,11.82,4.162c0.432,0.901,0.833,1.812,1.216,2.728c0.08,0.191,0.158,0.382,0.236,0.573
	c0.356,0.876,0.696,1.757,1.008,2.645c0.044,0.126,0.083,0.252,0.126,0.378c0.267,0.776,0.513,1.559,0.746,2.343
	c0.072,0.243,0.147,0.487,0.216,0.731c0.234,0.827,0.447,1.657,0.643,2.492c0.07,0.299,0.134,0.598,0.2,0.898
	c0.151,0.689,0.288,1.382,0.414,2.075c0.062,0.345,0.121,0.689,0.178,1.034c0.113,0.704,0.213,1.409,0.3,2.116
	c0.042,0.34,0.084,0.681,0.119,1.022c0.086,0.813,0.157,1.627,0.207,2.444c0.02,0.309,0.03,0.619,0.044,0.929
	c0.031,0.682,0.052,1.364,0.059,2.048c0.002,0.183,0.007,0.366,0.007,0.549c-1.256-0.448-2.529-0.859-3.814-1.241
	c-0.015-0.004-0.029-0.009-0.045-0.014c-1.176-0.349-2.365-0.666-3.565-0.959c-0.226-0.056-0.453-0.11-0.68-0.163
	c-1.097-0.256-2.2-0.491-3.313-0.699c-0.305-0.057-0.611-0.107-0.916-0.159c-0.963-0.167-1.93-0.318-2.903-0.448
	c-0.181-0.024-0.358-0.061-0.539-0.084c-4.294-0.547-8.235,2.502-8.782,6.807c-0.035,0.272-0.054,0.543-0.061,0.811
	c-0.002,0.088,0.005,0.174,0.006,0.261c0.002,0.174,0,0.349,0.014,0.521c0.274,3.648,3.081,6.721,6.851,7.197
	c1.148,0.146,2.285,0.33,3.413,0.539c0.233,0.044,0.465,0.092,0.697,0.138c0.873,0.173,1.737,0.368,2.596,0.579
	c0.304,0.074,0.609,0.146,0.91,0.225c0.892,0.235,1.772,0.492,2.647,0.767c0.55,0.174,1.096,0.361,1.64,0.551
	c0.548,0.19,1.096,0.381,1.636,0.587c0.631,0.241,1.256,0.498,1.878,0.761c0.271,0.114,0.541,0.23,0.809,0.349
	c1.484,0.655,2.947,1.368,4.383,2.149c3.676,1.996,7.095,4.364,10.219,7.055c0.17,0.147,0.339,0.294,0.507,0.442
	c0.775,0.683,1.528,1.39,2.265,2.114c0.241,0.237,0.483,0.47,0.72,0.711c0.406,0.414,0.807,0.832,1.201,1.257
	c0.408,0.441,0.807,0.891,1.202,1.346c0.439,0.504,0.867,1.017,1.288,1.537c0.323,0.399,0.64,0.803,0.952,1.211
	c0.432,0.564,0.854,1.135,1.265,1.715c0.334,0.47,0.663,0.945,0.985,1.427c0.272,0.409,0.543,0.817,0.805,1.233
	c0.434,0.688,0.853,1.387,1.259,2.095c0.247,0.432,0.487,0.869,0.724,1.309c0.451,0.835,0.9,1.672,1.314,2.533
	C460.752,344.786,460.883,347.191,460.098,349.423z"/>
<g>
</g>
<g>
</g>
<g>
</g>
<g>
</g>
<g>
</g>
<g>
</g>
<g>
</g>
<g>
</g>
<g>
</g>
<g>
</g>
<g>
</g>
<g>
</g>
<g>
</g>
<g>
</g>
<g>
</g>
</svg>
