<?xml version="1.0" encoding="iso-8859-1"?>
<!-- Generator: Adobe Illustrator 19.0.0, SVG Export Plug-In . SVG Version: 6.00 Build 0)  -->
<svg version="1.1" id="Layer_1" xmlns="http://www.w3.org/2000/svg" xmlns:xlink="http://www.w3.org/1999/xlink" x="0px" y="0px"
	 viewBox="0 0 512.001 512.001" style="enable-background:new 0 0 512.001 512.001;" xml:space="preserve">
<path style="fill:#E18CAF;" d="M503.923,87.33c-30.657,11.635-78.208,10.339-127.464-6.1S288.404,37.267,270.881,9.552
	l-59.642,178.702c-21.478,64.353,13.279,133.931,77.631,155.41h0.001c64.353,21.478,133.931-13.279,155.41-77.631L503.923,87.33
	L503.923,87.33z M365.454,312.206c-11.73-11.843-31.608-23.534-55.561-31.528c-23.952-7.995-46.867-10.586-63.36-8.161
	c0,0,12.986-48.943,75.46-28.092S365.454,312.206,365.454,312.206z"/>
<g style="opacity:0.1;">
	<path d="M243.549,199.024L297.12,38.511c-11.102-9.305-20.017-19.118-26.239-28.959l-59.642,178.702
		c-21.478,64.353,13.279,133.931,77.632,155.41l0,0c5.497,1.835,11.032,3.249,16.572,4.28
		C251.335,321.164,223.895,257.91,243.549,199.024z"/>
</g>
<path style="fill:#7DD2F0;" d="M253.756,191.217c-25.396,20.742-70.913,34.566-122.839,34.566S33.473,211.959,8.077,191.216v188.392
	c0,67.842,54.997,122.839,122.839,122.839h0.001c67.842,0,122.839-54.997,122.839-122.839L253.756,191.217L253.756,191.217z
	 M130.917,444.939c-65.861,0-62.685-55.729-62.685-55.729c14.876,8.293,37.432,13.582,62.685,13.582
	c25.251,0,47.808-5.289,62.685-13.582C193.601,389.21,196.777,444.939,130.917,444.939z"/>
<g style="opacity:0.1;">
	<path d="M40.387,379.609V209.685c-12.731-5.178-23.684-11.423-32.31-18.467V379.61c0,67.842,54.997,122.839,122.839,122.839l0,0
		c5.477,0,10.868-0.364,16.155-1.059C86.865,493.48,40.387,441.974,40.387,379.609z"/>
</g>
<path d="M68.185,263.09c-13.338,0-25.825,4.88-34.263,13.389c-3.141,3.167-3.119,8.282,0.05,11.423
	c1.575,1.562,3.632,2.341,5.687,2.341c2.079,0,4.157-0.798,5.736-2.39c5.344-5.39,13.864-8.608,22.79-8.608
	c8.925,0,17.444,3.217,22.788,8.607c3.142,3.167,8.256,3.189,11.423,0.048c3.167-3.142,3.189-8.256,0.048-11.423
	C94.008,267.969,81.52,263.09,68.185,263.09z"/>
<path d="M76.96,316.877c3.142,3.167,8.256,3.189,11.423,0.047c3.167-3.142,3.189-8.255,0.048-11.423
	c-5.032-5.074-12.411-7.985-20.248-7.985s-15.216,2.911-20.249,7.986c-3.142,3.167-3.119,8.281,0.048,11.423
	c1.575,1.562,3.632,2.341,5.688,2.341c2.079,0,4.156-0.797,5.736-2.39c1.99-2.008,5.272-3.206,8.778-3.206
	S74.97,314.869,76.96,316.877z"/>
<path d="M137.958,362.799c-7.708,5.256-23.596,4.982-33.326-3.249c-3.407-2.881-8.503-2.457-11.384,0.949
	c-2.881,3.405-2.457,8.503,0.949,11.384c8.278,7.004,19.523,10.642,30.369,10.642c8.214,0,16.2-2.087,22.493-6.378
	c10.367-7.069,13.929-19.003,9.526-31.919c-0.121-0.355-0.267-0.702-0.436-1.037c-0.037-0.072-3.675-7.553-3.864-17.955
	c-0.256-14.1,5.822-26.52,18.067-36.912c0.177-0.15,0.346-0.306,0.508-0.471c5.345-5.39,13.864-8.607,22.789-8.607
	c8.926,0,17.445,3.218,22.79,8.608c3.141,3.167,8.255,3.19,11.423,0.048c3.167-3.141,3.189-8.255,0.048-11.423
	c-8.436-8.508-20.925-13.389-34.263-13.389c-13.203,0-25.574,4.782-34.007,13.134c-19.853,16.986-23.748,36.174-23.51,49.305
	c0.225,12.406,4.151,21.821,5.295,24.31C143.931,357.614,140.66,360.956,137.958,362.799z"/>
<path d="M208.163,319.267c2.056,0,4.112-0.78,5.688-2.341c3.167-3.141,3.189-8.255,0.048-11.423
	c-5.032-5.075-12.412-7.986-20.249-7.986c-7.836,0-15.216,2.911-20.248,7.985c-3.142,3.167-3.119,8.282,0.048,11.423
	c3.167,3.141,8.282,3.12,11.423-0.047c1.99-2.008,5.271-3.205,8.776-3.205c3.506,0,6.786,1.199,8.776,3.206
	C204.006,318.47,206.085,319.267,208.163,319.267z"/>
<path d="M305.143,96.757c-12.653-4.223-26.043-3.547-36.74,1.854c-3.982,2.011-5.581,6.868-3.569,10.851
	c2.011,3.983,6.868,5.58,10.851,3.57c6.776-3.422,15.876-3.777,24.343-0.951c8.466,2.826,15.528,8.575,18.892,15.38
	c1.409,2.849,4.271,4.5,7.247,4.5c1.202,0,2.423-0.269,3.573-0.838c3.999-1.976,5.638-6.821,3.662-10.821
	C328.093,109.561,317.792,100.979,305.143,96.757z"/>
<path d="M303.687,155.055c1.202,0,2.423-0.269,3.572-0.838c3.999-1.977,5.639-6.822,3.662-10.821
	c-3.166-6.407-9.246-11.503-16.678-13.984c-7.432-2.481-15.355-2.057-21.736,1.165c-3.982,2.011-5.581,6.868-3.569,10.851
	c2.011,3.983,6.869,5.58,10.851,3.57c2.522-1.274,6.014-1.372,9.34-0.262c3.325,1.109,6.058,3.285,7.311,5.818
	C297.847,153.404,300.71,155.055,303.687,155.055z"/>
<path d="M339.761,213.427c-8.972,2.546-23.96-2.743-30.582-13.632c-2.318-3.812-7.287-5.022-11.098-2.704
	c-3.811,2.318-5.023,7.287-2.704,11.098c8.134,13.374,24.353,22.053,39.312,22.05c3.251,0,6.446-0.41,9.481-1.271
	c12.072-3.425,19.229-13.615,19.142-27.262c-0.002-0.376-0.031-0.75-0.086-1.122c-0.012-0.08-1.094-8.327,2.019-18.254
	c4.221-13.457,13.918-23.313,28.823-29.294c0.214-0.086,0.425-0.181,0.631-0.285c6.776-3.421,15.877-3.775,24.341-0.95
	c8.467,2.826,15.529,8.576,18.893,15.381c1.976,3.999,6.82,5.639,10.821,3.663c3.999-1.976,5.639-6.821,3.663-10.82
	c-5.309-10.743-15.609-19.326-28.262-23.548c-12.522-4.18-25.773-3.561-36.417,1.692c-36.83,14.952-42.666,48.076-40.585,64.13
	C347.045,210.412,342.899,212.536,339.761,213.427z"/>
<path d="M413.256,169.134c-7.433-2.48-15.356-2.056-21.735,1.164c-3.983,2.01-5.581,6.868-3.57,10.851
	c2.01,3.983,6.869,5.581,10.851,3.571c2.522-1.274,6.014-1.371,9.34-0.262c3.325,1.109,6.058,3.285,7.311,5.819
	c1.409,2.849,4.271,4.501,7.247,4.501c1.202,0,2.422-0.269,3.572-0.838c3.999-1.976,5.639-6.821,3.662-10.821
	C426.768,176.712,420.689,171.614,413.256,169.134z"/>
<path d="M501.057,79.779c-29.853,11.33-76.616,8.951-122.04-6.21c-13.041-4.352-25.602-9.599-37.34-15.596
	c-3.915-2-8.87-0.708-11,3.138c-2.222,4.012-0.67,9.034,3.379,11.109c12.533,6.422,25.94,12.031,39.847,16.673
	c42.429,14.16,84.966,17.834,117.46,10.564L446.57,233.66c-1.412,4.232,0.873,8.807,5.105,10.22l0,0
	c4.232,1.412,8.807-0.873,10.22-5.105l49.691-148.887c0.988-2.96,0.183-6.223-2.068-8.383
	C507.267,79.343,503.974,78.671,501.057,79.779z"/>
<path d="M130.918,510.525c72.187,0,130.917-58.729,130.917-130.917v-39.341c7.725,4.493,15.913,8.198,24.481,11.059
	c13.517,4.512,27.514,6.755,41.482,6.755c17.99,0,35.93-3.724,52.714-11.119c29.605-13.044,53.218-36.395,66.489-65.752
	c1.838-4.065,0.032-8.85-4.033-10.687c-4.061-1.837-8.85-0.032-10.687,4.033c-11.628,25.723-32.327,46.187-58.283,57.623
	c-26.133,11.513-55.456,12.871-82.569,3.822c-10.6-3.538-20.537-8.538-29.594-14.887v-41.361
	c13.736,0.304,29.591,3.276,45.502,8.587c21.941,7.323,41.033,18.094,52.379,29.551c1.91,1.929,4.661,2.769,7.327,2.236
	c2.663-0.534,4.879-2.369,5.899-4.887c0.338-0.836,8.181-20.714-1.568-41.865c-7.584-16.455-23.337-28.774-46.823-36.613
	c-15.583-5.201-41.698-10.374-62.717,3.004c0,0,0-48.477,0-48.548c0-6.613-8.065-10.568-13.202-6.243
	c-7.185,6.047-15.579,10.673-24.095,14.558c-1.107,0.505-8.864,2.94-9.044,3.781c0.9-4.219,2.039-8.395,3.409-12.5l54.75-164.044
	c8.201,9.581,18.627,18.936,30.775,27.567c3.638,2.584,8.681,1.73,11.263-1.907c2.584-3.637,1.73-8.68-1.907-11.263
	c-15.864-11.27-28.339-23.694-36.074-35.929c-1.667-2.638-4.706-4.078-7.801-3.703c-3.097,0.376-5.701,2.502-6.688,5.461
	l-59.642,178.702c-2.536,7.599-4.363,15.417-5.477,23.309c-20.268,5.598-43.382,8.7-67.183,8.7c-12.618,0-25.145-0.85-37.23-2.524
	c-4.422-0.613-8.498,2.474-9.11,6.892c-0.612,4.419,2.473,8.498,6.892,9.11c12.818,1.776,26.09,2.677,39.448,2.677
	c44.731,0,86.242-9.982,114.762-27.165v51.682v13.43v53.418v54.383c0,63.279-51.482,114.762-114.762,114.762
	S16.155,442.889,16.155,379.609V206.675c11.806,7.09,26.024,13.068,41.909,17.574c4.291,1.217,8.757-1.275,9.975-5.567
	c1.217-4.292-1.275-8.757-5.567-9.975c-20.256-5.745-37.299-13.957-49.285-23.747c-2.417-1.974-5.753-2.378-8.572-1.041
	C1.796,185.256,0,188.097,0,191.217v188.392C0,451.797,58.73,510.525,130.918,510.525z M319.436,252.085
	c18.979,6.334,31.485,15.705,37.173,27.85c2.836,6.056,3.575,12.059,3.459,17.037c-12.692-9.428-29.346-17.859-47.616-23.957
	c-17.527-5.85-35.161-9.101-50.617-9.408v-2.437C273.905,246.667,293.75,243.511,319.436,252.085z"/>
<path d="M130.917,453.017c23.625,0,41.914-6.681,54.358-19.854c17.642-18.676,16.45-43.371,16.391-44.412
	c-0.158-2.778-1.735-5.278-4.173-6.619c-2.438-1.34-5.394-1.331-7.824,0.023c-14.318,7.982-35.732,12.56-58.751,12.56
	s-44.433-4.578-58.751-12.56c-2.43-1.355-5.386-1.363-7.824-0.023c-2.438,1.34-4.015,3.841-4.173,6.619
	c-0.059,1.043-1.251,25.736,16.39,44.412C89.003,446.336,107.293,453.017,130.917,453.017z M130.917,410.87
	c19.396,0,37.992-3.035,53.105-8.518c-1.525,6.094-4.542,13.422-10.49,19.718c-9.272,9.816-23.61,14.793-42.615,14.793
	c-18.922,0-33.219-4.935-42.494-14.667c-5.965-6.258-9.007-13.663-10.554-19.824C92.971,407.841,111.545,410.87,130.917,410.87z"/>
<g>
</g>
<g>
</g>
<g>
</g>
<g>
</g>
<g>
</g>
<g>
</g>
<g>
</g>
<g>
</g>
<g>
</g>
<g>
</g>
<g>
</g>
<g>
</g>
<g>
</g>
<g>
</g>
<g>
</g>
</svg>
