<svg width="104" height="99" viewBox="0 0 104 99" fill="none" xmlns="http://www.w3.org/2000/svg">
<rect width="104" height="99" rx="15" fill="#F9F9F9"/>
<g opacity="0.199997">
<g opacity="0.199997">
<g opacity="0.199997">
<g opacity="0.199997">
<path opacity="0.199997" d="M41.7847 77.4707L35.082 73.825C39.6605 73.1816 42.9635 72.5204 44.9925 71.8486C45.6679 71.6218 46.2978 71.3716 46.8836 71.095L53.5849 74.7414C52.9998 75.0173 52.3699 75.2675 51.6945 75.4943C49.6662 76.1661 46.3625 76.8273 41.7847 77.4707Z" fill="#B9B9B9"/>
</g>
<g opacity="0.199997">
<path opacity="0.199997" d="M53.5851 74.7402L46.8838 71.0938C47.5585 70.776 48.1749 70.4234 48.7322 70.0388L55.4335 73.6845C54.8761 74.0698 54.2612 74.421 53.5851 74.7402Z" fill="#B6B7B7"/>
</g>
<g opacity="0.199997">
<path opacity="0.199997" d="M55.4327 73.6855L48.7314 70.0399C49.1068 69.7804 49.4552 69.5052 49.7772 69.2152L56.4799 72.8601C56.1579 73.1502 55.8088 73.4253 55.4327 73.6855Z" fill="#B3B4B4"/>
</g>
<g opacity="0.199997">
<path opacity="0.199997" d="M56.4791 72.8594L49.7764 69.2144C49.8055 69.1881 49.8347 69.1618 49.8638 69.1348C50.193 68.8362 50.5072 68.5177 50.8058 68.18L57.5071 71.8257C57.2092 72.1634 56.8957 72.4819 56.5665 72.7805L56.4791 72.8594Z" fill="#B0B1B1"/>
</g>
<g opacity="0.199997">
<path opacity="0.199997" d="M57.5077 71.8262L50.8057 68.1805C51.1199 67.8243 51.4171 67.4468 51.6972 67.0473L58.3999 70.6929C58.1191 71.0925 57.8219 71.47 57.5077 71.8262Z" fill="#AEAEAE"/>
</g>
<g opacity="0.199997">
<path opacity="0.199997" d="M58.4 70.6934L51.6973 67.0477C52.0165 66.592 52.3136 66.1092 52.5888 65.5967L59.2915 69.243C59.0157 69.7549 58.7185 70.2384 58.4 70.6934Z" fill="#ABABAB"/>
</g>
<g opacity="0.199997">
<path opacity="0.199997" d="M59.2916 69.2422L52.5889 65.5958C52.8775 65.0612 53.142 64.4938 53.3816 63.8959L60.0836 67.5416C59.8426 68.1395 59.5788 68.7061 59.2916 69.2422Z" fill="#A8A9A9"/>
</g>
</g>
</g>
<g opacity="0.199997">
<g opacity="0.199997">
<g opacity="0.199997">
<path opacity="0.199997" d="M60.0848 67.543L53.3828 63.8973C53.4432 63.7444 53.5022 63.5916 53.5584 63.438L60.2604 67.0837C60.2043 67.2373 60.1452 67.3908 60.0848 67.543Z" fill="#A8A9A9"/>
</g>
<g opacity="0.199997">
<path opacity="0.199997" d="M60.2604 67.082L53.5584 63.4356C54.2992 61.4194 54.6724 59.2759 54.6767 56.9967C54.681 54.1508 54.1741 51.7514 53.1582 49.7984C52.246 48.0375 50.9599 46.7066 49.2949 45.8008L55.9976 49.4465C57.6612 50.3523 58.948 51.6831 59.8609 53.4441C60.8761 55.3971 61.3837 57.7965 61.378 60.6417C61.3737 62.9202 61.0019 65.0658 60.2604 67.082Z" fill="#A5A6A6"/>
</g>
</g>
</g>
<g opacity="0.199997">
<g opacity="0.199997">
<g opacity="0.199997">
<path opacity="0.199997" d="M56.6239 42.1144L49.9219 38.4694C51.1639 38.5014 52.3305 38.66 53.4218 38.9422L60.1245 42.5879C59.0332 42.3049 57.8659 42.1478 56.6239 42.1144Z" fill="#B9B9B9"/>
</g>
<g opacity="0.199997">
<path opacity="0.199997" d="M60.1236 42.5875L53.4209 38.9418C54.2733 39.1637 55.0802 39.4608 55.8416 39.8341L62.5429 43.4805C61.7829 43.1058 60.976 42.8086 60.1236 42.5875Z" fill="#B6B7B7"/>
</g>
<g opacity="0.199997">
<path opacity="0.199997" d="M62.5438 43.4795L55.8418 39.8331C55.9904 39.9071 56.1368 39.9824 56.2819 40.0606L62.9839 43.707C62.8388 43.6281 62.6924 43.5528 62.5438 43.4795Z" fill="#B3B4B4"/>
</g>
</g>
</g>
<g opacity="0.199997">
<path opacity="0.199997" d="M35.1163 78.4082L28.415 74.7625L35.0829 73.8255L41.7856 77.4712L35.1163 78.4082Z" fill="#BFC0C0"/>
</g>
<g opacity="0.199997">
<g opacity="0.199997">
<g opacity="0.199997">
<path opacity="0.199997" d="M41.8514 41.6836L35.1494 38.0379C39.1392 37.4777 42.3612 36.6182 44.816 35.4601L51.5173 39.1057C49.0639 40.2631 45.8405 41.1227 41.8514 41.6836Z" fill="#B9B9B9"/>
</g>
<g opacity="0.199997">
<path opacity="0.199997" d="M51.5177 39.1055L44.8164 35.4598C45.6127 35.0837 46.3286 34.677 46.9641 34.2377L53.6654 37.8834C53.0313 38.322 52.3147 38.7301 51.5177 39.1055Z" fill="#B6B7B7"/>
</g>
<g opacity="0.199997">
<path opacity="0.199997" d="M53.6659 37.8828L46.9639 34.2371C47.3655 33.9592 47.7338 33.6691 48.0715 33.3662L54.7728 37.0126C54.4365 37.3148 54.0668 37.6048 53.6659 37.8828Z" fill="#B3B4B4"/>
</g>
<g opacity="0.199997">
<path opacity="0.199997" d="M54.7726 37.0137L48.0713 33.3673C48.0805 33.3587 48.0898 33.3509 48.099 33.3417C48.3777 33.0893 48.6407 32.8227 48.8882 32.5426L55.5902 36.189C55.3428 36.4684 55.0797 36.735 54.8017 36.9874C54.7918 36.9959 54.7825 37.0044 54.7726 37.0137Z" fill="#B0B1B1"/>
</g>
<g opacity="0.199997">
<path opacity="0.199997" d="M55.5904 36.1895L48.8877 32.5431C49.1394 32.2594 49.374 31.9608 49.5929 31.6473L56.2957 35.2937C56.0767 35.6065 55.8407 35.9051 55.5904 36.1895Z" fill="#AEAEAE"/>
</g>
<g opacity="0.199997">
<path opacity="0.199997" d="M56.2955 35.293L49.5928 31.6466C49.8309 31.3075 50.0513 30.9506 50.2518 30.5766L56.9538 34.2223C56.7526 34.5963 56.5329 34.9524 56.2955 35.293Z" fill="#ABABAB"/>
</g>
<g opacity="0.199997">
<path opacity="0.199997" d="M56.954 34.2227L50.252 30.577C50.5093 30.0992 50.7354 29.5937 50.9309 29.0613L57.6329 32.7062C57.4374 33.2394 57.2106 33.7449 56.954 34.2227Z" fill="#A8A9A9"/>
</g>
<g opacity="0.199997">
<path opacity="0.199997" d="M57.6325 32.707L50.9305 29.0621C51.5562 27.3601 51.8711 25.3751 51.8754 23.108C51.8853 18.0916 50.7301 14.7445 48.4103 13.0617C48.2091 12.916 47.9922 12.7802 47.7598 12.6536L54.4625 16.2986C54.6942 16.4252 54.9111 16.5617 55.1123 16.7074C57.4321 18.3909 58.5873 21.7373 58.5781 26.7529C58.5731 29.0208 58.2589 31.005 57.6325 32.707Z" fill="#A5A6A6"/>
</g>
</g>
</g>
<g opacity="0.199997">
<path opacity="0.199997" d="M35.1842 42.6191L28.4814 38.9735L35.15 38.0364L41.852 41.6821L35.1842 42.6191Z" fill="#BFC0C0"/>
</g>
<g opacity="0.199997">
<g opacity="0.199997">
<g opacity="0.199997">
<path opacity="0.199997" d="M41.9159 7.5L35.2139 3.8536C40.516 3.10925 44.4276 2.84834 46.9493 3.08366C47.8948 3.17039 48.7921 3.32325 49.6388 3.54364L56.3408 7.18932C55.4941 6.96964 54.5976 6.81537 53.6506 6.72934C51.1296 6.49402 47.2173 6.75423 41.9159 7.5Z" fill="#B9B9B9"/>
</g>
<g opacity="0.199997">
<path opacity="0.199997" d="M56.3407 7.18691L49.6387 3.54122C50.5586 3.77939 51.4203 4.09646 52.2215 4.49103L58.9235 8.13672C58.1216 7.74215 57.2606 7.42578 56.3407 7.18691Z" fill="#B6B7B7"/>
</g>
<g opacity="0.199997">
<path opacity="0.199997" d="M58.9237 8.13791L52.2217 4.49222C52.3731 4.56758 52.5231 4.64436 52.6703 4.7247L59.373 8.37109C59.2258 8.29076 59.0758 8.21255 58.9237 8.13791Z" fill="#B3B4B4"/>
</g>
</g>
</g>
<g opacity="0.199997">
<path opacity="0.199997" d="M26.7013 87.6973L20 84.0516L20.1457 5.97293L26.8485 9.61791L26.7013 87.6973Z" fill="#A4A5A5"/>
</g>
<g opacity="0.199997">
<path opacity="0.199997" d="M35.2334 16.4898L35.185 42.621L41.8529 41.684C47.9805 40.8231 52.2987 39.2561 54.8019 36.9875C57.3115 34.7111 58.5699 31.3015 58.5791 26.7529C58.5884 21.7372 57.4331 18.3909 55.1133 16.7074C52.7935 15.0231 48.3943 14.64 41.9013 15.5528L35.2334 16.4898ZM60.0849 67.5436C60.9423 65.3945 61.3745 63.0974 61.3781 60.644C61.3838 57.7988 60.8762 55.3994 59.861 53.4465C58.8457 51.4878 57.3684 50.061 55.4226 49.1602C54.2737 48.578 52.9357 48.2317 51.4221 48.1251C49.9078 48.0184 47.5568 48.1891 44.3618 48.6377L41.8387 48.9924L35.1708 49.9302L35.1168 78.4089L41.7861 77.4711C46.3638 76.8277 49.6675 76.1666 51.6958 75.4947C53.7234 74.8158 55.3422 73.9129 56.5686 72.7818C58.0509 71.436 59.2211 69.6921 60.0849 67.5436ZM66.767 46.9016C69.2439 49.9828 70.4831 54.1346 70.4731 59.3671C70.4674 62.4953 69.9321 65.5573 68.8728 68.5453C67.8142 71.5391 66.3412 74.1795 64.4636 76.4716C62.4146 78.9286 59.8951 80.8133 56.8921 82.12C53.8955 83.4331 48.8549 84.5834 41.7705 85.5801L26.7021 87.6973L26.8493 9.6179L41.9162 7.50001C47.2177 6.75494 51.1299 6.49403 53.6509 6.72935C56.1669 6.96041 58.3353 7.66282 60.1439 8.82875C62.4459 10.3544 64.2304 12.4759 65.4887 15.1931C66.7535 17.916 67.3798 20.9993 67.3727 24.4473C67.3656 28.5722 66.4478 32.1489 64.6143 35.1782C62.7815 38.2075 60.119 40.5237 56.6255 42.1141C60.9011 42.2264 64.2851 43.8218 66.767 46.9016Z" fill="#D6D7D7"/>
</g>
<g opacity="0.199997">
<path opacity="0.199997" d="M26.8482 9.61719L20.1455 5.97221L35.2138 3.85362L41.9151 7.49931L26.8482 9.61719Z" fill="#BFC0C0"/>
</g>
</g>
<path d="M48.4002 81.0703L41.6982 77.4253C46.2767 76.7812 49.5797 76.1201 51.608 75.4482C52.2841 75.2214 52.914 74.9719 53.4991 74.6953L60.2011 78.341C59.6153 78.6169 58.9854 78.8678 58.31 79.0946C56.2817 79.7665 52.978 80.4276 48.4002 81.0703Z" fill="#2A2D7D"/>
<path d="M60.201 78.3398L53.499 74.6942C54.1737 74.3757 54.7908 74.0237 55.3475 73.6384L62.0495 77.2841C61.4921 77.6701 60.8764 78.0213 60.201 78.3398Z" fill="#2A2C7C"/>
<path d="M62.0497 77.2832L55.3477 73.6375C55.723 73.378 56.0714 73.1029 56.3942 72.8128L63.0962 76.4585C62.7741 76.7486 62.425 77.0237 62.0497 77.2832Z" fill="#292C7B"/>
<path d="M63.0956 76.459L56.3936 72.8133C56.4227 72.787 56.4519 72.7607 56.4803 72.7337C56.8095 72.4351 57.1237 72.1173 57.4223 71.7789L64.1243 75.4246C63.8257 75.763 63.5122 76.0815 63.183 76.3801L63.0956 76.459Z" fill="#292C7B"/>
<path d="M64.1246 75.4238L57.4219 71.7781C57.7368 71.422 58.034 71.0445 58.3134 70.6449L65.0161 74.2906C64.7353 74.6909 64.4381 75.0684 64.1246 75.4238Z" fill="#292C7A"/>
<path d="M65.0152 74.291L58.3125 70.6453C58.6317 70.1903 58.9289 69.7076 59.2047 69.195L65.9067 72.8414C65.6316 73.3526 65.3344 73.836 65.0152 74.291Z" fill="#292B79"/>
<path d="M65.9071 72.8418L59.2051 69.1954C59.4937 68.6601 59.7575 68.0927 59.9971 67.4956L66.6998 71.1405C66.4588 71.7391 66.195 72.3058 65.9071 72.8418Z" fill="#282B79"/>
<path d="M66.6988 71.1406L59.9961 67.4957C60.0572 67.3428 60.1155 67.1899 60.1724 67.0364L66.8744 70.6814C66.8182 70.8349 66.7592 70.9885 66.6988 71.1406Z" fill="#282B79"/>
<path d="M66.8747 70.6797L60.1727 67.034C60.9135 65.0178 61.2867 62.8736 61.291 60.5943C61.2952 57.7492 60.7876 55.3498 59.7724 53.3968C58.8596 51.6351 57.5735 50.3042 55.9092 49.3992L62.6112 53.0442C64.2755 53.9499 65.5616 55.2815 66.4744 57.0418C67.4903 58.9947 67.9972 61.3941 67.9923 64.24C67.988 66.5186 67.6155 68.6642 66.8747 70.6797Z" fill="#282B78"/>
<path d="M63.2401 45.7121L56.5381 42.0664C57.7794 42.0991 58.9467 42.2569 60.038 42.5392L66.74 46.1855C65.6487 45.9026 64.4821 45.7448 63.2401 45.7121Z" fill="#2A2D7D"/>
<path d="M66.7391 46.1852L60.0371 42.5388C60.8895 42.7606 61.6964 43.0585 62.4571 43.4317L69.1591 47.0781C68.3984 46.7035 67.5915 46.4063 66.7391 46.1852Z" fill="#2A2C7C"/>
<path d="M69.1597 47.0772L62.457 43.4308C62.6056 43.504 62.7528 43.5794 62.8971 43.6583L69.5998 47.3047C69.4548 47.2258 69.3083 47.1497 69.1597 47.0772Z" fill="#292C7B"/>
<path d="M41.7313 82.0059L35.0293 78.3609L41.6979 77.4239L48.3999 81.0688L41.7313 82.0059Z" fill="#2A2D7F"/>
<path d="M48.4669 45.2812L41.7656 41.6349C45.7554 41.0746 48.9774 40.2151 51.4315 39.0577L58.1335 42.7027C55.6794 43.8608 52.4567 44.7203 48.4669 45.2812Z" fill="#2A2D7D"/>
<path d="M58.1336 42.7031L51.4316 39.0582C52.2286 38.6821 52.9445 38.2747 53.5801 37.8353L60.2814 41.481C59.6465 41.9197 58.9306 42.3285 58.1336 42.7031Z" fill="#2A2C7C"/>
<path d="M60.2804 41.4824L53.5791 37.8367C53.9808 37.5595 54.349 37.2694 54.686 36.9666L61.388 40.6122C61.051 40.9144 60.6821 41.2044 60.2804 41.4824Z" fill="#292C7B"/>
<path d="M61.3875 40.6113L54.6855 36.9656C54.6955 36.9571 54.7047 36.9486 54.714 36.9393C54.9927 36.687 55.255 36.4211 55.5024 36.141L62.2044 39.7866C61.9577 40.066 61.6947 40.3326 61.416 40.5857C61.406 40.5943 61.3975 40.6021 61.3875 40.6113Z" fill="#292C7B"/>
<path d="M62.2047 39.7871L55.502 36.1414C55.7536 35.857 55.9882 35.5585 56.2072 35.2456L62.9099 38.8913C62.6909 39.2049 62.4556 39.5034 62.2047 39.7871Z" fill="#292C7A"/>
<path d="M62.9107 38.8906L56.208 35.2449C56.4469 34.9051 56.6666 34.5482 56.8678 34.1743L63.569 37.8207C63.3686 38.1946 63.1489 38.5508 62.9107 38.8906Z" fill="#292B79"/>
<path d="M63.5685 37.8223L56.8672 34.1759C57.1245 33.6981 57.3506 33.1926 57.5461 32.6602L64.2481 36.3058C64.0519 36.839 63.8251 37.3445 63.5685 37.8223Z" fill="#282B79"/>
<path d="M64.2478 36.3047L57.5458 32.659C58.1714 30.9577 58.4863 28.9728 58.4899 26.7049C58.4999 21.6885 57.3446 18.3422 55.0255 16.6594C54.8243 16.5129 54.6075 16.3771 54.375 16.2506L61.077 19.8963C61.3095 20.0228 61.5263 20.1586 61.7268 20.3043C64.0473 21.9885 65.2026 25.3349 65.1926 30.3506C65.1883 32.6178 64.8734 34.602 64.2478 36.3047Z" fill="#282B78"/>
<path d="M41.7984 46.2188L35.0957 42.5724L41.765 41.6353L48.4663 45.2817L41.7984 46.2188Z" fill="#2A2D7F"/>
<path d="M48.5311 11.0977L41.8291 7.45126C47.1306 6.7062 51.0421 6.446 53.5638 6.6806C54.5094 6.76734 55.4066 6.9209 56.2533 7.14058L62.956 10.787C62.1093 10.5666 61.2121 10.413 60.2658 10.327C57.7448 10.091 53.8326 10.3519 48.5311 11.0977Z" fill="#2A2D7D"/>
<path d="M62.9566 10.7865L56.2539 7.14012C57.1746 7.379 58.0355 7.69536 58.8367 8.08993L65.5395 11.7363C64.7375 11.3418 63.8766 11.0254 62.9566 10.7865Z" fill="#2A2C7C"/>
<path d="M65.5387 11.7363L58.8359 8.08988C58.9881 8.16524 59.1381 8.24273 59.2853 8.32307L65.9873 11.9688C65.8401 11.8884 65.6901 11.8109 65.5387 11.7363Z" fill="#292C7B"/>
<path d="M33.3172 91.2969L26.6152 87.6505L26.761 9.57182L33.4637 13.2175L33.3172 91.2969Z" fill="#282B78"/>
<path d="M41.8469 20.0894L41.7986 46.2206L48.4665 45.2836C54.594 44.422 58.9123 42.8558 61.4155 40.5872C63.9251 38.31 65.1842 34.9011 65.1927 30.3525C65.2026 25.3369 64.0474 21.9905 61.7269 20.3063C59.4078 18.6228 55.0078 18.2396 48.5155 19.1524L41.8469 20.0894ZM66.6992 71.1425C67.5566 68.9941 67.9881 66.6963 67.9924 64.2436C67.9973 61.3977 67.4904 58.9983 66.4745 57.0453C65.4593 55.0867 63.982 53.6606 62.0361 52.7591C60.888 52.1776 59.55 51.8306 58.0357 51.724C56.5221 51.6181 54.1703 51.788 50.9761 52.2373L48.453 52.5913L41.7844 53.5291L41.7311 82.0078L48.3996 81.07C52.9774 80.4274 56.2811 79.7662 58.3094 79.0944C60.3377 78.4154 61.9558 77.5125 63.1822 76.3814C64.6652 75.0356 65.8354 73.2917 66.6992 71.1425ZM73.3805 50.5012C75.8582 53.5824 77.0966 57.7342 77.0867 62.966C77.0817 66.0942 76.5456 69.1562 75.4871 72.1442C74.4278 75.1387 72.9547 77.7791 71.0771 80.0705C69.0289 82.5282 66.5086 84.4129 63.5063 85.7189C60.509 87.032 55.4685 88.1823 48.384 89.179L33.3164 91.2969L33.4629 13.2175L48.5305 11.0996C53.8319 10.3546 57.7442 10.0929 60.2652 10.329C62.7812 10.5593 64.9495 11.2624 66.7575 12.4277C69.0602 13.9533 70.8439 16.0755 72.103 18.7927C73.367 21.5156 73.9934 24.5982 73.987 28.0469C73.9792 32.1711 73.0613 35.7478 71.2285 38.7771C69.3957 41.8064 66.7326 44.1227 63.2397 45.7137C67.5146 45.8261 70.8994 47.4214 73.3805 50.5012Z" fill="#2C2F84"/>
<path d="M33.4635 13.2168L26.7607 9.57111L41.8298 7.45323L48.5311 11.0989L33.4635 13.2168Z" fill="#2A2D7F"/>
<path d="M55.0148 84.7734L48.3135 81.1285C52.8919 80.4844 56.1949 79.8232 58.2232 79.1513C58.8986 78.9246 59.5292 78.675 60.1136 78.3985L66.8163 82.0442C66.2298 82.32 65.6006 82.571 64.9245 82.7977C62.8969 83.4696 59.5932 84.1308 55.0148 84.7734Z" fill="#CBCBCB"/>
<path d="M66.816 82.043L60.1133 78.3973C60.7887 78.0788 61.4051 77.7269 61.9617 77.3415L68.6644 80.9872C68.1071 81.3733 67.4907 81.7245 66.816 82.043Z" fill="#C8C8C8"/>
<path d="M68.6646 80.9883L61.9619 77.3426C62.338 77.0831 62.6864 76.808 63.0091 76.5179L69.7111 80.1636C69.3884 80.4537 69.0393 80.7288 68.6646 80.9883Z" fill="#C5C5C5"/>
<path d="M69.7108 80.1621L63.0088 76.5164C63.0379 76.4901 63.0671 76.4638 63.0955 76.4368C63.4247 76.1382 63.7389 75.8204 64.0375 75.482L70.7388 79.1277C70.4402 79.4661 70.1267 79.7846 69.7975 80.0832C69.7691 80.1095 69.7399 80.1358 69.7108 80.1621Z" fill="#C2C2C2"/>
<path d="M70.7391 79.1289L64.0371 75.4832C64.3521 75.127 64.6492 74.7495 64.9286 74.35L71.6306 77.9957C71.3498 78.3959 71.0526 78.7734 70.7391 79.1289Z" fill="#BFBFBF"/>
<path d="M71.6307 77.9961L64.9287 74.3504C65.2472 73.8954 65.5444 73.4127 65.8209 72.9001L72.5222 76.5465C72.2471 77.0577 71.9499 77.5411 71.6307 77.9961Z" fill="#BCBCBC"/>
<path d="M72.5216 76.5449L65.8203 72.8985C66.1082 72.3632 66.372 71.7959 66.6116 71.1987L73.3143 74.8436C73.074 75.4423 72.8102 76.0089 72.5216 76.5449Z" fill="#B9B9B9"/>
<path d="M73.315 74.8457L66.6123 71.2007C66.6734 71.0479 66.7317 70.895 66.7886 70.7415L73.4913 74.3864C73.4345 74.54 73.3762 74.6936 73.315 74.8457Z" fill="#B9B9B9"/>
<path d="M73.4919 74.3867L66.7891 70.741C67.5307 68.7248 67.9032 66.5806 67.9074 64.3014C67.9124 61.4562 67.4041 59.0568 66.3896 57.1038C65.4768 55.3421 64.19 54.0113 62.5264 53.1062L69.2284 56.7512C70.8927 57.6569 72.178 58.9885 73.0916 60.7488C74.1068 62.7018 74.6144 65.1012 74.6095 67.9471C74.6052 70.2256 74.2319 72.3712 73.4919 74.3867Z" fill="#B6B6B6"/>
<path d="M69.856 49.4171L63.1533 45.7715C64.3953 45.8042 65.5627 45.962 66.654 46.2442L73.3553 49.8906C72.264 49.6077 71.0973 49.4498 69.856 49.4171Z" fill="#CBCBCB"/>
<path d="M73.3556 49.8922L66.6543 46.2458C67.5067 46.4676 68.3136 46.7655 69.0743 47.1388L75.7756 50.7852C75.0156 50.4105 74.2087 50.1133 73.3556 49.8922Z" fill="#C8C8C8"/>
<path d="M75.7752 50.7842L69.0732 47.1378C69.2211 47.211 69.3683 47.2864 69.5126 47.3653L76.2153 51.0117C76.071 50.9328 75.9238 50.8567 75.7752 50.7842Z" fill="#C5C5C5"/>
<path d="M48.3472 85.7109L41.6445 82.066L48.3138 81.1289L55.0151 84.7739L48.3472 85.7109Z" fill="#D2D2D2"/>
<path d="M55.0829 48.9863L48.3809 45.3399C52.3706 44.7797 55.5933 43.9202 58.0468 42.7628L64.7495 46.4078C62.2953 47.5659 59.0726 48.4254 55.0829 48.9863Z" fill="#CBCBCB"/>
<path d="M64.7496 46.4082L58.0469 42.7632C58.8438 42.3871 59.5605 41.9798 60.1953 41.5404L66.8973 45.1861C66.2618 45.6248 65.5465 46.0335 64.7496 46.4082Z" fill="#C8C8C8"/>
<path d="M66.8963 45.1855L60.1943 41.5399C60.596 41.2626 60.965 40.9725 61.3013 40.6697L68.004 44.3154C67.667 44.6175 67.298 44.9076 66.8963 45.1855Z" fill="#C5C5C5"/>
<path d="M68.0035 44.3164L61.3008 40.6707C61.3107 40.6622 61.3207 40.6537 61.3299 40.6444C61.6079 40.392 61.8702 40.1261 62.1184 39.846L68.8197 43.4917C68.573 43.7711 68.3106 44.0377 68.0312 44.2908C68.022 44.2993 68.0134 44.3072 68.0035 44.3164Z" fill="#C2C2C2"/>
<path d="M68.8202 43.4902L62.1182 39.8445C62.3691 39.5602 62.6044 39.2616 62.8234 38.9488L69.5254 42.5945C69.3064 42.908 69.0718 43.2066 68.8202 43.4902Z" fill="#BFBFBF"/>
<path d="M69.5252 42.5938L62.8232 38.9481C63.0614 38.6082 63.2811 38.2513 63.4823 37.8774L70.1843 41.5238C69.9838 41.8977 69.7641 42.2539 69.5252 42.5938Z" fill="#BCBCBC"/>
<path d="M70.1844 41.5254L63.4824 37.879C63.7398 37.4012 63.9659 36.8958 64.1614 36.3633L70.8641 40.009C70.6679 40.5422 70.4411 41.0476 70.1844 41.5254Z" fill="#B9B9B9"/>
<path d="M70.865 40.0098L64.1623 36.3641C64.7886 34.6628 65.1035 32.6779 65.1071 30.41C65.1163 25.3936 63.9618 22.0472 61.642 20.3644C61.4408 20.218 61.224 20.0822 60.9922 19.9557L67.6935 23.6013C67.9267 23.7279 68.1435 23.8637 68.344 24.0094C70.6638 25.6936 71.819 29.04 71.8091 34.0557C71.8048 36.3228 71.4899 38.3071 70.865 40.0098Z" fill="#B6B6B6"/>
<path d="M48.4139 49.9238L41.7119 46.2774L48.3805 45.3404L55.0825 48.9868L48.4139 49.9238Z" fill="#D2D2D2"/>
<path d="M55.147 14.8008L48.4443 11.1544C53.7458 10.4093 57.6574 10.1491 60.1791 10.3837C61.1253 10.4705 62.0225 10.624 62.8692 10.8437L69.5712 14.4901C68.7245 14.2697 67.8273 14.1161 66.8818 14.0301C64.3601 13.7941 60.4485 14.055 55.147 14.8008Z" fill="#CBCBCB"/>
<path d="M69.5711 14.4916L62.8691 10.8452C63.7891 11.0841 64.65 11.4004 65.452 11.795L72.154 15.4414C71.3528 15.0468 70.4918 14.7305 69.5711 14.4916Z" fill="#C8C8C8"/>
<path d="M72.1542 15.4414L65.4521 11.795C65.6043 11.8703 65.7543 11.9478 65.9015 12.0281L72.6035 15.6738C72.4556 15.5935 72.3063 15.516 72.1542 15.4414Z" fill="#C5C5C5"/>
<path d="M39.9332 95L33.2305 91.3536L33.3769 13.2749L40.0789 16.9206L39.9332 95Z" fill="#B4B4B4"/>
<path d="M48.4631 23.7925L48.4141 49.9238L55.0827 48.9867C61.2102 48.1251 65.5278 46.5589 68.031 44.2903C70.5413 42.0132 71.7997 38.6042 71.8082 34.0556C71.8181 29.04 70.6629 25.6936 68.3431 24.0094C66.0233 22.3259 61.6233 21.9427 55.1317 22.8555L48.4631 23.7925ZM73.3147 74.8456C74.1728 72.6972 74.6036 70.3994 74.6086 67.9467C74.6135 65.1008 74.1059 62.7014 73.0907 60.7485C72.0748 58.7898 70.5975 57.3637 68.6516 56.4622C67.5035 55.8807 66.1662 55.5338 64.6519 55.4271C63.1383 55.3212 60.7858 55.4911 57.5923 55.9404L55.0692 56.2945L48.3999 57.2322L48.3473 85.7109L55.0151 84.7732C59.5936 84.1305 62.8973 83.4693 64.9249 82.7975C66.9539 82.1185 68.5713 81.2156 69.7977 80.0845C71.2807 78.7387 72.4509 76.9948 73.3147 74.8456ZM79.9968 54.2043C82.4737 57.2855 83.7121 61.4374 83.7022 66.6692C83.6972 69.7973 83.1618 72.8593 82.1026 75.8474C81.044 78.8418 79.5702 81.4822 77.6926 83.7736C75.6444 86.2313 73.1241 88.116 70.1226 89.422C67.1245 90.7351 62.084 91.8854 54.9995 92.8821L39.9326 95L40.0784 16.9206L55.1467 14.8027C60.4481 14.0577 64.3597 13.7961 66.8814 14.0321C69.3974 14.2624 71.565 14.9656 73.373 16.1308C75.6764 17.6565 77.4594 19.7786 78.7192 22.4958C79.9832 25.2187 80.6089 28.3013 80.6032 31.7501C80.5947 35.8742 79.6768 39.4509 77.844 42.4802C76.0112 45.5095 73.3481 47.8258 69.856 49.4169C74.1308 49.5292 77.5149 51.1245 79.9968 54.2043Z" fill="#ECECEC"/>
<path d="M40.078 16.9199L33.376 13.2742L48.4443 11.1564L55.1463 14.802L40.078 16.9199Z" fill="#D2D2D2"/>
<path d="M48.4002 81.0703L41.6982 77.4253C46.2767 76.7812 49.5797 76.1201 51.608 75.4482C52.2841 75.2214 52.914 74.9719 53.4991 74.6953L60.2011 78.341C59.6153 78.6169 58.9854 78.8678 58.31 79.0946C56.2817 79.7665 52.978 80.4276 48.4002 81.0703Z" fill="#5F2697"/>
<path d="M60.201 78.3398L53.499 74.6942C54.1737 74.3757 54.7908 74.0237 55.3475 73.6384L62.0495 77.2841C61.4921 77.6701 60.8764 78.0213 60.201 78.3398Z" fill="#5F2697"/>
<path d="M62.0497 77.2832L55.3477 73.6375C55.723 73.378 56.0714 73.1029 56.3942 72.8128L63.0962 76.4585C62.7741 76.7486 62.425 77.0237 62.0497 77.2832Z" fill="#5F2697"/>
<path d="M63.0956 76.459L56.3936 72.8133C56.4227 72.787 56.4519 72.7607 56.4803 72.7337C56.8095 72.4351 57.1237 72.1173 57.4223 71.7789L64.1243 75.4246C63.8257 75.763 63.5122 76.0815 63.183 76.3801L63.0956 76.459Z" fill="#5F2697"/>
<path d="M64.1246 75.4238L57.4219 71.7781C57.7368 71.422 58.034 71.0445 58.3134 70.6449L65.0161 74.2906C64.7353 74.6909 64.4381 75.0684 64.1246 75.4238Z" fill="#5F2697"/>
<path d="M65.0152 74.291L58.3125 70.6453C58.6317 70.1903 58.9289 69.7076 59.2047 69.195L65.9067 72.8414C65.6316 73.3526 65.3344 73.836 65.0152 74.291Z" fill="#5F2697"/>
<path d="M65.9071 72.8418L59.2051 69.1954C59.4937 68.6601 59.7575 68.0927 59.9971 67.4956L66.6998 71.1405C66.4588 71.7391 66.195 72.3058 65.9071 72.8418Z" fill="#5F2697"/>
<path d="M66.6988 71.1406L59.9961 67.4957C60.0572 67.3428 60.1155 67.1899 60.1724 67.0364L66.8744 70.6814C66.8182 70.8349 66.7592 70.9885 66.6988 71.1406Z" fill="#5F2697"/>
<path d="M66.8747 70.6797L60.1727 67.034C60.9135 65.0178 61.2867 62.8736 61.291 60.5943C61.2952 57.7492 60.7876 55.3498 59.7724 53.3968C58.8596 51.6351 57.5735 50.3042 55.9092 49.3992L62.6112 53.0442C64.2755 53.9499 65.5616 55.2815 66.4744 57.0418C67.4903 58.9947 67.9972 61.3941 67.9923 64.24C67.988 66.5186 67.6155 68.6642 66.8747 70.6797Z" fill="#5F2697"/>
<path d="M63.2401 45.7121L56.5381 42.0664C57.7794 42.0991 58.9467 42.2569 60.038 42.5392L66.74 46.1855C65.6487 45.9026 64.4821 45.7448 63.2401 45.7121Z" fill="#5F2697"/>
<path d="M66.7391 46.1852L60.0371 42.5388C60.8895 42.7606 61.6964 43.0585 62.4571 43.4317L69.1591 47.0781C68.3984 46.7035 67.5915 46.4063 66.7391 46.1852Z" fill="#5F2697"/>
<path d="M69.1597 47.0772L62.457 43.4308C62.6056 43.504 62.7528 43.5794 62.8971 43.6583L69.5998 47.3047C69.4548 47.2258 69.3083 47.1497 69.1597 47.0772Z" fill="#5F2697"/>
<path d="M41.7313 82.0059L35.0293 78.3609L41.6979 77.4239L48.3999 81.0688L41.7313 82.0059Z" fill="#5F2697"/>
<path d="M48.4669 45.2812L41.7656 41.6349C45.7554 41.0746 48.9774 40.2151 51.4315 39.0577L58.1335 42.7027C55.6794 43.8608 52.4567 44.7203 48.4669 45.2812Z" fill="#5F2697"/>
<path d="M58.1336 42.7031L51.4316 39.0582C52.2286 38.6821 52.9445 38.2747 53.5801 37.8353L60.2814 41.481C59.6465 41.9197 58.9306 42.3285 58.1336 42.7031Z" fill="#5F2697"/>
<path d="M58.7215 42.7441L52.0195 39.0985C52.0295 39.0899 52.0387 39.0814 52.048 39.0722C52.3267 38.8198 52.589 38.5539 52.8364 38.2738L59.5384 41.9195C59.2917 42.1989 59.0287 42.4655 58.75 42.7185C58.74 42.7271 58.7315 42.7349 58.7215 42.7441Z" fill="#5F2697"/>
<path d="M60.2804 41.4824L53.5791 37.8367C53.9808 37.5595 54.349 37.2694 54.686 36.9666L61.388 40.6122C61.051 40.9144 60.6821 41.2044 60.2804 41.4824Z" fill="#5F2697"/>
<path d="M61.3875 40.6113L54.6855 36.9656C54.6955 36.9571 54.7047 36.9486 54.714 36.9393C54.9927 36.687 55.255 36.4211 55.5024 36.141L62.2044 39.7866C61.9577 40.066 61.6947 40.3326 61.416 40.5857C61.406 40.5943 61.3975 40.6021 61.3875 40.6113Z" fill="#5F2697"/>
<path d="M62.2047 39.7871L55.502 36.1414C55.7536 35.857 55.9882 35.5585 56.2072 35.2456L62.9099 38.8913C62.6909 39.2049 62.4556 39.5034 62.2047 39.7871Z" fill="#5F2697"/>
<path d="M62.9107 38.8906L56.208 35.2449C56.4469 34.9051 56.6666 34.5482 56.8678 34.1743L63.569 37.8207C63.3686 38.1946 63.1489 38.5508 62.9107 38.8906Z" fill="#5F2697"/>
<path d="M63.5685 37.8223L56.8672 34.1759C57.1245 33.6981 57.3506 33.1926 57.5461 32.6602L64.2481 36.3058C64.0519 36.839 63.8251 37.3445 63.5685 37.8223Z" fill="#5F2697"/>
<path d="M64.2478 36.3047L57.5458 32.659C58.1714 30.9577 58.4863 28.9728 58.4899 26.7049C58.4999 21.6885 57.3446 18.3422 55.0255 16.6594C54.8243 16.5129 54.6075 16.3771 54.375 16.2506L61.077 19.8963C61.3095 20.0228 61.5263 20.1586 61.7268 20.3043C64.0473 21.9885 65.2026 25.3349 65.1926 30.3506C65.1883 32.6178 64.8734 34.602 64.2478 36.3047Z" fill="#5F2697"/>
<path d="M41.7984 46.2188L35.0957 42.5724L41.765 41.6353L48.4663 45.2817L41.7984 46.2188Z" fill="#5F2697"/>
<path d="M48.5311 11.0977L41.8291 7.45126C47.1306 6.7062 51.0421 6.446 53.5638 6.6806C54.5094 6.76734 55.4066 6.9209 56.2533 7.14058L62.956 10.787C62.1093 10.5666 61.2121 10.413 60.2658 10.327C57.7448 10.091 53.8326 10.3519 48.5311 11.0977Z" fill="#5F2697"/>
<path d="M48.5311 11.0977L41.8291 7.45126C47.1306 6.7062 51.0421 6.446 53.5638 6.6806C54.5094 6.76734 55.4066 6.9209 56.2533 7.14058L62.956 10.787C62.1093 10.5666 61.2121 10.413 60.2658 10.327C57.7448 10.091 53.8326 10.3519 48.5311 11.0977Z" fill="#5F2697"/>
<path d="M62.9566 10.7865L56.2539 7.14012C57.1746 7.379 58.0355 7.69536 58.8367 8.08993L65.5395 11.7363C64.7375 11.3418 63.8766 11.0254 62.9566 10.7865Z" fill="#5F2697"/>
<path d="M65.5387 11.7363L58.8359 8.08988C58.9881 8.16524 59.1381 8.24273 59.2853 8.32307L65.9873 11.9688C65.8401 11.8884 65.6901 11.8109 65.5387 11.7363Z" fill="#5F2697"/>
<path d="M33.3172 91.2969L26.6152 87.6505L26.761 9.57182L33.4637 13.2175L33.3172 91.2969Z" fill="#4F1950"/>
<path d="M41.8469 20.0894L41.7986 46.2206L48.4665 45.2836C54.594 44.422 58.9123 42.8558 61.4155 40.5872C63.9251 38.31 65.1842 34.9011 65.1927 30.3525C65.2026 25.3369 64.0474 21.9905 61.7269 20.3063C59.4078 18.6228 55.0078 18.2396 48.5155 19.1524L41.8469 20.0894ZM66.6992 71.1425C67.5566 68.9941 67.9881 66.6963 67.9924 64.2436C67.9973 61.3977 67.4904 58.9983 66.4745 57.0453C65.4593 55.0867 63.982 53.6606 62.0361 52.7591C60.888 52.1776 59.55 51.8306 58.0357 51.724C56.5221 51.6181 54.1703 51.788 50.9761 52.2373L48.453 52.5913L41.7844 53.5291L41.7311 82.0078L48.3996 81.07C52.9774 80.4274 56.2811 79.7662 58.3094 79.0944C60.3377 78.4154 61.9558 77.5125 63.1822 76.3814C64.6652 75.0356 65.8354 73.2917 66.6992 71.1425ZM73.3805 50.5012C75.8582 53.5824 77.0966 57.7342 77.0867 62.966C77.0817 66.0942 76.5456 69.1562 75.4871 72.1442C74.4278 75.1387 72.9547 77.7791 71.0771 80.0705C69.0289 82.5282 66.5086 84.4129 63.5063 85.7189C60.509 87.032 55.4685 88.1823 48.384 89.179L33.3164 91.2969L33.4629 13.2175L48.5305 11.0996C53.8319 10.3546 57.7442 10.0929 60.2652 10.329C62.7812 10.5593 64.9495 11.2624 66.7575 12.4277C69.0602 13.9533 70.8439 16.0755 72.103 18.7927C73.367 21.5156 73.9934 24.5982 73.987 28.0469C73.9792 32.1711 73.0613 35.7478 71.2285 38.7771C69.3957 41.8064 66.7326 44.1227 63.2397 45.7137C67.5146 45.8261 70.8994 47.4214 73.3805 50.5012Z" fill="#5F2697"/>
<path d="M33.4635 13.2168L26.7607 9.57111L41.8298 7.45323L48.5311 11.0989L33.4635 13.2168Z" fill="#5F2697"/>
<g opacity="0.699997">
<g opacity="0.699997">
<g opacity="0.699997">
<g opacity="0.699997">
<path opacity="0.699997" d="M55.0148 84.7734L48.3135 81.1285C52.8919 80.4844 56.1949 79.8232 58.2232 79.1513C58.8986 78.9246 59.5292 78.675 60.1136 78.3985L66.8163 82.0442C66.2298 82.32 65.6006 82.571 64.9245 82.7977C62.8969 83.4696 59.5932 84.1308 55.0148 84.7734Z" fill="#CBCBCB"/>
</g>
<g opacity="0.699997">
<path opacity="0.699997" d="M66.816 82.043L60.1133 78.3973C60.7887 78.0788 61.4051 77.7269 61.9617 77.3415L68.6644 80.9872C68.1071 81.3733 67.4907 81.7245 66.816 82.043Z" fill="#C8C8C8"/>
</g>
<g opacity="0.699997">
<path opacity="0.699997" d="M68.6646 80.9883L61.9619 77.3426C62.338 77.0831 62.6864 76.808 63.0091 76.5179L69.7111 80.1636C69.3884 80.4537 69.0393 80.7288 68.6646 80.9883Z" fill="#C5C5C5"/>
</g>
<g opacity="0.699997">
<path opacity="0.699997" d="M69.7108 80.1621L63.0088 76.5164C63.0379 76.4901 63.0671 76.4638 63.0955 76.4368C63.4247 76.1382 63.7389 75.8204 64.0375 75.482L70.7388 79.1277C70.4402 79.4661 70.1267 79.7846 69.7975 80.0832C69.7691 80.1095 69.7399 80.1358 69.7108 80.1621Z" fill="#C2C2C2"/>
</g>
<g opacity="0.699997">
<path opacity="0.699997" d="M70.7391 79.1289L64.0371 75.4832C64.3521 75.127 64.6492 74.7495 64.9286 74.35L71.6306 77.9957C71.3498 78.3959 71.0526 78.7734 70.7391 79.1289Z" fill="#BFBFBF"/>
</g>
<g opacity="0.699997">
<path opacity="0.699997" d="M71.6307 77.9961L64.9287 74.3504C65.2472 73.8954 65.5444 73.4127 65.8209 72.9001L72.5222 76.5465C72.2471 77.0577 71.9499 77.5411 71.6307 77.9961Z" fill="#BCBCBC"/>
</g>
<g opacity="0.699997">
<path opacity="0.699997" d="M72.5216 76.5449L65.8203 72.8985C66.1082 72.3632 66.372 71.7959 66.6116 71.1987L73.3143 74.8436C73.074 75.4423 72.8102 76.0089 72.5216 76.5449Z" fill="#B9B9B9"/>
</g>
</g>
</g>
<g opacity="0.699997">
<g opacity="0.699997">
<g opacity="0.699997">
<path opacity="0.699997" d="M73.315 74.8457L66.6123 71.2007C66.6734 71.0479 66.7317 70.895 66.7886 70.7415L73.4913 74.3864C73.4345 74.54 73.3762 74.6936 73.315 74.8457Z" fill="#B9B9B9"/>
</g>
<g opacity="0.699997">
<path opacity="0.699997" d="M73.4919 74.3867L66.7891 70.741C67.5307 68.7248 67.9032 66.5806 67.9074 64.3014C67.9124 61.4562 67.4041 59.0568 66.3896 57.1038C65.4768 55.3421 64.19 54.0113 62.5264 53.1062L69.2284 56.7512C70.8927 57.6569 72.178 58.9885 73.0916 60.7488C74.1068 62.7018 74.6144 65.1012 74.6095 67.9471C74.6052 70.2256 74.2319 72.3712 73.4919 74.3867Z" fill="#B6B6B6"/>
</g>
</g>
</g>
<g opacity="0.699997">
<g opacity="0.699997">
<g opacity="0.699997">
<path opacity="0.699997" d="M69.856 49.4171L63.1533 45.7715C64.3953 45.8042 65.5627 45.962 66.654 46.2442L73.3553 49.8906C72.264 49.6077 71.0973 49.4498 69.856 49.4171Z" fill="#CBCBCB"/>
</g>
<g opacity="0.699997">
<path opacity="0.699997" d="M73.3556 49.8922L66.6543 46.2458C67.5067 46.4676 68.3136 46.7655 69.0743 47.1388L75.7756 50.7852C75.0156 50.4105 74.2087 50.1133 73.3556 49.8922Z" fill="#C8C8C8"/>
</g>
<g opacity="0.699997">
<path opacity="0.699997" d="M75.7752 50.7842L69.0732 47.1378C69.2211 47.211 69.3683 47.2864 69.5126 47.3653L76.2153 51.0117C76.071 50.9328 75.9238 50.8567 75.7752 50.7842Z" fill="#C5C5C5"/>
</g>
</g>
</g>
<g opacity="0.699997">
<path opacity="0.699997" d="M48.3472 85.7109L41.6445 82.066L48.3138 81.1289L55.0151 84.7739L48.3472 85.7109Z" fill="#D2D2D2"/>
</g>
<g opacity="0.699997">
<g opacity="0.699997">
<g opacity="0.699997">
<path opacity="0.699997" d="M55.0829 48.9863L48.3809 45.3399C52.3706 44.7797 55.5933 43.9202 58.0468 42.7628L64.7495 46.4078C62.2953 47.5659 59.0726 48.4254 55.0829 48.9863Z" fill="#CBCBCB"/>
</g>
<g opacity="0.699997">
<path opacity="0.699997" d="M64.7496 46.4082L58.0469 42.7632C58.8438 42.3871 59.5605 41.9798 60.1953 41.5404L66.8973 45.1861C66.2618 45.6248 65.5465 46.0335 64.7496 46.4082Z" fill="#C8C8C8"/>
</g>
<g opacity="0.699997">
<path opacity="0.699997" d="M66.8963 45.1855L60.1943 41.5399C60.596 41.2626 60.965 40.9725 61.3013 40.6697L68.004 44.3154C67.667 44.6175 67.298 44.9076 66.8963 45.1855Z" fill="#C5C5C5"/>
</g>
<g opacity="0.699997">
<path opacity="0.699997" d="M68.0035 44.3164L61.3008 40.6707C61.3107 40.6622 61.3207 40.6537 61.3299 40.6444C61.6079 40.392 61.8702 40.1261 62.1184 39.846L68.8197 43.4917C68.573 43.7711 68.3106 44.0377 68.0312 44.2908C68.022 44.2993 68.0134 44.3072 68.0035 44.3164Z" fill="#C2C2C2"/>
</g>
<g opacity="0.699997">
<path opacity="0.699997" d="M68.8202 43.4902L62.1182 39.8445C62.3691 39.5602 62.6044 39.2616 62.8234 38.9488L69.5254 42.5945C69.3064 42.908 69.0718 43.2066 68.8202 43.4902Z" fill="#BFBFBF"/>
</g>
<g opacity="0.699997">
<path opacity="0.699997" d="M69.5252 42.5938L62.8232 38.9481C63.0614 38.6082 63.2811 38.2513 63.4823 37.8774L70.1843 41.5238C69.9838 41.8977 69.7641 42.2539 69.5252 42.5938Z" fill="#BCBCBC"/>
</g>
<g opacity="0.699997">
<path opacity="0.699997" d="M70.1844 41.5254L63.4824 37.879C63.7398 37.4012 63.9659 36.8958 64.1614 36.3633L70.8641 40.009C70.6679 40.5422 70.4411 41.0476 70.1844 41.5254Z" fill="#B9B9B9"/>
</g>
<g opacity="0.699997">
<path opacity="0.699997" d="M70.865 40.0098L64.1623 36.3641C64.7886 34.6628 65.1035 32.6779 65.1071 30.41C65.1163 25.3936 63.9618 22.0472 61.642 20.3644C61.4408 20.218 61.224 20.0822 60.9922 19.9557L67.6935 23.6013C67.9267 23.7279 68.1435 23.8637 68.344 24.0094C70.6638 25.6936 71.819 29.04 71.8091 34.0557C71.8048 36.3228 71.4899 38.3071 70.865 40.0098Z" fill="#B6B6B6"/>
</g>
</g>
</g>
<g opacity="0.699997">
<path opacity="0.699997" d="M48.4139 49.9238L41.7119 46.2774L48.3805 45.3404L55.0825 48.9868L48.4139 49.9238Z" fill="#D2D2D2"/>
</g>
<g opacity="0.699997">
<g opacity="0.699997">
<g opacity="0.699997">
<path opacity="0.699997" d="M55.147 14.8008L48.4443 11.1544C53.7458 10.4093 57.6574 10.1491 60.1791 10.3837C61.1253 10.4705 62.0225 10.624 62.8692 10.8437L69.5712 14.4901C68.7245 14.2697 67.8273 14.1161 66.8818 14.0301C64.3601 13.7941 60.4485 14.055 55.147 14.8008Z" fill="#CBCBCB"/>
</g>
<g opacity="0.699997">
<path opacity="0.699997" d="M69.5711 14.4916L62.8691 10.8452C63.7891 11.0841 64.65 11.4004 65.452 11.795L72.154 15.4414C71.3528 15.0468 70.4918 14.7305 69.5711 14.4916Z" fill="#C8C8C8"/>
</g>
<g opacity="0.699997">
<path opacity="0.699997" d="M72.1542 15.4414L65.4521 11.795C65.6043 11.8703 65.7543 11.9478 65.9015 12.0281L72.6035 15.6738C72.4556 15.5935 72.3063 15.516 72.1542 15.4414Z" fill="#C5C5C5"/>
</g>
</g>
</g>
<g opacity="0.699997">
<path opacity="0.699997" d="M39.9332 95L33.2305 91.3536L33.3769 13.2749L40.0789 16.9206L39.9332 95Z" fill="#B4B4B4"/>
</g>
<g opacity="0.699997">
<path opacity="0.699997" d="M48.4631 23.7925L48.4141 49.9238L55.0827 48.9867C61.2102 48.1251 65.5278 46.5589 68.031 44.2903C70.5413 42.0132 71.7997 38.6042 71.8082 34.0556C71.8181 29.04 70.6629 25.6936 68.3431 24.0094C66.0233 22.3259 61.6233 21.9427 55.1317 22.8555L48.4631 23.7925ZM73.3147 74.8456C74.1728 72.6972 74.6036 70.3994 74.6086 67.9467C74.6135 65.1008 74.1059 62.7014 73.0907 60.7485C72.0748 58.7898 70.5975 57.3637 68.6516 56.4622C67.5035 55.8807 66.1662 55.5338 64.6519 55.4271C63.1383 55.3212 60.7858 55.4911 57.5923 55.9404L55.0692 56.2945L48.3999 57.2322L48.3473 85.7109L55.0151 84.7732C59.5936 84.1305 62.8973 83.4693 64.9249 82.7975C66.9539 82.1185 68.5713 81.2156 69.7977 80.0845C71.2807 78.7387 72.4509 76.9948 73.3147 74.8456ZM79.9968 54.2043C82.4737 57.2855 83.7121 61.4374 83.7022 66.6692C83.6972 69.7973 83.1618 72.8593 82.1026 75.8474C81.044 78.8418 79.5702 81.4822 77.6926 83.7736C75.6444 86.2313 73.1241 88.116 70.1226 89.422C67.1245 90.7351 62.084 91.8854 54.9995 92.8821L39.9326 95L40.0784 16.9206L55.1467 14.8027C60.4481 14.0577 64.3597 13.7961 66.8814 14.0321C69.3974 14.2624 71.565 14.9656 73.373 16.1308C75.6764 17.6565 77.4594 19.7786 78.7192 22.4958C79.9832 25.2187 80.6089 28.3013 80.6032 31.7501C80.5947 35.8742 79.6768 39.4509 77.844 42.4802C76.0112 45.5095 73.3481 47.8258 69.856 49.4169C74.1308 49.5292 77.5149 51.1245 79.9968 54.2043Z" fill="#ECECEC"/>
</g>
<g opacity="0.699997">
<path opacity="0.699997" d="M40.078 16.9199L33.376 13.2742L48.4443 11.1564L55.1463 14.802L40.078 16.9199Z" fill="#D2D2D2"/>
</g>
</g>
</svg>
