<?xml version="1.0" encoding="iso-8859-1"?>
<!-- Generator: Adobe Illustrator 19.0.0, SVG Export Plug-In . SVG Version: 6.00 Build 0)  -->
<svg version="1.1" id="Layer_1" xmlns="http://www.w3.org/2000/svg" xmlns:xlink="http://www.w3.org/1999/xlink" x="0px" y="0px"
	 viewBox="0 0 511.999 511.999" style="enable-background:new 0 0 511.999 511.999;" xml:space="preserve">
<rect x="240.16" y="182.398" style="fill:#D6B56D;" width="31.681" height="112.89"/>
<polygon style="opacity:0.1;enable-background:new    ;" points="240.161,234.836 256.001,226.507 271.841,234.836 271.841,182.402 
	240.161,182.402 "/>
<g>
	<polygon style="fill:#FFD782;" points="256.001,7.959 292.949,82.823 375.566,94.827 315.783,153.1 329.896,235.384 
		256.001,196.535 182.106,235.384 196.219,153.1 136.436,94.827 219.054,82.823 	"/>
	<path style="fill:#FFD782;" d="M263.777,266.21h-15.552c-33.477,0-60.617,27.139-60.617,60.617l0,0v32.551h136.786v-32.551l0,0
		C324.394,293.349,297.255,266.21,263.777,266.21z"/>
</g>
<path style="opacity:0.1;enable-background:new    ;" d="M219.444,326.827c0-30.715,22.85-56.078,52.475-60.057
	c-2.665-0.358-5.379-0.559-8.141-0.559h-15.552c-33.477,0-60.617,27.139-60.617,60.617l0,0v32.551h31.836V326.827L219.444,326.827z"
	/>
<rect x="146.997" y="326.826" style="fill:#464754;" width="218.011" height="153.374"/>
<rect x="178.218" y="359.373" style="fill:#FFD782;" width="155.56" height="64.431"/>
<rect x="146.997" y="326.826" style="opacity:0.1;enable-background:new    ;" width="31.836" height="153.374"/>
<path style="fill:#363640;" d="M367.761,456.361H144.242c-26.334,0-47.68,21.347-47.68,47.68l0,0h318.881l0,0
	C415.442,477.708,394.094,456.361,367.761,456.361z"/>
<path style="opacity:0.1;enable-background:new    ;" d="M176.077,456.36h-31.836c-26.334,0-47.682,21.348-47.682,47.682l0,0h31.836
	l0,0C128.396,477.708,149.744,456.36,176.077,456.36z"/>
<path d="M333.783,351.419H237.62c-4.397,0-7.959,3.563-7.959,7.959c0,4.395,3.562,7.959,7.959,7.959h88.204v48.513H186.179v-48.513
	h19.607c4.395,0,7.959-3.563,7.959-7.959c0-4.395-3.563-7.959-7.959-7.959H178.22c-4.395,0-7.959,3.563-7.959,7.959v64.431
	c0,4.395,3.563,7.959,7.959,7.959h155.564c4.395,0,7.959-3.564,7.959-7.959v-64.431
	C341.742,354.983,338.179,351.419,333.783,351.419z"/>
<path d="M226.28,119.019h59.444c4.395,0,7.959-3.563,7.959-7.959c0-4.395-3.563-7.959-7.959-7.959H226.28
	c-4.395,0-7.959,3.563-7.959,7.959C218.321,115.456,221.885,119.019,226.28,119.019z"/>
<path d="M226.28,147.157h59.444c4.395,0,7.959-3.563,7.959-7.959c0-4.395-3.563-7.959-7.959-7.959H226.28
	c-4.395,0-7.959,3.563-7.959,7.959C218.321,143.593,221.885,147.157,226.28,147.157z"/>
<path d="M226.28,175.294h59.444c4.395,0,7.959-3.563,7.959-7.959c0-4.395-3.563-7.959-7.959-7.959H226.28
	c-4.395,0-7.959,3.563-7.959,7.959C218.321,171.731,221.885,175.294,226.28,175.294z"/>
<path d="M372.965,448.652V326.827c0-4.395-3.562-7.959-7.959-7.959h-33.129c-3.336-28.721-24.48-52.074-52.076-58.707V218.04
	l46.392,24.389c1.165,0.612,2.435,0.914,3.703,0.914c1.65,0,3.293-0.513,4.679-1.52c2.451-1.781,3.678-4.799,3.166-7.785
	l-13.405-78.159l56.785-55.353c2.169-2.115,2.95-5.277,2.014-8.158c-0.936-2.881-3.427-4.981-6.426-5.416l-78.476-11.404
	L263.139,4.437C261.797,1.72,259.031,0,256.002,0c-3.03,0-5.796,1.72-7.138,4.437l-35.096,71.112l-16.203,2.355
	c-4.35,0.631-7.364,4.67-6.732,9.02c0.631,4.35,4.669,7.368,9.02,6.731l20.344-2.956c2.592-0.377,4.834-2.005,5.993-4.354
	l29.811-60.402l29.81,60.402c1.159,2.348,3.4,3.977,5.993,4.354l66.658,9.686l-48.234,47.017c-1.876,1.828-2.732,4.463-2.289,7.044
	l11.387,66.389c0,0-43.778-23.016-43.781-23.017l-11.146-5.86c-3.908-2.054-7.637-4.701-12.103-2.468l-59.621,31.346l11.386-66.389
	c0.443-2.582-0.413-5.216-2.289-7.044l-48.234-47.017l14.603-2.122c4.35-0.631,7.364-4.67,6.732-9.02
	c-0.632-4.35-4.67-7.364-9.02-6.731l-30.561,4.441c-2.998,0.435-5.488,2.535-6.426,5.416c-0.936,2.881-0.155,6.045,2.014,8.158
	l56.785,55.353l-13.406,78.159c-0.511,2.986,0.715,6.004,3.167,7.785c2.451,1.78,5.701,2.014,8.381,0.606l46.392-24.39v42.122
	c-27.595,6.634-48.74,29.986-52.076,58.707h-33.13c-4.395,0-7.959,3.564-7.959,7.959v121.825
	c-28.248,2.634-50.435,26.464-50.435,55.389c0,4.395,3.563,7.959,7.959,7.959h233.777c4.395,0,7.959-3.564,7.959-7.959
	s-3.563-7.959-7.959-7.959H105.32c3.695-18.103,19.742-31.764,38.921-31.764h2.755h218.009h2.756
	c19.178,0,35.225,13.661,38.92,31.764h-44.509c-4.397,0-7.959,3.564-7.959,7.959s3.562,7.959,7.959,7.959h53.269
	c4.397,0,7.959-3.564,7.959-7.959C423.401,475.116,401.213,451.286,372.965,448.652z M248.121,258.251v-48.58l7.881-4.144
	l7.881,4.144v48.58c-0.035,0-0.07,0-0.106,0h-15.551C248.191,258.251,248.156,258.251,248.121,258.251z M240.952,274.67
	c0.086-0.008,0.172-0.008,0.257-0.02c2.324-0.309,4.672-0.481,7.017-0.481h15.551c2.343,0,4.695,0.169,7.017,0.481
	c0.064,0.009,0.127,0.005,0.192,0.013c23.03,3.167,41.36,21.279,44.849,44.206H196.168
	C199.654,295.962,217.952,277.861,240.952,274.67z M154.955,448.401V334.786h32.654h136.786h32.653v113.614H154.955z"/>
<g>
</g>
<g>
</g>
<g>
</g>
<g>
</g>
<g>
</g>
<g>
</g>
<g>
</g>
<g>
</g>
<g>
</g>
<g>
</g>
<g>
</g>
<g>
</g>
<g>
</g>
<g>
</g>
<g>
</g>
</svg>
