<?xml version="1.0" encoding="iso-8859-1"?>
<!-- Generator: Adobe Illustrator 19.0.0, SVG Export Plug-In . SVG Version: 6.00 Build 0)  -->
<svg version="1.1" id="Layer_1" xmlns="http://www.w3.org/2000/svg" xmlns:xlink="http://www.w3.org/1999/xlink" x="0px" y="0px"
	 viewBox="0 0 512 512" style="enable-background:new 0 0 512 512;" xml:space="preserve">
<path style="fill:#E6E8FF;" d="M256.001,197.85c-16.57,0-30.002,13.432-30.002,30.002v27.391h60.004v-27.391
	C286.003,211.283,272.571,197.85,256.001,197.85z"/>
<path style="opacity:0.1;enable-background:new    ;" d="M266.714,199.828c-3.327-1.273-6.938-1.977-10.713-1.977
	c-16.57,0-30.002,13.432-30.002,30.002v27.391h21.426v-27.391C247.425,215.059,255.436,204.142,266.714,199.828z"/>
<circle style="fill:#E6E8FF;" cx="256.002" cy="101.186" r="67.793"/>
<path style="opacity:0.1;enable-background:new    ;" d="M209.631,101.19c0-33.796,24.732-61.808,57.083-66.945
	c-3.49-0.555-7.066-0.851-10.713-0.851c-37.442,0-67.796,30.354-67.796,67.796c0,37.443,30.354,67.797,67.796,67.797
	c3.647,0,7.223-0.297,10.713-0.851C234.363,162.998,209.631,134.986,209.631,101.19z"/>
<rect x="175.642" y="236.642" style="fill:#464754;" width="160.729" height="248.663"/>
<rect x="175.642" y="236.642" style="opacity:0.1;enable-background:new    ;" width="21.426" height="248.663"/>
<rect x="211.424" y="272.681" style="fill:#A9ACCC;" width="89.155" height="97.082"/>
<rect x="175.642" y="439.871" style="opacity:0.1;enable-background:new    ;" width="160.729" height="45.434"/>
<rect x="146.203" y="466.653" style="fill:#A9ACCC;" width="219.587" height="37.307"/>
<rect x="146.203" y="466.653" style="opacity:0.1;enable-background:new    ;" width="21.426" height="37.307"/>
<path d="M211.422,264.647c-4.438,0-8.035,3.596-8.035,8.035v97.081c0,4.437,3.596,8.035,8.035,8.035h89.158
	c4.438,0,8.035-3.597,8.035-8.035v-97.081c0-4.438-3.596-8.035-8.035-8.035H211.422z M292.544,361.728h-73.088v-81.012h73.088
	V361.728z"/>
<path d="M336.363,278.026c4.438,0,8.035-3.597,8.035-8.035v-33.345c0-4.437-3.596-8.035-8.035-8.035h-42.324v-0.758
	c0-11.396-5.044-21.629-13.009-28.606c5.54-1.416,10.965-3.303,16.248-5.672c4.05-1.816,5.86-6.57,4.044-10.619
	c-1.816-4.051-6.575-5.859-10.619-4.044c-8.5,3.812-17.442,6.145-26.668,7.006v-9.327c38.05-4.026,67.797-36.303,67.797-75.402
	c0-10.951-2.305-21.547-6.852-31.491c-1.846-4.036-6.613-5.811-10.648-3.967c-4.037,1.846-5.812,6.613-3.967,10.648
	c3.581,7.833,5.397,16.181,5.397,24.811c0,32.949-26.803,59.756-59.753,59.762c-0.003,0-0.006-0.001-0.011-0.001
	c-0.004,0-0.006,0.001-0.011,0.001c-32.947-0.005-59.751-26.813-59.751-59.762c0-32.951,26.807-59.759,59.758-59.761
	c0.001,0,0.002,0,0.003,0s0.002,0,0.003,0c13.401,0.001,26.075,4.352,36.652,12.582c3.499,2.724,8.548,2.097,11.274-1.407
	c2.725-3.502,2.095-8.55-1.407-11.276c-11.291-8.786-24.467-14.073-38.489-15.536v-9.329c9.225,0.861,18.166,3.195,26.665,7.005
	c4.045,1.814,8.803,0.005,10.619-4.044c1.815-4.05,0.004-8.803-4.044-10.619C284.246,2.962,270.359,0,256.001,0
	c-55.796,0-101.19,45.394-101.19,101.19c0,47.161,32.432,86.888,76.164,98.055c-7.965,6.977-13.011,17.212-13.011,28.608v0.758
	h-42.325c-4.438,0-8.035,3.597-8.035,8.035v160.295c0,4.437,3.596,8.035,8.035,8.035s8.035-3.597,8.035-8.035v-152.26h42.325h60.005
	h42.324v25.31C328.328,274.429,331.925,278.026,336.363,278.026z M170.88,101.19c0-44.225,33.905-80.667,77.085-84.73v9.328
	c-38.05,4.026-67.796,36.303-67.796,75.401s29.746,71.376,67.796,75.402v9.328C204.785,181.855,170.88,145.415,170.88,101.19z
	 M234.033,228.612v-0.758c0-12.113,9.854-21.967,21.967-21.967c12.113,0,21.968,9.854,21.968,21.967v0.758H234.033z"/>
<path d="M373.83,503.965v-37.307c0-4.437-3.596-8.035-8.035-8.035h-21.398V302.131c0-4.437-3.596-8.035-8.035-8.035
	s-8.035,3.597-8.035,8.035v156.492H183.673v-29.541c0-4.437-3.596-8.035-8.035-8.035s-8.035,3.597-8.035,8.035v29.541h-21.398
	c-4.438,0-8.035,3.597-8.035,8.035v37.307c0,4.437,3.596,8.035,8.035,8.035h219.59C370.234,512,373.83,508.403,373.83,503.965z
	 M357.76,495.93h-203.52v-21.238h203.521v21.238H357.76z"/>
<g>
</g>
<g>
</g>
<g>
</g>
<g>
</g>
<g>
</g>
<g>
</g>
<g>
</g>
<g>
</g>
<g>
</g>
<g>
</g>
<g>
</g>
<g>
</g>
<g>
</g>
<g>
</g>
<g>
</g>
</svg>
