<?xml version="1.0" encoding="iso-8859-1"?>
<!-- Generator: Adobe Illustrator 19.0.0, SVG Export Plug-In . SVG Version: 6.00 Build 0)  -->
<svg version="1.1" id="Layer_1" xmlns="http://www.w3.org/2000/svg" xmlns:xlink="http://www.w3.org/1999/xlink" x="0px" y="0px"
	 viewBox="0 0 512.003 512.003" style="enable-background:new 0 0 512.003 512.003;" xml:space="preserve">
<path style="fill:#F2B09D;" d="M379.517,250.785l-0.529-0.059c-3.856-0.418-7.98-0.638-12.396-0.638
	C327.869,146.828,300.979,8.072,300.979,8.072h-99.727v110.79c0,0,48.097,88.201,77.139,131.227c0,0-14.06,84.381-11.675,166.084
	l0.013,0.454l69.675,11.874l51.538-101.18L379.517,250.785z"/>
<path style="fill:#E18CAF;" d="M379.517,250.785L379.517,250.785c0,0,5.504,135.769-112.788,165.84
	c0.529,17.678,1.827,35.224,4.211,51.754c2.944,20.413,20.449,35.557,41.074,35.557c13.872,0,26.814-6.936,34.52-18.47
	C384.145,429.171,485.559,262.833,379.517,250.785z"/>
<path style="fill:#D987A9;" d="M366.778,250.091c-0.062,0-0.123-0.002-0.186-0.002c-4.91-13.095-9.63-26.762-14.129-40.644
	c-1.286,0.386-2.557,0.887-3.79,1.533c-5.734,2.993-49.134,26.396-73.416,60.764c-1.539,11.681-3.404,27.431-5.024,45.614
	c1.708,1.383,3.652,2.534,5.814,3.366c2.54,0.977,5.15,1.44,7.719,1.44c8.642-0.001,16.795-5.248,20.083-13.796
	C313.445,283.411,350.895,258.785,366.778,250.091z"/>
<g>
	<path style="fill:#E18CAF;" d="M387.942,364.448c-43.994-23.262-71.446-52.382-86.728-72.716
		c-16.473-21.917-22.813-38.696-23.017-39.248c-0.041-0.113-0.096-0.217-0.138-0.33c-1.17,7.425-5.205,34.287-8.194,69.422
		c20.136,25.799,51.335,56.251,97.966,80.906L387.942,364.448z"/>
	<path style="fill:#E18CAF;" d="M324.339,110.8c-39.921,36.273-102.854,42.844-103.521,42.91c-0.059,0.005-0.115,0.019-0.173,0.026
		c6.746,11.964,14.695,25.889,22.91,39.919c22.082-4.319,59.906-14.563,92.849-37.589
		C332.039,140.509,328.004,125.255,324.339,110.8z"/>
</g>
<path style="fill:#FFBBA8;" d="M200.945,250.088C231.063,116.711,211.701,8.072,211.701,8.072H111.668
	c0,0-19.361,108.638,10.756,242.016c0,0-49.031,44.48-34.063,155.779l0.134,0.99l73.189,38.705l73.189-38.705l0.166-1.224
	C249.908,294.505,200.945,250.088,200.945,250.088z"/>
<path style="fill:#E18CAF;" d="M236.933,387.964c-17.675-39.17-52.664-98.25-115.218-141.087c0.236,1.07,0.466,2.137,0.709,3.211
	c0,0-11.7,10.622-21.928,34.446c42.114,29.826,69.236,68.611,84.827,96.646c18.168,32.669,25.209,58.451,25.329,58.893
	c1.967,7.418,7.585,12.883,14.41,15.014C231.673,430.197,235.359,407.881,236.933,387.964z"/>
<g>
	<path style="fill:#FA9BC2;" d="M86.436,387.964c17.675-39.17,52.664-98.25,115.218-141.087c-0.236,1.07-0.466,2.137-0.709,3.211
		c0,0,11.7,10.622,21.928,34.446c-42.115,29.826-69.236,68.611-84.827,96.646c-18.168,32.669-25.209,58.451-25.329,58.893
		c-1.967,7.418-7.585,12.883-14.41,15.014C91.698,430.197,88.011,407.881,86.436,387.964z"/>
	<path style="fill:#FA9BC2;" d="M109.986,175.87c1.551,13.845,3.573,28.226,6.179,43.025h91.039c2.606-14.8,4.63-29.18,6.179-43.025
		H109.986z"/>
	<path style="fill:#FA9BC2;" d="M161.685,503.937c29.711,0,55.709-19.996,63.343-48.709c4.614-17.357,7.797-33.453,9.846-48.371
		c-18.339,8.115-44.344,13.181-73.189,13.181s-54.851-5.067-73.189-13.181c2.05,14.918,5.232,31.014,9.846,48.371
		C105.976,483.941,131.974,503.937,161.685,503.937L161.685,503.937z"/>
</g>
<path d="M78.417,388.534c0.001,0.022-0.001,0.044,0.001,0.066c0.501,6.474,1.46,12.878,2.105,19.331c0,0,0.006,0.045,0.01,0.06
	c2.182,15.876,5.56,32.466,10.038,49.309c8.562,32.209,37.816,54.703,71.139,54.703s62.577-22.495,71.139-54.703
	c4.481-16.855,7.861-33.457,10.045-49.364l0.004-0.033l0.161-1.155c0.817-6.1,1.47-12.206,1.941-18.148
	c0.001-0.016,0-0.032,0.001-0.048c6.808-85.891-24.532-128.93-35.218-140.931c1.86-8.497,3.576-17.152,5.117-25.784
	c0,0,0.272-1.526,0.274-1.544c2.507-14.236,4.611-28.881,6.254-43.547l0.114-1.014c0.128-1.156,0.25-2.305,0.371-3.454
	c15.71,27.537,33.808,58.274,48.039,79.669c-1.353,8.706-5.212,35.006-8.099,68.946c-0.019,0.227-0.026,0.453-0.026,0.679
	c-2.403,28.435-4.122,62.107-3.139,95.147c0,0,0.003,0.119,0.003,0.147c0.575,19.196,2.019,36.914,4.291,52.664
	c3.491,24.213,24.582,42.472,49.057,42.472c16.589,0,32.002-8.245,41.229-22.056c16.579-24.815,47.145-73.43,65.59-120.228
	c1.634-4.145-0.402-8.83-4.548-10.464c-4.147-1.635-8.83,0.402-10.464,4.548c-17.893,45.398-47.775,92.904-63.994,117.182
	c-6.227,9.32-16.624,14.883-27.813,14.883c-16.509,0-30.734-12.313-33.09-28.642c-1.935-13.413-3.246-28.361-3.908-44.514
	c-0.015-0.36,13.796-4.768,15.108-5.304c21.338-8.72,40.424-22.364,55.378-39.924c12.757-14.98,22.168-32.494,29.032-50.873
	c1.887-5.051,3.495-10.206,4.941-15.399c0.027-0.095,0.054-0.19,0.08-0.286c5.851-21.161,7.509-39.799,7.937-50.617
	c10.896,2.557,18.722,7.38,23.791,14.623c8.25,11.79,9.357,30.524,3.293,55.68c-1.044,4.332,1.62,8.689,5.951,9.733
	c4.335,1.046,8.689-1.62,9.733-5.951c7.196-29.849,5.26-52.967-5.758-68.712c-9.032-12.909-23.862-20.618-44.086-22.915
	l-0.365-0.041c-2.516-0.276-5.125-0.473-7.803-0.587c-0.066-0.179-0.131-0.353-0.196-0.532
	c-13.296-36.418-24.292-73.654-34.24-111.111c-8.054-30.325-15.389-60.843-22.104-91.492c-2.366-10.799-4.711-21.613-6.811-32.468
	c-0.849-4.374-5.081-7.234-9.455-6.385c-4.374,0.848-7.234,5.08-6.386,9.455c0.148,0.767,8.44,43.21,22.276,98.336
	c-31.298,26.096-75.635,34.801-90.345,37.063c-0.219-0.39-0.444-0.791-0.659-1.174c5.125-77.414-3.678-131.328-4.625-136.824
	c-0.013-0.075-0.025-0.145-0.039-0.223c-0.009-0.047-0.017-0.097-0.023-0.129c-0.015-0.084-0.04-0.165-0.057-0.247
	c-0.816-3.882-4.443-6.481-8.352-6.359c-4.711,0.147-8.289,4.869-7.476,9.435c0.109,0.611,9.577,55.174,4.456,133.339
	c-0.529,8.084-1.215,16.422-2.083,24.977h-88.895c-3.169-31.188-4.269-62.693-3.268-93.762c0.144-4.453-3.35-8.179-7.804-8.322
	c-4.405-0.147-8.179,3.35-8.322,7.804c-1.103,34.214,0.285,68.942,4.125,103.246c1.64,14.64,3.743,29.285,6.256,43.546
	c1.613,9.16,3.423,18.324,5.389,27.307C102.951,259.622,71.616,302.654,78.417,388.534z M187.227,410.535
	c-8.469,0.968-16.994,1.436-25.518,1.436c-9.724,0-19.456-0.613-29.098-1.878c3.781-8.453,7.967-16.825,12.508-24.99
	c4.465-8.03,9.972-17.073,16.589-26.582c5.955,8.554,11.515,17.459,16.589,26.582c2.268,4.079,4.448,8.207,6.537,12.38
	c2.007,4.01,4.486,8.199,5.86,12.469C190.755,410.137,187.407,410.514,187.227,410.535z M104.214,297.315
	c6.064,4.697,11.981,9.741,17.709,15.073c-11.113,14.646-20.393,29.245-28.085,43.017
	C94.809,330.711,99.269,311.455,104.214,297.315z M111.367,280.331c3.618-7.238,7.868-14.207,13.037-20.443
	c0.012-0.015,0.024-0.028,0.035-0.043c0.202-0.244,0.398-0.475,0.585-0.695c0.009-0.011,0.016-0.019,0.025-0.029
	c8.623,6.343,16.999,13.242,25.033,20.618c-6.448,6.571-12.456,13.259-18.071,19.986c-6.9-6.366-14.064-12.332-21.414-17.831
	C110.851,281.371,111.107,280.85,111.367,280.331z M207.214,271.538c1.975,3.279,4.227,6.776,5.607,10.357
	c0.61,1.579-9.738,7.978-11.104,9.097c-6.562,5.373-12.949,10.969-18.891,17.026c-18.688,19.047-35.159,40.323-48.523,63.435
	c-4.34,7.506-8.479,15.064-12.04,22.974c-0.484,1.077-5.224,12.981-6.026,12.805c-0.035-0.008-0.073-0.016-0.109-0.024
	c-6.865-1.527-13.658-3.462-20.214-6.022c-0.275-0.111-0.375-3.175-0.421-3.579c-0.212-1.894-0.407-3.789-0.583-5.687
	c-0.056-0.6-0.455-2.052-0.222-2.566c9.719-21.211,23.879-46.742,43.86-72.09c0.2-0.203,0.39-0.418,0.569-0.644
	c8.791-11.094,18.28-21.595,28.204-31.213c0.12-0.117,0.229-0.243,0.342-0.367c9.335-9.005,19.536-17.726,30.701-25.925
	c0.024,0.027,0.045,0.053,0.069,0.081C201.715,263.041,204.609,267.21,207.214,271.538z M227.969,397.149
	c-0.148,1.347-0.301,2.692-0.468,4.04c-0.382,2.677-18.262,5.589-20.248,6.026c-0.025,0.005-0.051,0.011-0.075,0.016
	c-4.39-10.146-9.347-20.201-14.78-29.971c-6.224-11.188-13.138-22.066-20.6-32.413c0.061-0.077,0.124-0.156,0.185-0.233
	c5.488-6.998,11.292-13.751,17.404-20.212c0.168-0.177,0.331-0.355,0.5-0.531c15.091,20.128,28.132,42.112,38.842,65.486
	C228.509,391.957,228.255,394.555,227.969,397.149z M128.969,242.094c-1.079-5.008-2.125-10.05-3.097-15.132h71.672
	c-0.969,5.076-2.017,10.121-3.097,15.134c-11.881,8.322-22.777,17.197-32.76,26.407
	C151.279,258.891,140.308,250.042,128.969,242.094z M201.451,312.424c5.555-5.177,11.468-10.241,17.761-15.113
	c6.736,19.185,9.635,39.26,10.357,58.102C221.146,340.357,211.749,325.985,201.451,312.424z M204.328,183.937
	c-1.132,9.032-2.438,18.029-3.906,26.891h-77.427c-1.467-8.863-2.774-17.861-3.905-26.891H204.328z M217.255,453.155
	c-6.686,25.149-29.527,42.714-55.546,42.714s-48.86-17.565-55.546-42.714c-3.054-11.488-5.574-22.839-7.527-33.897
	c0.212,1.201,11.521,3.167,12.915,3.488c16.383,3.781,33.241,5.358,50.038,5.358c0.04,0,0.08,0.001,0.12,0.001
	c0.041,0,0.081-0.001,0.12-0.001c21.262-0.011,42.628-2.406,62.953-8.847C222.829,430.316,220.309,441.667,217.255,453.155z
	 M348.499,223.089c0.054,0.158,0.107,0.316,0.16,0.475c2.438,7.249,4.993,14.454,7.565,21.657c0.165,0.453,0.33,0.919,0.495,1.369
	c-5.973,3.584-15.003,9.376-24.577,16.872c-10.102,7.909-18.304,15.732-24.504,23.359c-0.019-0.026-0.038-0.051-0.057-0.076
	c-5.291-7.05-10.155-14.428-14.475-22.112c-0.04-0.071-0.081-0.143-0.12-0.214c-0.193-0.345-0.38-0.682-0.564-1.018
	c19.465-21.219,44.642-36.661,55.278-42.684C347.966,221.517,348.233,222.296,348.499,223.089z M317.807,382.489
	c-10.28,8.46-21.824,15.255-34.183,20.195c-0.826,0.33-9.033,2.919-9.029,3.269c-0.286-21.911,0.541-43.833,1.871-64
	c12.808,14.24,27.155,27.378,42.875,39.254c-0.017,0.015-0.034,0.03-0.052,0.045C318.797,381.667,318.304,382.08,317.807,382.489z
	 M288.337,287.545c15.045,22.186,33.854,40.477,54.558,57.262c0.226,0.183,3.962,3.063,3.903,3.162
	c-4.683,7.931-9.995,15.218-15.868,21.773c-20.01-14.875-37.704-31.87-52.705-50.624c1.377-15.625,2.941-29.501,4.329-40.56
	c1.693,2.784,3.591,5.755,5.702,8.871C288.283,287.468,288.311,287.506,288.337,287.545z M371.422,258.254
	c0.901,0.038-3.145,29.513-3.531,31.571c-2.724,14.542-6.982,28.919-12.99,42.453c-0.175,0.394-0.358,0.779-0.536,1.17
	c-15.355-11.719-27.331-23.575-36.271-33.779c12.934-17.348,37.332-33.866,50.731-41.467
	C369.693,258.218,370.571,258.219,371.422,258.254z M342.628,205.072c-9.213,5.004-34.877,19.939-56.782,41.881
	c-0.202-0.479-0.45-0.941-0.744-1.378c-8.534-12.642-18.811-29.38-28.903-46.405c19.884-4.73,48.613-13.782,75.494-30.355
	C335.16,180.875,338.812,193.035,342.628,205.072z M319.693,125.046c2.446,9.399,4.922,18.624,7.404,27.588
	c-28.359,18.488-59.905,27.673-79.468,31.945c-5.002-8.59-9.808-16.966-14.172-24.64
	C252.206,156.507,289.697,147.285,319.693,125.046z"/>
<path d="M107.1,49.553c0.226,0.019,0.451,0.028,0.674,0.028c4.153,0,7.682-3.188,8.031-7.402c1.697-20.531,3.81-32.575,3.831-32.695
	c0.779-4.386-2.145-8.573-6.53-9.353c-4.38-0.78-8.575,2.143-9.355,6.529c-0.091,0.514-2.259,12.821-4.025,34.188
	C99.359,45.288,102.66,49.185,107.1,49.553z"/>
<g>
</g>
<g>
</g>
<g>
</g>
<g>
</g>
<g>
</g>
<g>
</g>
<g>
</g>
<g>
</g>
<g>
</g>
<g>
</g>
<g>
</g>
<g>
</g>
<g>
</g>
<g>
</g>
<g>
</g>
</svg>
