<?xml version="1.0" encoding="iso-8859-1"?>
<!-- Generator: Adobe Illustrator 19.0.0, SVG Export Plug-In . SVG Version: 6.00 Build 0)  -->
<svg version="1.1" id="Layer_1" xmlns="http://www.w3.org/2000/svg" xmlns:xlink="http://www.w3.org/1999/xlink" x="0px" y="0px"
	 viewBox="0 0 512.002 512.002" style="enable-background:new 0 0 512.002 512.002;" xml:space="preserve">
<path style="fill:#D6B56D;" d="M351.135,160.802c-9.496,0-17.193-7.697-17.193-17.193c0-11.443-9.31-20.753-20.753-20.753
	s-20.753,9.31-20.753,20.753c0,9.496-7.697,17.193-17.193,17.193c-9.496,0-17.193-7.697-17.193-17.193
	c0-30.404,24.735-55.139,55.139-55.139c30.404,0,55.139,24.735,55.139,55.139C368.328,153.104,360.63,160.802,351.135,160.802z"/>
<path style="fill:#BF4D50;" d="M40.079,306.255v128.048c0,10.667,8.647,19.313,19.313,19.313s19.313-8.647,19.313-19.313V306.255
	H40.079z"/>
<rect x="40.079" y="109.593" style="fill:#D7565A;" width="38.628" height="196.659"/>
<path style="fill:#D6B56D;" d="M140.254,165.869c-3.237,0-6.524-0.724-9.625-2.249l-50.382-24.804
	c-10.815-5.325-15.267-18.408-9.942-29.223c5.326-10.815,18.409-15.266,29.224-9.942l50.382,24.804
	c10.815,5.325,15.267,18.408,9.942,29.223C156.055,161.392,148.308,165.869,140.254,165.869z"/>
<circle style="fill:#F2CC7B;" cx="193.789" cy="148.728" r="71.232"/>
<circle style="fill:#464754;" cx="193.789" cy="148.728" r="36.331"/>
<circle style="fill:#F2CC7B;" cx="432.584" cy="148.728" r="71.232"/>
<circle style="fill:#464754;" cx="432.584" cy="148.728" r="36.331"/>
<path style="opacity:0.1;enable-background:new    ;" d="M40.079,185.674c6.181,1.57,12.651,2.411,19.314,2.411
	c6.663,0,13.132-0.84,19.313-2.411v-76.082H40.079V185.674z"/>
<circle style="fill:#F2CC7B;" cx="59.391" cy="109.593" r="51.208"/>
<circle style="fill:#D6B56D;" cx="59.391" cy="109.593" r="19.313"/>
<path style="opacity:0.1;enable-background:new    ;" d="M40.079,347.461c0.398,0.011,0.796,0.029,1.197,0.029h36.232
	c0.402,0,0.799-0.019,1.198-0.029v-41.205H40.079V347.461z"/>
<path style="fill:#D6B56D;" d="M77.51,292.303H41.278c-7.705,0-13.952,6.247-13.952,13.952s6.247,13.952,13.952,13.952H77.51
	c7.705,0,13.952-6.247,13.952-13.952C91.462,298.55,85.215,292.303,77.51,292.303z"/>
<path d="M193.789,193.24c24.547,0,44.518-19.97,44.518-44.518s-19.97-44.518-44.518-44.518s-44.518,19.97-44.518,44.518
	S169.241,193.24,193.789,193.24z M193.789,120.575c15.521,0,28.148,12.627,28.148,28.148c0,15.521-12.627,28.148-28.148,28.148
	s-28.148-12.627-28.148-28.148S178.269,120.575,193.789,120.575z"/>
<path d="M432.589,104.205c-24.547,0-44.518,19.97-44.518,44.518s19.97,44.518,44.518,44.518c24.547,0,44.518-19.97,44.518-44.518
	S457.136,104.205,432.589,104.205z M432.589,176.87c-15.521,0-28.148-12.627-28.148-28.148s12.627-28.148,28.148-28.148
	s28.148,12.627,28.148,28.148S448.109,176.87,432.589,176.87z"/>
<path d="M59.394,137.092c15.163,0,27.498-12.336,27.498-27.5S74.556,82.094,59.394,82.094S31.895,94.43,31.895,109.593
	S44.231,137.092,59.394,137.092z M59.394,98.464c6.137,0,11.128,4.993,11.128,11.128c0,6.137-4.992,11.129-11.128,11.129
	s-11.128-4.993-11.128-11.129C48.266,103.457,53.257,98.464,59.394,98.464z"/>
<path d="M480.645,95.544c-3.393,2.987-3.721,8.159-0.734,11.552c10.137,11.514,15.72,26.298,15.72,41.627
	c0,34.761-28.28,63.042-63.042,63.042c-32.277,0-58.951-24.388-62.6-55.702c-2.295-19.801,5.098-39.857,19.657-53.44
	c11.597-10.818,27.08-16.943,42.944-16.943c8.015,0,15.848,1.501,23.287,4.46c4.204,1.672,8.96-0.379,10.632-4.578
	c1.671-4.199-0.379-8.96-4.578-10.631c-9.372-3.73-19.245-5.621-29.341-5.621c-28.565,0-53.647,15.165-67.64,37.862
	C353.28,90.62,334.103,80.285,313.19,80.285c-20.914,0-40.092,10.335-51.761,26.887c-13.993-22.697-39.075-37.862-67.64-37.862
	c-27.422,0-51.64,13.973-65.914,35.172l-9.946-4.897C113.155,71.587,88.733,50.2,59.395,50.2C26.644,50.2,0,76.844,0,109.593
	c0,22.831,12.956,42.681,31.895,52.619v38.859c0,4.52,3.664,8.185,8.185,8.185s8.185-3.665,8.185-8.185v-33.13
	c0,0.206,4.994,0.707,5.453,0.755c2.289,0.235,4.567,0.307,6.865,0.261c3.281-0.067,6.684-0.397,9.939-1.015v116.177H48.266v-50.307
	c0-4.52-3.664-8.185-8.185-8.185s-8.185,3.665-8.185,8.185v52.423c-7.522,3.54-12.754,11.171-12.754,20.021
	c0,8.849,5.232,16.48,12.754,20.021v108.027c0,15.163,12.336,27.498,27.498,27.498s27.498-12.335,27.498-27.498V326.277
	c7.521-3.54,12.754-11.172,12.754-20.021c0-8.85-5.232-16.48-12.754-20.021V162.212c3.405-1.786,6.615-3.892,9.592-6.28l19.724,9.71
	c3.081,14.186,10.002,27.31,20.266,38.018c3.127,3.263,8.308,3.372,11.573,0.244c3.263-3.129,3.372-8.309,0.244-11.573
	c-10.59-11.049-16.887-25.892-17.492-41.179c-0.032-0.809-0.052-1.618-0.052-2.428c0-15.494,5.94-30.827,16.392-42.34
	c9.249-10.189,21.766-17.207,35.31-19.68c3.739-0.682,7.539-1.023,11.339-1.023c11.291,0,22.485,3.07,32.182,8.855
	c9.45,5.638,17.364,13.751,22.765,23.338c6.501,11.54,9.176,25.033,7.655,38.182c-3.647,31.317-30.322,55.708-62.601,55.708
	c-7.061,0-14.023-1.175-20.69-3.492c-4.273-1.484-8.935,0.775-10.418,5.045c-1.484,4.27,0.775,8.935,5.044,10.418
	c8.4,2.919,17.168,4.399,26.063,4.399c36.941,0,68.071-25.354,76.903-59.575c1.497,0.275,3.02,0.427,4.551,0.427
	c13.993,0,25.378-11.385,25.378-25.377c0-6.93,5.638-12.568,12.569-12.568c6.93,0,12.568,5.638,12.568,12.568
	c0,13.993,11.385,25.377,25.378,25.377c1.532,0,3.054-0.152,4.551-0.427c8.832,34.22,39.963,59.575,76.903,59.575
	c43.788,0,79.412-35.625,79.412-79.412c0-19.314-7.033-37.94-19.803-52.444C489.21,92.884,484.036,92.556,480.645,95.544z
	 M77.509,300.488c3.18,0,5.767,2.588,5.767,5.767c0,3.179-2.586,5.767-5.767,5.767H41.278c-3.18,0-5.767-2.586-5.767-5.767
	c0-3.18,2.586-5.767,5.767-5.767H77.509z M70.522,434.303c0,6.137-4.992,11.128-11.128,11.128s-11.128-4.993-11.128-11.128V328.392
	h22.257V434.303z M16.37,109.593c0-23.723,19.3-43.023,43.024-43.023c22.408,0,40.861,17.222,42.839,39.148
	c1.675,18.569-9.738,36.978-27.036,43.868c-4.948,1.971-10.292,3.024-15.621,3.024c-0.061,0-0.121,0.004-0.182,0.004
	c-0.061,0-0.121-0.004-0.182-0.004c-19.848-0.08-37.543-14.359-41.829-33.718C16.707,115.842,16.37,112.718,16.37,109.593z
	 M117.942,119.518c0.061-0.361,0.13-0.719,0.184-1.083c0.023-0.157,0.058-0.311,0.08-0.468l1.964,0.968
	c-3.532,8.737-5.499,18.151-5.762,27.574l-6.205-3.055C113.202,136.289,116.499,128.149,117.942,119.518z M353.266,152.363
	c-0.647,0.158-1.358,0.252-2.131,0.252c-4.967,0-9.008-4.04-9.008-9.007c0-15.956-12.981-28.938-28.938-28.938
	s-28.939,12.981-28.939,28.938c0,4.967-4.041,9.007-9.008,9.007c-0.775,0-1.485-0.095-2.132-0.253
	c0.06-1.231,0.089-2.447,0.089-3.641c0-7.24-1.044-14.411-2.936-21.394c-0.083-0.297-0.581-1.354-0.471-1.617
	c7.227-17.484,24.343-29.057,43.397-29.057c19.051,0,36.169,11.573,43.395,29.058c-1.618,5.344-2.66,10.876-3.122,16.44
	c-0.182,2.184-0.285,4.377-0.285,6.569C353.177,149.918,353.207,151.132,353.266,152.363z"/>
<g>
</g>
<g>
</g>
<g>
</g>
<g>
</g>
<g>
</g>
<g>
</g>
<g>
</g>
<g>
</g>
<g>
</g>
<g>
</g>
<g>
</g>
<g>
</g>
<g>
</g>
<g>
</g>
<g>
</g>
</svg>
