<?xml version="1.0" encoding="iso-8859-1"?>
<!-- Generator: Adobe Illustrator 19.0.0, SVG Export Plug-In . SVG Version: 6.00 Build 0)  -->
<svg version="1.1" id="Layer_1" xmlns="http://www.w3.org/2000/svg" xmlns:xlink="http://www.w3.org/1999/xlink" x="0px" y="0px"
	 viewBox="0 0 512.001 512.001" style="enable-background:new 0 0 512.001 512.001;" xml:space="preserve">
<g transform="matrix(0.8266 -0.5628 0.5628 0.8266 -30.894 163)">
	<rect x="69.199" y="109.917" style="fill:#A9ACCC;" width="368.154" height="59.265"/>
	<rect x="69.199" y="109.917" style="opacity:0.1;enable-background:new    ;" width="368.154" height="59.265"/>
</g>
<rect x="88.163" y="214.917" style="fill:#A9ACCC;" width="368.154" height="59.265"/>
<path style="opacity:0.1;enable-background:new    ;" d="M136.322,182.136l-48.156,32.783v58.279l0,0
	c12.148,0,23.437-3.74,32.783-10.125c0.566-0.387,1.124-0.787,1.677-1.193c0.272-0.2,0.542-0.403,0.81-0.608
	c0.456-0.348,0.907-0.703,1.353-1.064c0.309-0.25,0.614-0.504,0.917-0.759c0.397-0.335,0.791-0.676,1.179-1.022
	c0.243-0.217,0.486-0.432,0.725-0.653c0.509-0.468,1.01-0.945,1.501-1.431c0.221-0.219,0.437-0.442,0.655-0.664
	c0.374-0.381,0.741-0.767,1.104-1.158c0.193-0.207,0.388-0.413,0.578-0.623c0.468-0.519,0.924-1.049,1.373-1.586
	c0.196-0.234,0.39-0.469,0.583-0.706c0.447-0.55,0.886-1.105,1.313-1.67c0.149-0.197,0.291-0.398,0.437-0.596
	c0.35-0.476,0.691-0.956,1.027-1.442c0.153-0.222,0.307-0.443,0.457-0.667c0.41-0.614,0.809-1.235,1.196-1.864
	c0.134-0.217,0.263-0.436,0.394-0.655c0.332-0.556,0.656-1.117,0.97-1.685c0.085-0.154,0.173-0.304,0.257-0.459
	c0.367-0.679,0.718-1.369,1.059-2.064c0.107-0.218,0.214-0.436,0.318-0.656c0.335-0.705,0.659-1.415,0.967-2.135
	c0.066-0.156,0.128-0.315,0.194-0.472c0.267-0.642,0.522-1.289,0.767-1.942c0.069-0.185,0.141-0.368,0.208-0.555
	c0.272-0.751,0.529-1.511,0.772-2.275c0.062-0.194,0.12-0.389,0.18-0.584c0.227-0.745,0.443-1.494,0.641-2.251
	c0.019-0.071,0.039-0.141,0.058-0.213c0.208-0.812,0.394-1.633,0.568-2.458c0.04-0.193,0.082-0.385,0.12-0.578
	c0.164-0.821,0.315-1.647,0.444-2.48c0.022-0.136,0.038-0.274,0.059-0.411c0.113-0.769,0.213-1.541,0.296-2.32
	c0.017-0.151,0.035-0.3,0.05-0.451c0.085-0.85,0.149-1.707,0.196-2.568c0.01-0.186,0.018-0.372,0.027-0.559
	c0.04-0.888,0.068-1.78,0.068-2.678C146.446,202.771,142.705,191.483,136.322,182.136z"/>
<circle style="fill:#A9ACCC;" cx="88.163" cy="214.917" r="32.486"/>
<g>
	<circle style="fill:#464754;" cx="88.163" cy="214.917" r="13.224"/>
	<path style="fill:#464754;" d="M88.166,256.639v219.608c0,15.472,12.543,28.016,28.016,28.016h312.119
		c15.472,0,28.016-12.543,28.016-28.016V256.639H88.166z"/>
</g>
<circle cx="88.163" cy="214.917" r="13.224"/>
<path d="M124.105,390.252c-4.275,0-7.738,3.465-7.738,7.738c0,4.274,3.464,7.738,7.738,7.738h296.274
	c4.275,0,7.738-3.465,7.738-7.738c0-4.274-3.464-7.738-7.738-7.738h-63.017v-62.938h63.017c4.275,0,7.738-3.465,7.738-7.738
	c0-4.274-3.464-7.738-7.738-7.738H124.105c-4.275,0-7.738,3.465-7.738,7.738c0,4.274,3.464,7.738,7.738,7.738h63.016v62.938H124.105
	z M202.597,327.315h139.288v62.938H202.597V327.315z"/>
<path d="M124.105,473.825h296.274c4.275,0,7.738-3.465,7.738-7.738c0-4.274-3.464-7.738-7.738-7.738H124.105
	c-4.275,0-7.738,3.465-7.738,7.738C116.366,470.361,119.831,473.825,124.105,473.825z"/>
<path d="M80.428,254.389v2.25l0,0l0,0v26.707c0,4.274,3.464,7.738,7.738,7.738c4.275,0,7.738-3.465,7.738-7.738v-18.969h129.169
	c0.001,0,0.002,0,0.003,0s0.002,0,0.002,0h118.505c0,0,0.002,0,0.003,0s0.002,0,0.003,0h59.25c0.001,0,0.002,0,0.003,0
	s0.002,0,0.002,0h45.736v157.865c0,4.274,3.464,7.738,7.738,7.738c4.275,0,7.738-3.465,7.738-7.738V256.639l0,0l0,0v-41.719
	c0-4.275-3.464-7.738-7.738-7.738H218.584l211.607-144.06c1.697-1.156,2.864-2.936,3.247-4.952c0.383-2.017-0.051-4.102-1.206-5.799
	L398.883,3.385c-2.404-3.533-7.217-4.448-10.751-2.042L116.42,186.324c-7.27-7.183-17.251-11.628-28.254-11.628
	c-22.179,0-40.223,18.045-40.223,40.223C47.943,234.453,61.94,250.771,80.428,254.389z M239.405,222.659l26.243,26.243h-37.366
	l-26.243-26.243H239.405z M298.661,222.659l26.243,26.243h-37.367l-26.243-26.243H298.661z M357.915,222.659l26.243,26.243h-37.366
	l-26.243-26.243H357.915z M417.17,222.659l26.242,26.243h-37.366l-26.243-26.243H417.17z M180.15,222.659l26.243,26.243H109.67
	c0.155-0.099,0.303-0.206,0.457-0.306c6.718-4.392,12.056-10.82,15.169-18.216c1.014-2.409,1.788-4.955,2.303-7.518
	c0.013-0.068,0.032-0.134,0.045-0.202H180.15z M448.579,232.179l-9.521-9.521h9.521V232.179z M217.539,136.205l60.83,11.553
	l-30.889,21.029l-60.83-11.553L217.539,136.205z M266.521,102.858l60.831,11.553l-30.889,21.028l-60.831-11.553L266.521,102.858z
	 M315.502,69.513l60.831,11.553l-30.889,21.029l-60.831-11.553L315.502,69.513z M394.425,68.748l-60.831-11.553l30.889-21.029
	l43.639,8.288l6.963,10.229L394.425,68.748z M390.446,18.491l5.358,7.87l-13.229-2.512L390.446,18.491z M168.558,169.551
	l60.83,11.553l-38.305,26.078h-63.436c-0.017-0.086-0.039-0.168-0.057-0.253c-0.164-0.815-2.41-7.847-2.433-7.831L168.558,169.551z
	 M88.166,190.172c13.319,0,24.699,11.344,24.745,24.661c0,0.029,0.002,0.058,0.002,0.086c0.002,13.435-11.333,24.747-24.751,24.747
	c-13.644-0.001-24.744-11.103-24.744-24.747C63.419,201.274,74.52,190.172,88.166,190.172z"/>
<path d="M88.166,306.561c-4.275,0-7.738,3.465-7.738,7.738v161.948c0,19.715,16.04,35.754,35.755,35.754h312.119
	c19.714,0,35.753-16.039,35.753-35.754v-23.051c0-4.274-3.464-7.738-7.738-7.738c-4.275,0-7.738,3.465-7.738,7.738v23.051
	c0,11.181-9.096,20.277-20.276,20.277H116.183c-11.182,0-20.278-9.096-20.278-20.277V314.299
	C95.904,310.025,92.441,306.561,88.166,306.561z"/>
<g>
</g>
<g>
</g>
<g>
</g>
<g>
</g>
<g>
</g>
<g>
</g>
<g>
</g>
<g>
</g>
<g>
</g>
<g>
</g>
<g>
</g>
<g>
</g>
<g>
</g>
<g>
</g>
<g>
</g>
</svg>
