<?xml version="1.0" encoding="iso-8859-1"?>
<!-- Generator: Adobe Illustrator 19.0.0, SVG Export Plug-In . SVG Version: 6.00 Build 0)  -->
<svg version="1.1" id="Layer_1" xmlns="http://www.w3.org/2000/svg" xmlns:xlink="http://www.w3.org/1999/xlink" x="0px" y="0px"
	 viewBox="0 0 511.999 511.999" style="enable-background:new 0 0 511.999 511.999;" xml:space="preserve">
<g>
	<rect x="116.387" y="8.057" style="fill:#E0A381;" width="31.401" height="172.615"/>
	<rect x="364.222" y="8.057" style="fill:#E0A381;" width="31.401" height="172.615"/>
</g>
<rect x="116.387" y="8.057" style="opacity:0.1;enable-background:new    ;" width="31.401" height="172.615"/>
<rect x="364.222" y="8.057" style="opacity:0.1;enable-background:new    ;" width="31.401" height="172.615"/>
<rect x="102.002" y="41.07" style="fill:#464754;" width="307.995" height="104.484"/>
<polygon style="fill:#E0A381;" points="404.3,503.942 156.864,262.076 125.24,291.17 345.91,503.942 "/>
<polygon style="opacity:0.1;enable-background:new    ;" points="404.3,503.942 156.864,262.076 125.24,291.17 345.91,503.942 "/>
<polygon style="fill:#E0A381;" points="107.699,503.942 355.135,262.076 386.759,291.17 166.088,503.942 "/>
<polygon style="opacity:0.1;enable-background:new    ;" points="156.864,262.076 125.24,291.17 152.134,317.101 213.156,317.101 
	"/>
<polygon style="opacity:0.1;enable-background:new    ;" points="298.843,317.101 359.865,317.101 386.759,291.17 355.135,262.076 
	"/>
<rect x="132.082" y="263.004" style="fill:#E0A381;" width="247.835" height="27.243"/>
<rect x="132.082" y="206.315" style="fill:#464754;" width="247.835" height="56.684"/>
<rect x="132.082" y="263.004" style="opacity:0.1;enable-background:new    ;" width="48.396" height="27.241"/>
<rect x="331.521" y="263.004" style="opacity:0.1;enable-background:new    ;" width="48.396" height="27.241"/>
<g>
	<rect x="110.542" y="166.588" style="fill:#E0A381;" width="43.078" height="123.649"/>
	<rect x="358.378" y="166.588" style="fill:#E0A381;" width="43.078" height="123.649"/>
</g>
<path d="M147.782,0h-31.399c-4.45,0-8.057,3.607-8.057,8.057v24.957h-6.325c-4.45,0-8.057,3.607-8.057,8.057v104.488
	c0,4.45,3.607,8.057,8.057,8.057h6.325v5.236c-3.371,0.964-5.842,4.061-5.842,7.741v123.65c0,4.45,3.607,8.057,8.057,8.057h10.486
	l93.394,90.052L102.066,498.18c-2.342,2.289-3.066,5.77-1.829,8.803c1.236,3.034,4.185,5.016,7.461,5.016h58.39
	c2.086,0,4.091-0.809,5.593-2.257l84.318-81.3l84.319,81.3c1.502,1.448,3.506,2.257,5.593,2.257h58.389
	c3.275,0,6.224-1.983,7.461-5.016c1.236-3.033,0.513-6.513-1.829-8.803l-55.171-53.929c-3.182-3.11-8.283-3.053-11.394,0.13
	c-3.111,3.183-3.052,8.283,0.13,11.394l41.033,40.109h-35.368l-81.554-78.636l18.364-17.705l34.485,33.709
	c3.181,3.11,8.283,3.053,11.394-0.13c3.111-3.182,3.052-8.283-0.13-11.394l-34.144-33.376l93.394-90.052h10.487
	c4.45,0,8.057-3.607,8.057-8.057v-123.65c0-3.68-2.471-6.778-5.842-7.741v-5.236h6.325c4.45,0,8.057-3.607,8.057-8.057V41.071
	c0-4.45-3.607-8.057-8.057-8.057h-6.325V8.057c0-4.45-3.607-8.057-8.057-8.057h-31.399c-4.45,0-8.057,3.607-8.057,8.057v24.957
	H208.184c-4.45,0-8.057,3.607-8.057,8.057s3.607,8.057,8.057,8.057h156.032h31.399h6.325v88.374h-6.325h-31.399H147.782h-31.399
	h-6.325V49.128h6.325h31.399h28.174c4.45,0,8.057-3.607,8.057-8.057s-3.607-8.057-8.057-8.057h-20.117V8.057
	C155.839,3.607,152.232,0,147.782,0z M393.399,282.187h-26.969V174.65h26.969V282.187z M326.318,282.187H185.681h-23.998v-11.127
	h188.635v11.127H326.318z M255.998,347.713l-50.55-49.412h101.1L255.998,347.713z M118.598,282.187V174.65h26.969v107.536H118.598z
	 M356.158,158.852c-3.371,0.964-5.842,4.061-5.842,7.741v31.667h-25.711c-4.45,0-8.057,3.607-8.057,8.057
	c0,4.45,3.607,8.057,8.057,8.057h25.711v40.57H161.681v-40.57h130.696c4.45,0,8.057-3.607,8.057-8.057
	c0-4.45-3.607-8.057-8.057-8.057H161.681v-31.667c0-3.68-2.471-6.778-5.842-7.741v-5.236h200.319V158.852z M144.244,298.301h38.153
	l62.076,60.679l-18.522,18.105L144.244,298.301z M162.836,495.886h-35.368l202.134-197.584h38.153L162.836,495.886z M372.273,33.014
	V16.114h15.285v16.899C387.557,33.014,372.273,33.014,372.273,33.014z M387.557,153.616v4.92h-15.285v-4.92H387.557z
	 M139.725,153.616v4.92H124.44v-4.92H139.725z M124.44,33.014V16.114h15.285v16.899C139.725,33.014,124.44,33.014,124.44,33.014z"/>
<g>
</g>
<g>
</g>
<g>
</g>
<g>
</g>
<g>
</g>
<g>
</g>
<g>
</g>
<g>
</g>
<g>
</g>
<g>
</g>
<g>
</g>
<g>
</g>
<g>
</g>
<g>
</g>
<g>
</g>
</svg>
