<?xml version="1.0" encoding="iso-8859-1"?>
<!-- Generator: Adobe Illustrator 19.0.0, SVG Export Plug-In . SVG Version: 6.00 Build 0)  -->
<svg version="1.1" id="Layer_1" xmlns="http://www.w3.org/2000/svg" xmlns:xlink="http://www.w3.org/1999/xlink" x="0px" y="0px"
	 viewBox="0 0 512 512" style="enable-background:new 0 0 512 512;" xml:space="preserve">
<path style="fill:#464754;" d="M485.302,260.899c-0.654-2.946-11.458-60.234-11.458-60.234l-62.854-52.378l-41.633-6.413
	c-1.166-0.196-2.335-0.379-3.508-0.541l0,0l0,0l0,0c-0.838,0.118-1.676,0.231-2.514,0.368
	C326.639,147.711,294.007,166.33,256,166.33s-70.637-18.619-107.334-24.628C68.401,128.558-13.956,205.509,13.135,287.967
	c19.779,60.206,81.479,91.331,142.391,82.249c50.698-7.752,65.748-37.212,100.474-37.212s49.776,29.46,100.474,37.212
	c1.679,0.251,3.357,0.469,5.037,0.656l0.082,0.007l37.217-0.76l48.19-26.727l36.009-48.776
	C483.01,294.617,485.957,263.846,485.302,260.899z M201.798,280.847c-3.435,20.8-134.292-0.815-130.857-21.615
	c3.435-20.8,35.514-32.823,71.649-26.855C178.725,238.346,205.235,260.047,201.798,280.847z M310.203,280.847
	c-3.435-20.8,23.072-42.5,59.208-48.47c36.135-5.969,68.213,6.055,71.649,26.855C444.495,280.033,313.638,301.646,310.203,280.847z"
	/>
<g style="opacity:0.1;">
	<path d="M44.746,287.967c-23.229-70.705,34.013-137.355,101.405-146.635C66.694,130.18-13.672,206.37,13.135,287.967
		c19.225,58.52,78.057,89.56,137.273,82.913C102.966,365.505,60.523,335.987,44.746,287.967z"/>
</g>
<path style="fill:#595A6B;" d="M365.849,141.333c67.392,9.28,124.635,75.93,101.406,146.635
	c-15.776,48.02-58.219,77.538-105.662,82.913c59.216,6.647,118.047-24.393,137.273-82.913
	C525.674,206.37,445.307,130.18,365.849,141.333z"/>
<path d="M192.016,244.936c-12.236-10.018-29.34-17.246-48.16-20.354c-41.064-6.783-76.523,7.873-80.734,33.364
	c-0.61,3.69,0.079,9.252,6.825,14.788c16.287,13.368,68.341,24.429,103.163,24.429c10.439,0,19.333-0.995,25.246-3.22
	c8.166-3.074,10.607-8.118,11.217-11.808v0.001C211.714,269.168,205.479,255.958,192.016,244.936z M194.104,278.595
	c-4.296,2.656-24.603,4.937-59.048-0.752c-34.446-5.689-52.938-14.38-56.151-18.276c2.115-9.052,12.318-14.14,18.349-16.4
	c12.257-4.595,27.893-5.657,44.024-2.991c16.133,2.665,30.595,8.698,40.725,16.991C186.988,261.246,195.014,269.344,194.104,278.595
	z"/>
<path d="M332.2,297.065c2.007,0.091,4.111,0.136,6.301,0.136c11.792,0,26.068-1.301,40.966-3.762
	c17.669-2.919,33.98-7.097,45.93-11.767c6.355-2.484,25.697-10.042,23.436-23.727c-4.212-25.49-39.671-40.147-80.735-33.364
	c-41.06,6.783-69.925,32.063-65.716,57.554c0,0,0,0,0,0.001C304.643,295.819,325.384,296.757,332.2,297.065z M329.95,257.166
	c10.128-8.292,24.591-14.326,40.724-16.991c16.132-2.664,31.767-1.603,44.025,2.991c6.03,2.26,16.233,7.348,18.349,16.399
	c-3.213,3.896-21.706,12.587-56.153,18.276c-34.446,5.69-54.751,3.409-59.047,0.752C316.941,269.344,324.968,261.246,329.95,257.166
	z"/>
<path d="M428.971,141.537c-21.755-8.602-44.901-11.242-66.936-7.634c-15.472,2.533-30.201,7.212-44.448,11.736
	c-20.705,6.576-40.264,12.788-61.61,12.788c-21.347,0-40.904-6.212-61.61-12.788c-14.246-4.525-28.976-9.203-44.448-11.736
	c-4.317-0.707-8.815-1.181-13.37-1.41c-4.372-0.219-8.07,3.138-8.288,7.497c-0.219,4.359,3.138,8.07,7.496,8.288
	c3.967,0.199,7.873,0.611,11.61,1.222c14.337,2.348,28.51,6.849,42.217,11.203c20.942,6.651,42.598,13.529,66.394,13.529
	c23.796,0,45.452-6.878,66.394-13.529c13.708-4.354,27.881-8.855,42.217-11.203c38.08-6.236,79.804,9.739,106.297,40.697
	c23.77,27.775,31.222,62.511,20.449,95.304c-8.694,26.463-26.252,47.872-50.776,61.911c-3.789,2.169-5.101,6.997-2.932,10.785
	c1.459,2.55,4.124,3.978,6.866,3.978c1.332,0,2.681-0.336,3.919-1.045c27.972-16.011,48.007-40.458,57.939-70.694
	c12.538-38.163,3.988-78.443-23.456-110.514C468.456,163.05,449.81,149.777,428.971,141.537z"/>
<path d="M15.011,199.887c-15.994,28.174-19.334,60.331-9.408,90.548c10.129,30.834,30.684,55.575,59.441,71.549
	c20.933,11.629,45.032,17.683,69.583,17.682c7.34,0,14.723-0.542,22.07-1.637c27.267-4.17,44.523-14.131,59.747-22.921
	c13.74-7.933,24.594-14.199,39.532-14.199c14.938,0,25.792,6.265,39.532,14.199c15.225,8.79,32.482,18.753,59.777,22.927
	c19.87,2.963,40.481,1.852,59.608-3.209c4.22-1.117,6.735-5.442,5.619-9.661c-1.117-4.219-5.434-6.735-9.663-5.618
	c-17.066,4.516-35.475,5.504-53.205,2.86c-24.328-3.72-40.217-12.893-54.235-20.987c-14.534-8.391-28.262-16.316-47.435-16.316
	s-32.901,7.925-47.434,16.316c-14.019,8.094-29.907,17.267-54.205,20.983c-28.472,4.244-57.454-0.811-81.618-14.233
	c-25.218-14.009-43.234-35.679-52.101-62.666c-10.917-33.233-1.602-60.657,8.138-77.812c16.068-28.305,45.046-49.553,77.515-56.839
	c4.258-0.956,6.936-5.182,5.981-9.441c-0.956-4.259-5.182-6.937-9.442-5.981C66.066,143.674,33.243,167.771,15.011,199.887z"/>
<g>
</g>
<g>
</g>
<g>
</g>
<g>
</g>
<g>
</g>
<g>
</g>
<g>
</g>
<g>
</g>
<g>
</g>
<g>
</g>
<g>
</g>
<g>
</g>
<g>
</g>
<g>
</g>
<g>
</g>
</svg>
