<?xml version="1.0" encoding="iso-8859-1"?>
<!-- Generator: Adobe Illustrator 19.0.0, SVG Export Plug-In . SVG Version: 6.00 Build 0)  -->
<svg version="1.1" id="Layer_1" xmlns="http://www.w3.org/2000/svg" xmlns:xlink="http://www.w3.org/1999/xlink" x="0px" y="0px"
	 viewBox="0 0 512 512" style="enable-background:new 0 0 512 512;" xml:space="preserve">
<path style="fill:#5B5D6E;" d="M210.012,404.88h126.175c21.912,0,42.514-8.533,58.009-24.027
	c23.336-23.337,42.904-37.801,78.718-37.801h31.247v47.025h-31.247c-18.253,0-26.83,5.389-45.467,24.027
	c-24.378,24.376-56.788,37.801-91.26,37.801H210.012V404.88z"/>
<path style="fill:#707287;" d="M472.914,343.051c-35.814,0-55.382,14.465-78.718,37.801c-15.495,15.494-36.097,24.027-58.009,24.027
	H210.012v20.9h126.175c21.912,0,42.514-8.533,58.009-24.027c23.336-23.337,42.904-37.801,78.718-37.801h31.247v-20.9H472.914z"/>
<path style="fill:#9497B3;" d="M203.742,60.097c-108.195,0-195.904,87.709-195.904,195.904s87.709,195.904,195.904,195.904
	s195.904-87.709,195.904-195.904S311.937,60.097,203.742,60.097z M50.095,211.658c5.987-25.913,31.847-42.066,57.761-36.079
	c25.914,5.987,42.066,31.847,36.079,57.761c-5.987,25.913-31.847,42.066-57.761,36.079
	C60.261,263.433,44.108,237.572,50.095,211.658z M174.391,374.03c-16.113,21.159-46.329,25.25-67.488,9.136
	c-21.159-16.113-25.25-46.328-9.137-67.488c16.113-21.159,46.329-25.25,67.488-9.136C186.413,322.656,190.504,352.87,174.391,374.03
	z M155.585,144.317c0-26.596,21.56-48.156,48.156-48.156s48.156,21.56,48.156,48.156s-21.56,48.156-48.156,48.156
	S155.585,170.913,155.585,144.317z M300.581,383.166c-21.159,16.113-51.375,12.023-67.488-9.136
	c-16.113-21.16-12.023-51.375,9.136-67.488c21.159-16.113,51.375-12.023,67.488,9.136
	C325.831,336.838,321.74,367.053,300.581,383.166z M321.309,269.419c-25.914,5.987-51.774-10.167-57.761-36.079
	c-5.987-25.914,10.167-51.774,36.079-57.761c25.914-5.987,51.774,10.167,57.761,36.079
	C363.376,237.572,347.223,263.433,321.309,269.419z"/>
<path style="fill:#A9ACCC;" d="M28.738,256.001c0-104.689,82.118-190.193,185.454-195.626c-3.461-0.182-6.944-0.278-10.45-0.278
	c-108.195,0-195.904,87.709-195.904,195.904s87.709,195.904,195.904,195.904c3.506,0,6.989-0.096,10.45-0.278
	C110.856,446.195,28.738,360.69,28.738,256.001z"/>
<g>
	<circle style="fill:#5B5D6E;" cx="203.742" cy="256.003" r="28.148"/>
	<path style="fill:#5B5D6E;" d="M263.548,233.34c5.549,24.018,28.172,39.637,52.085,37.029c0.598-4.705,0.906-9.5,0.906-14.368
		c0-29.149-11.058-55.715-29.206-75.734C268.874,190.368,258.579,211.83,263.548,233.34z"/>
	<path style="fill:#5B5D6E;" d="M303.402,308.866c-16.864-15.025-42.53-16.519-61.172-2.323
		c-18.643,14.196-24.026,39.337-14.025,59.588C260.826,358.917,288.137,337.583,303.402,308.866z"/>
	<path style="fill:#5B5D6E;" d="M165.255,306.543c-18.642-14.196-44.309-12.702-61.172,2.323
		c15.265,28.718,42.576,50.052,75.197,57.265C189.28,345.879,183.896,320.739,165.255,306.543z"/>
	<path style="fill:#5B5D6E;" d="M120.15,180.267c-18.148,20.019-29.206,46.585-29.206,75.734c0,4.868,0.308,9.663,0.906,14.368
		c23.913,2.609,46.535-13.01,52.085-37.029C148.905,211.83,138.611,190.368,120.15,180.267z"/>
	<path style="fill:#5B5D6E;" d="M203.742,143.203c-16.877,0-32.885,3.713-47.261,10.357c4.312,22.173,23.827,38.914,47.261,38.914
		s42.949-16.742,47.261-38.914C236.626,146.916,220.619,143.203,203.742,143.203z"/>
</g>
<path d="M239.727,256.002c0-19.842-16.142-35.985-35.985-35.985s-35.986,16.143-35.986,35.985c0,19.842,16.143,35.985,35.986,35.985
	S239.727,275.844,239.727,256.002z M183.431,256.002c0-11.199,9.111-20.31,20.311-20.31c11.199,0,20.31,9.111,20.31,20.31
	c0,11.199-9.111,20.31-20.31,20.31C192.542,276.312,183.431,267.2,183.431,256.002z"/>
<path d="M357.959,252.164c13.725-21.971,10.211-51.57-8.238-69.705c-10.4-10.223-24.64-15.964-39.21-15.964
	c-4.233,0-8.488,0.487-12.648,1.448c-14.572,3.367-26.962,12.208-34.886,24.892c-8.23,13.174-10.602,29.67-6.464,44.642
	c6.708,24.278,28.538,41.027,53.912,41.027C329.621,278.504,347.795,268.435,357.959,252.164z M308.487,262.77
	c-0.083,1.291-14.465-3.471-15.733-4.103c-15.627-7.778-24.917-25.423-22.043-42.708c1.659-9.981,7.112-19.178,15.119-25.371
	c14.794,18.542,22.873,41.524,22.873,65.413C308.702,258.256,308.63,260.517,308.487,262.77z M324.293,260.368
	c0.052-1.457,0.086-2.912,0.086-4.367c0-26.306-8.524-51.653-24.194-72.474c0.402-0.107,0.801-0.217,1.209-0.31
	c21.505-4.967,43.397,8.729,48.359,30.208C354.275,232.996,343.166,253.521,324.293,260.368z"/>
<path d="M227.251,310.663c-4.264,5.459-7.557,11.735-9.576,18.583c-4.966,16.85-1.446,35.574,9.182,49.533
	c10.681,14.026,26.93,22.071,44.587,22.072c12.331,0,24.049-3.959,33.885-11.449c11.899-9.061,19.557-22.214,21.564-37.034
	c2.006-14.822-1.879-29.538-10.941-41.436c-10.683-14.027-26.931-22.072-44.583-22.072
	C253.874,288.858,237.67,297.32,227.251,310.663z M311.359,350.264c-1.444,10.672-6.959,20.142-15.526,26.668
	c-7.083,5.394-15.516,8.245-24.391,8.245c-12.034-0.001-23.155-5.195-30.832-14.309c7.346-2.36,14.473-5.413,21.275-9.161
	c3.79-2.089,5.17-6.856,3.081-10.646c-2.089-3.791-6.856-5.171-10.646-3.082c-6.811,3.754-13.987,6.726-21.407,8.87
	c-2.342-7.543-2.384-15.565-0.266-23.035c0.015-0.052,0.03-0.103,0.046-0.156c6.411-22.357,31.461-34.647,53.223-26.4
	c2.547,0.965,4.992,2.193,7.283,3.666c-4.305,6.995-9.425,13.473-15.273,19.317c-3.062,3.06-3.064,8.022-0.003,11.084
	c3.061,3.062,8.021,3.063,11.083,0.003c5.891-5.887,11.122-12.348,15.66-19.268C310.341,330.323,312.713,340.26,311.359,350.264z"/>
<path d="M191.546,337.391c-0.003-0.022-0.005-0.044-0.008-0.066c-3.158-23.619-21.618-42.81-44.929-47.315
	c-5.972-1.155-12.127-1.333-18.154-0.507c-14.556,1.994-28.015,9.731-36.923,21.429c-9.062,11.899-12.947,26.615-10.941,41.436
	c2.007,14.821,9.665,27.974,21.564,37.034c9.835,7.489,21.554,11.449,33.888,11.449c17.652,0,33.902-8.045,44.583-22.073
	C189.547,367.064,193.522,351.978,191.546,337.391z M130.181,304.977c0.096-0.014,0.192-0.028,0.288-0.042
	c15.765-2.178,31.652,5.309,39.958,18.878c6.02,9.834,7.567,22.017,4.145,33.036c-25.096-7.232-46.563-23.585-60.285-45.924
	C119.09,307.838,124.506,305.814,130.181,304.977z M136.043,385.176c-8.874,0-17.308-2.852-24.391-8.245
	c-8.568-6.525-14.083-15.996-15.526-26.668c-1.353-9.997,1.016-19.928,6.685-28.188c15.171,23.179,37.754,40.384,64.056,48.802
	C159.187,379.986,148.07,385.176,136.043,385.176z"/>
<path d="M109.619,167.943c-29.855-6.897-60.272,12.13-67.16,41.951c-6.867,29.723,12.288,60.308,41.952,67.161
	c29.851,6.896,60.271-12.129,67.161-41.952C158.444,205.355,139.293,174.799,109.619,167.943z M136.811,228.917
	c-3.029,18.587-18.962,32.969-37.814,33.853c-0.143-2.253-0.215-4.514-0.215-6.769c0-23.888,8.078-46.871,22.873-65.412
	c11.442,8.85,17.375,23.388,15.232,37.843C136.861,228.594,136.837,228.755,136.811,228.917z M62.82,243.86
	c-5.706-9.134-7.512-19.943-5.088-30.436c4.251-18.401,20.388-31.254,39.241-31.254c3.047,0,6.116,0.352,9.119,1.045
	c0.407,0.094,0.807,0.205,1.209,0.31c-15.67,20.821-24.194,46.17-24.194,72.474c0,1.455,0.033,2.91,0.086,4.367
	C74.767,257.311,67.642,251.58,62.82,243.86z"/>
<path d="M203.743,88.325c-30.875,0-55.994,25.118-55.994,55.994c0,15.564,6.784,30.82,18.253,41.326
	c10.213,9.355,23.892,14.667,37.742,14.667c16.438,0,32.555-7.581,43.094-20.269c8.267-9.951,12.898-22.789,12.898-35.725
	C259.735,113.443,234.617,88.325,203.743,88.325z M227.899,176.557c-6.925,5.198-15.495,8.08-24.156,8.08
	c-7.441,0-14.89-2.092-21.201-6.044c-7.646-4.788-13.597-12.012-16.693-20.501c12.056-4.682,24.775-7.052,37.893-7.052
	c13.119,0,25.836,2.369,37.892,7.052c0.335,0.131-3.342,6.996-3.717,7.594C235.276,169.897,231.858,173.585,227.899,176.557z
	 M203.743,103.999c21.542,0,39.192,16.983,40.266,38.263c-12.881-4.574-26.379-6.897-40.266-6.897
	c-13.889,0-27.386,2.323-40.267,6.897C164.549,120.982,182.2,103.999,203.743,103.999z"/>
<path d="M203.743,459.742c1.768,0,3.53-0.023,5.288-0.068c0.323,0.041,0.649,0.068,0.982,0.068h126.174
	c36.566,0,70.945-14.24,96.804-40.097c18.074-18.075,24.79-21.732,39.925-21.732h31.247c4.329,0,7.837-3.509,7.837-7.837v-47.025
	c0-4.328-3.508-7.837-7.837-7.837h-31.247c-3.841,0-7.672,0.17-11.385,0.505c-4.311,0.39-7.489,4.2-7.101,8.511
	c0.389,4.311,4.197,7.49,8.511,7.101c3.245-0.294,6.601-0.442,9.974-0.442h23.41v31.35h-23.41c-18.22,0-28.666,3.977-51.009,26.323
	c-22.898,22.897-53.34,35.506-85.719,35.506h-54.098c18.691-7.814,36.256-18.4,51.838-31.35h2.26
	c24.007,0,46.575-9.348,63.551-26.323c10.289-10.289,21.607-20.708,34.646-27.212c3.874-1.932,5.448-6.639,3.515-10.512
	c-1.933-3.874-6.637-5.446-10.513-3.515c-15.045,7.505-27.507,18.928-38.733,30.153c-10.134,10.134-22.69,16.955-36.355,19.966
	c34.203-36.459,55.185-85.459,55.185-139.275c0-112.344-91.398-203.742-203.742-203.742c-41.456,0-81.361,12.388-115.403,35.829
	c-3.566,2.455-4.465,7.335-2.012,10.9c2.456,3.564,7.335,4.465,10.9,2.011c31.416-21.63,68.248-33.063,106.515-33.063
	c103.7,0,188.067,84.366,188.067,188.067c0,72.781-41.56,136.036-102.193,167.287c-24.593,12.607-51.872,19.771-79.713,20.668
	c-2.046,0.066-4.098,0.112-6.16,0.112c-103.702,0-188.068-84.366-188.068-188.066c0-51.826,20.638-100.104,58.112-135.94
	c3.128-2.992,3.239-7.952,0.248-11.081c-2.993-3.129-7.953-3.239-11.081-0.248c-19.684,18.823-35.167,40.971-46.019,65.825
	C5.697,200.293,0,227.696,0,256.002C0,368.344,91.399,459.742,203.743,459.742z"/>
<g>
</g>
<g>
</g>
<g>
</g>
<g>
</g>
<g>
</g>
<g>
</g>
<g>
</g>
<g>
</g>
<g>
</g>
<g>
</g>
<g>
</g>
<g>
</g>
<g>
</g>
<g>
</g>
<g>
</g>
</svg>
