<?xml version="1.0" encoding="iso-8859-1"?>
<!-- Generator: Adobe Illustrator 19.0.0, SVG Export Plug-In . SVG Version: 6.00 Build 0)  -->
<svg version="1.1" id="Layer_1" xmlns="http://www.w3.org/2000/svg" xmlns:xlink="http://www.w3.org/1999/xlink" x="0px" y="0px"
	 viewBox="0 0 511.998 511.998" style="enable-background:new 0 0 511.998 511.998;" xml:space="preserve">
<path style="fill:#F2C364;" d="M255.999,467.782c0,0,179.595,8.921,229.777-132.705S411.06,57.399,436.709,69.667
	c49.067,22.304,68.025-51.297-12.267-60.219s-47.951,79.176-18.957,158.353c28.995,79.177,0,188.463-149.486,188.463
	S77.519,246.978,106.513,167.802S167.847,0.526,87.555,9.447S26.22,91.969,75.288,69.666
	c25.649-12.267-99.25,123.783-49.067,265.411S255.999,467.782,255.999,467.782z"/>
<path style="opacity:0.1;enable-background:new    ;" d="M342.118,457.35c2.266-6.411,4.525-13.114,6.681-19.991
	c14.809-47.24,18.83-82.269,12.1-107.645c-24.949,16.375-59.312,26.551-104.9,26.551s-79.951-10.176-104.9-26.551
	c-6.73,25.377-2.708,60.406,12.1,107.645c2.156,6.876,4.413,13.58,6.681,19.991c46.901,12.374,86.118,10.431,86.118,10.431
	S295.216,469.725,342.118,457.35z"/>
<path style="fill:#FFCD69;" d="M260.461,300.249c17.443,0,45.787,0.436,66.283,24.42c29.652,40.991-34.249,177.049-34.249,177.049
	c-13.041,1.199-23.525,1.461-30.188,1.461c-2.791,0-4.927-0.046-6.31-0.087c-1.382,0.042-3.514,0.087-6.302,0.087
	c-0.004,0-0.008,0-0.012,0c-6.662,0-17.143-0.262-30.182-1.461c0,0-63.901-136.058-34.249-177.049
	c20.495-23.984,48.84-24.42,66.283-24.42H260.461L260.461,300.249z"/>
<path style="fill:#FFDF9C;" d="M327.382,353.931H184.616c-13.398,0-24.258,10.861-24.258,24.258
	c0,13.398,10.861,24.258,24.258,24.258h142.764c13.398,0,24.258-10.861,24.258-24.258
	C351.639,364.792,340.778,353.931,327.382,353.931z"/>
<path style="opacity:0.1;enable-background:new    ;" d="M43.592,146.204c-0.888,0-1.755-0.082-2.61-0.2
	c-3.737,8.707-7.372,17.98-10.698,27.729c4.232,1.211,8.693,1.875,13.308,1.875h60.284c0.817-2.63,1.695-5.234,2.636-7.806
	c2.619-7.153,5.263-14.379,7.851-21.598H43.592z"/>
<path style="opacity:0.1;enable-background:new    ;" d="M468.404,146.204h-70.771c2.588,7.219,5.232,14.445,7.851,21.598
	c0.942,2.571,1.818,5.176,2.636,7.806h60.284c4.615,0,9.078-0.662,13.31-1.875c-3.326-9.749-6.962-19.023-10.698-27.729
	C470.159,146.121,469.292,146.204,468.404,146.204z"/>
<rect x="294.029" y="133.671" style="opacity:0.1;enable-background:new    ;" width="17.642" height="41.937"/>
<rect x="262.79" y="133.671" style="opacity:0.1;enable-background:new    ;" width="17.643" height="41.937"/>
<rect x="231.563" y="133.671" style="opacity:0.1;enable-background:new    ;" width="17.643" height="41.937"/>
<rect x="200.324" y="133.671" style="opacity:0.1;enable-background:new    ;" width="17.643" height="41.937"/>
<path style="fill:#FFDF9C;" d="M468.404,108.144H43.592c-10.51,0-19.029,8.52-19.029,19.029l0,0c0,10.51,8.52,19.029,19.029,19.029
	h424.812c10.51,0,19.029-8.52,19.029-19.029l0,0C487.435,116.664,478.914,108.144,468.404,108.144z"/>
<path d="M496.255,127.173c0-15.357-12.493-27.85-27.85-27.85h-10.398c-2.597-4.8-5.013-9.147-7.205-13.091
	c-0.717-1.291-1.453-2.615-2.179-3.927c1.892,0.247,3.764,0.372,5.61,0.372c18.514,0,32.669-12.947,33.657-30.785
	c1.213-21.901-17.634-46.229-62.473-51.212C421.356,0.228,417.453,0,413.815,0c-18.061,0-31.384,5.613-39.592,16.684
	c-11.865,16.002-12.269,41.747-1.1,82.639h-61.454V78.696c0-4.872-3.948-8.821-8.821-8.821s-8.821,3.95-8.821,8.821v20.626h-13.592
	v-44.15c0-4.872-3.948-8.821-8.821-8.821s-8.821,3.95-8.821,8.821v44.15h-13.592v-44.15c0-4.872-3.948-8.821-8.821-8.821
	s-8.821,3.95-8.821,8.821v44.15h-13.591V78.696c0-4.872-3.948-8.821-8.821-8.821c-4.873,0-8.821,3.95-8.821,8.821v20.626h-61.454
	c11.167-40.891,10.762-66.635-1.106-82.64C129.559,5.613,116.241,0,98.182,0c-3.638,0-7.54,0.228-11.601,0.68
	C41.745,5.661,22.899,29.99,24.11,51.891c0.988,17.838,15.141,30.785,33.654,30.785c1.845,0,3.717-0.124,5.61-0.372
	c-0.725,1.311-1.46,2.632-2.177,3.921c-2.194,3.946-4.611,8.294-7.209,13.095H43.591c-15.357,0-27.852,12.494-27.852,27.85
	c0,10.147,5.456,19.04,13.587,23.909c-27.421,68.04-31.28,130.895-11.421,186.941c8.16,23.033,20.177,43.691,35.716,61.4
	c3.214,3.661,8.79,4.026,12.449,0.812c3.663-3.213,4.026-8.786,0.813-12.449c-14.054-16.017-24.938-34.742-32.348-55.655
	C15.903,279.548,20.02,219.989,46.757,155.024h55.034c-1.228,3.37-2.43,6.652-3.563,9.743
	c-12.771,34.877-13.975,73.356-3.303,105.57c11.906,35.935,37.355,63.061,73.816,78.809c-1.35-0.583-6.775,4.848-7.699,5.784
	c-2.452,2.484-4.502,5.36-6.051,8.488c-3.741,7.551-4.439,16.486-1.982,24.54c0.009,0.032,0.019,0.064,0.029,0.094
	c3.43,10.937,12.614,19.561,23.756,22.273c0.013,0.004,0.026,0.008,0.039,0.011c0.011,0.04,0.022,0.081,0.033,0.121
	c0.422,1.624,0.856,3.247,1.307,4.893c3.573,13.047,7.778,25.892,11.977,37.617c-29.743-5.935-67.114-17.952-98.735-42.263
	c-3.863-2.971-9.401-2.244-12.371,1.617c-2.969,3.863-2.245,9.4,1.617,12.37c38.19,29.362,83.642,42.048,116.724,47.523
	c7.495,19.05,13.635,32.195,14.132,33.25c1.33,2.832,4.06,4.748,7.177,5.034c13.474,1.239,24.289,1.498,31,1.498
	c2.786,0,4.929-0.043,6.305-0.084c1.951,0.055,4.072,0.084,6.307,0.084c6.704,0,17.524-0.26,30.996-1.498
	c3.116-0.286,5.847-2.202,7.177-5.034c0.496-1.055,6.639-14.206,14.135-33.26c36.338-5.983,68.627-17.236,96.02-33.502
	c40.154-23.844,68.233-57.719,83.456-100.682c19.86-56.046,16.001-118.901-11.422-186.94
	C490.798,146.213,496.255,137.32,496.255,127.173z M388.394,27.193c4.766-6.427,13.08-9.55,25.421-9.55
	c2.989,0,6.237,0.193,9.653,0.572c23.272,2.586,47.846,13.922,46.806,32.701c-0.388,7.028-5.5,14.118-16.042,14.118
	c-4.226,0-8.871-1.133-13.807-3.369c-2.292-1.086-4.259-1.591-6.182-1.591c-3.556,0-6.729,1.783-8.486,4.769
	c-3.613,6.143-0.545,11.664,9.623,29.959c0.808,1.451,1.643,2.957,2.509,4.52h-46.45C380.833,62.351,379.845,38.723,388.394,27.193z
	 M86.241,64.844c-1.757-2.987-4.929-4.771-8.487-4.771c-1.923,0-3.89,0.506-6.182,1.591c-4.936,2.235-9.581,3.369-13.807,3.369
	c-10.538,0-15.649-7.091-16.038-14.119c-1.04-18.779,23.532-30.115,46.802-32.701c3.416-0.379,6.664-0.572,9.653-0.572
	c12.336,0,20.65,3.124,25.415,9.549c8.552,11.534,7.566,35.162-3.039,72.131h-46.45c0.866-1.564,1.704-3.071,2.511-4.524
	C86.786,76.509,89.855,70.988,86.241,64.844z M43.594,137.382c-0.004,0-0.008,0-0.012,0c-0.225,0-0.445-0.019-0.666-0.034
	c-0.221-0.02-0.46-0.046-0.735-0.084c-0.029-0.004-0.058-0.001-0.087-0.005c-4.92-0.728-8.711-4.967-8.711-10.087
	c0-5.629,4.58-10.208,10.209-10.208h15.675h67.884h257.696h67.883h15.676c5.628,0,10.208,4.58,10.208,10.208
	c0,5.119-3.791,9.358-8.71,10.086c-0.031,0.004-0.061,0-0.092,0.005c-0.273,0.038-0.512,0.065-0.733,0.084
	c-0.221,0.014-0.44,0.033-0.663,0.034c-0.004,0-0.008,0-0.012,0h-70.774H271.627c-0.004,0-0.007,0-0.012,0s-0.007,0-0.012,0h-31.211
	c-0.004,0-0.007,0-0.012,0s-0.007,0-0.012,0H114.366H43.594V137.382z M324.96,344.728c0.005,0.033,0.006,0.065,0.011,0.098
	c0.014,0.093,0.023,0.192,0.036,0.285h-13.337v-22.702c2.823,2.192,5.549,4.733,8.123,7.706
	C322.309,333.714,324.033,338.614,324.96,344.728z M294.028,345.11h-13.592v-35.032c4.412,0.594,9,1.544,13.592,3.051V345.11z
	 M249.202,345.11v-36.038c0.799-0.002,1.581-0.004,2.332-0.004h8.926c0.752,0,1.534,0,2.332,0.004v36.038H249.202z M217.97,345.11
	v-31.98c4.592-1.507,9.179-2.457,13.591-3.052v35.032H217.97z M186.991,345.11c0.013-0.093,0.024-0.192,0.036-0.285
	c0.005-0.033,0.006-0.066,0.011-0.098c0.926-6.115,2.65-11.014,5.167-14.614c2.573-2.973,5.3-5.514,8.123-7.706v22.702H186.991z
	 M231.559,155.025v137.256c-4.337,0.483-8.912,1.249-13.591,2.437V155.025H231.559z M262.794,155.025V291.43
	c-0.801-0.002-1.585-0.004-2.332-0.004h-8.926c-0.747,0-1.531,0.001-2.332,0.004V155.025H262.794z M280.436,292.28V155.025h13.592
	v139.695C289.349,293.529,284.773,292.765,280.436,292.28z M114.795,170.835c1.803-4.921,3.784-10.328,5.768-15.81h79.763v146.407
	c-7.603,4.012-15.048,9.627-21.781,17.506c-0.154,0.181-0.301,0.368-0.44,0.561c-2.455,3.392-4.431,7.352-5.94,11.839
	C104.079,299.625,94.205,227.066,114.795,170.835z M286.602,493.364c-10.436,0.809-18.821,0.994-24.294,0.994
	c-2.163,0-4.197-0.028-6.047-0.084c-0.179-0.006-0.356-0.006-0.535,0c-3.673,0.113-14.619,0.308-30.331-0.91
	c-3.394-7.599-10.448-23.908-17.645-43.686c-0.051-0.139-0.1-0.276-0.151-0.415c-4.545-12.51-8.7-25.161-12.236-37.994h67.499
	c4.873,0,8.821-3.95,8.821-8.821c0-4.872-3.948-8.821-8.821-8.821h-78.068c-0.205-0.014-0.409-0.025-0.615-0.031
	c-16.148-0.449-20.202-23.406-5.561-29.63c5.5-2.338,12.905-1.213,18.796-1.213c3.914,0,7.829,0,11.743,0
	c11.302,0,22.602,0,33.904,0c19.945,0,39.892,0,59.838,0c12.162,0,35.585-4.199,39.46,11.723c0.033,0.142,0.066,0.283,0.098,0.426
	c2.127,9.208-5.309,18.435-14.644,18.695c-0.193,0.005-0.385,0.015-0.613,0.031h-29.054c-4.873,0-8.821,3.95-8.821,8.821
	s3.948,8.821,8.821,8.821c6.137,0,12.377,0.281,18.485-0.042c-3.354,12.893-7.694,25.521-12.237,38.036
	c-0.051,0.139-0.1,0.276-0.151,0.415C297.051,469.456,289.996,485.763,286.602,493.364z M477.462,332.13
	c-13.808,38.97-39.324,69.723-75.836,91.405c-22.959,13.633-49.74,23.514-79.785,29.452c4.2-11.728,8.406-24.575,11.982-37.626
	c0.005-0.015,0.008-0.031,0.013-0.046c0.442-1.617,0.875-3.236,1.297-4.856c0.011-0.04,0.022-0.081,0.033-0.122
	c0.013-0.004,0.026-0.008,0.039-0.011c28.264-6.851,33.64-47.288,8.052-61.18c46.038-19.884,74.383-57.831,80.084-107.535
	c0.555-4.84-2.918-9.213-7.759-9.769c-4.822-0.555-9.213,2.918-9.769,7.759c-4.793,41.792-28.101,74.017-65.985,91.723
	c-1.508-4.482-3.481-8.438-5.934-11.828c-0.14-0.193-0.287-0.38-0.442-0.561c-6.732-7.878-14.178-13.493-21.78-17.505V155.025
	h79.763c1.985,5.484,3.966,10.89,5.768,15.81c4.201,11.474,7.055,23.425,8.478,35.518c0.569,4.84,4.956,8.296,9.792,7.73
	c4.838-0.569,8.299-4.953,7.729-9.792c-1.584-13.46-4.756-26.758-9.433-39.524c-1.131-3.09-2.334-6.372-3.563-9.742h55.034
	C491.977,219.992,496.094,279.55,477.462,332.13z"/>
<g>
</g>
<g>
</g>
<g>
</g>
<g>
</g>
<g>
</g>
<g>
</g>
<g>
</g>
<g>
</g>
<g>
</g>
<g>
</g>
<g>
</g>
<g>
</g>
<g>
</g>
<g>
</g>
<g>
</g>
</svg>
