<?xml version="1.0" encoding="iso-8859-1"?>
<!-- Generator: Adobe Illustrator 19.0.0, SVG Export Plug-In . SVG Version: 6.00 Build 0)  -->
<svg version="1.1" id="Layer_1" xmlns="http://www.w3.org/2000/svg" xmlns:xlink="http://www.w3.org/1999/xlink" x="0px" y="0px"
	 viewBox="0 0 511.995 511.995" style="enable-background:new 0 0 511.995 511.995;" xml:space="preserve">
<path style="fill:#FF6465;" d="M434.279,237.397c50.695-77.975-43.723-133.795-88.694-97.51
	c-12.637-30.554-47.97-52.547-89.583-52.547s-76.945,21.993-89.583,52.547c-44.969-36.285-139.389,19.535-88.694,97.51H434.279z"/>
<g style="opacity:0.1;">
	<path d="M147.712,130.488c-47.511-12.651-114.373,38.635-69.986,106.909h31.014C73.595,183.34,108.196,139.942,147.712,130.488z"/>
</g>
<g>
	<path style="fill:#FFD782;" d="M383.74,139.809c30.097-19.386,38.161-53.1,12.396-49.216c0.024-0.004,0.05-0.009,0.074-0.012
		c30.933-20.257,38.131-55.594,8.461-48.199c2.061-17.363-2.859-31.89-12.415-34.227c-9.556-2.337-20.626,8.28-26.81,24.633
		c-22.908-20.255-32.832,14.414-14.741,46.662c0.02,0.014,0.04,0.031,0.06,0.045c-21.063-15.336-29.469,18.293-11.718,49.381
		c-26.559-19.811-33.337,37.712,6.295,71.096C395.909,188.65,416.446,134.492,383.74,139.809z"/>
	<polygon style="fill:#FFD782;" points="254.968,308.142 323.828,309.045 397.864,322.588 418.967,309.12 426.554,272.304 
		422.76,251.888 254.968,232.3 256.001,232.3 88.209,251.888 84.415,272.304 92.002,309.12 113.105,322.588 187.141,309.045 
		256.001,308.142 	"/>
</g>
<g>
	<path style="fill:#D6B56D;" d="M99.251,343.796c-6.975,0-13.619-4.057-16.588-10.857c-3.999-9.156,0.183-19.821,9.34-23.82
		c31.466-13.739,94.108-22.274,163.482-22.274c69.371,0,132.013,8.535,163.48,22.273c9.156,3.998,13.339,14.662,9.341,23.819
		c-3.998,9.156-14.663,13.339-23.819,9.341c-26.785-11.694-85.272-19.25-149.003-19.25c-63.734,0-122.222,7.557-149.003,19.251
		C104.124,343.308,101.667,343.796,99.251,343.796z"/>
	<path style="fill:#D6B56D;" d="M84.415,272.304c-7.193,0-13.997-4.32-16.817-11.412c-3.692-9.285,0.843-19.804,10.127-23.496
		c34.198-13.596,102.509-22.043,178.276-22.043c75.765,0,144.075,8.446,178.273,22.042c9.285,3.692,13.82,14.211,10.128,23.495
		c-3.69,9.286-14.214,13.82-23.495,10.128c-22.606-8.987-79.359-19.482-164.907-19.482c-85.55,0-142.302,10.495-164.908,19.483
		C88.902,271.892,86.64,272.304,84.415,272.304z"/>
</g>
<path style="fill:#D7565A;" d="M311.47,259.527c0,0,27.32,88.96-14.729,227.557l45.377-28.964l30.133,46.035
	c0,0,38.514-198.01-28.628-266.611L311.47,259.527z"/>
<path style="fill:#FF6465;" d="M336.287,252.764c0,0,35.532,67.642,22.612,185.855l32.224-30.251l31.294,32.578
	c0,0,1.06-165.618-63.519-210.794L336.287,252.764z"/>
<circle style="fill:#BA9D5F;" cx="340.421" cy="235.317" r="47.536"/>
<path style="fill:#FFD782;" d="M340.422,257.933c-12.468,0-22.612-10.145-22.612-22.613c0-12.468,10.145-22.611,22.612-22.611
	c12.468,0,22.612,10.144,22.612,22.611C363.034,247.789,352.891,257.933,340.422,257.933z"/>
<path style="opacity:0.1;enable-background:new    ;" d="M104.021,229.434c-10.141,2.399-18.999,5.063-26.294,7.963
	c-9.285,3.692-13.819,14.211-10.127,23.496c2.82,7.092,9.623,11.412,16.817,11.412l7.586,36.815
	c-9.156,3.999-13.338,14.663-9.34,23.82c2.969,6.8,9.614,10.857,16.588,10.857c2.417,0,4.874-0.488,7.23-1.517
	c9.56-4.174,23.176-7.818,39.611-10.783C129.199,312.669,100.987,274.14,104.021,229.434z"/>
<path d="M340.597,265.655c16.743,0,30.366-13.622,30.366-30.366s-13.622-30.366-30.366-30.366s-30.366,13.621-30.366,30.366
	S323.854,265.655,340.597,265.655z M340.597,220.43c8.193,0,14.859,6.665,14.859,14.859c0,8.194-6.666,14.859-14.859,14.859
	c-8.193,0-14.859-6.666-14.859-14.859C325.738,227.096,332.404,220.43,340.597,220.43z"/>
<path d="M99.426,351.518c5.647,0,10.269-2.314,15.449-4.195c7.864-2.854,16.016-4.86,24.198-6.567
	c2.695-0.563,5.171-0.991,6.985-3.269c1.974-2.478,2.237-6.012,0.633-8.749c-1.563-2.667-4.651-4.184-7.718-3.771
	c-10.92,1.469-22.28,4.905-32.504,8.963c-6.322,2.509-13.904,3.015-16.75-4.68c-2.313-6.252,1.803-11.518,7.338-13.812
	c24.613-10.202,51.28-13.799,77.576-16.692c28.045-3.085,56.271-4.273,84.477-4.161c0.024,0,0.049,0,0.072,0
	c16.006,0.065,32.009,0.592,47.983,1.627c0.985,0.065,2.047-0.008,3.014,0.183c0.43,0.115,0.324,0.788,0.364,1.165
	c0.638,5.991,1.114,11.998,1.448,18.013c0.085,1.521,0.096,1.686-1.507,1.571c-23.889-1.846-47.931-2.234-71.878-1.724
	c-22.884,0.478-45.772,1.887-68.498,4.654c-3.034,0.369-5.647,2.298-6.645,5.237c-1.005,2.96-0.083,6.322,2.282,8.36
	c2.817,2.427,6.037,1.809,9.423,1.417c20.957-2.423,42.05-3.694,63.137-4.152c21.146-0.448,42.309-0.103,63.423,1.174
	c2.906,0.176,5.81,0.369,8.713,0.581c0.532,0.039,1.065,0.09,1.598,0.115c0.249,0.011,0.482-0.044,0.546,0.247
	c0.041,0.185-0.012,0.473-0.011,0.667c0.038,10.02-0.089,20.174-0.684,30.232c-0.518,8.757-2.044,17.492-2.384,26.242
	c-0.187,4.812,4.25,8.723,9.001,7.946c5.839-0.956,6.497-6.971,7.004-11.799c3.022-28.817,3.629-58.358,0.779-87.357
	c-0.087-0.888-1.028-10.586-1.167-10.576c1.097-0.085,2.655,0.676,3.737,0.912c4.3,0.936,8.455,0.885,12.796,1.244
	c0.84,0.073,1.279,3.834,1.45,4.499c6.866,26.63,10.25,54.086,10.927,81.557c0.492,19.956-0.502,39.886-2.519,59.738
	c-0.329,3.089,0.05,6.009,2.528,8.128c6.746,5.767,14.383-4.046,18.805-8.196c0.198-0.186,0.463-0.374,0.616-0.598
	c-0.672,13.067-2.51,26.202-4.267,39.159c-0.379,2.795-0.758,5.593-1.188,8.381c-0.136-0.287-0.358-0.562-0.533-0.83
	c-6.031-9.649-12.51-19.007-18.693-28.558c-2.275-3.52-7.15-4.529-10.668-2.29c-8.211,5.239-16.421,10.482-24.631,15.722
	c-1.049,0.67-2.657,1.351-3.521,2.264c2.857-11.077,5.563-22.177,7.843-33.391c0.969-4.762,3.229-10.78,2.588-15.661
	c-0.536-4.078-4.316-7.091-8.411-6.71c-4.952,0.46-6.572,4.534-7.344,8.766c-1.005,5.51-2.099,11.004-3.276,16.48
	c-2.388,11.105-5.119,22.136-8.17,33.077c-1.341,4.807-4.504,10.644-3.991,15.726c0.461,4.571,4.963,7.809,9.447,6.782
	c5.465-1.253,11.215-6.624,15.885-9.605c8.49-5.419,16.981-10.836,25.47-16.258c2.908,4.445,5.819,8.89,8.728,13.335
	c4.632,7.077,9.265,14.155,13.897,21.232c3.103,4.741,7.353,11.628,14.01,7.317c4.397-2.847,4.348-10.141,5.106-14.731
	c3.219-19.506,5.563-39.166,7.172-58.87c-0.003,0.034,0.046-0.591,0.048-0.591c0.394-4.869,0.735-9.743,1.034-14.618
	c0.002-0.041,0.415-3.257,1.019-2.589c0.843,0.93,1.743,1.817,2.613,2.723c2.043,2.127,4.086,4.253,6.128,6.38
	c4.637,4.827,9.273,9.654,13.909,14.479c3.119,3.247,6.255,7.126,11.327,5.469c4.948-1.616,5.382-6.287,5.336-10.719
	c-0.082-7.893-0.391-15.785-0.833-23.667c-0.75-13.345-1.92-26.669-3.539-39.937c-0.899-7.374-1.939-14.731-3.14-22.061
	c-0.071-0.437-0.144-0.876-0.217-1.313c-0.038-0.231-0.308-1.072-0.183-1.282c0.388-0.643,2.352-1.23,2.988-1.621
	c7.623-4.683,12.408-13.341,12.33-22.286c-0.068-7.817-3.846-15.232-9.915-20.095c0.094-0.179,0.117-0.503,0.161-0.718
	c1.758-8.041,3.326-16.13,4.985-24.192c0.058-0.279,0.2-0.671,0.18-0.939c5.742-1.28,10.93-4.345,14.652-8.93
	c7.997-9.852,7.847-25.745-1.72-34.593c-0.335-0.31-0.935-0.524-1.007-1.049c-0.078-0.559,0.484-0.992,0.726-1.437
	c14.101-25.977,15.28-57.368-3.256-81.512c-7.625-9.932-17.735-17.891-29.024-23.269c-1.026-0.489-2.027-1.043-3.109-1.404
	c-0.296-0.099-0.703-0.144-0.94-0.362c-0.234-0.208-0.059-0.386,0.11-0.614c5.334-7.226,10.356-16.146,10.22-25.395
	c-0.066-4.493-1.696-9.674-5.111-12.78c-0.176-0.159-1.43-1.007-1.299-1.286c0.37-0.794,1.511-1.54,2.116-2.165
	c4.873-5.031,9.137-10.983,12.133-17.37c3.913-8.328,6.195-19.385-0.167-27.166c-1.986-2.429-4.656-4.211-7.603-5.262
	c-0.907-0.324-6.679-0.91-6.829-1.566c-0.591-2.581-0.469-5.438-0.722-8.135c-0.745-7.966-4.62-16.578-11.196-21.372
	c-14.904-10.866-31.86,3.763-38.502,16.994c-0.13,0.259-0.181,0.414-0.489,0.343c-3.007-0.687-5.915-1.976-9.036-2.076
	c-9.66-0.308-16.331,8.97-18.281,17.462c-2.284,9.944-0.809,20.408,2.151,30.047c0.148,0.483,0.522,1.165,0.508,1.692
	c-0.149,0.173-0.529,0.171-0.738,0.226c-9.408,2.532-13.643,12.616-14.636,21.445c-0.091,0.812-0.756,9.311-0.189,9.403
	c-0.357-0.06-0.792-0.511-1.093-0.715c-0.377-0.256-0.756-0.51-1.136-0.761c-12.316-8.125-26.361-13.517-40.842-16.216
	c-16.741-3.123-34.199-2.764-50.774,1.171c-3.985,0.946-8.489,1.987-12.345,3.682c-2.936,1.291-4.809,4.368-4.612,7.568
	c0.196,3.178,2.39,5.974,5.427,6.926c3.636,1.139,7.423-1.008,10.86-1.983c16.153-4.58,33.476-5.153,49.933-1.872
	c14.614,2.913,28.715,9.001,40.33,18.415c0.317,0.256,3.896,3.282,3.828,3.358c-0.394,0.43-0.987,0.608-1.474,0.905
	c-3.606,2.203-6.179,6.128-7.692,9.993c-6.267,15.994-0.961,35.208,6.797,49.694c0.177,0.331,2.391,3.741,2.213,3.954
	c-0.24,0.287-0.925,0.398-1.281,0.542c-6.957,2.807-13.441,7.115-18.765,12.487c-3.303,3.333-6.476,7.194-8.667,11.366
	c-0.162,0.309-0.263,0.378-0.614,0.377c-3.761-0.007-7.535-0.249-11.295-0.339c-5.598-0.133-11.197-0.17-16.795-0.274
	c0.101-0.259,0.019-35.98,0.018-37.586c0.005-3.126-1.969-6.061-4.911-7.221c-3.187-1.257-6.918-0.212-8.999,2.503
	c-1.035,1.349-1.6,3.051-1.597,4.718c-0.001,4.305-0.121,37.288,0.02,37.582c-11.109,0.203-22.209,0.353-33.312,0.815
	c-13.53,0.564-27.055,1.326-40.543,2.541c-12.78,1.151-25.387,3.457-38.138,4.734c-0.475,0.048-0.889,0.178-1.178-0.266
	c-1.457-2.238-2.757-4.566-4.043-6.904c-4.275-8.032-7.499-16.714-9.125-25.678c-0.4-2.207-0.58-4.397-0.806-6.623
	c-0.297-2.914-2.301-5.471-5.045-6.485c-2.862-1.057-6.16-0.285-8.268,1.915c-1.498,1.564-2.228,3.657-2.143,5.806
	c0.481,12.228,4.768,24.497,10.155,35.368c0.849,1.713,2.088,3.421,2.788,5.181c0.343,0.862-2.916,0.993-3.437,1.095
	c-11.205,2.19-22.302,4.86-33.147,8.451c-0.887,0.294-0.973,0.389-1.438-0.458c-1.214-2.209-2.351-4.457-3.381-6.758
	c-5.442-12.174-7.905-25.923-4.845-39.067c4.038-17.349,17.376-31.333,33.178-38.883c16.685-7.972,38.384-8.956,54.032,2.019
	c3.501,2.455,7.055,4.679,11.196,1.87c1.815-1.231,2.623-3.094,3.521-5.094c2.823-6.282,6.863-12.26,11.564-17.428
	c3.094-3.402,7.41-6.157,10.392-9.723c2.616-3.127,2.297-7.895-0.69-10.663c-3.134-2.905-7.5-2.461-10.665,0.084
	c-6.64,5.339-12.547,11.561-17.428,18.549c-1.001,1.433-2.547,5.506-4.052,6.366c-1.217,0.679-3.211-1.21-4.157-1.764
	c-10.032-5.877-23.792-6.627-35.054-5.342c-18.988,2.167-37.117,11.331-50.121,25.337c-12.64,13.613-19.479,31.666-18.602,50.265
	c0.615,13.057,4.918,25.655,11.158,37.057c0.165,0.302,0.532,0.583,0.461,0.966c-0.062,0.334-0.42,0.507-0.655,0.707
	c-1.126,0.956-2.097,2.235-2.957,3.427c-7.764,10.756-5.978,26.183,4.121,34.818c3.001,2.567,6.53,4.335,10.333,5.362
	c-0.011,0.21,0.093,0.517,0.14,0.742c1.46,7.783,3.197,15.513,4.795,23.269c0.036,0.176,0.536,2.021,0.446,2.094
	c-10.592,8.661-13.152,24.265-5.02,35.511C83.283,347.467,91.224,351.518,99.426,351.518z M97.916,298.523l-4.16-20.184
	c0.126-0.048,0.252-0.097,0.377-0.147c35.151-13.976,109.261-18.934,162.043-18.934c10.666,0,21.41-0.06,32.063,0.53
	c0.954,0.031,1.9,0.068,2.85,0.102c3.982,8.023,9.812,14.907,17.078,20.17c0.038,0.226,0.075,0.446,0.114,0.676
	c-0.147-0.891-21.038-1.064-23.086-1.137c-26.94-1.04-54.073-0.821-80.972,1.073c-26.875,1.892-54,4.669-80.423,10.621
	c-2.421,0.546-4.836,1.116-7.245,1.716C110.273,294.574,104.027,296.374,97.916,298.523z M396.89,402.965
	c-2.837-2.954-7.796-3.194-10.898-0.281l-17.402,16.336c0.001-0.01,0.001-0.02,0.002-0.03c2.323-34.355,1.022-69.029-5.059-102.953
	c-1.662-9.274-3.703-18.477-6.128-27.582c-0.039-0.148-0.079-0.302-0.119-0.449c9.879-3.125,18.666-8.98,25.368-16.833
	c0.499,0.97,1,1.938,1.49,2.939c0.06,0.122,0.121,0.242,0.181,0.364c3.706,7.621,7.126,16.138,10.221,25.463
	c0.048,0.143,0.092,0.286,0.139,0.429c12.729,38.65,17.669,79.625,19.59,120.129c0.009,0.197,0.019,0.395,0.028,0.592
	C414.302,421.09,396.891,402.965,396.89,402.965z M380.569,192.349c3.113-2.292,6.069-4.789,8.844-7.486
	c0.199-0.194,0.403-0.385,0.601-0.58c-0.875,4.377-2.513,10.418-5.551,17.381c-2.014-2.625-4.247-5.084-6.709-7.319
	c0.068-0.045,0.132-0.095,0.201-0.142C378.836,193.601,379.709,192.983,380.569,192.349z M410.208,297.436
	c-0.047-0.016-0.09-0.031-0.136-0.047c-2.848-8.838-5.974-17.033-9.377-24.57c6.126,1.522,11.471,3.108,15.772,4.7
	c0.041,0.016,0.083,0.031,0.124,0.047c0.361,0.133,0.703,0.268,1.048,0.402l-4.235,20.556c-0.086-0.03-0.179-0.06-0.265-0.09
	C412.18,298.098,411.205,297.766,410.208,297.436z M415.394,315.919c0.202,0.086,0.409,0.173,0.607,0.258
	c0.011,0.005,0.024,0.01,0.035,0.016c5.225,2.281,7.619,8.386,5.339,13.61c-0.507,1.161-1.214,2.197-2.071,3.076
	C418.091,327.025,416.788,321.371,415.394,315.919z M437.374,257.995c-2.409,6.059-8.803,7.549-14.451,5.386
	c-6.351-2.43-12.922-4.205-19.495-5.917c-0.893-0.233-10.893-3.187-11.178-2.441c2.397-6.266,3.64-12.944,3.64-19.734
	c0-0.212-0.001-0.423-0.003-0.635c0.026,0.005,0.052,0.01,0.078,0.016c0.175,0.035,0.345,0.071,0.519,0.106
	c11.802,2.392,23.585,5.258,34.811,9.677c0.097,0.038,0.198,0.077,0.295,0.115c2.566,1.02,4.582,2.978,5.674,5.514
	C438.354,252.619,438.394,255.427,437.374,257.995z M437.625,174.259c6.499,16.345,4.251,34.782-6.467,53.623
	c-0.137-0.048-0.285-0.093-0.424-0.141c-8.599-2.953-17.427-5.193-26.303-7.134c-3.499-0.766-7.012-1.47-10.533-2.131
	c-0.166-0.031-0.327-0.065-0.494-0.096c12.551-22.138,13.1-40.398,13.117-41.201c0.073-3.409-2.069-6.346-5.105-7.451
	c5.11-8.783,7.124-17.445,5.53-24.359c-0.043-0.186-0.102-0.361-0.15-0.544c-0.084-0.324-0.165-0.647-0.265-0.96
	c-0.073-0.233-0.161-0.455-0.242-0.682c-0.094-0.262-0.185-0.524-0.289-0.777c-0.026-0.063-0.045-0.13-0.071-0.193
	C420.478,148.849,432.125,160.425,437.625,174.259z M339.415,84.974c0.922-1.587,1.565-1.587,1.839-1.587
	c0.443,0,2.111,0.166,5.123,2.346c0.035,0.025,0.07,0.051,0.113,0.081c3.459,2.424,8.228,1.632,10.717-1.793
	c1.926-2.65,1.93-6.113,0.249-8.756c-0.031-0.048-0.063-0.096-0.095-0.145c-5.718-10.476-11.443-29.736-5.976-39.074
	c2.142-3.66,7.052,0.708,9.098,2.517c1.908,1.688,4.524,2.33,6.999,1.718c2.474-0.612,4.488-2.4,5.389-4.783
	c4.721-12.484,12.285-19.944,16.871-19.944c0.295,0,0.572,0.033,0.847,0.1c3.919,0.958,8.378,10.451,6.557,25.781
	c-0.301,2.531,0.662,5.047,2.573,6.732c1.911,1.684,4.528,2.323,7.002,1.706c1.815-0.453,8.184-2.159,9.031,0.678
	c1.557,5.22-5.03,21.124-23.107,33.176c-4.752,3.168-5.748,10.332-0.254,13.436c2.462,1.391,5.303,0.785,7.985,0.845
	c1.197,0.027,3.007,0.064,3.419,1.46c1.018,3.459-0.939,7.787-2.425,10.804c-4.798,9.736-12.747,16.175-21.097,22.718
	c-2.838,2.224-4.778,5.019-3.721,8.752c1.069,3.771,4.677,6.323,8.606,5.689c0.191-0.031,0.365-0.044,0.551-0.069
	c1.709-0.237,5.576-0.865,6.121,1.492c0.714,3.099-0.637,6.621-1.885,9.407c-4.404,9.835-12.618,17.872-21.553,23.715
	c-1.609,1.051-3.256,2.042-4.943,2.966c-0.375,0.206-3.659-1.497-4.153-1.673c-5.99-2.132-12.415-3.284-18.776-3.264
	c-0.273,0.001-2.659,0.297-2.812,0.08c-0.062-0.088-0.126-0.175-0.188-0.263c-6.835-9.766-11.71-21.599-12.195-33.617
	c-0.153-3.794,0.052-7.965,1.733-11.447c0.711-1.472,1.567-2.487,3.322-2.004c2.153,0.593,3.668,2.271,5.658,3.163
	c2.758,1.236,6.057,0.738,8.32-1.264c3.46-3.062,2.853-7.323,0.871-10.968C339.519,112.971,334.031,94.248,339.415,84.974z
	 M335.157,195.888c20.309-2.775,39.926,10.853,44.297,30.876c4.832,22.133-10.57,44.559-32.984,47.873
	c-22.933,3.391-44.441-14.279-45.606-37.41c-0.032-0.645-0.049-1.291-0.049-1.937c0-5.554,1.131-10.938,3.36-16.003
	C309.711,206.708,321.582,197.743,335.157,195.888z M80.767,244.569c12.785-5.083,30.562-9.424,51.825-12.85
	c0.226-0.025,0.451-0.062,0.675-0.108c34.09-5.443,77.059-8.537,122.911-8.537c0.033,0,0.067,0,0.1,0
	c9.973,0.001,19.947,0.166,29.916,0.456c0.122,0.003,0.245,0.005,0.368,0.009c-0.833,3.834-1.253,7.76-1.253,11.747
	c0,3,0.24,5.974,0.717,8.904c-0.34-1.634-27.222-0.442-29.848-0.442c-30.111,0-60.806,1.257-90.964,4.516
	c-36.994,3.997-63.008,10.029-76.809,15.516c-5.081,2.02-11.317-0.484-13.425-5.786C72.874,252.7,75.469,246.679,80.767,244.569z"/>
<g>
</g>
<g>
</g>
<g>
</g>
<g>
</g>
<g>
</g>
<g>
</g>
<g>
</g>
<g>
</g>
<g>
</g>
<g>
</g>
<g>
</g>
<g>
</g>
<g>
</g>
<g>
</g>
<g>
</g>
</svg>
