<?xml version="1.0" encoding="iso-8859-1"?>
<!-- Generator: Adobe Illustrator 19.0.0, SVG Export Plug-In . SVG Version: 6.00 Build 0)  -->
<svg version="1.1" id="Layer_1" xmlns="http://www.w3.org/2000/svg" xmlns:xlink="http://www.w3.org/1999/xlink" x="0px" y="0px"
	 viewBox="0 0 512 512" style="enable-background:new 0 0 512 512;" xml:space="preserve">
<rect x="43.562" y="228.345" style="fill:#FFF7E6;" width="424.877" height="209.753"/>
<rect x="43.562" y="228.345" style="opacity:0.1;enable-background:new    ;" width="51.847" height="209.753"/>
<path style="fill:#FFF7E6;" d="M256.001,74.714c67.034,0,122.286,51.382,128.46,116.827H127.54
	C133.714,126.095,188.965,74.714,256.001,74.714z"/>
<path style="opacity:0.1;enable-background:new    ;" d="M276.739,76.386c-6.754-1.096-13.68-1.673-20.739-1.673
	c-67.034,0-122.286,51.382-128.461,116.828h41.478C174.541,132.987,219.354,85.698,276.739,76.386z"/>
<path style="fill:#FF6465;" d="M478.3,184.429h-57.483C415.27,98.332,343.474,29.98,256.001,29.98S96.73,98.332,91.183,184.429
	H33.701c-14.317,0-25.924,11.606-25.924,25.924v245.745c0,14.317,11.607,25.924,25.924,25.924h444.6
	c14.318,0,25.924-11.606,25.924-25.924V210.352C504.224,196.035,492.617,184.429,478.3,184.429z M256.001,81.827
	c58.871,0,107.394,45.125,112.816,102.601H143.183C148.605,126.951,197.129,81.827,256.001,81.827z M452.377,430.173H59.624V236.275
	h392.753V430.173z"/>
<polygon style="fill:#F2CC7B;" points="256.001,103.465 265.771,123.264 287.619,126.438 271.81,141.849 275.542,163.608 
	256.001,153.335 236.458,163.608 240.19,141.849 224.381,126.438 246.229,123.264 "/>
<path d="M386.461,482.02c0-4.295-3.481-7.777-7.777-7.777H33.701c-10.005,0-18.147-8.141-18.147-18.147V210.351
	c0-10.005,8.141-18.146,18.147-18.146h57.483c4.101,0,7.497-3.184,7.76-7.277c1.382-21.458,7.041-42.038,16.816-61.163
	c1.955-3.824,0.439-8.51-3.386-10.465c-3.824-1.954-8.509-0.439-10.465,3.386c-9.637,18.857-15.635,38.995-17.867,59.965H33.701
	C15.119,176.65,0,191.769,0,210.351v245.745c0,18.582,15.119,33.701,33.701,33.701h344.984
	C382.979,489.797,386.461,486.316,386.461,482.02z"/>
<path d="M137.431,189.663c1.473,1.62,3.562,2.543,5.752,2.543H309.22c4.296,0,7.777-3.482,7.777-7.777s-3.481-7.777-7.777-7.777
	H152.081c4.035-22.716,15.462-43.54,32.72-59.341c19.512-17.867,44.799-27.706,71.201-27.706c26.401,0,51.687,9.84,71.2,27.705
	c17.258,15.802,28.685,36.625,32.72,59.342h-19.593c-4.296,0-7.777,3.482-7.777,7.777s3.481,7.777,7.777,7.777h28.49
	c2.189,0,4.277-0.923,5.752-2.543c1.473-1.62,2.196-3.785,1.991-5.965c-2.815-29.844-16.614-57.495-38.855-77.86
	C315.317,85.339,286.3,74.05,256.001,74.05c-30.301,0-59.316,11.289-81.704,31.787c-22.241,20.365-36.041,48.016-38.856,77.86
	C135.235,185.878,135.958,188.043,137.431,189.663z"/>
<path d="M460.153,430.173V236.275c0-4.295-3.481-7.777-7.777-7.777H59.624c-4.295,0-7.777,3.482-7.777,7.777v193.898
	c0,4.295,3.482,7.777,7.777,7.777h392.752C456.672,437.95,460.153,434.469,460.153,430.173z M444.599,325.448H360.34v-31.306h84.259
	L444.599,325.448L444.599,325.448z M344.786,325.448h-81.008v-31.306h81.008V325.448z M263.778,278.587v-34.534h81.008v34.534
	H263.778z M248.223,278.587h-81.009v-34.534h81.009V278.587z M248.223,294.141v31.306h-81.009v-31.306H248.223z M151.661,325.448
	h-84.26v-31.306h84.26V325.448z M67.401,341.002h84.26v31.305h-84.26V341.002z M167.215,341.002h81.009v31.305h-81.009V341.002z
	 M248.223,387.861v34.534h-81.009v-34.534L248.223,387.861L248.223,387.861z M263.778,387.861h81.008v34.534h-81.008V387.861z
	 M263.778,372.307v-31.305h81.008v31.305H263.778z M360.34,341.002h84.259v31.305H360.34V341.002z M444.599,278.587H360.34v-34.534
	h84.259L444.599,278.587L444.599,278.587z M151.661,244.053v34.534h-84.26v-34.534L151.661,244.053L151.661,244.053z
	 M67.401,387.861h84.26v34.534h-84.26V387.861z M360.34,422.396v-34.534h84.259v34.534H360.34z"/>
<path d="M409.793,489.797h68.507c18.583,0,33.701-15.119,33.701-33.701V210.351c0-18.582-15.118-33.701-33.701-33.701h-50.344
	c-9.311-87.18-83.473-154.447-171.955-154.447c-53.412,0-103.027,24.2-136.121,66.395c-2.65,3.38-2.059,8.269,1.32,10.919
	c3.379,2.651,8.269,2.059,10.919-1.32c30.126-38.41,75.279-60.44,123.882-60.44c82.752,0,151.739,64.645,157.056,147.171
	c0.263,4.093,3.659,7.277,7.76,7.277h57.482c10.005,0,18.147,8.141,18.147,18.146v245.745c0,10.005-8.141,18.146-18.147,18.146
	h-68.507c-4.296,0-7.777,3.482-7.777,7.777C402.016,486.316,405.497,489.797,409.793,489.797z"/>
<circle cx="33.701" cy="393.468" r="9.861"/>
<circle cx="33.701" cy="333.294" r="9.861"/>
<circle cx="33.701" cy="273.131" r="9.861"/>
<circle cx="37.913" cy="212.967" r="9.861"/>
<circle cx="478.3" cy="453.632" r="9.861"/>
<circle cx="478.3" cy="393.468" r="9.861"/>
<circle cx="478.3" cy="333.294" r="9.861"/>
<circle cx="478.3" cy="273.131" r="9.861"/>
<circle cx="478.3" cy="212.967" r="9.861"/>
<circle cx="423.249" cy="212.967" r="9.862"/>
<circle cx="368.198" cy="212.967" r="9.861"/>
<circle cx="313.157" cy="212.967" r="9.862"/>
<circle cx="258.105" cy="212.967" r="9.862"/>
<circle cx="203.054" cy="212.967" r="9.861"/>
<circle cx="148.013" cy="212.967" r="9.862"/>
<circle cx="92.962" cy="212.967" r="9.862"/>
<circle cx="126.248" cy="146.593" r="9.861"/>
<circle cx="154.764" cy="99.681" r="9.862"/>
<circle cx="202.619" cy="66.489" r="9.862"/>
<circle cx="385.753" cy="146.593" r="9.861"/>
<circle cx="357.237" cy="99.681" r="9.861"/>
<circle cx="309.382" cy="66.489" r="9.862"/>
<circle cx="256.001" cy="56.629" r="9.861"/>
<circle cx="37.913" cy="453.632" r="9.861"/>
<circle cx="423.249" cy="455.705" r="9.862"/>
<circle cx="368.198" cy="455.705" r="9.862"/>
<circle cx="313.157" cy="455.705" r="9.862"/>
<circle cx="258.105" cy="455.705" r="9.862"/>
<circle cx="203.054" cy="455.705" r="9.861"/>
<circle cx="148.013" cy="455.705" r="9.862"/>
<circle cx="92.962" cy="455.705" r="9.862"/>
<path d="M295.014,124.034c-0.915-2.815-3.348-4.867-6.279-5.293l-17.801-2.587l-7.962-16.132c-1.311-2.655-4.014-4.335-6.974-4.335
	s-5.664,1.681-6.974,4.335l-7.962,16.132l-17.801,2.587c-2.929,0.425-5.364,2.477-6.279,5.293s-0.151,5.906,1.967,7.972
	l12.882,12.556l-3.04,17.73c-0.501,2.917,0.699,5.866,3.093,7.606c2.394,1.739,5.568,1.97,8.19,0.591l15.921-8.371l15.922,8.371
	c1.139,0.598,2.381,0.893,3.618,0.893c1.613,0,3.218-0.501,4.572-1.486c2.395-1.74,3.595-4.688,3.093-7.606l-3.041-17.73
	l12.882-12.556C295.167,129.94,295.929,126.85,295.014,124.034z M266.38,136.279c-1.833,1.787-2.669,4.361-2.236,6.884l1.068,6.228
	l-5.594-2.941c-2.267-1.19-4.972-1.191-7.238,0l-5.593,2.94l1.067-6.228c0.433-2.523-0.403-5.097-2.236-6.883l-4.525-4.411
	l6.253-0.908c2.533-0.368,4.723-1.959,5.856-4.255l2.797-5.667l2.797,5.667c1.133,2.295,3.322,3.886,5.856,4.255l6.253,0.908
	L266.38,136.279z"/>
<g>
</g>
<g>
</g>
<g>
</g>
<g>
</g>
<g>
</g>
<g>
</g>
<g>
</g>
<g>
</g>
<g>
</g>
<g>
</g>
<g>
</g>
<g>
</g>
<g>
</g>
<g>
</g>
<g>
</g>
</svg>
