<?xml version="1.0" encoding="iso-8859-1"?>
<!-- Generator: Adobe Illustrator 19.0.0, SVG Export Plug-In . SVG Version: 6.00 Build 0)  -->
<svg version="1.1" id="Layer_1" xmlns="http://www.w3.org/2000/svg" xmlns:xlink="http://www.w3.org/1999/xlink" x="0px" y="0px"
	 viewBox="0 0 512.002 512.002" style="enable-background:new 0 0 512.002 512.002;" xml:space="preserve">
<path style="fill:#D7565A;" d="M227.297,404.969c-0.001,0-0.001,0-0.002,0c-4.405,0-8.823-0.533-13.131-1.585l-11.958-2.921
	c-55.131-13.467-90.364-67.753-80.213-123.591c1.04-5.719,4.395-10.757,9.271-13.923c4.876-3.165,10.844-4.177,16.492-2.797
	l126.125,30.808c10.844,2.649,17.748,13.286,15.751,24.268l-8.075,44.417C276.781,385.907,253.96,404.969,227.297,404.969z
	 M163.446,307.42c4.397,24.787,23.006,45.76,48.772,52.055l11.958,2.921c1.034,0.252,2.084,0.38,3.12,0.38
	c6.26,0,11.622-4.491,12.746-10.678l4.521-24.863L163.446,307.42z"/>
<path style="opacity:0.1;enable-background:new    ;" d="M273.88,290.96l-126.125-30.808c-5.648-1.38-11.614-0.368-16.492,2.797
	c-4.876,3.166-8.231,8.204-9.271,13.923c-3.568,19.628-1.509,39.055,5.031,56.593l70.913,20.684
	c-18.235-9.353-30.956-26.805-34.491-46.73l81.117,19.814l-4.521,24.863c-1.114,6.127-6.38,10.581-12.559,10.67l47.924,13.978
	c2.914-5.207,5.031-10.952,6.148-17.101l8.075-44.417C291.628,304.246,284.723,293.609,273.88,290.96z"/>
<polygon style="fill:#FF6465;" points="39.243,216.021 57.389,216.021 431.069,107.032 431.069,390.751 57.389,281.762 
	39.243,281.762 "/>
<path style="fill:#D7565A;" d="M48.825,248.891c0-13.009,2.265-24.714,5.877-32.871H27.188c-10.022,0-18.146,14.716-18.146,32.871
	s8.124,32.871,18.146,32.871h27.515C51.09,273.605,48.825,261.901,48.825,248.891z"/>
<path style="opacity:0.1;enable-background:new    ;" d="M353.352,134.957c-15.677,30.936-24.311,71.399-24.311,113.934
	s8.634,82.999,24.311,113.934c1.081,2.134,2.194,4.206,3.331,6.23l74.386,21.696v-283.72l-74.386,21.696
	C355.547,130.751,354.433,132.823,353.352,134.957z"/>
<ellipse style="fill:#FF7374;" cx="431.069" cy="248.887" rx="71.887" ry="141.857"/>
<path style="fill:#464754;" d="M448.75,172.208c-1.969-4.492-3.942-8.244-5.828-11.361c-5.383-8.895-18.323-8.895-23.706,0
	c-1.887,3.116-3.859,6.869-5.828,11.361c-9.113,20.781-14.132,48.016-14.132,76.684c0,28.668,5.019,55.903,14.131,76.684
	c1.969,4.492,3.942,8.244,5.828,11.36c5.383,8.895,18.323,8.895,23.706,0c1.887-3.116,3.859-6.869,5.828-11.36
	c9.113-20.781,14.131-48.016,14.131-76.684C462.881,220.223,457.862,192.99,448.75,172.208z"/>
<path d="M435.185,332.255c-1.262,2.086-3.298,2.311-4.117,2.311c-0.817,0-2.854-0.225-4.116-2.311
	c-1.834-3.032-3.613-6.502-5.284-10.31c-2.101-4.791-4.002-10.047-5.653-15.624c-1.417-4.788-6.442-7.523-11.235-6.105
	c-4.788,1.417-7.521,6.447-6.104,11.236c1.864,6.3,4.028,12.274,6.432,17.757c1.988,4.53,4.133,8.705,6.373,12.408
	c4.181,6.908,11.503,11.032,19.588,11.032c8.086,0,15.408-4.124,19.589-11.032c2.245-3.711,4.389-7.885,6.374-12.41
	c9.603-21.901,14.892-50.425,14.892-80.315s-5.289-58.413-14.892-80.315c-1.984-4.526-4.13-8.702-6.374-12.41
	c-4.181-6.908-11.503-11.032-19.589-11.032c-8.084,0-15.407,4.124-19.587,11.031c-2.245,3.709-4.391,7.886-6.375,12.411
	c-9.602,21.9-14.891,50.423-14.891,80.315c0,8.229,0.417,16.551,1.238,24.733c0.499,4.969,4.932,8.591,9.901,8.092
	c4.968-0.499,8.592-4.932,8.093-9.9c-0.763-7.584-1.149-15.296-1.149-22.925c0-27.448,4.747-53.391,13.37-73.053
	c1.668-3.805,3.445-7.273,5.284-10.31c1.262-2.086,3.298-2.311,4.116-2.311c0.819,0,2.855,0.225,4.118,2.311
	c1.836,3.037,3.614,6.505,5.283,10.31c8.622,19.664,13.371,45.607,13.371,73.053c0,27.447-4.747,53.39-13.37,73.053
	C438.801,325.749,437.022,329.217,435.185,332.255z"/>
<path d="M60.539,271.094c-1.972-7.2-2.673-14.762-2.673-22.203c0-8.239,0.946-16.476,3.314-24.382
	c0.019-0.064,0.039-0.129,0.058-0.193l36.508-10.647c4.793-1.398,7.547-6.418,6.148-11.212c-1.398-4.794-6.42-7.547-11.212-6.148
	L56.097,206.98c0,0-1.395,0-1.397,0H27.188C11.688,206.979,0,224.999,0,248.891s11.688,41.912,27.188,41.912c0,0,27.513,0,27.514,0
	h1.395l55.686,16.241c4.652,48.936,40.128,90.44,88.279,102.201c8.967,0,17.916,4.766,27.236,4.766
	c31.037,0,57.598-22.183,63.155-52.749l0.364-1.999l115.793,33.772c7.689,4.395,15.9,6.758,24.462,6.758
	c45.382,0,80.931-66.284,80.931-150.901c0-13.239-0.901-26.392-2.679-39.092c-0.692-4.946-5.277-8.393-10.207-7.701
	c-4.946,0.692-8.394,5.262-7.702,10.207c1.661,11.873,2.504,24.182,2.504,36.586c0,36.499-7.131,70.672-20.08,96.222
	c-11.784,23.258-27.373,36.596-42.768,36.596c-7.777,0-15.603-3.409-22.965-9.777c-8.135-7.138-16.153-18.379-22.846-33.273
	c-11.572-25.752-16.224-54.591-16.943-82.653c-0.002-0.119-0.008-0.234-0.012-0.353c-0.622-26.445,1.953-53.324,10.11-78.584
	c5.911-18.54,14.786-38.141,29.69-51.219c7.361-6.369,15.188-9.777,22.965-9.777c20.86,0,41.119,23.772,52.875,62.039
	c1.465,4.773,6.526,7.454,11.297,5.988c4.774-1.466,7.455-6.526,5.988-11.298c-14.391-46.844-40.619-74.812-70.161-74.812
	c-8.562,0-16.773,2.362-24.462,6.758L128.849,185.76c-4.794,1.398-7.547,6.418-6.148,11.212c1.398,4.794,6.418,7.546,11.212,6.148
	c0,0,245.775-71.684,245.797-71.691c-1.958,0.571-5.133,8.444-6.111,10.264c-2.088,3.89-3.994,7.878-5.742,11.933
	c-3.881,8.998-6.983,18.326-9.466,27.8c-6.122,23.354-8.568,47.595-8.222,71.707c0.004,0.256,0.011,0.511,0.016,0.767
	c0.643,38.422,7.977,79.868,29.526,112.453l-212.459-61.967c0,0-44.362-12.939-44.364-12.939l-61.649-17.981
	c-0.02-0.064-0.039-0.129-0.058-0.193C60.954,272.552,60.74,271.825,60.539,271.094z M27.188,272.72
	c-2.641,0-9.104-8.35-9.104-23.829s6.462-23.829,9.104-23.829h15.131c-1.783,7.805-2.535,15.831-2.535,23.829
	c0,7.994,0.752,16.028,2.535,23.829H27.188z M273.36,354.172l-0.7,3.855c-3.994,21.962-23.072,37.9-45.364,37.9h-0.002
	c-3.684,0-7.379-0.447-10.985-1.327l-11.958-2.921c-38.281-9.351-67.095-40.959-73.629-79.111l9.746,2.841l17.054,4.974
	c8.241,23.753,27.969,41.868,52.55,47.871l11.964,2.922c1.736,0.423,3.506,0.637,5.26,0.637c10.632,0,19.734-7.613,21.641-18.103
	l1.151-6.33l3.794,1.107L273.36,354.172z M180.962,327.222l51.672,15.071l-1.488,8.186c-0.4,2.2-2.51,3.695-4.826,3.133
	l-11.958-2.921C200.486,347.301,188.666,338.792,180.962,327.222z"/>
<g>
</g>
<g>
</g>
<g>
</g>
<g>
</g>
<g>
</g>
<g>
</g>
<g>
</g>
<g>
</g>
<g>
</g>
<g>
</g>
<g>
</g>
<g>
</g>
<g>
</g>
<g>
</g>
<g>
</g>
</svg>
