<?xml version="1.0" encoding="iso-8859-1"?>
<!-- Generator: Adobe Illustrator 19.0.0, SVG Export Plug-In . SVG Version: 6.00 Build 0)  -->
<svg version="1.1" id="Layer_1" xmlns="http://www.w3.org/2000/svg" xmlns:xlink="http://www.w3.org/1999/xlink" x="0px" y="0px"
	 viewBox="0 0 511.999 511.999" style="enable-background:new 0 0 511.999 511.999;" xml:space="preserve">
<polygon style="fill:#363640;" points="254.727,266.266 203.484,300.432 223.733,504.107 288.266,504.107 308.515,300.432 "/>
<polygon style="fill:#464754;" points="308.515,300.432 318.294,202.07 193.705,202.07 203.484,300.432 "/>
<circle style="fill:#D7565A;" cx="255.994" cy="414.464" r="15.385"/>
<polygon style="opacity:0.1;enable-background:new    ;" points="235.801,202.07 193.705,202.07 203.484,300.433 223.733,504.107 
	265.829,504.107 245.58,300.433 "/>
<path style="fill:#464754;" d="M156.387,138.178c-2.342-8.631-3.591-17.711-3.591-27.083c0-56.998,46.205-103.203,103.203-103.203
	s103.203,46.205,103.203,103.203c0,9.372-1.249,18.452-3.59,27.082L156.387,138.178z"/>
<path style="fill:#363640;" d="M156.387,138.178v18.159c0,38.73,31.397,70.126,70.126,70.126h58.972
	c38.73,0,70.126-31.397,70.126-70.126v-18.159L156.387,138.178L156.387,138.178z"/>
<path style="opacity:0.1;enable-background:new    ;" d="M198.483,156.337v-18.159h-42.096v18.159
	c0,38.73,31.397,70.126,70.126,70.126h42.096C229.879,226.465,198.483,195.067,198.483,156.337z"/>
<path style="opacity:0.1;enable-background:new    ;" d="M194.892,111.096c0-49.785,35.252-91.332,82.155-101.052
	c-6.795-1.408-13.835-2.15-21.048-2.15c-56.998,0-103.203,46.205-103.203,103.202c0,9.372,1.249,18.453,3.591,27.083h42.096
	C196.141,129.548,194.892,120.467,194.892,111.096z"/>
<rect x="139.547" y="121.73" style="fill:#A9ACCC;" width="232.905" height="32.877"/>
<rect x="139.547" y="121.73" style="opacity:0.1;enable-background:new    ;" width="42.096" height="32.877"/>
<path d="M232.722,414.465c0,12.836,10.443,23.278,23.278,23.278c12.835,0,23.277-10.442,23.277-23.278
	c0-12.836-10.442-23.278-23.277-23.278S232.722,401.629,232.722,414.465z M263.491,414.465c0,4.131-3.36,7.492-7.491,7.492
	c-4.132,0-7.492-3.361-7.492-7.492c0-4.131,3.36-7.492,7.492-7.492C260.13,406.972,263.491,410.333,263.491,414.465z"/>
<path d="M372.455,162.507c4.36,0,7.893-3.534,7.893-7.893v-32.879c0-4.359-3.533-7.893-7.893-7.893h-5.396
	c0.023-0.919,0.036-1.834,0.036-2.748c0-3.169-0.141-6.305-0.402-9.406c-0.005-0.058-0.009-0.115-0.016-0.172
	c-0.586-6.835-1.793-13.494-3.566-19.922c-0.055-0.25-0.122-0.498-0.201-0.743c-3.322-11.728-8.531-22.671-15.269-32.484
	c-0.255-0.461-0.559-0.902-0.912-1.315c-6.436-9.092-14.206-17.174-23.017-23.968c-0.405-0.384-0.841-0.715-1.3-0.997
	c-9.362-7.003-19.862-12.562-31.166-16.354c-0.316-0.128-0.64-0.228-0.967-0.315c-7.893-2.566-16.17-4.272-24.721-5.003
	c-0.041-0.004-0.082-0.007-0.124-0.011C262.323,0.142,259.178,0,255.999,0c-3.178,0-6.323,0.142-9.434,0.404
	c-0.042,0.003-0.085,0.007-0.127,0.012c-8.55,0.732-16.826,2.436-24.718,5.002c-0.328,0.086-0.654,0.186-0.97,0.316
	c-11.303,3.792-21.802,9.351-31.163,16.353c-0.46,0.282-0.896,0.614-1.302,0.998c-8.81,6.794-16.578,14.876-23.014,23.965
	c-0.356,0.416-0.662,0.858-0.917,1.321c-6.736,9.813-11.944,20.752-15.266,32.478c-0.081,0.249-0.149,0.501-0.205,0.756
	c-1.77,6.423-2.976,13.076-3.562,19.906c-0.006,0.062-0.012,0.125-0.017,0.187c-0.261,3.099-0.401,6.231-0.401,9.397
	c0,0.913,0.013,1.829,0.036,2.748h-5.396c-4.359,0-7.893,3.534-7.893,7.893v32.879c0,4.359,3.534,7.893,7.893,7.893h9.211
	c0.612,7.774,2.364,15.379,5.269,22.674c1.612,4.052,6.205,6.025,10.252,4.413c4.051-1.612,6.026-6.203,4.413-10.252
	c-2.162-5.427-3.535-11.068-4.106-16.834h182.832c-2.191,22.161-16.064,40.929-35.35,50.079c-8.283,3.926-17.413,5.984-26.58,5.984
	h-58.971c-9.472,0-19.043-2.226-27.537-6.424c-5.028-2.484-9.739-5.656-13.988-9.466c-3.246-2.911-8.236-2.637-11.146,0.607
	c-2.911,3.246-2.638,8.235,0.607,11.146c4.178,3.747,8.717,6.986,13.518,9.718l7.661,77.063l20.249,203.674
	c0.401,4.037,3.797,7.112,7.854,7.112h64.533c4.056,0,7.453-3.075,7.854-7.112l2.008-20.204c0.431-4.338-2.736-8.203-7.073-8.635
	c-4.355-0.437-8.206,2.736-8.635,7.073l-1.301,13.092h-50.239l-18.68-187.888h43.8c4.36,0,7.893-3.534,7.893-7.893
	s-3.533-7.893-7.893-7.893H210.63l-6.095-61.321c0.304,2.966,19.307,3.137,21.979,3.137h58.971c7.413,0,14.864-1.044,21.978-3.138
	l-6.095,61.322h-13.796c-4.36,0-7.893,3.534-7.893,7.893s3.533,7.893,7.893,7.893h12.227l-14.239,143.224
	c-0.431,4.338,2.735,8.204,7.073,8.635c0.266,0.026,0.529,0.04,0.79,0.04c4.009,0,7.439-3.04,7.845-7.112l15.102-151.898
	l7.664-77.087c21.862-12.48,37.128-35.217,39.206-61.62L372.455,162.507L372.455,162.507z M172.721,64.789l3.421,3.42l-9.36,9.361
	C168.452,73.143,170.441,68.874,172.721,64.789z M193.197,39.468l5.844,5.844l-11.735,11.735l-5.591-5.591
	C185.19,47.136,189.032,43.123,193.197,39.468z M221.699,22.174l0.239,0.24l-11.735,11.735l-4.177-4.177
	C210.971,26.915,216.213,24.298,221.699,22.174z M290.3,22.174c5.487,2.124,10.729,4.741,15.673,7.797l-4.177,4.177L290.06,22.414
	L290.3,22.174z M330.285,51.456l-5.591,5.591l-11.735-11.735l5.844-5.844C322.966,43.123,326.809,47.136,330.285,51.456z
	 M233.101,79.373l11.735,11.735l-11.735,11.735l-11.735-11.735L233.101,79.373z M210.203,79.944l-11.735-11.735l11.735-11.735
	l11.735,11.735L210.203,79.944z M290.633,91.108l-11.735,11.735l-11.735-11.735l11.735-11.735L290.633,91.108z M290.06,68.21
	l11.735-11.735l11.735,11.735l-11.735,11.735L290.06,68.21z M301.795,102.271l11.572,11.573h-23.144L301.795,102.271z
	 M267.573,113.843h-23.145l11.572-11.573L267.573,113.843z M221.776,113.843H198.63l11.573-11.573L221.776,113.843z M312.958,91.108
	l11.735-11.735l11.735,11.735l-11.735,11.735L312.958,91.108z M345.216,77.57l-9.36-9.36l3.421-3.421
	C341.558,68.874,343.547,73.143,345.216,77.57z M290.633,45.312l-11.735,11.735l-11.735-11.735l11.735-11.735L290.633,45.312z
	 M267.735,68.21l-11.735,11.735L244.264,68.21l11.735-11.734L267.735,68.21z M233.101,57.047l-11.735-11.735l11.735-11.735
	l11.735,11.735L233.101,57.047z M187.306,79.372l11.735,11.735l-11.735,11.735L175.57,91.108L187.306,79.372z M336.019,113.843
	l11.572-11.573l3.571,3.571c0.095,1.74,0.147,3.491,0.147,5.255c0,0.912-0.014,1.829-0.04,2.748
	C351.27,113.843,336.019,113.843,336.019,113.843z M261.254,15.933l6.481,6.481l-11.735,11.735l-11.735-11.735l6.481-6.481
	c1.741-0.095,3.492-0.147,5.256-0.147C257.763,15.786,259.514,15.837,261.254,15.933z M160.689,111.095
	c0-1.763,0.052-3.514,0.147-5.255l3.571-3.571l11.573,11.573h-15.25C160.703,112.925,160.689,112.008,160.689,111.095z
	 M147.437,146.722v-17.093h217.125v17.093H147.437z"/>
<g>
</g>
<g>
</g>
<g>
</g>
<g>
</g>
<g>
</g>
<g>
</g>
<g>
</g>
<g>
</g>
<g>
</g>
<g>
</g>
<g>
</g>
<g>
</g>
<g>
</g>
<g>
</g>
<g>
</g>
</svg>
