<?xml version="1.0" encoding="iso-8859-1"?>
<!-- Generator: Adobe Illustrator 19.0.0, SVG Export Plug-In . SVG Version: 6.00 Build 0)  -->
<svg version="1.1" id="Layer_1" xmlns="http://www.w3.org/2000/svg" xmlns:xlink="http://www.w3.org/1999/xlink" x="0px" y="0px"
	 viewBox="0 0 512 512" style="enable-background:new 0 0 512 512;" xml:space="preserve">
<rect x="40.739" y="10.819" style="fill:#A9ACCC;" width="430.52" height="440.56"/>
<g>
	<circle style="fill:#FFE669;" cx="85.16" cy="55.242" r="17.557"/>
	<circle style="fill:#FFE669;" cx="85.16" cy="133.36" r="17.557"/>
	<circle style="fill:#FFE669;" cx="85.16" cy="211.468" r="17.557"/>
	<circle style="fill:#FFE669;" cx="85.16" cy="289.587" r="17.557"/>
	<circle style="fill:#FFE669;" cx="85.16" cy="367.695" r="17.557"/>
	<circle style="fill:#FFE669;" cx="426.833" cy="55.242" r="17.557"/>
	<circle style="fill:#FFE669;" cx="426.833" cy="133.36" r="17.557"/>
	<circle style="fill:#FFE669;" cx="426.833" cy="211.468" r="17.557"/>
	<circle style="fill:#FFE669;" cx="426.833" cy="289.587" r="17.557"/>
	<circle style="fill:#FFE669;" cx="426.833" cy="367.695" r="17.557"/>
	<circle style="fill:#FFE669;" cx="170.576" cy="55.242" r="17.557"/>
	<circle style="fill:#FFE669;" cx="256.002" cy="55.242" r="17.557"/>
	<circle style="fill:#FFE669;" cx="341.418" cy="55.242" r="17.557"/>
</g>
<rect x="129.584" y="99.665" style="fill:#7DD2F0;" width="252.826" height="351.713"/>
<g>
	<polygon style="fill:#FFFFFF;" points="129.586,289.124 129.586,351.949 381.869,99.666 319.044,99.666 	"/>
	<polygon style="fill:#FFFFFF;" points="241.531,418.059 382.414,277.176 382.414,167.233 131.588,418.059 	"/>
</g>
<rect x="40.739" y="10.819" style="opacity:0.1;enable-background:new    ;" width="44.424" height="440.56"/>
<rect x="8.331" y="418.06" style="fill:#D3D7FF;" width="495.335" height="83.123"/>
<rect x="8.329" y="418.06" style="opacity:0.1;enable-background:new    ;" width="44.424" height="83.122"/>
<path d="M85.162,29.357c-14.274,0-25.887,11.612-25.887,25.886s11.612,25.887,25.887,25.887s25.886-11.613,25.886-25.887
	S99.436,29.357,85.162,29.357z M85.162,64.47c-5.088,0-9.228-4.139-9.228-9.228s4.14-9.227,9.228-9.227s9.228,4.139,9.228,9.227
	S90.25,64.47,85.162,64.47z"/>
<path d="M85.162,107.471c-14.274,0-25.887,11.613-25.887,25.887s11.612,25.887,25.887,25.887s25.887-11.613,25.887-25.887
	S99.436,107.471,85.162,107.471z M85.162,142.585c-5.088,0-9.228-4.139-9.228-9.228s4.14-9.228,9.228-9.228s9.228,4.139,9.228,9.228
	S90.25,142.585,85.162,142.585z"/>
<path d="M85.162,185.585c-14.274,0-25.887,11.613-25.887,25.887s11.612,25.887,25.887,25.887s25.887-11.613,25.887-25.887
	S99.436,185.585,85.162,185.585z M85.162,220.699c-5.088,0-9.228-4.139-9.228-9.228s4.14-9.228,9.228-9.228s9.228,4.139,9.228,9.228
	S90.25,220.699,85.162,220.699z"/>
<path d="M85.162,263.699c-14.274,0-25.887,11.613-25.887,25.887c0,14.273,11.612,25.886,25.887,25.886s25.887-11.612,25.887-25.886
	C111.049,275.313,99.436,263.699,85.162,263.699z M85.162,298.813c-5.088,0-9.228-4.139-9.228-9.227s4.14-9.228,9.228-9.228
	s9.228,4.139,9.228,9.228C94.39,294.675,90.25,298.813,85.162,298.813z"/>
<path d="M85.162,341.814c-14.274,0-25.887,11.612-25.887,25.886c0,14.274,11.612,25.887,25.887,25.887s25.887-11.612,25.887-25.887
	C111.048,353.426,99.436,341.814,85.162,341.814z M85.162,376.927c-5.088,0-9.228-4.139-9.228-9.228c0-5.088,4.14-9.227,9.228-9.227
	s9.228,4.139,9.228,9.227C94.389,372.788,90.25,376.927,85.162,376.927z"/>
<path d="M426.837,81.129c14.274,0,25.887-11.613,25.887-25.887s-11.612-25.886-25.887-25.886c-14.273,0-25.886,11.612-25.886,25.886
	S412.563,81.129,426.837,81.129z M426.837,46.016c5.088,0,9.228,4.139,9.228,9.227s-4.14,9.228-9.228,9.228
	c-5.088,0-9.227-4.139-9.227-9.228S421.749,46.016,426.837,46.016z"/>
<path d="M426.837,159.244c14.274,0,25.887-11.613,25.887-25.887s-11.612-25.887-25.887-25.887
	c-14.273,0-25.886,11.613-25.886,25.887S412.563,159.244,426.837,159.244z M426.837,124.13c5.088,0,9.228,4.139,9.228,9.228
	s-4.14,9.228-9.228,9.228c-5.088,0-9.227-4.139-9.227-9.228S421.749,124.13,426.837,124.13z"/>
<path d="M426.837,237.358c14.274,0,25.887-11.613,25.887-25.887s-11.612-25.887-25.887-25.887
	c-14.273,0-25.886,11.613-25.886,25.887S412.563,237.358,426.837,237.358z M426.837,202.244c5.088,0,9.228,4.139,9.228,9.228
	s-4.14,9.228-9.228,9.228c-5.088,0-9.227-4.139-9.227-9.228S421.749,202.244,426.837,202.244z"/>
<path d="M426.837,315.472c14.274,0,25.887-11.612,25.887-25.886c0-14.273-11.612-25.887-25.887-25.887
	c-14.273,0-25.886,11.613-25.886,25.887S412.563,315.472,426.837,315.472z M426.837,280.358c5.088,0,9.228,4.139,9.228,9.228
	c0,5.089-4.14,9.227-9.228,9.227c-5.088,0-9.227-4.139-9.227-9.227S421.749,280.358,426.837,280.358z"/>
<path d="M426.837,393.586c14.274,0,25.887-11.612,25.887-25.887c0-14.273-11.612-25.886-25.887-25.886
	c-14.273,0-25.886,11.612-25.886,25.886C400.951,381.974,412.563,393.586,426.837,393.586z M426.837,358.473
	c5.088,0,9.228,4.139,9.228,9.227c0,5.089-4.14,9.228-9.228,9.228c-5.088,0-9.227-4.139-9.227-9.228
	C417.61,362.612,421.749,358.473,426.837,358.473z"/>
<path d="M196.467,55.242c0-14.273-11.612-25.886-25.887-25.886c-14.274,0-25.887,11.612-25.887,25.886s11.612,25.887,25.887,25.887
	C184.854,81.129,196.467,69.516,196.467,55.242z M161.353,55.242c0-5.089,4.14-9.227,9.228-9.227s9.228,4.139,9.228,9.227
	s-4.14,9.228-9.228,9.228S161.353,60.331,161.353,55.242z"/>
<path d="M281.886,55.242c0-14.273-11.612-25.886-25.887-25.886s-25.887,11.612-25.887,25.886s11.612,25.887,25.887,25.887
	S281.886,69.516,281.886,55.242z M246.772,55.242c0-5.089,4.14-9.227,9.228-9.227c5.088,0,9.228,4.139,9.228,9.227
	s-4.14,9.228-9.228,9.228C250.912,64.47,246.772,60.331,246.772,55.242z"/>
<path d="M341.419,81.129c14.274,0,25.887-11.613,25.887-25.887s-11.612-25.886-25.887-25.886s-25.887,11.612-25.887,25.886
	S327.144,81.129,341.419,81.129z M341.419,46.016c5.088,0,9.228,4.139,9.228,9.227s-4.14,9.228-9.228,9.228
	s-9.228-4.139-9.228-9.228S336.331,46.016,341.419,46.016z"/>
<path d="M454.921,492.852c-4.601,0-8.329,3.729-8.329,8.329c0,4.6,3.728,8.329,8.329,8.329h48.749c4.601,0,8.329-3.729,8.329-8.329
	v-83.122c0-4.6-3.728-8.329-8.329-8.329h-24.08V10.819c0-4.6-3.728-8.329-8.329-8.329H143.095c-4.601,0-8.329,3.729-8.329,8.329
	s3.728,8.329,8.329,8.329h319.837V409.73h-72.188V277.176V167.233V99.666c0-4.6-3.728-8.329-8.329-8.329h-0.544h-62.826H129.586
	c-4.601,0-8.329,3.729-8.329,8.329v189.458v62.825v57.781H49.068V19.148h60.709c4.601,0,8.329-3.729,8.329-8.329
	s-3.728-8.329-8.329-8.329H40.739c-4.601,0-8.329,3.729-8.329,8.329V409.73H8.329c-4.601,0-8.329,3.729-8.329,8.329v83.122
	c0,4.6,3.728,8.329,8.329,8.329h413.274c4.601,0,8.329-3.729,8.329-8.329c0-4.6-3.728-8.329-8.329-8.329H16.659v-66.463h24.08
	h88.847h2.002h109.943h140.883h88.847h24.08v66.463H454.921z M137.915,355.4l236.169-236.168v44.551L137.915,399.952V355.4z
	 M298.934,107.995L186.417,220.514c-3.253,3.253-3.253,8.526,0,11.779c3.254,3.253,8.527,3.253,11.78,0l124.296-124.297h39.267
	L137.915,331.841v-39.266l36.722-36.721c3.253-3.253,3.253-8.527,0-11.78c-3.253-3.252-8.526-3.253-11.78,0l-24.942,24.942v-161.02
	H298.934z M261.64,409.73l59.614-59.615c3.253-3.253,3.253-8.527,0-11.779c-3.254-3.253-8.527-3.253-11.78,0l-71.393,71.395h-86.384
	l222.388-222.388v86.384l-41.051,41.05c-3.253,3.253-3.253,8.526,0,11.779c3.254,3.253,8.527,3.253,11.78,0l29.27-29.27v112.445
	H261.64V409.73z"/>
<g>
</g>
<g>
</g>
<g>
</g>
<g>
</g>
<g>
</g>
<g>
</g>
<g>
</g>
<g>
</g>
<g>
</g>
<g>
</g>
<g>
</g>
<g>
</g>
<g>
</g>
<g>
</g>
<g>
</g>
</svg>
