<?xml version="1.0" encoding="iso-8859-1"?>
<!-- Generator: Adobe Illustrator 19.0.0, SVG Export Plug-In . SVG Version: 6.00 Build 0)  -->
<svg version="1.1" id="Layer_1" xmlns="http://www.w3.org/2000/svg" xmlns:xlink="http://www.w3.org/1999/xlink" x="0px" y="0px"
	 viewBox="0 0 512 512" style="enable-background:new 0 0 512 512;" xml:space="preserve">
<path style="fill:#363640;" d="M375.73,351.97H136.271c-37.011,0-67.015,30.003-67.015,67.015v85.135h373.489v-85.135
	C442.744,381.975,412.741,351.97,375.73,351.97z"/>
<polygon style="fill:#FFF7E6;" points="220.689,504.121 291.312,504.121 352.382,351.97 159.619,351.97 "/>
<path style="fill:#5A4146;" d="M107.845,205.546v-49.511c0-81.694,66.462-148.156,148.156-148.156
	c81.693,0,148.156,66.462,148.156,148.155v49.511H107.845V205.546z"/>
<g>
	<path style="fill:#F2B09D;" d="M383.976,183.674h-25.25v84.231l0,0c29.221,0,52.909-23.688,52.909-52.909v-3.663
		C411.636,196.058,399.253,183.674,383.976,183.674z"/>
	<path style="fill:#F2B09D;" d="M128.025,183.674h25.25v84.231l0,0c-29.221,0-52.909-23.688-52.909-52.909v-3.663
		C100.365,196.058,112.748,183.674,128.025,183.674z"/>
</g>
<path style="opacity:0.1;enable-background:new    ;" d="M363.106,351.97H148.895c26.719,28.765,64.844,46.794,107.107,46.794
	C298.263,398.766,336.388,380.735,363.106,351.97z"/>
<path style="fill:#FFBBA8;" d="M256.001,92.757c0,0-5.319-3.316-14.442-7.13c-49.811-20.824-105.101,15.5-105.506,69.488
	c-0.002,0.306-0.003,0.612-0.003,0.919v96.518c0,66.248,53.705,119.951,119.951,119.951l0,0
	c66.248,0,119.951-53.705,119.951-119.951v-96.518c0-0.307-0.001-0.613-0.003-0.919c-0.405-53.988-55.694-90.312-105.506-69.488
	C261.319,89.44,256.001,92.757,256.001,92.757z"/>
<path style="fill:#FFF7E6;" d="M226.602,110.604h-69.271c-16.236,0-29.398,13.162-29.398,29.398v158.29
	c0,21.64,17.543,39.184,39.184,39.184l0,0c21.64,0,39.184-17.543,39.184-39.184v-1.232c0-13.725,11.126-24.851,24.851-24.851
	c13.725,0,24.851-11.126,24.851-24.851V140.002C256.001,123.765,242.839,110.604,226.602,110.604z M199.061,230.888
	c-20.038,0-36.283-12.176-36.283-27.196s16.245-27.196,36.283-27.196s36.283,12.176,36.283,27.196S219.1,230.888,199.061,230.888z"
	/>
<g>
	<path style="fill:#CC5051;" d="M203.213,394.9c2.419,22.399,42.028-9.267,42.028-9.267V370.58c0,0-39.609-31.666-42.028-9.267
		V394.9z"/>
	<path style="fill:#CC5051;" d="M308.788,394.9c-2.419,22.399-42.028-9.267-42.028-9.267V370.58c0,0,39.609-31.666,42.028-9.267
		V394.9z"/>
</g>
<path style="fill:#FF6465;" d="M261.148,360.99h-10.295c-9.452,0-17.116,7.663-17.116,17.116l0,0
	c0,9.452,7.663,17.116,17.116,17.116h10.295c9.452,0,17.116-7.663,17.116-17.116l0,0C278.264,368.653,270.601,360.99,261.148,360.99
	z"/>
<path d="M285.065,185.52c2.077,0,4.151-0.816,5.698-2.436c3.09-3.233,10.76-7.009,22.214-7.009c11.397,0,19.067,3.752,22.171,6.966
	c3.022,3.129,8.01,3.216,11.141,0.192c3.129-3.023,3.216-8.011,0.192-11.141c-7.123-7.373-19.649-11.775-33.505-11.775
	c-13.936,0-26.5,4.443-33.608,11.882c-3.005,3.146-2.892,8.134,0.254,11.139C281.149,184.796,283.108,185.52,285.065,185.52z"/>
<circle cx="312.944" cy="203.692" r="11.281"/>
<circle cx="199.059" cy="203.692" r="11.281"/>
<path d="M233.558,317.385c1.795,0,3.602-0.611,5.081-1.86c2.982-2.52,10.065-5.464,20.208-5.464c10.142,0,17.224,2.942,20.207,5.463
	c3.325,2.808,8.296,2.389,11.103-0.935c2.808-3.325,2.389-8.295-0.935-11.103c-6.807-5.75-18.163-9.182-30.376-9.182
	c-12.215,0-23.572,3.434-30.378,9.186c-3.324,2.808-3.742,7.779-0.933,11.103C229.094,316.436,231.318,317.385,233.558,317.385z"/>
<circle cx="254.053" cy="435.746" r="8.557"/>
<circle cx="254.053" cy="474.867" r="8.557"/>
<path d="M243.223,203.692c0-19.341-19.811-35.075-44.162-35.075S154.9,184.352,154.9,203.692c0,19.341,19.81,35.076,44.162,35.076
	S243.223,223.032,243.223,203.692z M170.657,203.692c0-10.471,13.007-19.318,28.404-19.318s28.404,8.846,28.404,19.318
	s-13.007,19.319-28.404,19.319S170.657,214.163,170.657,203.692z"/>
<path d="M375.729,344.092h-23.348h-7.176c7.053-6.874,13.336-14.562,18.683-22.955c9.737-15.285,16.044-32.372,18.619-50.197
	c22.33-9.464,37.007-31.345,37.007-55.942v-3.663c0-8.198-2.799-15.751-7.48-21.772v-33.529c0-42.073-16.563-81.547-46.639-111.152
	c-3.102-3.053-8.09-3.013-11.142,0.088c-3.053,3.101-3.013,8.09,0.088,11.142c27.042,26.619,41.935,62.104,41.935,99.921v21.959
	c-1.915-0.709-3.91-1.248-5.963-1.62c-0.049-0.009-0.099-0.018-0.148-0.026c-2.041-0.361-4.117-0.55-6.191-0.55h-0.146
	c0-6.913,0.049-13.828-0.003-20.74c-0.199-26.14-12.981-51.142-33.988-66.67c-0.043-0.033-0.087-0.063-0.13-0.096
	c-14.37-10.629-32.014-16.499-49.891-16.499c-15.478,0-30.242,4.731-43.816,11.927c-2.667-1.414-6.538-3.328-11.402-5.362
	c-25.654-10.728-55.615-7.967-78.79,7.397c-7.53,4.992-14.133,11.274-19.808,18.288c-0.448,0.554-0.692,0.667-1.353,0.909
	c-0.055,0.02-0.11,0.039-0.165,0.059c-11.374,4.155-20.182,13.852-23.224,25.573c-0.796,3.066-1.202,6.252-1.202,9.42v36.71
	c-1.479,0.341-2.927,0.766-4.33,1.286v-21.964c-0.002-77.347,62.926-140.275,140.275-140.275c26.523,0,52.368,7.478,74.744,21.627
	c3.678,2.326,8.545,1.229,10.87-2.449c2.326-3.678,1.229-8.545-2.449-10.869C314.266,8.322,285.508,0,256.001,0
	C169.963,0,99.966,69.997,99.966,156.034v33.546c-4.681,6.019-7.48,13.569-7.48,21.754v3.663c0,20.623,10.453,39.705,27.567,50.881
	v14.184c0,4.351,3.528,7.879,7.879,7.879s7.879-3.528,7.879-7.879v-18.634v-77.751v-43.674c0-11.691,9.829-21.519,21.519-21.519
	h69.271c11.865,0,21.519,9.653,21.519,21.519v107.357c0,9.359-7.614,16.972-16.972,16.972c-18.048,0-32.729,14.683-32.729,32.729
	c0,1.998-0.058,4.002-0.36,5.982c-0.002,0.014-0.005,0.028-0.007,0.042c-2.313,14.995-15.306,26.514-30.938,26.514
	c-13.16,0-24.997-8.316-29.457-20.691c-1.475-4.094-5.99-6.217-10.083-4.741c-4.094,1.475-6.216,5.99-4.741,10.083
	c5.455,15.139,18.253,26.235,33.49,29.845h-20.052c-41.297,0-74.894,33.597-74.894,74.894v26.778c0,4.351,3.528,7.879,7.879,7.879
	c4.351,0,7.879-3.528,7.879-7.879v-26.778c0-32.609,26.528-59.137,59.137-59.137h18.02l54.746,136.392h-65.568V410.36
	c0-4.351-3.528-7.879-7.879-7.879s-7.879,3.528-7.879,7.879v85.882H77.135v-18.964c0-4.351-3.528-7.879-7.879-7.879
	c-4.351,0-7.879,3.528-7.879,7.879v26.842c0,4.351,3.528,7.879,7.879,7.879h151.432h70.622h151.433c4.351,0,7.879-3.528,7.879-7.879
	v-85.134C450.623,377.69,417.026,344.092,375.729,344.092z M300.873,361.677l0.036,0.208c0,0.001,0,0.002,0,0.003v32.523
	c-0.04,0.268-0.085,0.478-0.127,0.638c-1.808,0.069-7.153-1.138-16.718-6.98c1.334-3.055,2.078-6.424,2.078-9.965
	c0-3.542-0.745-6.912-2.08-9.969c8.247-5.038,13.849-6.946,16.564-6.946c0.052,0,0.1,0.001,0.145,0.002
	c0.033,0.127,0.067,0.285,0.101,0.478c0,0.001,0.001,0.002,0.001,0.003V361.677z M266.882,385.195
	c-1.602,1.324-3.614,2.147-5.734,2.147h-10.295c-4.324,0-8.174-3.155-9.049-7.378c-0.412-1.988-0.126-4.083,0.767-5.901
	c1.504-3.065,4.857-5.195,8.282-5.195c0,0,10.286,0,10.295,0c4.995,0,9.237,4.267,9.237,9.236
	C270.385,380.846,268.988,383.454,266.882,385.195z M227.752,388.19c-2.682,1.631-5.412,3.203-8.281,4.485
	c-2.472,1.104-5.359,2.36-8.117,2.36c-0.049,0-0.095,0-0.138-0.002c-0.361-0.019-0.124-14.7-0.124-15.668
	c0-5.456,0-10.913,0.002-16.369c0-0.358-0.06-0.776,0.001-1.131l0.017-0.099c0,0,0.017-0.098,0.018-0.1
	c0.033-0.19,0.066-0.347,0.1-0.473c0.044-0.001,0.094-0.002,0.145-0.002c2.716,0,8.317,1.908,16.564,6.946
	c-0.039-0.023-1.261,3.627-1.345,3.971c-0.482,1.962-0.735,3.977-0.735,5.998c0,3.424,0.696,6.839,2.065,9.979
	C227.867,388.118,227.807,388.156,227.752,388.19z M383.976,191.553c4.007,0,7.734,1.205,10.852,3.261
	c0.08,0.053,0.163,0.099,0.241,0.152c0.369,0.251,0.719,0.525,1.069,0.799c0.18,0.142,0.363,0.275,0.539,0.423
	c0.274,0.231,0.534,0.478,0.795,0.723c0.231,0.216,0.462,0.432,0.685,0.661c3.458,3.563,5.599,8.412,5.599,13.758v3.663
	c0,15.305-7.67,29.192-19.926,37.4v-60.843h0.146V191.553z M108.244,214.997v-3.663c0-7.347,4.362-14.284,10.893-17.657
	c0.301-0.155,0.606-0.304,0.916-0.44v52.14C112.571,237.198,108.244,226.415,108.244,214.997z M214.178,297.06
	c0-9.358,7.614-16.972,16.972-16.972c18.047,0,32.729-14.683,32.729-32.729V140.002c0-20.554-16.722-37.277-37.277-37.277h-57.276
	c9.027-7.256,19.769-12.152,31.183-14.155c0.041-0.007,0.081-0.015,0.122-0.021c12.688-2.168,26.016-0.618,37.889,4.347
	c8.324,3.479,13.274,6.523,13.312,6.546c2.544,1.585,5.777,1.584,8.325,0.007c19.501-12.07,43.518-15.568,65.051-6.927
	c19.589,7.861,34.814,24.805,40.432,45.162c3.436,12.452,2.431,26.445,2.432,39.527c0,27.381,1.549,55.21-0.237,82.539
	c-0.026,0.41-0.05,0.818-0.081,1.227c-2.531,33.904-21.051,65.622-49.24,84.589c-2.131,1.434-4.32,2.804-6.544,4.09
	c-0.034,0.02-0.068,0.038-0.103,0.057c-2.975-2.959-7.101-4.28-11.239-4.28c-6.962,0-16.135,3.644-27.317,10.843
	c-0.026-0.015-0.055-0.027-0.082-0.042c-3.684-2.035-7.87-3.122-12.081-3.122h-10.295c-4.24,0-8.465,1.087-12.163,3.164
	c-11.181-7.199-20.354-10.842-27.316-10.842c-4.605,0-8.454,1.515-11.236,4.277c-0.023-0.013-0.046-0.025-0.069-0.038
	c-4.009-2.309-7.877-4.867-11.57-7.654c-0.153-0.116-1.281-1.125-1.396-1.072c14.736-6.863,25.121-21.061,26.823-37.787
	c0.007-0.072,0.013-0.146,0.02-0.219C214.139,300.983,214.178,299.024,214.178,297.06z M226.017,496.243L171.272,359.85h15.239
	c2.565,1.663,5.197,3.217,7.877,4.69c0.275,0.151,0.544,0.314,0.82,0.464c0.043,0.023,0.084,0.048,0.126,0.071
	c0,0,0,29.825,0,29.826c0,5.929,3.48,11.96,8.944,14.447c5.697,2.594,12.142,1.282,17.79-0.752
	c5.878-2.117,11.333-5.246,16.565-8.625c0.017-0.011,0.032-0.02,0.048-0.03c6.919,3.874,14.731,3.159,22.348,3.159
	c0.04,0,0.079,0,0.119,0c3.353,0,7.044-0.622,10.06-2.152c0.303-0.153,1.798-1.208,2.113-1.006
	c22.824,14.682,31.447,10.754,34.403,9.407c2.918-1.329,7.955-4.864,8.899-13.602c0.03-0.282,0.045-0.563,0.045-0.846v-29.817
	c3.007-1.624,5.953-3.373,8.82-5.234h15.243l-54.746,136.392L226.017,496.243L226.017,496.243z M434.866,496.243h-50.577V410.36
	c0-4.351-3.528-7.879-7.879-7.879s-7.879,3.528-7.879,7.879v85.882h-65.567L357.71,359.85h18.02
	c32.609,0,59.137,26.528,59.137,59.137v77.256H434.866z"/>
<g>
</g>
<g>
</g>
<g>
</g>
<g>
</g>
<g>
</g>
<g>
</g>
<g>
</g>
<g>
</g>
<g>
</g>
<g>
</g>
<g>
</g>
<g>
</g>
<g>
</g>
<g>
</g>
<g>
</g>
</svg>
