<?xml version="1.0" encoding="iso-8859-1"?>
<!-- Generator: Adobe Illustrator 19.0.0, SVG Export Plug-In . SVG Version: 6.00 Build 0)  -->
<svg version="1.1" id="Layer_1" xmlns="http://www.w3.org/2000/svg" xmlns:xlink="http://www.w3.org/1999/xlink" x="0px" y="0px"
	 viewBox="0 0 511.999 511.999" style="enable-background:new 0 0 511.999 511.999;" xml:space="preserve">
<rect x="60.696" y="390.259" style="fill:#363640;" width="390.604" height="113.13"/>
<rect x="98.408" y="390.259" style="fill:#FFF7E6;" width="315.172" height="87.431"/>
<path style="fill:#464754;" d="M389.98,179.989L389.98,179.989c-29.327,0-53.102-23.774-53.102-53.102l0,0
	c0-65.322-52.954-118.274-118.274-118.274h-19.816C122.522,8.612,60.696,70.437,60.696,146.703v268.613H121v57.975h17.224v-57.975
	h19.072v57.975h17.224v-57.975h19.072v57.975h17.224v-57.975h19.071v57.975h17.224v-57.975h19.072v57.975h17.224v-57.975h19.072
	v57.975h17.224v-57.975h19.071v57.975h17.224v-57.975h19.072v57.975h17.224v-57.975H451.3V241.309
	C451.301,207.443,423.847,179.989,389.98,179.989z"/>
<g style="opacity:0.1;">
	<path d="M389.98,179.989L389.98,179.989c-29.327,0-53.102-23.774-53.102-53.102c0-65.322-52.954-118.274-118.274-118.274h-19.816
		c-0.526,0-1.05,0.014-1.574,0.021c64.594,0.843,116.699,53.459,116.699,118.252c0,29.327,23.774,53.102,53.102,53.102l0,0
		c33.867,0,61.321,27.455,61.321,61.321v174.007h22.966V241.309C451.301,207.443,423.847,179.989,389.98,179.989z"/>
</g>
<path style="fill:#595B6B;" d="M220.18,8.633c-0.525-0.007-1.048-0.021-1.575-0.021h-19.816
	c-76.266,0-138.091,61.825-138.091,138.09v268.613h22.966V146.703C83.662,70.963,144.64,9.477,220.18,8.633z"/>
<rect x="60.696" y="415.315" style="opacity:0.1;enable-background:new    ;" width="390.604" height="30.108"/>
<path d="M451.301,337.729c4.757,0,8.612-3.856,8.612-8.612V241.31c0-38.562-31.371-69.933-69.932-69.933
	c-24.531,0-44.488-19.957-44.488-44.489C345.492,56.921,288.57,0,218.603,0h-19.815C159.062,0,121.86,15.629,94.034,44.011
	c-3.329,3.397-3.276,8.849,0.119,12.179c3.397,3.328,8.848,3.277,12.179-0.121c24.561-25.049,57.395-38.844,92.456-38.844h19.815
	c60.469,0,109.664,49.194,109.664,109.662c0,34.03,27.684,61.714,61.713,61.714c29.064,0,52.708,23.645,52.708,52.709v87.807
	C442.689,333.873,446.544,337.729,451.301,337.729z"/>
<path d="M86.599,82.024c2.379-4.118,0.97-9.386-3.147-11.765c-4.12-2.379-9.387-0.97-11.767,3.147
	c-12.822,22.19-19.599,47.535-19.599,73.297v268.613v88.071c0,4.756,3.855,8.612,8.612,8.612h390.604
	c4.757,0,8.612-3.856,8.612-8.612v-88.071v-51.751c0-4.756-3.855-8.612-8.612-8.612s-8.612,3.856-8.612,8.612v43.139h-29.101H98.411
	H69.309V146.703C69.309,123.963,75.287,101.598,86.599,82.024z M138.225,464.68v-40.751h19.072v40.751H138.225z M174.521,423.929
	h19.071v40.751h-19.071V423.929z M210.818,423.929h19.071v40.751h-19.071V423.929z M247.113,423.929h19.072v40.751h-19.072V423.929z
	 M283.41,423.929h19.071v40.751H283.41V423.929z M319.706,423.929h19.071v40.751h-19.071V423.929z M356.001,423.929h19.072v40.751
	h-19.072V423.929z M392.298,423.929h12.677v40.751h-12.677V423.929z M121,423.929v40.751h-13.977v-40.751H121z M89.799,423.929
	v49.363c0,4.756,3.855,8.612,8.612,8.612h315.177c4.757,0,8.612-3.856,8.612-8.612v-49.363h20.489v70.846H69.309v-70.846H89.799z"/>
<g>
</g>
<g>
</g>
<g>
</g>
<g>
</g>
<g>
</g>
<g>
</g>
<g>
</g>
<g>
</g>
<g>
</g>
<g>
</g>
<g>
</g>
<g>
</g>
<g>
</g>
<g>
</g>
<g>
</g>
</svg>
