<?xml version="1.0" encoding="iso-8859-1"?>
<!-- Generator: Adobe Illustrator 19.0.0, SVG Export Plug-In . SVG Version: 6.00 Build 0)  -->
<svg version="1.1" id="Layer_1" xmlns="http://www.w3.org/2000/svg" xmlns:xlink="http://www.w3.org/1999/xlink" x="0px" y="0px"
	 viewBox="0 0 512 512" style="enable-background:new 0 0 512 512;" xml:space="preserve">
<g>
	<path style="fill:#FFF7E6;" d="M380.131,103.539L380.131,103.539L380.131,103.539c23.05-26.728-10.89-64.423-39.88-44.292l0,0l0,0
		c10.186-33.793-36.151-54.423-54.448-24.241l0,0l0,0c-4.439-35.015-55.161-35.015-59.601,0l0,0l0,0
		c-18.297-30.182-64.635-9.552-54.448,24.241l0,0l0,0c-28.993-20.13-62.933,17.564-39.883,44.292l0,0l0,0
		c-34.672-6.598-50.346,41.642-18.417,56.684l0,0v23.024h285.095v-23.024l0,0C430.477,145.182,414.803,96.941,380.131,103.539z"/>
	<polygon style="fill:#FFF7E6;" points="173.592,183.248 179.901,206.273 166.338,218.082 188.411,490.445 200.884,503.255 
		366.853,503.255 413.52,183.248 	"/>
</g>
<g>
	<polyline style="fill:#FF6465;" points="256.001,206.273 256.001,503.255 311.118,503.255 332.101,206.273 314.63,184.086 
		269.652,184.086 256.001,206.273 	"/>
	<polygon style="fill:#FF6465;" points="173.592,183.248 98.483,183.248 145.148,503.255 200.884,503.255 179.901,206.273 	"/>
</g>
<polygon style="opacity:0.1;enable-background:new    ;" points="98.483,183.248 106.09,235.422 405.912,235.422 413.52,183.248 
	173.592,183.248 "/>
<path style="fill:#F2CC7B;" d="M406.894,160.224H105.109c-12.716,0-23.024,10.308-23.024,23.024l0,0
	c0,12.716,10.308,23.024,23.024,23.024h301.784c12.716,0,23.024-10.308,23.024-23.024l0,0
	C429.918,170.532,419.609,160.224,406.894,160.224z"/>
<path d="M246.911,98.6c4.551,1.614,9.549-0.77,11.163-5.321c1.35-3.81,4.103-6.866,7.751-8.605c3.649-1.74,7.757-1.954,11.565-0.605
	c7.864,2.787,11.995,11.452,9.209,19.318c-1.392,3.932,0.184,8.299,3.767,10.433c3.581,2.134,8.174,1.442,10.967-1.654
	c7.543-8.359,20.477-9.025,28.833-1.484c4.243,3.828,6.635,9.084,6.737,14.798c0.085,4.776,3.983,8.588,8.74,8.588
	c0.054,0,0.106,0,0.16-0.001c4.829-0.086,8.672-4.07,8.587-8.9c-0.187-10.455-4.745-20.47-12.51-27.473
	c-10.656-9.612-25.318-12.042-37.993-7.596c-2.653-10.104-10.093-18.77-20.66-22.513c-8.211-2.909-17.067-2.447-24.934,1.302
	c-7.864,3.75-13.799,10.339-16.709,18.552C239.976,91.989,242.359,96.988,246.911,98.6z"/>
<path d="M93.984,213.003l30.229,207.296c0.635,4.35,4.371,7.484,8.642,7.483c0.42,0,0.846-0.03,1.273-0.093
	c4.779-0.697,8.089-5.136,7.392-9.915l-29.568-202.755h59.798l19.747,279.493h-38.79l-6.089-41.758
	c-0.698-4.779-5.143-8.087-9.915-7.391c-4.779,0.697-8.089,5.136-7.392,9.914l7.18,49.241c0.627,4.298,4.312,7.483,8.654,7.483
	h55.721c0.002,0,0.004,0,0.006,0s0.006,0,0.008,0h110.238c0.002,0,0.006,0,0.008,0c0.002,0,0.003,0,0.006,0h55.721
	c4.342,0,8.026-3.185,8.654-7.483l29.964-205.478c0.697-4.779-2.613-9.218-7.392-9.915c-4.78-0.696-9.217,2.612-9.915,7.391
	l-28.873,197.996h-38.79l19.747-279.493h59.798l-6.782,46.518c-0.697,4.779,2.613,9.218,7.392,9.914
	c4.779,0.696,9.217-2.612,9.915-7.391l7.445-51.056c12.047-4.518,20.644-16.15,20.644-29.755c0-13.286-8.201-24.687-19.804-29.422
	c6.465-10.262,7.044-22.699,3.773-32.762c-3.78-11.633-13.573-22.819-27.82-26c4.369-13.929-0.422-28.004-8.607-37.093
	c-8.184-9.09-21.682-15.327-35.991-12.437c-1.674-14.502-11.777-25.411-22.951-30.386c-11.175-4.975-26.042-5.182-37.938,3.278
	C281.898,5.857,268.232,0,256.001,0c-12.23,0-25.897,5.858-33.325,18.424c-11.895-8.458-26.765-8.251-37.936-3.278
	c-11.175,4.975-21.278,15.884-22.952,30.386c-14.307-2.888-27.809,3.349-35.991,12.437c-8.185,9.089-12.976,23.164-8.607,37.093
	c-14.246,3.182-24.041,14.368-27.82,26c-3.269,10.063-2.692,22.501,3.773,32.762c-11.604,4.736-19.804,16.137-19.804,29.423
	C73.34,196.853,81.938,208.484,93.984,213.003z M189.285,215.018h57.971v279.493h-38.225L189.285,215.018z M302.969,494.511h-38.225
	V215.018h57.971L302.969,494.511z M105.109,168.968h8.345h43.306c4.395,0,8.256-3.479,8.699-7.85
	c0.478-4.703-3.103-9.115-7.805-9.595c-0.294-0.029-0.592-0.045-0.894-0.045h-41.207c-11.011-6.12-12.103-17.149-9.548-25.011
	c2.676-8.234,10.631-16.926,24.232-14.338c3.648,0.695,7.348-0.996,9.208-4.218c1.86-3.222,1.478-7.266-0.95-10.083
	c-9.046-10.489-5.492-21.723,0.301-28.156c5.794-6.433,16.593-11.144,27.971-3.243c3.055,2.121,7.117,2.079,10.128-0.108
	c3.009-2.186,4.306-6.037,3.232-9.598c-3.997-13.262,3.818-22.079,11.728-25.599c7.906-3.521,19.692-3.429,26.871,8.415
	c1.927,3.18,5.654,4.794,9.296,4.02c3.638-0.773,6.388-3.764,6.857-7.454c1.741-13.74,12.468-18.616,21.124-18.616
	c8.656,0,19.383,4.875,21.126,18.616c0.468,3.69,3.219,6.68,6.858,7.454c3.642,0.774,7.368-0.841,9.296-4.02
	c7.178-11.845,18.961-11.935,26.868-8.414c7.909,3.521,15.724,12.338,11.728,25.599c-1.074,3.561,0.223,7.412,3.232,9.598
	c3.012,2.187,7.072,2.229,10.128,0.108c11.381-7.902,22.178-3.189,27.971,3.243c5.792,6.434,9.346,17.667,0.301,28.156
	c-2.429,2.817-2.81,6.862-0.95,10.083c1.86,3.222,5.556,4.913,9.208,4.218c13.596-2.59,21.556,6.105,24.232,14.338
	c2.553,7.861,1.463,18.891-9.548,25.011c0,0-204.547,0-204.712,0c-4.692,0-8.745,4.062-8.745,8.745c0,4.748,3.996,8.745,8.745,8.745
	h206.809h8.345c7.874,0,14.28,6.406,14.28,14.279c0,7.129-5.256,13.037-12.092,14.094c-0.043,0.006-0.086,0.005-0.129,0.01
	c-0.387,0.056-0.73,0.096-1.051,0.124c-0.335,0.024-0.668,0.051-1.009,0.051c0,0-150.89,0-150.895,0H105.109
	c-0.688,0-1.378-0.076-2.059-0.175c-0.043-0.006-0.086-0.005-0.129-0.01c-6.836-1.059-12.092-6.967-12.092-14.094
	C90.829,175.374,97.235,168.968,105.109,168.968z"/>
<g>
</g>
<g>
</g>
<g>
</g>
<g>
</g>
<g>
</g>
<g>
</g>
<g>
</g>
<g>
</g>
<g>
</g>
<g>
</g>
<g>
</g>
<g>
</g>
<g>
</g>
<g>
</g>
<g>
</g>
</svg>
