<?xml version="1.0" encoding="iso-8859-1"?>
<!-- Generator: Adobe Illustrator 19.0.0, SVG Export Plug-In . SVG Version: 6.00 Build 0)  -->
<svg version="1.1" id="Layer_1" xmlns="http://www.w3.org/2000/svg" xmlns:xlink="http://www.w3.org/1999/xlink" x="0px" y="0px"
	 viewBox="0 0 512 512" style="enable-background:new 0 0 512 512;" xml:space="preserve">
<rect x="94.579" y="129.451" style="fill:#363640;" width="322.854" height="337.708"/>
<rect x="381.105" y="8.402" style="fill:#FF6465;" width="83.399" height="135.612"/>
<g>
	<path style="fill:#D7565A;" d="M89.201,322.873l-22.515,1.865v105.971h85.883c-8.214-63.928-37.631-102.878-37.631-102.878
		L89.201,322.873z"/>
	<path style="fill:#D7565A;" d="M422.8,322.873l22.515,1.865v105.971h-85.883c8.214-63.928,37.631-102.878,37.631-102.878
		L422.8,322.873z"/>
</g>
<path style="opacity:0.1;enable-background:new    ;" d="M66.686,368.054c27.351,0,48.275-5.294,62.534-15.766
	c-7.76-15.814-14.284-24.457-14.284-24.457L89.2,322.872l-22.515,1.865L66.686,368.054L66.686,368.054z"/>
<path style="fill:#F2CC7B;" d="M110.747,275.824l-44.061,33.419v30.806c76.174,0,52.201-44.164,52.201-44.164L110.747,275.824z"/>
<path style="opacity:0.1;enable-background:new    ;" d="M445.315,368.054c-27.351,0-48.275-5.294-62.534-15.766
	c7.76-15.814,14.284-24.457,14.284-24.457l25.737-4.959l22.515,1.865L445.315,368.054L445.315,368.054z"/>
<path style="fill:#F2CC7B;" d="M401.254,275.824l44.061,33.419v30.806c-76.174,0-52.201-44.164-52.201-44.164L401.254,275.824z"/>
<g>
	<path style="fill:#D7565A;" d="M66.686,140.652v170.272c109.033,0,93.35-140.398,93.35-140.398v-29.874
		C160.036,140.652,66.686,140.652,66.686,140.652z"/>
	<path style="fill:#D7565A;" d="M445.315,140.652v170.272c-109.033,0-93.35-140.398-93.35-140.398v-29.874
		C351.965,140.652,445.315,140.652,445.315,140.652z"/>
</g>
<rect x="297.695" y="8.402" style="fill:#E6DFD0;" width="83.399" height="135.612"/>
<rect x="214.307" y="8.402" style="fill:#FF6465;" width="83.399" height="135.612"/>
<path style="fill:#FF8080;" d="M214.301,129.45v33.056c0,23.03,18.669,41.7,41.7,41.7l0,0c23.03,0,41.7-18.669,41.7-41.7V129.45
	C297.7,129.45,214.301,129.45,214.301,129.45z"/>
<rect x="130.896" y="8.402" style="fill:#E6DFD0;" width="83.399" height="135.612"/>
<path style="opacity:0.1;enable-background:new    ;" d="M160.036,140.652h-93.35v87.807c7.068,2.42,14.637,3.753,22.515,3.753
	c15.623,0,30.063-5.166,41.701-13.882c7.571,5.67,16.335,9.825,25.834,12.047c6.481-31.331,3.301-59.85,3.301-59.85v-29.875H160.036
	z"/>
<path style="fill:#FFF7E6;" d="M130.901,129.45v33.056c0,23.03,18.669,41.7,41.7,41.7l0,0c23.03,0,41.7-18.669,41.7-41.7V129.45
	C214.3,129.45,130.901,129.45,130.901,129.45z"/>
<rect x="47.497" y="8.402" style="fill:#FF6465;" width="83.399" height="135.612"/>
<path style="fill:#FF8080;" d="M47.502,129.45v33.056c0,23.03,18.669,41.7,41.7,41.7l0,0c23.03,0,41.7-18.669,41.7-41.7V129.45
	C130.901,129.45,47.502,129.45,47.502,129.45z"/>
<path style="opacity:0.1;enable-background:new    ;" d="M351.965,140.652h93.35v87.807c-7.068,2.42-14.637,3.753-22.515,3.753
	c-15.623,0-30.063-5.166-41.701-13.882c-7.571,5.67-16.335,9.825-25.834,12.047c-6.482-31.331-3.301-59.85-3.301-59.85v-29.875
	H351.965z"/>
<path style="fill:#8CD76E;" d="M293.259,447.421c0,9.022-16.681,16.336-37.258,16.336s-37.258-7.314-37.258-16.336V340.426h74.516
	V447.421z"/>
<path style="opacity:0.1;enable-background:new    ;" d="M218.743,385.105c11.485,3.329,24.038,5.15,37.258,5.15
	c13.22,0,25.773-1.82,37.258-5.15c0-21.732,0-44.678,0-44.678h-74.516C218.743,340.426,218.743,363.373,218.743,385.105z"/>
<path style="fill:#8CD76E;" d="M183.093,307.033c-0.047,0.239-0.092,0.477-0.134,0.717c-0.332,1.877-0.504,3.786-0.504,5.722
	c0,26.939,32.928,48.777,73.547,48.777c40.619,0,73.547-21.838,73.547-48.777c0-2.183-0.22-4.333-0.639-6.44l-72.908-13.428
	L183.093,307.033z"/>
<rect x="66.686" y="430.707" style="fill:#C89173;" width="378.629" height="72.892"/>
<path style="fill:#B9E578;" d="M183.093,307.033c16.827,9.414,43.223,15.48,72.908,15.48s56.082-6.066,72.908-15.48
	c-4.753-23.895-35.581-42.337-72.908-42.337S187.845,283.138,183.093,307.033z"/>
<g>
	<circle style="fill:#FFF7E6;" cx="215.472" cy="259.652" r="26.299"/>
	<circle style="fill:#FFF7E6;" cx="296.529" cy="259.652" r="26.299"/>
</g>
<path style="fill:#FF8080;" d="M381.1,129.45v33.056c0,23.03,18.669,41.7,41.7,41.7l0,0c23.03,0,41.7-18.669,41.7-41.7V129.45
	C464.499,129.45,381.1,129.45,381.1,129.45z"/>
<path style="fill:#FFF7E6;" d="M297.7,129.45v33.056c0,23.03,18.669,41.7,41.7,41.7l0,0c23.03,0,41.7-18.669,41.7-41.7V129.45
	C381.099,129.45,297.7,129.45,297.7,129.45z"/>
<circle cx="215.472" cy="252.751" r="9.99"/>
<circle cx="296.529" cy="252.751" r="9.99"/>
<path d="M122.776,503.598c0-4.64-3.762-8.402-8.402-8.402H75.088v-56.086h77.481h66.174h74.516h66.174h77.481v56.086H147.979
	c-4.64,0-8.402,3.762-8.402,8.402c0,4.64,3.762,8.402,8.402,8.402h297.335c4.64,0,8.402-3.762,8.402-8.402v-72.889
	c0-0.003,0-0.007,0-0.011v-90.649v-29.125V201.887c11.669-9.181,19.185-23.416,19.185-39.381v-33.056V8.402
	c0-4.64-3.762-8.402-8.402-8.402h-83.4H297.7h-83.4h-83.4H47.501c-4.64,0-8.402,3.762-8.402,8.402V129.45v33.056
	c0,15.966,7.515,30.2,19.185,39.381v109.036v29.125v90.66v72.889c0,4.64,3.762,8.402,8.402,8.402h47.687
	C119.014,512,122.776,508.238,122.776,503.598z M113.994,308.731c0.268,3.021-0.078,6.409-1.901,9.472
	c-1.581,2.656-4.027,4.668-6.654,6.233c-0.012,0.008-0.026,0.016-0.039,0.023c-6.624,3.898-16.944,6.29-30.312,6.98v-12.387
	c0.029-0.002,0.057-0.006,0.086-0.008C89.675,318.089,102.637,314.642,113.994,308.731z M75.088,422.308V348.27
	c16.02-0.715,28.459-3.559,37.622-8.614c7.686,12.463,23.223,41.59,30.122,82.652L75.088,422.308L75.088,422.308z M227.144,422.308
	c0,0,0-55.259,0-55.261c0.011,3.038,25.494,3.604,28.856,3.604c9.712,0,19.451-1.171,28.856-3.605v55.262L227.144,422.308
	L227.144,422.308z M232.677,264.436c-2.186,7.416-9.25,13.115-17.203,13.115c-9.746,0-17.897-8.172-17.897-17.897
	c0-9.869,8.028-17.897,17.897-17.897s17.897,8.028,17.897,17.897C233.371,261.297,233.128,262.904,232.677,264.436z M201.66,291.611
	c1.08-0.111,3.014,1.027,4.026,1.322c15.511,4.516,32.568-2.468,40.26-16.684c0.248-0.457,0.484-0.92,0.711-1.388
	c0.078-0.16,0.153-0.322,0.23-0.483c0.141-0.304,0.298-0.598,0.431-0.908c5.79-0.495,11.585-0.495,17.367,0
	c0.133,0.309,0.29,0.605,0.431,0.91c0.076,0.161,0.15,0.322,0.229,0.481c7.049,14.408,23.419,22.18,39.075,18.57
	c1.891-0.436,3.747-1.028,5.537-1.781c0.027-0.011,0.054-0.021,0.08-0.033c0.106-0.045,0.215-0.084,0.321-0.13
	c3.729,3.495,6.546,7.284,8.365,11.24c-0.073,0.032-0.14,0.067-0.213,0.1c-14.286,6.334-30.007,9.243-45.499,10.557
	c-5.656,0.479-11.333,0.729-17.009,0.729c-16.843,0-33.812-1.921-49.988-6.735c-4.253-1.266-8.46-2.756-12.519-4.551
	c-0.073-0.032-0.14-0.067-0.213-0.1c-0.379-0.169,4.278-6.856,4.722-7.389c0.747-0.9,2.323-3.334,3.442-3.683
	C201.512,291.634,201.583,291.619,201.66,291.611z M305.034,275.263c-2.581,1.461-5.517,2.3-8.579,2.287
	c-9.667-0.039-17.864-8.286-17.826-17.969c0.039-9.868,8.101-17.865,17.969-17.826c9.646,0.039,17.864,8.316,17.826,17.969
	C314.399,266.239,310.523,272.157,305.034,275.263z M193.851,321.498c21.11,7.649,44.988,9.871,67.281,9.351
	c0.53-0.012,1.056-0.031,1.585-0.047c15.452-0.464,30.913-2.481,45.817-6.646c3.846-1.074,8.052-2.124,11.609-3.924
	c-1.752,8.767-9.912,16.141-17.018,20.799c-13.812,9.053-30.756,12.816-47.126,12.816c-21.807,0-51.316-7.318-62.185-28.571
	c-0.811-1.585-1.482-3.242-1.977-4.952C191.945,320.691,192.743,321.097,193.851,321.498z M436.723,319.035
	c0.064,0.004,0.125,0.012,0.19,0.017v12.387c-6.794-0.351-13.646-0.961-20.222-2.797c-9.69-2.706-19.68-8.321-18.672-19.868
	C409.332,314.648,422.253,318.075,436.723,319.035z M436.913,210.582v91.609c-0.175-0.013-0.35-0.027-0.523-0.041
	c-18.912-1.575-36.9-9.06-49.761-23.28c-17.155-18.965-23.876-45.873-26.163-70.885c8.554-3.933,15.65-10.09,20.685-17.658
	c0.019,0.028,0.039,0.054,0.058,0.082c10.695,15.896,30.102,24.504,49.072,21.65C430.826,211.976,436.913,211.042,436.913,210.582z
	 M139.302,162.506v-24.655h66.596v6.161v18.493c0,18.361-14.937,33.298-33.298,33.298S139.302,180.867,139.302,162.506z
	 M222.703,144.012v-6.161H289.3v6.161v18.493c0,18.361-14.937,33.298-33.298,33.298l0,0c-18.361,0-33.298-14.937-33.298-33.298
	v-18.493H222.703z M306.102,144.012v-6.161h66.596v6.161v18.493c0,12.898-7.759,24.91-19.471,30.279
	c-4.333,1.987-9.06,3.019-13.828,3.019c-18.361,0-33.298-14.937-33.298-33.298v-18.493H306.102z M456.098,162.506
	c0,18.071-15.216,33.298-33.298,33.298c-18.13,0-33.298-15.173-33.298-33.298v-24.655h66.596
	C456.098,137.851,456.098,162.502,456.098,162.506z M456.098,121.048h-66.597V16.803h66.597V121.048z M372.699,121.048h-66.596
	V16.803h66.596V121.048z M289.299,121.048h-66.597V16.803h66.597V121.048z M205.899,121.048h-66.597V16.803h66.597V121.048z
	 M55.903,16.803h66.596v104.245H55.903C55.903,121.048,55.903,16.803,55.903,16.803z M55.903,137.851H122.5v24.655
	c0,18.361-14.938,33.298-33.299,33.298s-33.298-14.937-33.298-33.298V137.851z M89.201,212.607c17.377,0,32.71-8.896,41.701-22.368
	c5.098,7.64,12.237,13.799,20.631,17.707c-1.094,12.081-3.181,23.333-6.238,33.508c-1.335,4.444,1.185,9.129,5.628,10.464
	c0.807,0.242,1.62,0.357,2.421,0.357c3.613,0,6.95-2.349,8.043-5.986c3.13-10.417,5.327-21.795,6.587-33.903
	c1.525,0.14,3.067,0.222,4.628,0.222c17.377,0,32.71-8.896,41.7-22.368c8.99,13.473,24.324,22.368,41.701,22.368
	c17.377,0,32.71-8.896,41.7-22.368c8.99,13.473,24.323,22.368,41.7,22.368c1.56,0,3.102-0.082,4.626-0.222
	c2.04,19.421,7.262,43.817,19.992,64.246c5.416,8.692,11.75,16.063,18.971,22.114c-2.075,6.849-3.629,17.783,2.479,28.05
	c0.328,0.552,0.68,1.09,1.043,1.621c-2.928,4.566-7.236,11.82-11.903,21.479c-2.019,4.177-0.269,9.201,3.909,11.22
	c4.176,2.019,9.2,0.269,11.22-3.909c3.631-7.513,7.02-13.431,9.559-17.547c9.162,5.053,21.601,7.897,37.618,8.612v74.038H369.17
	c1.834-10.912,4.398-21.712,7.654-32.218c1.373-4.433-1.107-9.139-5.538-10.512s-9.139,1.107-10.512,5.538
	c-3.754,12.114-6.634,24.594-8.613,37.191H301.66v-61.238c3.877-1.802,7.561-3.832,10.989-6.106
	c16.315-10.82,25.3-25.555,25.3-41.492c0-2.69-0.269-5.406-0.8-8.079c-1.754-8.815-6.334-17.075-13.383-24.279
	c4.667-5.91,7.462-13.363,7.462-21.46c0-19.134-15.566-34.701-34.701-34.701c-18.059,0-32.933,13.869-34.548,31.514
	c-3.981-0.199-7.974-0.199-11.957,0c-1.615-17.644-16.489-31.514-34.548-31.514c-19.134,0-34.701,15.566-34.701,34.701
	c0,8.098,2.796,15.55,7.462,21.46c-7.047,7.203-11.627,15.46-13.383,24.279c-0.059,0.301-0.117,0.602-0.168,0.896
	c-0.42,2.376-0.632,4.793-0.632,7.184c0,15.937,8.985,30.672,25.3,41.492c3.428,2.273,7.112,4.304,10.989,6.106v61.238h-50.498
	c-4.828-30.662-14.246-55.096-21.575-70.601c-3.561-7.532-7.526-14.871-11.468-21.221c-0.462-0.744-0.888-1.429-1.299-2.086
	c0.358-0.525,0.706-1.059,1.031-1.605c6.117-10.28,4.549-21.228,2.471-28.076c5.39-4.514,10.29-9.763,14.686-15.744
	c2.748-3.739,1.944-8.997-1.797-11.744c-3.738-2.747-8.997-1.944-11.744,1.797c-11.567,15.748-29.228,25.616-48.448,28.431
	c-1.994,0.292-3.998,0.518-6.007,0.686c-0.202,0.017-0.403,0.033-0.605,0.048V210.57C79.567,211.888,84.3,212.607,89.201,212.607z"
	/>
<g>
</g>
<g>
</g>
<g>
</g>
<g>
</g>
<g>
</g>
<g>
</g>
<g>
</g>
<g>
</g>
<g>
</g>
<g>
</g>
<g>
</g>
<g>
</g>
<g>
</g>
<g>
</g>
<g>
</g>
</svg>
