<?xml version="1.0" encoding="iso-8859-1"?>
<!-- Generator: Adobe Illustrator 19.0.0, SVG Export Plug-In . SVG Version: 6.00 Build 0)  -->
<svg version="1.1" id="Layer_1" xmlns="http://www.w3.org/2000/svg" xmlns:xlink="http://www.w3.org/1999/xlink" x="0px" y="0px"
	 viewBox="0 0 512 512" style="enable-background:new 0 0 512 512;" xml:space="preserve">
<polyline style="fill:#FFBBA8;" points="199.145,504.087 199.145,362.543 312.856,362.543 312.856,504.087 "/>
<path style="opacity:0.1;enable-background:new    ;" d="M199.145,418.18c15.688,6.358,35.843,9.861,56.856,9.861
	s41.168-3.503,56.856-9.861v-55.637H199.145V418.18z"/>
<path style="fill:#7DBF62;" d="M322.978,374.046c0,15.253-29.988,27.618-66.979,27.618s-66.979-12.365-66.979-27.618V155.284
	h133.957v218.761H322.978z"/>
<g>
	<polygon style="fill:#FF6465;" points="256.001,207.122 322.978,235.441 256.001,263.759 189.022,235.441 	"/>
	<polygon style="fill:#FF6465;" points="256.001,292.924 322.978,321.243 256.001,349.562 189.022,321.243 	"/>
</g>
<path style="opacity:0.1;enable-background:new    ;" d="M189.022,203.135c20.615,5.586,43.437,8.563,66.978,8.563
	c23.54,0,46.363-2.976,66.979-8.563c0-16.354,0-47.851,0-47.851H189.022C189.022,155.285,189.022,186.781,189.022,203.135z"/>
<path style="fill:#8CD76E;" d="M127.432,109.322c-0.083,0.328-0.162,0.657-0.237,0.988c-0.584,2.584-0.889,5.212-0.889,7.876
	c0,37.079,58.066,67.136,129.694,67.136s129.694-30.057,129.694-67.136c0-3.005-0.387-5.963-1.127-8.863L256.001,90.84
	L127.432,109.322z"/>
<path style="fill:#B9E578;" d="M127.432,109.322c29.671,12.958,76.221,21.307,128.568,21.307s98.896-8.35,128.568-21.307
	c-8.381-32.888-62.745-58.273-128.568-58.273S135.813,76.434,127.432,109.322z"/>
<path style="opacity:0.1;enable-background:new    ;" d="M157.957,118.186c0-2.665,0.305-5.293,0.889-7.876
	c0.075-0.33,0.154-0.659,0.237-0.988c7.699-30.211,54.201-54.087,112.743-57.775c-5.188-0.327-10.468-0.498-15.826-0.498
	c-65.824,0-120.187,25.385-128.568,58.273c-0.084,0.329-0.164,0.657-0.237,0.988c-0.584,2.584-0.889,5.211-0.889,7.876
	c0,37.079,58.066,67.136,129.694,67.136c5.358,0,10.638-0.172,15.826-0.499C207.663,180.783,157.957,152.491,157.957,118.186z"/>
<g>
	<circle style="fill:#FFF7E6;" cx="206.389" cy="44.111" r="36.199"/>
	<circle style="fill:#FFF7E6;" cx="305.616" cy="44.111" r="36.199"/>
</g>
<circle cx="206.389" cy="34.615" r="13.747"/>
<circle cx="305.616" cy="34.615" r="13.747"/>
<path d="M330.891,374.046V181.495c37.999-13.218,62.716-36.399,62.716-63.309c0-3.606-0.462-7.246-1.372-10.817
	c-4.651-18.25-20.846-34.445-45.956-46.175c2.217-5.256,3.444-11.029,3.444-17.082C349.724,19.787,329.935,0,305.613,0
	c-24.023,0-43.608,19.306-44.088,43.217c-3.686-0.079-7.37-0.078-11.051,0C249.995,19.306,230.409,0,206.387,0
	c-24.322,0-44.111,19.787-44.111,44.111c0,6.054,1.227,11.826,3.444,17.082c-25.105,11.727-41.298,27.917-45.955,46.17
	c-0.102,0.4-0.198,0.799-0.288,1.2c-0.72,3.18-1.085,6.417-1.085,9.623c0,26.91,24.718,50.092,62.716,63.309v192.55
	c0,6.849,3.519,13.189,10.123,18.575v34.934c-0.322,25.776-0.322,50.842,0,76.63c0.054,4.336,3.586,7.814,7.911,7.814
	c0.034,0,0.068,0,0.101,0c4.37-0.055,7.869-3.641,7.814-8.011c-0.321-25.656-0.321-50.593,0-76.334v-25.982
	c14.121,5.793,31.896,8.42,53.068,7.85c0.107-0.003,0.214-0.006,0.321-0.01c5.486-0.146,12.052-1.395,11.694-8.464
	c-0.221-4.365-3.922-7.716-8.303-7.502c-2.609,0.132-5.226,0.206-7.838,0.206c-22.099,0-39.565-4.595-49.608-9.955
	c-0.098-0.056-0.203-0.107-0.301-0.162c-0.023-0.013-0.043-0.025-0.066-0.037c-0.865-0.501-1.707-1.021-2.523-1.559
	c-0.196-0.129-0.402-0.233-0.607-0.343c-3.863-2.626-5.961-5.314-5.961-7.647v-40.865l55.984,23.67
	c0.985,0.417,2.033,0.625,3.082,0.625s2.096-0.208,3.082-0.625l55.984-23.67v40.865c0,2.146-2.076,5.015-6.432,7.916
	c-0.044,0.027-0.093,0.045-0.136,0.074c-4.557,3.01-9.722,5.037-14.925,6.629c-4.179,1.28-6.529,5.705-5.25,9.883
	c1.28,4.179,5.705,6.529,9.883,5.249c2.046-0.627,4.07-1.323,6.07-2.085c0.211-0.08,0.433-0.157,0.641-0.238
	c-0.059,34.117-0.051,68.58,0.025,102.631c0.01,4.365,3.55,7.895,7.931,7.895c4.37-0.01,7.906-3.561,7.895-7.931
	c-0.082-37.001-0.083-74.478-0.006-111.479C327.345,387.214,330.891,380.884,330.891,374.046z M305.613,15.826
	c15.597,0,28.285,12.688,28.285,28.285c0,20.492-23.204,34.746-41.377,25.016c-9.082-4.863-15.193-14.67-15.193-25.016
	C277.328,28.514,290.016,15.826,305.613,15.826z M206.387,15.826c15.597,0,28.285,12.688,28.285,28.285
	c0,20.915-23.957,35.058-42.162,24.589c-8.681-4.991-14.407-14.539-14.407-24.589C178.102,28.514,190.791,15.826,206.387,15.826z
	 M134.322,120.579c0.058,0.021,0.118,0.041,0.176,0.062c12.287,4.483,25.027,7.698,37.846,10.239c4.282,0.85,8.45-1.937,9.299-6.224
	c0.849-4.287-1.937-8.451-6.225-9.299c-12.823-2.542-25.568-5.805-37.807-10.437c-0.034-0.014-0.066-0.026-0.1-0.039
	c5.724-11.447,18.723-22.129,36.996-30.301c0.317-0.137,2.56,2.44,2.854,2.699c1.721,1.509,3.557,2.886,5.489,4.112
	c0.117,0.073,0.231,0.151,0.348,0.223c10.537,6.523,23.74,8.31,35.629,4.809c11.79-3.471,21.744-11.944,27.178-22.952
	c0.176-0.358,1.663-4.357,1.874-4.37c5.432-0.181,10.795-0.181,16.239,0c2.086,5.765,5.443,11.097,9.681,15.521
	c0.034,0.035,0.066,0.071,0.1,0.106c14.265,14.648,37.486,17.697,54.906,6.883c0.108-0.066,0.212-0.137,0.32-0.205
	c3.013-1.899,5.89-4.234,8.367-6.824c18.272,8.172,31.272,18.854,36.996,30.3c0.047,0.095-19.279,6.213-21.074,6.685
	c-21.952,5.761-44.612,8.752-67.235,10.194c-10.047,0.64-20.113,0.959-30.181,0.959c-16.935,0-33.623-0.893-49.601-2.652
	c-4.338-0.477-8.253,2.656-8.732,6.999c-0.478,4.344,2.656,8.254,6.999,8.732c16.551,1.823,33.822,2.747,51.333,2.747
	c38.799,0,78.587-3.714,115.622-15.869c0.391-0.129,6.021-1.684,6.056-2.093c-2.246,26.124-34.837,40.426-56.16,47.21
	c-21.108,6.715-43.401,9.618-65.518,9.618c-35.219,0-72.828-5.671-101.785-27.194c-7.467-5.551-14.408-12.459-17.881-21.257
	C135.999,128.111,134.534,120.654,134.322,120.579z M255.999,193.235c21.265,0,41.256-2.508,59.066-7.016v37.284l-55.984-23.67
	c-1.97-0.833-4.194-0.833-6.164,0l-55.984,23.67v-37.284C214.745,190.727,234.735,193.235,255.999,193.235z M302.659,235.441
	l-46.66,19.728l-46.66-19.728l46.66-19.727L302.659,235.441z M255.999,340.971l-46.66-19.727l46.66-19.727l46.66,19.727
	L255.999,340.971z M259.081,285.636c-1.97-0.833-4.194-0.833-6.164,0l-55.984,23.67v-61.928l55.984,23.671
	c0.985,0.417,2.033,0.625,3.082,0.625c1.049,0,2.096-0.208,3.082-0.625l55.984-23.671v61.929L259.081,285.636z"/>
<g>
</g>
<g>
</g>
<g>
</g>
<g>
</g>
<g>
</g>
<g>
</g>
<g>
</g>
<g>
</g>
<g>
</g>
<g>
</g>
<g>
</g>
<g>
</g>
<g>
</g>
<g>
</g>
<g>
</g>
</svg>
