<?xml version="1.0" encoding="iso-8859-1"?>
<!-- Generator: Adobe Illustrator 19.0.0, SVG Export Plug-In . SVG Version: 6.00 Build 0)  -->
<svg version="1.1" id="Layer_1" xmlns="http://www.w3.org/2000/svg" xmlns:xlink="http://www.w3.org/1999/xlink" x="0px" y="0px"
	 viewBox="0 0 512 512" style="enable-background:new 0 0 512 512;" xml:space="preserve">
<path style="fill:#CC9475;" d="M287.945,378.951L107.601,73.054c-11.999-20.351-5.227-46.576,15.125-58.574
	s46.576-5.227,58.574,15.125c0.822,1.395,1.653,3.045,2.301,4.489l143.077,325.002c4.851,11.019-0.149,23.886-11.169,28.737
	C305.285,392.334,293.472,388.35,287.945,378.951z"/>
<path style="opacity:0.1;enable-background:new    ;" d="M130.375,84.44c-11.999-20.351-5.227-46.575,15.125-58.574
	c8.967-5.287,19.074-6.926,28.602-5.368c-13.488-12.987-34.458-15.993-51.377-6.019c-20.351,11.999-27.122,38.222-15.125,58.574
	L287.945,378.95c4.582,7.792,13.482,11.843,22.218,10.443L130.375,84.44z"/>
<path style="fill:#E6E8FF;" d="M380.36,409.891l-7.555-3.141c-18.148-7.543-29.975-25.266-29.975-44.919v-17.238h-66.028v17.238
	c0,19.653-11.826,37.376-29.975,44.919l-7.555,3.141c-18.148,7.543-29.975,25.266-29.975,44.919l0,0
	c0,26.866,21.779,48.645,48.645,48.645h103.745c26.866,0,48.645-21.779,48.645-48.645l0,0
	C410.334,435.157,398.508,417.433,380.36,409.891z"/>
<path style="fill:#363640;" d="M367.248,441.435l-7.557-3.141c-11.275-4.687-21.097-11.642-29.033-20.209h-41.683
	c-7.937,8.567-17.758,15.522-29.034,20.209l-7.557,3.141c-5.42,2.254-8.923,7.503-8.923,13.373c0,7.987,6.498,14.485,14.483,14.485
	h103.743c7.986,0,14.483-6.498,14.483-14.485C376.172,448.939,372.669,443.689,367.248,441.435z"/>
<path style="opacity:0.1;enable-background:new    ;" d="M269.671,395.239h80.293c1.976,0,3.921-0.125,5.838-0.347
	c-8.169-8.819-12.97-20.546-12.97-33.062v-17.238h-66.028v17.238c0,12.515-4.801,24.242-12.971,33.062
	C265.75,395.113,267.695,395.239,269.671,395.239z"/>
<path style="fill:#E6E8FF;" d="M349.963,322.414h-80.293c-12.249,0-22.179,9.93-22.179,22.179l0,0
	c0,12.249,9.93,22.179,22.179,22.179h80.293c12.249,0,22.179-9.93,22.179-22.179l0,0
	C372.141,332.343,362.211,322.414,349.963,322.414z"/>
<path d="M361.696,477.839c12.694,0,23.024-10.328,23.024-23.025c0-9.333-5.569-17.678-14.187-21.26l-7.555-3.141
	c-9.985-4.151-18.749-10.25-26.046-18.126c-1.617-1.745-3.886-2.736-6.265-2.736h-41.683c-2.379,0-4.648,0.992-6.265,2.736
	c-7.297,7.877-16.061,13.974-26.046,18.126l-7.558,3.141c-8.617,3.582-14.185,11.927-14.185,21.26
	c0,12.696,10.328,23.025,23.024,23.025H361.696z M252.009,454.814c0-2.408,1.437-4.563,3.66-5.486l7.558-3.141
	c11.089-4.611,20.956-11.179,29.38-19.555h34.435c8.424,8.376,18.291,14.946,29.38,19.555l7.557,3.141
	c2.224,0.925,3.661,3.078,3.661,5.486c0,3.277-2.666,5.944-5.943,5.944H257.953C254.675,460.758,252.009,458.092,252.009,454.814z"
	/>
<path d="M123.47,116.779c0.064,0.116,0.132,0.229,0.202,0.342l50.069,84.927c0.017,0.031,0.035,0.06,0.054,0.091l25.06,42.507
	c0.011,0.021,0.024,0.041,0.035,0.06l25.029,42.455c0.047,0.085,0.098,0.167,0.148,0.251l22.084,37.461
	c-4.485,5.341-7.193,12.221-7.193,19.725c0,15.696,11.836,28.673,27.052,30.492c-2.858,8.185-8.315,15.279-15.73,20.184
	c-3.934,2.602-5.015,7.9-2.413,11.835c2.602,3.934,7.9,5.014,11.835,2.413c12.18-8.054,20.674-20.251,24.04-34.204h52.171
	c4.249,17.58,16.625,32.26,33.622,39.325l7.555,3.141c15.012,6.239,24.711,20.776,24.711,37.034c0,7.19-1.93,14.247-5.582,20.406
	c-2.405,4.057-1.067,9.297,2.99,11.702c1.366,0.81,2.867,1.196,4.348,1.196c2.917,0,5.76-1.495,7.354-4.187
	c5.214-8.796,7.971-18.863,7.971-29.117c0-23.181-13.831-43.909-35.236-52.806l-7.555-3.141
	c-10.671-4.436-18.724-13.159-22.436-23.781c15.207-1.827,27.036-14.799,27.036-30.49c0-16.939-13.781-30.719-30.719-30.719h-33.862
	l-26.528-60.259l-0.001-0.001l-19.915-45.238c-0.002-0.003-0.003-0.009-0.006-0.013l-19.909-45.227
	c-0.003-0.008-0.007-0.016-0.011-0.024l-39.831-90.478c-0.001-0.003-0.002-0.006-0.003-0.009l-10.452-23.744
	c-1.901-4.317-6.942-6.276-11.257-4.375c-4.317,1.901-6.276,6.941-4.375,11.257l8.703,19.771l-14.175,23.188L158.847,60.69
	c-2.152-4.197-7.299-5.856-11.497-3.704s-5.856,7.299-3.704,11.497l19.498,38.035l-27.09-2.027L114.965,68.72
	c-4.645-7.878-5.943-17.092-3.656-25.947s7.883-16.288,15.761-20.933c13.501-7.959,30.632-5.765,41.659,5.337
	c3.325,3.346,8.733,3.364,12.077,0.04c3.346-3.324,3.365-8.732,0.04-12.078c-16.534-16.645-42.215-19.94-62.45-8.01
	c-11.807,6.961-20.198,18.103-23.625,31.376c-3.426,13.272-1.48,27.083,5.481,38.892L123.47,116.779z M232.358,166.032
	l-10.612,17.359l-12.569-24.52l11.643-19.047L232.358,166.032z M252.278,211.278l-8.83,14.446l-12.569-24.52l9.862-16.132
	L252.278,211.278z M272.196,256.524l-7.049,11.531l-12.569-24.52l8.08-13.218L272.196,256.524z M292.116,301.771l-5.267,8.616
	l-12.569-24.519l6.298-10.304L292.116,301.771z M267.043,313.996c-2.25,0.191-4.463,0.645-6.621,1.31
	c-0.024,0.007-0.048,0.013-0.071,0.019l-13.305-22.567l12.032,0.901l10.368,20.226C268.646,313.89,267.843,313.928,267.043,313.996z
	 M228.247,233.515l-16.871-1.262l-14.543-24.668l18.845,1.411L228.247,233.515z M237.379,251.327l12.57,24.52l-13.465-1.008
	l-14.543-24.668L237.379,251.327z M206.547,191.183l-20.277-1.518l-14.543-24.668l22.251,1.665L206.547,191.183z M363.609,344.597
	c0,7.52-6.118,13.638-13.638,13.638h-80.294c-7.52,0-13.638-6.118-13.638-13.638c0-5.138,2.997-9.915,7.585-12.208
	c1.86-0.93,3.973-1.429,6.052-1.429h80.294C357.49,330.959,363.609,337.077,363.609,344.597z M200.902,94.577l11.538,26.208
	l-12.394,20.274l-12.57-24.52L200.902,94.577z M172.276,124.33l12.57,24.52l-23.684-1.772l-14.543-24.668L172.276,124.33z"/>
<path d="M230.415,413.81c-3.268-3.4-8.675-3.51-12.075-0.241c-11.169,10.73-17.574,25.764-17.574,41.246
	c0,31.532,25.653,57.186,57.186,57.186h103.743c6.027,0,11.988-0.946,17.72-2.813c4.484-1.461,6.937-6.28,5.477-10.766
	c-1.462-4.487-6.287-6.936-10.766-5.476c-4.02,1.308-8.202,1.972-12.43,1.972H257.953c-22.114,0-40.105-17.991-40.105-40.105
	c0-10.859,4.492-21.402,12.327-28.929C233.577,422.618,233.684,417.211,230.415,413.81z"/>
<g>
</g>
<g>
</g>
<g>
</g>
<g>
</g>
<g>
</g>
<g>
</g>
<g>
</g>
<g>
</g>
<g>
</g>
<g>
</g>
<g>
</g>
<g>
</g>
<g>
</g>
<g>
</g>
<g>
</g>
</svg>
