<?xml version="1.0" encoding="iso-8859-1"?>
<!-- Generator: Adobe Illustrator 19.0.0, SVG Export Plug-In . SVG Version: 6.00 Build 0)  -->
<svg version="1.1" id="Layer_1" xmlns="http://www.w3.org/2000/svg" xmlns:xlink="http://www.w3.org/1999/xlink" x="0px" y="0px"
	 viewBox="0 0 512 512" style="enable-background:new 0 0 512 512;" xml:space="preserve">
<polygon style="fill:#FF6465;" points="447.455,350.695 314.457,108.469 197.545,108.469 64.545,350.695 "/>
<path style="fill:#D6B56D;" d="M447.455,179.145c-7.304,2.622-15.859,5.282-25.888,7.883
	c-44.944,11.654-103.743,18.073-165.567,18.073c-61.823,0-120.622-6.419-165.566-18.073c-10.03-2.601-18.585-5.262-25.889-7.883
	v47.363c2.27,0.685,4.569,1.364,6.93,2.027c49.587,13.916,115.12,21.58,184.526,21.58s134.937-7.665,184.526-21.58
	c2.361-0.663,4.66-1.341,6.93-2.027V179.145z"/>
<path style="opacity:0.1;enable-background:new    ;" d="M114.109,192.428c-8.243-1.651-16.156-3.45-23.675-5.399
	c-10.03-2.602-18.585-5.262-25.889-7.883v47.363c2.27,0.685,4.569,1.363,6.93,2.026c13.161,3.693,27.453,6.941,42.634,9.728V192.428
	z"/>
<rect x="43.111" y="122.164" style="fill:#FFD782;" width="42.864" height="296.387"/>
<rect x="43.111" y="122.164" style="opacity:0.1;enable-background:new    ;" width="22.506" height="296.387"/>
<path style="fill:#D6B56D;" d="M64.545,386.677L64.545,386.677c-30.986,0-56.105,25.119-56.105,56.105V444h112.21v-1.218
	C120.65,411.795,95.531,386.677,64.545,386.677z"/>
<path style="opacity:0.1;enable-background:new    ;" d="M75.798,387.807c-3.636-0.74-7.399-1.13-11.253-1.13l0,0
	c-30.986,0-56.105,25.119-56.105,56.105v1.219h22.506v-1.219C30.946,415.649,50.206,393.017,75.798,387.807z"/>
<circle style="fill:#D6B56D;" cx="64.548" cy="108.469" r="40.469"/>
<path style="opacity:0.1;enable-background:new    ;" d="M46.583,108.469c0-18.444,12.344-33.995,29.216-38.872
	C72.224,68.564,68.452,68,64.545,68c-22.35,0-40.469,18.119-40.469,40.469s18.119,40.469,40.469,40.469
	c3.907,0,7.679-0.565,11.253-1.598C58.925,142.464,46.583,126.913,46.583,108.469z"/>
<path style="opacity:0.1;enable-background:new    ;" d="M397.891,192.428v45.833c15.181-2.786,29.474-6.034,42.634-9.728
	c2.361-0.663,4.66-1.34,6.93-2.026v-47.363c-7.304,2.622-15.859,5.282-25.888,7.883
	C414.049,188.978,406.134,190.777,397.891,192.428z"/>
<rect x="426.024" y="122.164" style="fill:#FFD782;" width="42.864" height="296.387"/>
<rect x="446.381" y="122.164" style="opacity:0.1;enable-background:new    ;" width="22.506" height="296.387"/>
<circle style="fill:#D6B56D;" cx="447.45" cy="108.469" r="40.469"/>
<path style="opacity:0.1;enable-background:new    ;" d="M465.418,108.469c0-18.444-12.344-33.995-29.216-38.872
	c3.574-1.033,7.346-1.597,11.253-1.597c22.35,0,40.469,18.119,40.469,40.469s-18.119,40.469-40.469,40.469
	c-3.907,0-7.679-0.565-11.253-1.598C453.075,142.464,465.418,126.913,465.418,108.469z"/>
<path style="fill:#D6B56D;" d="M447.455,386.677L447.455,386.677c30.986,0,56.105,25.119,56.105,56.105V444H391.35v-1.218
	C391.351,411.795,416.469,386.677,447.455,386.677z"/>
<path style="opacity:0.1;enable-background:new    ;" d="M436.202,387.807c3.636-0.74,7.399-1.13,11.253-1.13l0,0
	c30.986,0,56.105,25.119,56.105,56.105v1.219h-22.506v-1.219C481.054,415.649,461.795,393.017,436.202,387.807z"/>
<path d="M512,444v-1.219c0-24.817-14.087-46.393-34.675-57.19v-96.169c0-4.661-3.778-8.44-8.44-8.44s-8.44,3.779-8.44,8.44v90.124
	c-0.019-0.958-12.413-1.31-12.991-1.31c-4.343,0-8.736,0.439-12.991,1.31V155.625c0.081,0.023,0.164,0.037,0.245,0.059
	c4.15,1.102,8.45,1.695,12.745,1.695c4.287,0,8.604-0.576,12.743-1.694c0.082-0.023,0.165-0.037,0.248-0.06v100.038
	c0,4.661,3.778,8.44,8.44,8.44c4.662,0,8.44-3.779,8.44-8.44V147.157c11.568-8.953,19.038-22.96,19.038-38.687
	c0-26.969-21.94-48.91-48.909-48.91c-26.969,0-48.91,21.94-48.91,48.91c0,15.727,7.47,29.734,19.039,38.687v32.173
	c-15.026,3.815-31.591,7.046-49.298,9.644l-15.621-28.45c-2.243-4.085-7.373-5.58-11.46-3.337c-4.086,2.243-5.579,7.374-3.337,11.46
	l12.46,22.693c-27.573,3.251-57.537,5.062-87.71,5.292c-0.208,0.001-0.414,0.005-0.622,0.007c-1.999,0.013-3.998,0.021-5.998,0.021
	c-2,0-3.999-0.007-5.998-0.021c-0.212-0.001-0.422-0.005-0.632-0.007c-30.173-0.232-60.132-2.041-87.7-5.292l40.869-74.432H309.46
	l9.871,17.979c2.244,4.086,7.376,5.58,11.46,3.337c4.086-2.243,5.579-7.374,3.337-11.46l-12.275-22.357
	c-1.482-2.7-4.318-4.379-7.398-4.379H197.545c-3.08,0-5.916,1.678-7.398,4.379l-46.434,84.567
	c-17.707-2.599-34.272-5.829-49.298-9.644v-32.173c11.569-8.953,19.039-22.961,19.039-38.689c0-26.968-21.94-48.909-48.909-48.909
	c-3.235,0-6.484,0.323-9.655,0.958c-4.57,0.916-7.532,5.364-6.616,9.934c0.915,4.57,5.361,7.532,9.934,6.617
	c2.081-0.417,4.213-0.629,6.337-0.629c17.661,0,32.029,14.368,32.029,32.029c0,17.244-14.76,32.029-32.029,32.029
	c-17.446,0-32.03-14.62-32.03-32.029c0-5.378,1.358-10.695,3.927-15.375c2.243-4.086,0.749-9.216-3.337-11.46
	c-4.091-2.245-9.218-0.748-11.46,3.337c-3.933,7.164-6.011,15.29-6.011,23.499c0,15.727,7.469,29.734,19.038,38.687v238.435
	C14.086,396.391,0,417.965,0,442.782v1.219c0,4.661,3.778,8.44,8.44,8.44h112.21c4.662,0,8.44-3.779,8.44-8.44v-1.219
	c0-24.817-14.086-46.393-34.675-57.19v-26.457h323.17v26.457c-20.589,10.797-34.675,32.373-34.675,57.19v1.219
	c0,4.661,3.778,8.44,8.44,8.44h112.211C508.222,452.44,512,448.661,512,444z M447.455,76.439c17.661,0,32.029,14.369,32.029,32.03
	c0,15.714-11.924,29.417-27.448,31.688c-16.831,2.462-33.32-9.584-36.167-26.354c-0.07-0.41-0.131-0.821-0.183-1.234
	c-2.104-16.387,9.453-32.41,25.68-35.55C443.371,76.632,445.414,76.439,447.455,76.439z M417.584,278.756l-17.726-32.283
	c6.063-1.114,11.973-2.302,17.726-3.559V278.756z M94.414,242.919c5.756,1.261,11.67,2.448,17.722,3.564l-17.722,32.274V242.919z
	 M111.665,435.56c0,0-94.236,0-94.238,0c-0.023,0,1.295-5.929,1.46-6.475c5.951-19.799,25.026-33.97,45.682-33.968
	c19.229,0.002,37.049,12.111,44.221,29.929C110.148,428.425,111.114,431.96,111.665,435.56z M64.544,378.237
	c-4.343,0-8.736,0.438-12.991,1.311V155.624c0.079,0.023,0.161,0.036,0.24,0.057c4.143,1.121,8.459,1.697,12.752,1.697
	c4.298,0,8.605-0.584,12.754-1.698c0.078-0.021,0.158-0.035,0.235-0.056c0,0,0,223.921,0,223.922
	C77.53,378.642,65.041,378.237,64.544,378.237z M94.414,342.255v-28.427l35.341-64.365c6.632,1.024,13.416,1.965,20.339,2.823
	c0.069,0.008,0.136,0.017,0.205,0.025c7.011,0.903,14.049,1.644,21.085,2.315c10.921,1.041,12.17-15.793,1.61-16.804
	c-15.517-1.487-31.036-3.36-46.409-5.959c-0.024-0.003-0.046-0.002-0.069-0.006c-11.188-1.837-21.907-3.915-32.102-6.231v-28.898
	c16.116,3.909,33.833,7.18,52.69,9.769c0.018,0.002,0.035,0.008,0.053,0.01c0.209,0.029,0.423,0.055,0.634,0.084
	c23.53,3.205,47.215,5.163,70.939,6.165c12.416,0.524,24.844,0.784,37.27,0.784c22.427,0,44.86-0.828,67.218-2.586
	c11.754-0.924,23.493-2.093,35.188-3.598c0.142-0.018,0.282-0.037,0.424-0.055c19.742-2.53,39.407-5.88,58.754-10.574v28.898
	c0,1.006-21.67,4.416-23.749,4.786c-44.959,8.016-90.678,11.191-136.313,11.261c-17.055,0.026-34.101-0.452-51.132-1.348
	c-10.721-0.589-11.833,16.258-0.926,16.856c16.588,0.911,33.591,1.373,50.534,1.373c15.379,0,30.756-1.156,46.116-1.156
	c0.23-0.011,0.459-0.023,0.689-0.034c27.768-1.413,54.629-4.071,79.439-7.903l35.342,64.367v28.427H94.414V342.255z M400.335,435.56
	c0.016,0,0.885-4.401,0.991-4.809c4.873-18.666,21.263-32.993,40.428-35.284c6.927-0.828,13.993-0.141,20.62,2.049
	c16.808,5.551,29.527,20.538,32.199,38.044C494.574,435.56,400.338,435.56,400.335,435.56z"/>
<g>
</g>
<g>
</g>
<g>
</g>
<g>
</g>
<g>
</g>
<g>
</g>
<g>
</g>
<g>
</g>
<g>
</g>
<g>
</g>
<g>
</g>
<g>
</g>
<g>
</g>
<g>
</g>
<g>
</g>
</svg>
