<?xml version="1.0" encoding="iso-8859-1"?>
<!-- Generator: Adobe Illustrator 19.0.0, SVG Export Plug-In . SVG Version: 6.00 Build 0)  -->
<svg version="1.1" id="Layer_1" xmlns="http://www.w3.org/2000/svg" xmlns:xlink="http://www.w3.org/1999/xlink" x="0px" y="0px"
	 viewBox="0 0 512 512" style="enable-background:new 0 0 512 512;" xml:space="preserve">
<rect x="7.781" y="65.082" style="fill:#363640;" width="496.444" height="381.831"/>
<g>
	<rect x="91.757" y="127.332" style="fill:#D3D7FF;" width="328.493" height="257.331"/>
	<rect x="32.38" y="378.698" style="fill:#D3D7FF;" width="32.693" height="32.693"/>
	<rect x="32.38" y="100.606" style="fill:#D3D7FF;" width="32.693" height="32.693"/>
	<rect x="32.38" y="193.307" style="fill:#D3D7FF;" width="32.693" height="32.693"/>
	<rect x="32.38" y="285.997" style="fill:#D3D7FF;" width="32.693" height="32.693"/>
	<rect x="446.924" y="378.698" style="fill:#D3D7FF;" width="32.693" height="32.693"/>
	<rect x="446.924" y="100.606" style="fill:#D3D7FF;" width="32.693" height="32.693"/>
	<rect x="446.924" y="193.307" style="fill:#D3D7FF;" width="32.693" height="32.693"/>
	<rect x="446.924" y="285.997" style="fill:#D3D7FF;" width="32.693" height="32.693"/>
</g>
<polygon style="fill:#363640;" points="232.138,295.505 232.138,216.495 302.742,256 "/>
<path d="M395.652,446.918c0-4.297-3.483-7.781-7.781-7.781H15.563V72.864h94.797c4.298,0,7.781-3.484,7.781-7.781
	s-3.483-7.781-7.781-7.781H7.781C3.483,57.301,0,60.785,0,65.082v381.835c0,4.297,3.483,7.781,7.781,7.781H387.87
	C392.168,454.699,395.652,451.215,395.652,446.918z"/>
<path d="M504.219,57.301H141.485c-4.298,0-7.781,3.484-7.781,7.781c0,4.297,3.483,7.781,7.781,7.781h354.953v366.273h-77.443
	c-4.298,0-7.781,3.484-7.781,7.781c0,4.297,3.483,7.781,7.781,7.781h85.224c4.298,0,7.781-3.484,7.781-7.781V65.082
	C512,60.785,508.517,57.301,504.219,57.301z"/>
<path d="M154.998,384.669c0,4.297,3.483,7.781,7.781,7.781h257.466c4.298,0,7.781-3.484,7.781-7.781V127.332
	c0-4.297-3.483-7.781-7.781-7.781H91.754c-4.298,0-7.781,3.484-7.781,7.781v257.336c0,4.297,3.483,7.781,7.781,7.781h39.901
	c4.298,0,7.781-3.484,7.781-7.781c0-4.297-3.483-7.781-7.781-7.781h-32.12V263.781h49.948c4.298,0,7.781-3.483,7.781-7.781
	c0-4.297-3.483-7.781-7.781-7.781H99.536V135.114H248.22v14.369c0,4.297,3.483,7.781,7.781,7.781c4.298,0,7.781-3.484,7.781-7.781
	v-14.369h148.684v113.105h-49.948c-4.298,0-7.781,3.484-7.781,7.781c0,4.298,3.483,7.781,7.781,7.781h49.948v113.106H263.782v-14.37
	c0-4.297-3.483-7.781-7.781-7.781s-7.781,3.484-7.781,7.781v14.37h-85.439C158.482,376.887,154.998,380.371,154.998,384.669z"/>
<path d="M65.076,370.916H32.383c-4.298,0-7.781,3.484-7.781,7.781v32.693c0,4.297,3.483,7.781,7.781,7.781h32.693
	c4.298,0,7.781-3.484,7.781-7.781v-32.693C72.857,374.4,69.373,370.916,65.076,370.916z M57.295,403.608h-17.13v-17.13h17.13
	V403.608z"/>
<path d="M72.857,100.611c0-4.297-3.483-7.781-7.781-7.781H32.383c-4.298,0-7.781,3.484-7.781,7.781v32.693
	c0,4.297,3.483,7.781,7.781,7.781h32.693c4.298,0,7.781-3.484,7.781-7.781V100.611z M57.295,125.522h-17.13v-17.13h17.13V125.522z"
	/>
<path d="M72.857,193.306c0-4.297-3.483-7.781-7.781-7.781H32.383c-4.298,0-7.781,3.484-7.781,7.781v32.693
	c0,4.298,3.483,7.781,7.781,7.781h32.693c4.298,0,7.781-3.483,7.781-7.781V193.306z M57.295,218.217h-17.13v-17.13h17.13V218.217z"
	/>
<path d="M72.857,286.001c0-4.298-3.483-7.781-7.781-7.781H32.383c-4.298,0-7.781,3.483-7.781,7.781v32.693
	c0,4.297,3.483,7.781,7.781,7.781h32.693c4.298,0,7.781-3.484,7.781-7.781V286.001z M57.295,310.913h-17.13v-17.13h17.13V310.913z"
	/>
<path d="M439.143,411.389c0,4.297,3.483,7.781,7.781,7.781h32.694c4.298,0,7.781-3.484,7.781-7.781v-32.693
	c0-4.297-3.483-7.781-7.781-7.781h-32.694c-4.298,0-7.781,3.484-7.781,7.781V411.389z M454.705,386.478h17.131v17.13h-17.131
	V386.478z"/>
<path d="M446.924,141.084h32.694c4.298,0,7.781-3.484,7.781-7.781v-32.693c0-4.297-3.483-7.781-7.781-7.781h-32.694
	c-4.298,0-7.781,3.484-7.781,7.781v32.693C439.143,137.6,442.626,141.084,446.924,141.084z M454.705,108.392h17.131v17.13h-17.131
	V108.392z"/>
<path d="M439.143,225.999c0,4.298,3.483,7.781,7.781,7.781h32.694c4.298,0,7.781-3.483,7.781-7.781v-32.693
	c0-4.297-3.483-7.781-7.781-7.781h-32.694c-4.298,0-7.781,3.484-7.781,7.781V225.999z M454.705,201.087h17.131v17.13h-17.131
	V201.087z"/>
<path d="M439.143,318.694c0,4.297,3.483,7.781,7.781,7.781h32.694c4.298,0,7.781-3.484,7.781-7.781v-32.693
	c0-4.298-3.483-7.781-7.781-7.781h-32.694c-4.298,0-7.781,3.483-7.781,7.781V318.694z M454.705,293.783h17.131v17.13h-17.131
	V293.783z"/>
<path d="M310.524,256c0-2.818-1.523-5.415-3.982-6.79l-70.605-39.505c-2.408-1.348-5.351-1.319-7.736,0.078
	c-2.382,1.396-3.845,3.952-3.845,6.713v79.01c0,2.761,1.463,5.316,3.845,6.713c1.215,0.713,2.575,1.069,3.936,1.069
	c1.309,0,2.618-0.33,3.799-0.991l70.605-39.505C309.001,261.415,310.524,258.818,310.524,256z M239.919,282.235v-52.471L286.807,256
	L239.919,282.235z"/>
<path d="M341.594,256c0-47.197-38.398-85.594-85.594-85.594S170.406,208.803,170.406,256s38.398,85.594,85.594,85.594
	S341.594,303.197,341.594,256z M185.969,256c0-38.616,31.415-70.031,70.031-70.031s70.031,31.415,70.031,70.031
	S294.616,326.031,256,326.031S185.969,294.616,185.969,256z"/>
<g>
</g>
<g>
</g>
<g>
</g>
<g>
</g>
<g>
</g>
<g>
</g>
<g>
</g>
<g>
</g>
<g>
</g>
<g>
</g>
<g>
</g>
<g>
</g>
<g>
</g>
<g>
</g>
<g>
</g>
</svg>
