<?xml version="1.0" encoding="iso-8859-1"?>
<!-- Generator: Adobe Illustrator 19.0.0, SVG Export Plug-In . SVG Version: 6.00 Build 0)  -->
<svg version="1.1" id="Layer_1" xmlns="http://www.w3.org/2000/svg" xmlns:xlink="http://www.w3.org/1999/xlink" x="0px" y="0px"
	 viewBox="0 0 512.001 512.001" style="enable-background:new 0 0 512.001 512.001;" xml:space="preserve">
<polygon style="fill:#4F505E;" points="296.87,226.894 296.87,291.443 497.616,291.443 433.068,226.894 "/>
<path style="fill:#787A8F;" d="M433.068,226.894h-32.389c35.649,0,64.548,28.9,64.548,64.548l0,0h32.389l0,0
	C497.616,255.794,468.717,226.894,433.068,226.894z"/>
<path style="fill:#464754;" d="M154.224,8.097H92.381c-43.078,0-78,34.921-78,78v205.345h139.843V8.097H154.224z"/>
<path style="fill:#585969;" d="M352.656,273.274H296.87v230.628h177.443V394.93C474.312,327.742,419.845,273.274,352.656,273.274z"
	/>
<path style="fill:#6D6E82;" d="M352.656,273.274h-32.389c67.189,0,121.656,54.467,121.656,121.656v108.972h32.389V394.93
	C474.312,327.742,419.845,273.274,352.656,273.274z"/>
<path style="fill:#D7565A;" d="M237.659,8.097H135.567c-43.078,0-78,34.921-78,78v205.345h258.092V86.097
	C315.66,43.019,280.739,8.097,237.659,8.097z"/>
<g>
	<path style="fill:#FF7374;" d="M237.659,8.097H205.27c43.078,0,78,34.921,78,78v205.345h32.389V86.098
		C315.66,43.019,280.739,8.097,237.659,8.097z"/>
	<polygon style="fill:#FF7374;" points="334.241,323.874 136.647,323.874 136.647,356.307 136.647,503.903 410.628,503.903 
		410.628,356.307 	"/>
</g>
<polygon style="fill:#FF8F90;" points="334.241,323.874 301.851,323.874 378.238,356.306 378.238,503.902 410.628,503.902 
	410.628,356.306 "/>
<path style="fill:#FF6465;" d="M345.764,291.443H84.303v64.864h326.325l0,0C410.628,320.483,381.588,291.443,345.764,291.443z"/>
<path style="fill:#FF8080;" d="M345.764,291.442h-32.389c35.824,0,64.864,29.04,64.864,64.864l0,0h32.389l0,0
	C410.628,320.483,381.588,291.442,345.764,291.442z"/>
<path style="fill:#585969;" d="M70.168,273.274H14.381v230.628h177.443V394.93C191.824,327.742,137.357,273.274,70.168,273.274z"/>
<path style="fill:#6D6E82;" d="M70.168,273.274H37.779c67.189,0,121.656,54.467,121.656,121.656v108.972h32.389V394.93
	C191.824,327.742,137.357,273.274,70.168,273.274z"/>
<polygon style="fill:#4F505E;" points="14.381,226.894 14.381,291.443 215.128,291.443 150.58,226.894 "/>
<path style="fill:#787A8F;" d="M150.58,226.894h-32.389c35.649,0,64.548,28.9,64.548,64.548l0,0h32.389l0,0
	C215.128,255.794,186.229,226.894,150.58,226.894z"/>
<path d="M433.07,218.796H323.758V86.098C323.758,38.623,285.135,0,237.659,0H135.567H92.381C44.907,0,6.284,38.623,6.284,86.098
	v140.797v64.548v90.979c0,4.472,3.625,8.097,8.097,8.097s8.097-3.625,8.097-8.097V299.54h109.265
	c0.607,0.392,1.218,0.777,1.816,1.18c0.227,0.153,0.457,0.302,0.683,0.457c20.356,13.942,35.735,34.199,43.588,57.567
	c0.029,0.103,0.048,0.207,0.082,0.309c3.83,11.534,5.815,23.723,5.815,35.879v100.875H22.479v-80.994
	c0-4.472-3.625-8.097-8.097-8.097s-8.097,3.625-8.097,8.097v89.092c0,4.472,3.625,8.097,8.097,8.097h177.444h218.804h63.684
	c4.472,0,8.097-3.625,8.097-8.097v-57.646c0-4.472-3.625-8.097-8.097-8.097c-4.472,0-8.097,3.625-8.097,8.097v49.548h-47.489
	V356.307c0-40.231-32.731-72.962-72.962-72.962h-22.006v-1.974h28.899c23.485,0,46.716,7.441,65.825,21.079
	c16.249,11.596,29.348,27.455,37.614,45.63c6.673,14.675,10.121,30.731,10.121,46.849v18.937c0,4.472,3.625,8.097,8.097,8.097
	c4.472,0,8.097-3.625,8.097-8.097V394.93c0-37.685-16.154-71.664-41.895-95.391h57.103c4.472,0,8.097-3.625,8.097-8.097
	C505.715,251.386,473.126,218.796,433.07,218.796z M22.479,234.991h35.089c0,0,93.009,0,93.014,0
	c20.796,0,40.754,12.217,50.221,30.726c2.782,5.438,4.704,11.32,5.606,17.364c0.013,0.087,0.022,0.176,0.033,0.263h-72.301H22.479
	V234.991z M199.921,394.93c0-10.266-1.209-20.543-3.598-30.526h206.208v131.401H199.921V394.93z M345.764,299.539
	c10.763,0,21.456,3.207,30.542,8.948c8.539,5.396,15.412,13.179,20.052,22.116c2.811,5.414,4.639,11.294,5.548,17.321
	c0.014,0.094,0.023,0.19,0.037,0.285H191.301c-7.088-18.462-18.356-35.107-33.126-48.67h56.953H315.66H345.764z M222.778,283.344
	c0.036,0-1.497-8.752-1.677-9.475c-5.026-20.24-19.195-37.774-37.756-47.211c-10.098-5.134-21.435-7.862-32.763-7.862H65.665V162.44
	c0-4.472-3.625-8.097-8.097-8.097s-8.097,3.625-8.097,8.097v56.357H22.479V86.098c0-35.98,27.327-65.699,62.314-69.494
	c-0.158,0.116-0.311,0.236-0.469,0.353c-0.19,0.141-0.378,0.285-0.566,0.428C62.632,33.377,49.47,59.354,49.47,86.098v43.954
	c0,0.28,0.014,0.556,0.042,0.828c0.412,4.054,3.987,7.269,8.055,7.269c4.096,0,7.642-3.199,8.055-7.269
	c0.028-0.272,0.042-0.548,0.042-0.828V86.098c0-38.545,31.358-69.903,69.902-69.903h102.093c38.545,0,69.903,31.358,69.903,69.903
	v140.797v46.38v10.071C307.564,283.344,222.788,283.344,222.778,283.344z M418.894,283.344
	c-19.925-11.85-43.06-18.168-66.238-18.168h-28.899v-30.185h109.311c28.378,0,51.932,21.049,55.872,48.353H418.894z"/>
<g>
</g>
<g>
</g>
<g>
</g>
<g>
</g>
<g>
</g>
<g>
</g>
<g>
</g>
<g>
</g>
<g>
</g>
<g>
</g>
<g>
</g>
<g>
</g>
<g>
</g>
<g>
</g>
<g>
</g>
</svg>
