<?xml version="1.0" encoding="iso-8859-1"?>
<!-- Generator: Adobe Illustrator 19.0.0, SVG Export Plug-In . SVG Version: 6.00 Build 0)  -->
<svg version="1.1" id="Layer_1" xmlns="http://www.w3.org/2000/svg" xmlns:xlink="http://www.w3.org/1999/xlink" x="0px" y="0px"
	 viewBox="0 0 512.001 512.001" style="enable-background:new 0 0 512.001 512.001;" xml:space="preserve">
<polygon style="fill:#F2C364;" points="266.456,282.192 266.456,504.158 190.217,504.158 175.266,356.824 "/>
<g>
	<polygon style="fill:#FFCD69;" points="123.421,224.549 150.61,504.158 201.246,504.158 188.713,369.762 197.692,277.8 	"/>
	<polygon style="fill:#FFCD69;" points="256.001,282.192 256.001,504.158 321.786,504.158 336.736,356.824 	"/>
</g>
<polygon style="fill:#F2C364;" points="388.582,224.549 361.392,504.158 310.757,504.158 323.29,369.762 314.31,277.8 "/>
<path style="fill:#FFE669;" d="M388.581,224.549c9.696-9.452,4.346-25.92-9.054-27.867l-66.731-9.696
	c-5.321-0.774-9.921-4.116-12.302-8.937l-29.843-60.468c-5.993-12.143-23.309-12.143-29.301,0l-29.843,60.468
	c-2.379,4.821-6.98,8.165-12.302,8.937l-66.731,9.696c-13.4,1.948-18.752,18.415-9.054,27.867l48.287,47.068
	c3.85,3.753,5.608,9.161,4.699,14.461l-11.399,66.461c-2.289,13.347,11.719,23.524,23.705,17.223l59.685-31.378
	c4.76-2.503,10.446-2.503,15.206,0l59.685,31.378c11.986,6.302,25.994-3.876,23.705-17.223l-11.399-66.461
	c-0.91-5.3,0.848-10.707,4.699-14.461L388.581,224.549z"/>
<path d="M400.173,205.378c-2.864-8.817-10.343-15.122-19.518-16.456l-22.134-3.216c-4.275-0.624-8.264,2.346-8.886,6.631
	c-0.623,4.285,2.346,8.264,6.632,8.886l22.133,3.216c3.273,0.476,5.837,2.638,6.859,5.783c1.021,3.145,0.219,6.399-2.148,8.708
	c-0.019,0.019-0.038,0.037-0.056,0.055l-48.233,47.016c-5.699,5.556-8.299,13.556-6.953,21.401l11.398,66.461
	c0.559,3.26-0.705,6.367-3.38,8.311c-2.675,1.943-6.021,2.187-8.949,0.647l-59.685-31.378c-7.045-3.703-15.458-3.703-22.503,0
	l-59.685,31.378c-2.926,1.539-6.271,1.298-8.95-0.647c-2.675-1.943-3.939-5.052-3.379-8.311l11.397-66.46
	c1.347-7.845-1.252-15.846-6.953-21.402l-48.286-47.068c-2.369-2.308-3.173-5.565-2.151-8.71c1.021-3.146,3.587-5.308,6.859-5.783
	l66.733-9.696c7.876-1.145,14.682-6.09,18.204-13.227l29.843-60.468c1.464-2.966,4.312-4.737,7.619-4.737
	c3.309,0,6.158,1.771,7.621,4.737l29.843,60.469c3.523,7.137,10.329,12.081,18.204,13.226l13.235,1.924
	c4.283,0.622,8.264-2.346,8.887-6.631c0.623-4.285-2.346-8.264-6.632-8.886l-13.234-1.924c-2.768-0.402-5.161-2.141-6.399-4.649
	l-29.842-60.468c-4.104-8.313-12.412-13.478-21.683-13.478s-17.578,5.164-21.681,13.478l-29.843,60.468
	c-1.238,2.508-3.63,4.247-6.397,4.648l-66.732,9.696c-9.175,1.333-16.654,7.639-19.518,16.455
	c-2.554,7.861-0.958,16.256,4.121,22.572c1.356,10.653,2.298,21.164,3.285,32.244c1.013,11.37,2.061,23.122,3.606,35.069
	c0.039,6.435,0.8,13.525,1.472,19.798c0.13,1.21,0.257,2.403,0.378,3.573c0.416,4.033,3.821,7.035,7.789,7.035
	c0.27,0,0.543-0.014,0.815-0.042c4.307-0.445,7.438-4.299,6.992-8.606c-0.122-1.189-0.253-2.402-0.385-3.633
	c-0.681-6.348-1.384-12.913-1.384-18.646c0-0.339-0.022-0.677-0.066-1.014c-1.539-11.799-2.586-23.557-3.599-34.927
	c-0.392-4.401-0.8-8.868-1.228-13.355l32.607,31.785c2.004,1.953,2.918,4.764,2.445,7.521l-11.398,66.461
	c-1.567,9.137,2.118,18.199,9.618,23.647c4.424,3.215,9.634,4.764,14.846,4.621l11.695,125.405c0.378,4.065,3.796,7.113,7.798,7.113
	c0.244,0,0.49-0.012,0.737-0.034c4.311-0.403,7.481-4.224,7.079-8.535l-12.046-129.171l51.154-26.894v156.792
	c0,4.33,3.509,7.841,7.841,7.841c4.331,0,7.841-3.511,7.841-7.841v-156.79l51.153,26.893L302.947,503.43
	c-0.402,4.311,2.767,8.132,7.079,8.535c0.247,0.023,0.493,0.034,0.737,0.034c4.002,0,7.419-3.049,7.798-7.113l11.694-125.402
	c0.22,0.006,0.438,0.02,0.658,0.02c4.992,0,9.951-1.565,14.19-4.644c7.5-5.449,11.185-14.51,9.618-23.649l-11.398-66.46
	c-0.473-2.757,0.441-5.569,2.444-7.522l32.826-31.997c-2.43,24.366-4.688,48.693-6.886,72.397
	c-3.214,34.646-6.537,70.473-10.36,105.98c-0.463,4.305,2.651,8.171,6.956,8.635c0.284,0.03,0.569,0.045,0.849,0.045
	c3.954,0,7.354-2.982,7.786-7.002c3.836-35.623,7.164-71.507,10.383-106.211c2.766-29.82,5.626-60.626,8.799-91.212
	C401.145,221.56,402.715,213.204,400.173,205.378z"/>
<path d="M154.184,455.217c-0.004-0.063-0.009-0.125-0.016-0.188c-3.089-33.983-6.284-69.123-10.539-103.635
	c-0.53-4.298-4.459-7.35-8.741-6.822c-4.297,0.53-7.351,4.443-6.821,8.742c4.22,34.231,7.402,69.212,10.476,103.043
	c0.43,6.395,1.198,12.991,1.942,19.371c1.103,9.466,2.243,19.256,2.283,28.466c0.019,4.319,3.525,7.807,7.84,7.807
	c0.012,0,0.022,0,0.033,0c4.331-0.019,7.826-3.544,7.808-7.874c-0.043-10.087-1.236-20.32-2.389-30.215
	C155.303,467.402,154.587,461.254,154.184,455.217z"/>
<path d="M366.853,451.051c-4.288-0.584-8.241,2.425-8.821,6.717c-1.472,10.863-2.438,22.274-3.373,33.308
	c-0.352,4.152-0.701,8.286-1.076,12.367c-0.395,4.312,2.78,8.128,7.091,8.524c0.244,0.022,0.486,0.034,0.726,0.034
	c4.007,0,7.426-3.057,7.799-7.125c0.377-4.117,0.731-8.287,1.085-12.477c0.918-10.842,1.866-22.053,3.286-32.525
	C374.151,455.582,371.143,451.632,366.853,451.051z"/>
<path d="M127.955,159.057c2.146,0,4.284-0.876,5.831-2.598c2.897-3.22,2.633-8.177-0.586-11.073L78.039,95.778
	c-3.22-2.894-8.176-2.633-11.073,0.588c-2.897,3.22-2.633,8.177,0.586,11.073l55.162,49.609
	C124.212,158.393,126.086,159.057,127.955,159.057z"/>
<path d="M180.386,83.033c1.382,0,2.783-0.366,4.052-1.133c3.705-2.241,4.892-7.062,2.649-10.767l-25.448-42.054
	c-2.242-3.705-7.064-4.892-10.768-2.649c-3.705,2.241-4.892,7.062-2.649,10.767l25.448,42.054
	C175.145,81.686,177.733,83.033,180.386,83.033z"/>
<path d="M433.963,95.778l-55.162,49.609c-3.219,2.896-3.482,7.853-0.586,11.073c1.547,1.722,3.685,2.598,5.831,2.598
	c1.868,0,3.743-0.664,5.242-2.01l55.162-49.609c3.219-2.896,3.482-7.853,0.586-11.073C442.14,93.144,437.184,92.884,433.963,95.778z
	"/>
<path d="M331.616,83.033c2.652,0,5.242-1.348,6.716-3.782l25.446-42.054c2.242-3.705,1.056-8.525-2.649-10.767
	c-3.703-2.242-8.524-1.057-10.768,2.649l-25.447,42.054c-2.242,3.705-1.056,8.525,2.649,10.768
	C328.832,82.668,330.232,83.033,331.616,83.033z"/>
<path d="M263.841,49.44v-41.6C263.841,3.511,260.332,0,256,0s-7.841,3.511-7.841,7.841v41.6c0,4.33,3.509,7.841,7.841,7.841
	S263.841,53.77,263.841,49.44z"/>
<g>
</g>
<g>
</g>
<g>
</g>
<g>
</g>
<g>
</g>
<g>
</g>
<g>
</g>
<g>
</g>
<g>
</g>
<g>
</g>
<g>
</g>
<g>
</g>
<g>
</g>
<g>
</g>
<g>
</g>
</svg>
