<?xml version="1.0" encoding="iso-8859-1"?>
<!-- Generator: Adobe Illustrator 19.0.0, SVG Export Plug-In . SVG Version: 6.00 Build 0)  -->
<svg version="1.1" id="Layer_1" xmlns="http://www.w3.org/2000/svg" xmlns:xlink="http://www.w3.org/1999/xlink" x="0px" y="0px"
	 viewBox="0 0 512.002 512.002" style="enable-background:new 0 0 512.002 512.002;" xml:space="preserve">
<g>
	<path style="fill:#FFDF9C;" d="M175.759,39.814c-34.318-2.018-27.745-31.794-39.358-29.271
		c-11.613,2.523-47.967,54.5,12.097,78.785L175.759,39.814z"/>
	<path style="fill:#FFDF9C;" d="M336.244,39.814c34.318-2.018,27.745-31.794,39.358-29.271c11.614,2.523,47.967,54.5-12.097,78.785
		L336.244,39.814z"/>
</g>
<path style="fill:#FFD782;" d="M473.898,292.151c0-11.624-5.988-21.783-14.919-27.32c4.97-5.652,8.005-13.187,8.005-21.461
	c0-15.963-11.29-29.171-25.995-31.422c3.762-5.284,5.99-11.83,5.99-18.918c0-17.543-13.634-31.764-30.452-31.764
	c-3.28,0-6.434,0.547-9.394,1.547c1.58-3.841,2.458-8.071,2.458-12.515c0-17.543-13.634-31.764-30.452-31.764
	c-5.573,0-10.791,1.568-15.283,4.295l-11.867-17.289h-191.98l-11.867,17.289c-4.493-2.726-9.711-4.295-15.283-4.295
	c-16.819,0-30.452,14.222-30.452,31.764c0,4.444,0.878,8.674,2.458,12.515c-2.96-1-6.114-1.547-9.394-1.547
	c-16.819,0-30.452,14.222-30.452,31.764c0,7.088,2.228,13.633,5.99,18.918c-14.704,2.251-25.995,15.46-25.995,31.422
	c0,8.275,3.036,15.808,8.005,21.461c-8.931,5.537-14.919,15.697-14.919,27.32c0,12.801,7.263,23.825,17.72,28.854
	c-1.063,3.233-1.649,6.699-1.649,10.309c0,17.543,13.634,31.764,30.452,31.764h342.746c16.819,0,30.452-14.222,30.452-31.764
	c0-3.61-0.586-7.076-1.649-10.309C466.635,315.976,473.898,304.952,473.898,292.151z"/>
<path style="fill:#FFBBA8;" d="M378.446,358.605H133.558c-37.851,0-68.534,30.684-68.534,68.535v76.972h381.958v-76.972
	C446.98,389.289,416.296,358.605,378.446,358.605z"/>
<g>
	<circle style="fill:#F2B09D;" cx="141.944" cy="230.506" r="34.122"/>
	<circle style="fill:#F2B09D;" cx="370.062" cy="230.506" r="34.122"/>
</g>
<path style="fill:#FFF7E6;" d="M378.446,358.605h-47.343c-24.631,33.794-83.689,89.988-198.241,145.507h246.28v-145.49
	L378.446,358.605z"/>
<path style="opacity:0.1;enable-background:new    ;" d="M147.503,401.466h216.996c20.026,0,38.642-11.578,51.251-31.806
	c-10.737-6.983-23.542-11.055-37.305-11.055H133.558c-13.763,0-26.568,4.072-37.306,11.056
	C108.861,389.888,127.477,401.466,147.503,401.466z"/>
<path style="fill:#FFBBA8;" d="M147.503,118.546v118.92c-22.964,0-41.58,30.827-41.58,68.853s18.616,68.853,41.58,68.853h216.996
	c22.964,0,41.581-30.827,41.581-68.853s-18.616-68.853-41.581-68.853v-118.92C364.499,118.546,147.503,118.546,147.503,118.546z"/>
<path style="fill:#E18CAF;" d="M256.002,201.758c-12.574,0-22.769,10.193-22.769,22.768v3.809c0,12.574,10.193,22.768,22.769,22.768
	c12.576,0,22.769-10.193,22.769-22.768v-3.809C278.769,211.952,268.576,201.758,256.002,201.758z"/>
<path style="fill:#735359;" d="M299.26,14.173h-86.516c-36.031,0-65.24,29.209-65.24,65.24l0,0L256.506,96l107.994-16.587l0,0
	C364.5,43.382,335.291,14.173,299.26,14.173z"/>
<polygon style="fill:#8C656D;" points="281.168,79.413 281.168,7.889 230.834,7.889 230.834,79.413 147.503,79.413 147.503,125.611 
	364.5,125.611 364.5,79.413 "/>
<g>
	<circle style="fill:#FF6465;" cx="174.213" cy="288.871" r="23.687"/>
	<circle style="fill:#FF6465;" cx="337.781" cy="288.871" r="23.687"/>
</g>
<path style="fill:#2B2B33;" d="M256.002,272.522L256.002,272.522c-17.695,0-32.039,14.345-32.039,32.039v13.953
	c0,0.211,0.012,0.419,0.016,0.629l32.024,2.95l32.024-2.95c0.004-0.21,0.016-0.418,0.016-0.629v-13.953
	C288.041,286.866,273.696,272.522,256.002,272.522z"/>
<path style="fill:#FF6465;" d="M288.025,319.144c-8.959-3.925-20.033-6.248-32.024-6.248l0,0c-11.991,0-23.064,2.323-32.024,6.249
	c0.337,17.403,14.54,31.41,32.024,31.41l0,0C273.485,350.555,287.689,336.548,288.025,319.144z"/>
<path d="M481.787,292.151c0-10.986-4.492-21.457-12.089-28.879c3.371-6,5.175-12.845,5.175-19.902
	c0-15.766-9.18-29.803-22.54-36.113c1.673-4.495,2.536-9.294,2.536-14.226c0-21.575-16.746-39.181-37.5-39.644
	c0.076-1.022,0.114-2.052,0.114-3.088c0-21.865-17.2-39.652-38.341-39.652c-2.268,0-4.527,0.224-6.753,0.638V93.998
	c15.005-7.302,34.875-22.152,32.435-49.019c-0.846-9.313-4.501-19.103-10.292-27.567c-2.617-3.824-9.535-12.899-17.253-14.577
	c-1.013-0.22-2.024-0.331-3.003-0.331c-8.492,0-11.94,7.274-14.456,12.586c-2.145,4.526-4.358,9.168-9.081,12.44
	c-13.226-13.122-31.419-21.244-51.477-21.244h-10.366C288.152,2.697,284.976,0,281.168,0h-50.335c-3.808,0-6.984,2.697-7.725,6.285
	h-10.366c-20.058,0-38.251,8.122-51.477,21.245c-4.725-3.273-6.939-7.914-9.083-12.441c-2.516-5.311-5.963-12.585-14.454-12.585
	c-0.98,0-1.991,0.111-3.003,0.331c-7.718,1.677-14.637,10.753-17.253,14.576c-5.791,8.465-9.446,18.255-10.293,27.567
	c-2.44,26.868,17.43,41.717,32.435,49.02v17.289c-2.226-0.415-4.485-0.638-6.753-0.638c-21.142,0-38.341,17.788-38.341,39.652
	c0,1.035,0.038,2.065,0.114,3.088c-20.755,0.463-37.501,18.069-37.501,39.644c0,4.932,0.864,9.73,2.536,14.227
	c-13.36,6.31-22.54,20.347-22.54,36.113c0,7.056,1.804,13.903,5.175,19.902c-7.596,7.422-12.089,17.892-12.089,28.879
	c0,13.116,6.348,25.323,16.591,32.647c-0.346,2.148-0.521,4.325-0.521,6.516c0,20.893,15.708,38.051,35.548,39.536
	c-15.303,14.068-24.703,34.222-24.703,56.289v76.972c0,4.357,3.532,7.889,7.889,7.889h67.84h246.279h67.839
	c4.358,0,7.889-3.532,7.889-7.889v-34.015c0-4.357-3.531-7.889-7.889-7.889c-4.358,0-7.889,3.532-7.889,7.889v26.126h-52.062
	V374.897c1.536-1.193,3.023-2.504,4.458-3.93h9.838c22.463,9.11,37.768,31.083,37.768,56.172v11.403
	c0,4.357,3.531,7.889,7.889,7.889c4.358,0,7.889-3.532,7.889-7.889v-11.403c0-22.067-9.4-42.221-24.703-56.289
	c19.841-1.485,35.55-18.643,35.55-39.536c0-2.191-0.175-4.368-0.521-6.516C475.439,317.474,481.787,305.268,481.787,292.151z
	 M147.503,367.282c-0.484,0-0.969-0.025-1.455-0.067l-0.291-0.034c-14.354-1.672-23.15-17.746-27.244-29.986
	c-2.784-8.326-4.159-17.092-4.58-25.845c-0.08-1.676-0.123-3.353-0.123-5.031c0-19.211,4.837-35.095,11.792-45.831
	c0.064-0.09,0.136-0.176,0.197-0.27c0.633-0.975,1.285-1.894,1.947-2.78c5.869-7.736,12.912-12.084,19.756-12.084
	c4.358,0,7.889-3.532,7.889-7.889v-40.621v-63.346h201.22v63.346v40.621c0,4.357,3.531,7.889,7.889,7.889
	c6.844,0,13.887,4.348,19.756,12.084c10.396,13.704,13.937,32.026,13.937,48.88c0,12.117-1.693,24.506-6.377,35.75
	c-4.407,10.579-13.063,23.788-25.574,25.112l-0.278,0.033c-0.488,0.043-0.977,0.068-1.464,0.068h-46.814H147.503V367.282z
	 M115.708,230.509c0-13.681,10.527-24.95,23.907-26.131v26.129c-0.178,0.042-0.351,0.1-0.528,0.145
	c-0.391,0.101-0.783,0.206-1.172,0.321c-7.323,2.16-13.752,6.694-18.912,12.248C116.867,239.366,115.708,234.996,115.708,230.509z
	 M392.999,243.221c-5.072-5.462-11.327-9.903-18.494-12.119c-0.698-0.216-1.405-0.426-2.116-0.596v-26.129
	c13.38,1.181,23.907,12.449,23.907,26.131C396.295,234.996,395.135,239.367,392.999,243.221z M374.075,21.844
	c0.385-0.812,0.841-1.775,1.267-2.604c4.711,3.761,13.768,15.967,13.898,29.751c0.103,10.874-5.581,19.955-16.929,27.1
	c-0.003-0.075-0.011-0.149-0.014-0.224c-0.013-0.258-0.033-0.512-0.048-0.769c-0.375-6.319-1.584-12.587-3.567-18.598
	c-0.448-1.36-7.436-17.108-7.973-16.706C368.242,34.159,371.749,26.756,374.075,21.844z M281.168,87.302h22.608
	c4.358,0,7.889-3.532,7.889-7.889s-3.531-7.889-7.889-7.889h-14.719V22.062h10.202c15.319,0,29.721,5.966,40.554,16.798
	c1.073,1.073,2.095,2.183,3.071,3.324c0.047,0.059,0.086,0.123,0.136,0.181c7.05,8.317,11.546,18.458,13.038,29.161h-20.726
	c-4.358,0-7.889,3.532-7.889,7.889s3.531,7.889,7.889,7.889h21.279v1.607v28.813h-201.22V88.909v-1.607h75.443
	c4.358,0,7.889-3.532,7.889-7.889V15.777h34.557v63.636C273.28,83.77,276.812,87.302,281.168,87.302z M212.744,22.062h10.202v49.463
	h-67c1.414-10.14,5.568-19.819,11.953-27.822c0.064-0.08,0.129-0.16,0.195-0.24C178.614,30.421,194.72,22.062,212.744,22.062z
	 M122.761,48.989c0.13-13.784,9.187-25.988,13.898-29.75c0.426,0.828,0.882,1.791,1.267,2.603
	c2.328,4.913,5.835,12.316,13.365,17.948c-6.776,10.508-10.797,22.823-11.538,35.304c-0.015,0.257-0.036,0.512-0.048,0.769
	c-0.003,0.075-0.011,0.149-0.014,0.224C128.343,68.946,122.659,59.864,122.761,48.989z M84.628,355.19
	c-12.442,0-22.564-10.711-22.564-23.875c0-2.675,0.422-5.315,1.254-7.844c1.237-3.761-0.506-7.858-4.075-9.574
	c-8.05-3.872-13.251-12.407-13.251-21.745c0-8.438,4.286-16.338,11.187-20.616c1.972-1.223,3.306-3.251,3.647-5.546
	c0.341-2.295-0.347-4.624-1.879-6.367c-3.896-4.431-6.042-10.204-6.042-16.253c0-11.785,8.297-21.94,19.3-23.624
	c2.707-0.414,5.006-2.202,6.072-4.725c1.067-2.522,0.749-5.417-0.839-7.648c-2.962-4.161-4.528-9.12-4.528-14.343
	c0-13.166,10.122-23.876,22.564-23.876c2.335,0,4.646,0.381,6.868,1.132c2.927,0.99,6.166,0.178,8.281-2.077
	c2.115-2.256,2.717-5.539,1.541-8.398c-1.238-3.007-1.865-6.208-1.865-9.513c0-13.166,10.122-23.875,22.564-23.875
	c2.322,0,4.581,0.368,6.753,1.097v61.044c-22.086,1.213-39.684,19.56-39.684,41.942c0,9.692,3.37,19.043,9.407,26.482
	c-7.084,13.251-11.305,30.38-11.305,49.328c0,1.205,0.021,2.405,0.057,3.602c0.433,15.229,3.575,30.698,10.523,44.339
	c0.019,0.037,0.27,0.556,0.284,0.552c-0.363,0.123-0.725,0.249-1.085,0.378H84.628V355.19z M371.252,382.374v113.85H165.896
	c25.023-13.244,48.332-27.106,69.575-41.385c3.616-2.431,4.577-7.332,2.147-10.947c-2.431-3.616-7.332-4.577-10.947-2.147
	c-25.724,17.29-54.584,33.969-85.92,49.677v-73.104c0-4.357-3.531-7.889-7.889-7.889s-7.889,3.532-7.889,7.889v77.905H72.911
	v-69.083c0-25.089,15.306-47.064,37.769-56.172h9.837c6.748,6.703,14.663,10.91,23.254,11.862c0.081,0.008,0.162,0.022,0.243,0.03
	l0.131,0.016c0.103,0.013,0.208,0.021,0.311,0.033c0.261,0.023,0.521,0.047,0.783,0.065c0.786,0.055,1.536,0.086,2.265,0.086
	h151.924c-13.338,13.377-29.085,26.914-47.008,40.395c-3.482,2.619-4.181,7.565-1.561,11.046c2.618,3.483,7.565,4.182,11.046,1.562
	c23.465-17.651,43.398-35.468,59.305-53.004H364.5c0.472,0,0.953-0.014,1.443-0.037c0.278-0.012,0.554-0.032,0.832-0.049
	c0.204-0.014,0.408-0.029,0.612-0.046c0.677-0.058,1.354-0.133,2.026-0.231c0.212-0.032,0.423-0.069,0.634-0.105
	C370.449,382.522,370.852,382.456,371.252,382.374z M452.759,313.897c-3.57,1.717-5.313,5.813-4.075,9.576
	c0.832,2.529,1.254,5.168,1.254,7.843c0,13.166-10.122,23.875-22.564,23.875h-23.186c-0.36-0.128-0.72-0.255-1.083-0.377
	c5.957-11.475,9.789-25.763,10.662-41.566c0.02-0.349,0.033-0.699,0.049-1.049c0.036-0.757,0.074-1.514,0.096-2.278
	c0.036-1.197,0.057-2.398,0.057-3.602c0-18.948-4.221-36.077-11.305-49.328c6.037-7.438,9.407-16.79,9.407-26.482
	c0-22.384-17.598-40.731-39.684-41.942v-61.044c2.171-0.73,4.43-1.097,6.753-1.097c12.442,0,22.564,10.711,22.564,23.875
	c0,3.305-0.628,6.505-1.865,9.512c-1.177,2.859-0.575,6.143,1.54,8.398c2.114,2.255,5.351,3.068,8.281,2.078
	c2.222-0.751,4.534-1.133,6.868-1.133c12.441,0,22.563,10.711,22.563,23.876c0,5.222-1.565,10.182-4.528,14.344
	c-1.588,2.231-1.906,5.127-0.838,7.648c1.067,2.521,3.365,4.31,6.071,4.725c11.002,1.684,19.299,11.84,19.299,23.624
	c0,6.049-2.146,11.821-6.042,16.253c-1.531,1.743-2.218,4.072-1.879,6.367c0.341,2.295,1.674,4.324,3.648,5.546
	c6.901,4.278,11.187,12.177,11.187,20.616C466.009,301.491,460.807,310.025,452.759,313.897z"/>
<path d="M225.344,224.526v3.809c0,16.904,13.753,30.656,30.656,30.656c16.904,0,30.656-13.753,30.656-30.656v-3.809
	c0-16.904-13.753-30.656-30.656-30.656S225.344,207.622,225.344,224.526z M241.122,224.526c0-8.204,6.675-14.879,14.879-14.879
	c8.204,0,14.879,6.675,14.879,14.879v3.809c0,8.204-6.675,14.879-14.879,14.879c-8.204,0-14.879-6.675-14.879-14.879V224.526z"/>
<path d="M179.729,169.885c3.851,2.035,8.626,0.564,10.661-3.288c2.91-5.505,9.479-9.062,16.734-9.062
	c7.255,0,13.825,3.557,16.734,9.062c1.416,2.677,4.15,4.204,6.982,4.204c1.243,0,2.504-0.295,3.679-0.916
	c3.852-2.036,5.324-6.809,3.288-10.661c-5.608-10.611-17.653-17.466-30.684-17.466s-25.075,6.856-30.684,17.466
	C174.406,163.076,175.877,167.849,179.729,169.885z"/>
<path d="M227.422,196.509c3.852-2.035,5.325-6.808,3.289-10.66c-4.332-8.199-13.591-13.497-23.586-13.497
	c-9.994,0-19.252,5.298-23.587,13.496c-2.036,3.852-0.564,8.625,3.288,10.661c1.175,0.622,2.436,0.916,3.679,0.916
	c2.83,0,5.566-1.527,6.982-4.203c1.636-3.093,5.418-5.092,9.638-5.092s8.002,1.998,9.637,5.091
	C218.798,197.071,223.569,198.546,227.422,196.509z"/>
<path d="M277.483,169.885c1.175,0.621,2.436,0.916,3.679,0.916c2.83,0,5.567-1.527,6.982-4.204c2.91-5.505,9.479-9.062,16.734-9.062
	c7.255,0,13.826,3.557,16.736,9.062c2.036,3.852,6.806,5.324,10.661,3.287c3.851-2.036,5.323-6.809,3.286-10.661
	c-5.609-10.61-17.654-17.465-30.684-17.465c-13.031,0-25.075,6.856-30.684,17.466C272.159,163.076,273.63,167.849,277.483,169.885z"
	/>
<path d="M314.516,193.222c1.416,2.676,4.15,4.203,6.982,4.203c1.243,0,2.504-0.295,3.679-0.916
	c3.852-2.036,5.324-6.809,3.288-10.661c-4.335-8.198-13.593-13.496-23.587-13.496c-9.993,0-19.251,5.298-23.586,13.496
	c-2.036,3.852-0.564,8.625,3.288,10.661c3.852,2.037,8.624,0.564,10.661-3.287c1.636-3.093,5.417-5.092,9.637-5.092
	S312.881,190.128,314.516,193.222z"/>
<path d="M174.219,257.293c-17.412,0-31.577,14.165-31.577,31.577c0,17.412,14.165,31.577,31.577,31.577s31.577-14.165,31.577-31.577
	C205.795,271.458,191.629,257.293,174.219,257.293z M174.219,304.668c-8.711,0-15.799-7.087-15.799-15.799
	s7.087-15.799,15.799-15.799c8.712,0,15.799,7.087,15.799,15.799S182.93,304.668,174.219,304.668z"/>
<path d="M337.785,257.293c-17.412,0-31.577,14.165-31.577,31.577c0,17.412,14.165,31.577,31.577,31.577s31.577-14.165,31.577-31.577
	C369.361,271.458,355.195,257.293,337.785,257.293z M337.785,304.668c-8.711,0-15.799-7.087-15.799-15.799
	s7.087-15.799,15.799-15.799s15.799,7.087,15.799,15.799S346.496,304.668,337.785,304.668z"/>
<path d="M256.002,264.634c-22.017,0-39.928,17.911-39.928,39.928v13.953c0,0.217,0.006,0.431,0.013,0.645l0.004,0.138v0.002
	c0.42,21.584,18.324,39.143,39.911,39.143s39.491-17.559,39.911-39.143v-0.002l0.004-0.138c0.006-0.215,0.013-0.428,0.013-0.645
	v-13.953C295.93,282.545,278.017,264.634,256.002,264.634z M231.851,304.562c0-13.317,10.834-24.151,24.151-24.151
	s24.151,10.834,24.151,24.151v3.523c-0.228-0.061-0.461-0.115-0.69-0.174c-7.487-1.928-15.206-2.851-22.933-2.89
	c-0.177-0.001-0.35-0.013-0.527-0.013c-0.12,0-0.237,0.008-0.357,0.008c-7.877,0.033-15.8,0.98-23.425,2.983
	c-0.122,0.032-0.248,0.059-0.37,0.091V304.562z M256.002,342.666c-11.217,0-20.788-7.84-23.423-18.327
	c0.345-0.111,0.676-0.236,1.027-0.343c0.076-0.023,0.153-0.046,0.229-0.069c7.39-2.239,15.125-3.192,22.835-3.13
	c7.613,0.061,15.248,1.111,22.509,3.435c0.016,0.005,0.032,0.009,0.047,0.014c0.069,0.022,0.136,0.048,0.205,0.072
	C276.804,334.816,267.226,342.666,256.002,342.666z"/>
<g>
</g>
<g>
</g>
<g>
</g>
<g>
</g>
<g>
</g>
<g>
</g>
<g>
</g>
<g>
</g>
<g>
</g>
<g>
</g>
<g>
</g>
<g>
</g>
<g>
</g>
<g>
</g>
<g>
</g>
</svg>
