<?xml version="1.0" encoding="iso-8859-1"?>
<!-- Generator: Adobe Illustrator 19.0.0, SVG Export Plug-In . SVG Version: 6.00 Build 0)  -->
<svg version="1.1" id="Layer_1" xmlns="http://www.w3.org/2000/svg" xmlns:xlink="http://www.w3.org/1999/xlink" x="0px" y="0px"
	 viewBox="0 0 512.001 512.001" style="enable-background:new 0 0 512.001 512.001;" xml:space="preserve">
<rect x="8.258" y="32.775" style="fill:#C89173;" width="495.555" height="49.973"/>
<path style="fill:#363640;" d="M243.074,82.747v146.101c0,15.448,12.523,27.97,27.97,27.97l0,0c15.448,0,27.97-12.523,27.97-27.97
	V82.747H243.074z"/>
<path style="fill:#464754;" d="M260.786,380.588l145.189-46.306c45.108-14.386,70.011-62.615,55.625-107.723l0,0
	c-14.386-45.108-62.615-70.011-107.723-55.625L208.688,217.24L260.786,380.588z"/>
<path style="opacity:0.1;enable-background:new    ;" d="M461.599,226.559L461.599,226.559c-13.456-42.191-56.52-66.7-98.944-57.922
	c28.116,10.632,51.283,33.538,61.126,64.4l0,0c12.091,37.91,0.839,77.672-25.734,103.772l7.926-2.528
	C451.081,319.895,475.986,271.666,461.599,226.559z"/>
<path style="fill:#363640;" d="M364.888,82.747v146.101c0,15.448,12.523,27.97,27.97,27.97l0,0c15.448,0,27.97-12.523,27.97-27.97
	V82.747H364.888z"/>
<rect x="243.074" y="82.743" style="opacity:0.1;enable-background:new    ;" width="55.936" height="27.409"/>
<rect x="364.89" y="82.743" style="opacity:0.1;enable-background:new    ;" width="55.936" height="27.409"/>
<circle style="fill:#A9ACCC;" cx="234.731" cy="298.912" r="85.724"/>
<path style="fill:#FFD782;" d="M285.075,282.859c8.853,27.757-6.527,57.54-34.284,66.393s-57.54-6.527-66.393-34.284
	c-8.853-27.757,6.527-57.54,34.284-66.393S276.222,255.103,285.075,282.859z"/>
<path d="M503.777,24.552H8.223C3.682,24.552,0,28.234,0,32.775v49.973c0,4.541,3.682,8.223,8.223,8.223h91.74
	c4.541,0,8.223-3.682,8.223-8.223c0-4.541-3.682-8.223-8.223-8.223H16.445V40.998h479.109v33.528H298.979h-55.941H132.854
	c-4.541,0-8.223,3.682-8.223,8.223c0,4.541,3.682,8.223,8.223,8.223h101.963v109.294c0,0-28.662,9.141-28.669,9.144
	c-49.35,15.744-76.695,68.701-60.954,118.054c12.48,39.13,48.443,65.423,89.493,65.426c9.662,0,19.274-1.502,28.57-4.468
	c0.012-0.003,0.022-0.007,0.034-0.011l90.362-28.82c4.326-1.379,6.715-6.006,5.336-10.332c-1.379-4.326-6.004-6.715-10.332-5.335
	l-39.806,12.696c3.509-4.529,6.645-9.397,9.331-14.597c14.079-27.265,13.686-60.855-0.861-87.857
	c-0.021-0.039-0.042-0.079-0.063-0.118c-11.855-21.928-31.824-38.065-55.428-45.134l94.512-30.143
	c0.096-0.031,0.194-0.061,0.291-0.092c0,0,0,50.165,0,50.174c0,20.284,17.651,37.174,38.052,36.146
	c19.096-0.971,34.334-16.813,34.334-36.146V192.67c11.527,9.411,20.111,21.959,24.713,36.39
	c12.986,40.716-9.573,84.405-50.29,97.391l-21.894,6.983c-4.326,1.38-6.715,6.006-5.336,10.332c1.38,4.327,6.007,6.715,10.332,5.336
	l21.894-6.983c49.355-15.74,76.701-68.701,60.961-118.056c-6.891-21.606-21.143-39.72-40.381-51.5V90.97h74.761
	c4.541,0,8.223-3.682,8.223-8.223V32.775C512,28.233,508.318,24.552,503.777,24.552z M251.262,195.019V90.97h39.495v91.453
	C277.592,186.622,264.427,190.82,251.262,195.019z M234.68,376.415c-32.801-0.181-63.682-22.165-73.82-53.951
	c-12.956-40.621,10.648-85.617,51.586-97.789c42.519-12.642,88.944,14.781,98.114,58.336c0.007,0.031,0.011,0.06,0.018,0.091
	c8.804,41.928-22.194,85.725-64.299,92.444C242.446,376.158,238.561,376.437,234.68,376.415z M388.867,248.11
	c-8.747-1.936-15.791-9.845-15.791-19.262v-60.622V90.971h39.495c0,0,0,137.785,0,137.878
	C412.571,241.03,400.842,250.761,388.867,248.11z M356.63,161.6c-1.801,0.456-49.428,15.577-49.428,15.577V90.97h49.428V161.6z"/>
<circle cx="392.826" cy="226.728" r="9.772"/>
<path d="M288.932,326.917c7.49-14.505,8.889-31.04,3.941-46.557c-4.949-15.517-15.664-28.187-30.17-35.678
	c-14.504-7.49-31.039-8.89-46.556-3.941c-6.518,2.079-12.6,5.219-18.077,9.333c-3.631,2.728-4.362,7.882-1.636,11.513
	c2.727,3.631,7.882,4.363,11.513,1.636c3.998-3.004,8.439-5.297,13.196-6.814c11.332-3.614,23.412-2.59,34.015,2.886
	c10.602,5.475,18.432,14.731,22.046,26.063c3.615,11.331,2.59,23.412-2.886,34.013c-5.475,10.602-14.731,18.432-26.063,22.046
	c-11.332,3.615-23.412,2.589-34.015-2.886c-10.603-5.475-18.433-14.731-22.047-26.063c-2.714-8.506-2.817-17.521-0.3-26.07
	c1.282-4.357-1.21-8.928-5.567-10.21c-4.353-1.282-8.928,1.21-10.209,5.566c-3.448,11.714-3.306,24.062,0.409,35.711
	c8.27,25.93,32.343,42.514,58.212,42.511c6.131-0.001,12.368-0.933,18.513-2.893C268.771,352.137,281.442,341.423,288.932,326.917z"
	/>
<path d="M124.64,343.553c-1.682-4.219-6.463-6.276-10.683-4.593l-85.264,33.99c-4.219,1.682-6.274,6.464-4.593,10.683
	c1.284,3.22,4.373,5.18,7.641,5.18c1.013,0,2.044-0.189,3.042-0.587l85.264-33.99C124.265,352.554,126.32,347.771,124.64,343.553z"
	/>
<path d="M109.184,264.71c0-4.541-3.682-8.223-8.223-8.223H11.477c-4.541,0-8.223,3.682-8.223,8.223c0,4.541,3.682,8.223,8.223,8.223
	h89.485C105.503,272.933,109.184,269.251,109.184,264.71z"/>
<path d="M158.171,409.755l-62.852,63.696c-3.19,3.232-3.155,8.439,0.078,11.628c1.602,1.58,3.688,2.369,5.775,2.369
	c2.123,0,4.245-0.817,5.853-2.447l62.852-63.696c3.19-3.232,3.155-8.439-0.078-11.628S161.36,406.522,158.171,409.755z"/>
<g>
</g>
<g>
</g>
<g>
</g>
<g>
</g>
<g>
</g>
<g>
</g>
<g>
</g>
<g>
</g>
<g>
</g>
<g>
</g>
<g>
</g>
<g>
</g>
<g>
</g>
<g>
</g>
<g>
</g>
</svg>
