<?xml version="1.0" encoding="iso-8859-1"?>
<!-- Generator: Adobe Illustrator 19.0.0, SVG Export Plug-In . SVG Version: 6.00 Build 0)  -->
<svg version="1.1" id="Layer_1" xmlns="http://www.w3.org/2000/svg" xmlns:xlink="http://www.w3.org/1999/xlink" x="0px" y="0px"
	 viewBox="0 0 511.999 511.999" style="enable-background:new 0 0 511.999 511.999;" xml:space="preserve">
<polygon style="fill:#FFE669;" points="72.982,140.616 249.223,354.368 394.695,284.224 315.256,8.985 "/>
<polygon style="fill:#363640;" points="412.017,294.691 414.16,350.877 365.356,402.643 294.504,409.095 251.618,372.734 
	324.306,318.275 "/>
<path style="fill:#464754;" d="M294.504,409.095l21.762,44.727c7.402,15.214,25.736,21.546,40.951,14.144l64.56-31.411
	c15.214-7.402,21.547-25.736,14.144-40.951l-21.761-44.727L294.504,409.095z"/>
<path style="fill:#A9ACCC;" d="M402.717,261.033l-171.842,83.61c-8.526,4.148-12.075,14.422-7.927,22.949l0,0
	c4.148,8.526,14.422,12.075,22.949,7.927l171.842-83.61c8.526-4.148,12.075-14.422,7.927-22.949l0,0
	C421.517,260.433,411.242,256.884,402.717,261.033z"/>
<path style="fill:#D3D7FF;" d="M242.852,356.62l171.842-83.61c3.912-1.903,8.188-2.169,12.076-1.095
	c-0.277-1-0.635-1.991-1.104-2.957c-4.148-8.526-14.423-12.075-22.949-7.927l-171.842,83.61
	c-8.526,4.148-12.075,14.422-7.927,22.949l0,0c2.245,4.614,6.288,7.753,10.873,9.02C231.659,368.791,235.293,360.297,242.852,356.62
	z"/>
<path style="fill:#363640;" d="M387.636,423.715L387.636,423.715c-18.892,0-34.208,15.316-34.208,34.208v45.093h68.417v-45.093
	C421.844,439.031,406.528,423.715,387.636,423.715z"/>
<circle cx="387.63" cy="457.257" r="10.654"/>
<path d="M224.188,338.136c-4.901,3.156-8.595,7.813-10.528,13.408c-2.281,6.603-1.853,13.698,1.203,19.979
	c6.192,12.729,22.18,18.291,34.957,12.073l0.453-0.22l36.974,31.349l20.936,43.028c6.687,13.745,20.344,22.283,35.641,22.283
	c0.206,0,0.41-0.022,0.616-0.025v23.005c0,4.961,4.021,8.983,8.983,8.983h68.416c4.962,0,8.983-4.022,8.983-8.983v-45.093
	c0-5.146-0.908-10.082-2.566-14.662c8.237-4.765,14.423-12.236,17.562-21.32c3.456-10.003,2.808-20.752-1.823-30.267l-20.934-43.028
	l-1.847-48.439c0,0,0.452-0.22,0.453-0.22c12.779-6.224,18.296-22.173,12.073-34.958c-6.227-12.803-22.143-18.305-34.955-12.075
	l-3.303,1.607l-8.848-30.655c-1.375-4.766-6.351-7.516-11.122-6.14c-4.766,1.376-7.515,6.355-6.14,11.122l9.713,33.651
	l-90.11,43.843c-4.462,2.172-6.318,7.547-4.148,12.008c2.13,4.378,7.627,6.282,12.008,4.148c0,0,96.907-47.15,96.911-47.152
	c0,0,12.872-6.263,12.901-6.277c4.022-1.957,8.988-0.228,10.939,3.779c3.533,7.252-3.951,11.443-9.501,13.725
	c0,0-160.399,78.041-160.399,78.042c-3.721,1.811-7.668,4.647-11.974,3.16c-2.066-0.714-3.731-2.19-4.688-4.155
	c-1.95-4.01-0.217-8.995,3.779-10.94l29.66-14.431c4.462-2.17,6.318-7.547,4.148-12.008c-1.492-3.067-4.5-4.904-7.684-5.046
	c-1.447-0.066-2.931,0.22-4.325,0.898l-15.927,7.749L135.269,202.046c-3.155-3.827-8.818-4.372-12.646-1.216
	c-3.828,3.156-4.373,8.818-1.217,12.646L224.188,338.136z M412.853,494.034h-50.45c0,0,0-36.098,0-36.11
	c0-19.534,23.042-31.881,39.29-20.928c0.017,0.012,0.034,0.023,0.05,0.034c6.855,4.689,11.109,12.575,11.109,20.895V494.034z
	 M428.834,416.077c-1.774,5.135-5.326,9.333-10.064,11.921c-0.807,0.418-4.773-3.921-5.379-4.454
	c-2.64-2.327-5.646-4.016-8.891-5.391c-27.72-11.751-59.478,8.914-60.054,38.931c-0.005,0.281-0.007,0.562-0.008,0.843v4.137
	c-8.578,0.24-16.357-4.472-20.101-12.169l-17.831-36.65l84.349-41.04l19.151-9.317l17.831,36.649
	C430.367,404.737,430.721,410.61,428.834,416.077z M404.953,345.365l-25.276,12.299l-83.841,40.792l-27.913-23.667l10.715-5.214
	l124.918-60.778L404.953,345.365z"/>
<path d="M105.378,188.894c2.012,0,4.036-0.673,5.71-2.053c3.828-3.156,4.373-8.818,1.217-12.646l-32.397-39.294
	c-3.156-3.827-8.818-4.372-12.646-1.216c-3.828,3.156-4.373,8.818-1.217,12.646l32.397,39.292
	C100.218,187.779,102.787,188.894,105.378,188.894z"/>
<path d="M357.985,189.455c1.135,3.935,4.726,6.494,8.626,6.494c0.824,0,1.664-0.115,2.496-0.355
	c4.766-1.375,7.515-6.355,6.14-11.122L323.88,6.495c-1.375-4.766-6.355-7.517-11.122-6.14c-4.767,1.375-7.516,6.355-6.14,11.122
	L357.985,189.455z"/>
<g>
</g>
<g>
</g>
<g>
</g>
<g>
</g>
<g>
</g>
<g>
</g>
<g>
</g>
<g>
</g>
<g>
</g>
<g>
</g>
<g>
</g>
<g>
</g>
<g>
</g>
<g>
</g>
<g>
</g>
</svg>
