<?xml version="1.0" encoding="iso-8859-1"?>
<!-- Generator: Adobe Illustrator 19.0.0, SVG Export Plug-In . SVG Version: 6.00 Build 0)  -->
<svg version="1.1" id="Layer_1" xmlns="http://www.w3.org/2000/svg" xmlns:xlink="http://www.w3.org/1999/xlink" x="0px" y="0px"
	 viewBox="0 0 512 512" style="enable-background:new 0 0 512 512;" xml:space="preserve">
<rect x="34.604" y="46.052" style="fill:#363640;" width="442.791" height="389.269"/>
<g>
	<path style="fill:#FF6465;" d="M368.143,21.711c5.301,106.713,50.975,184.666,76.48,220.327l-0.219,0.185l30.804,10.964
		l28.539-10.964V21.711H368.143z"/>
	<polygon style="fill:#FF6465;" points="455.128,285.949 429.825,396.82 429.825,435.325 503.749,435.325 503.749,396.82 
		503.749,285.949 481.404,274.023 	"/>
</g>
<path style="opacity:0.1;enable-background:new    ;" d="M368.143,21.711h22.003c5.301,106.713,50.975,184.666,76.48,220.327
	l-0.219,0.185l19.383,6.899l-10.581,4.065l-30.804-10.964l0.219-0.185C419.118,206.376,373.444,128.423,368.143,21.711z"/>
<path style="fill:#D7565A;" d="M389.672,21.711c0,26.887-21.796,48.683-48.683,48.683c-26.887,0-48.683-21.796-48.683-48.683
	H389.672z"/>
<polygon style="fill:#FF6465;" points="30.596,274.023 8.251,285.949 8.251,396.82 8.251,435.325 82.175,435.325 82.175,396.82 
	56.872,285.949 "/>
<polygon style="opacity:0.1;enable-background:new    ;" points="56.872,285.949 30.596,274.023 20.484,279.421 34.868,285.949 
	60.172,396.82 60.172,435.325 82.175,435.325 82.175,396.82 "/>
<path style="fill:#FF6465;" d="M67.596,242.223l-0.219-0.185c25.505-35.663,71.179-113.614,76.48-220.327H8.251v220.512
	l28.54,10.964L67.596,242.223z"/>
<path style="opacity:0.1;enable-background:new    ;" d="M143.857,21.711h-22.003c-5.301,106.713-50.975,184.666-76.48,220.327
	l0.219,0.185l-19.383,6.899l10.581,4.065l30.804-10.964l-0.219-0.185C92.882,206.376,138.556,128.423,143.857,21.711z"/>
<path style="fill:#FFD782;" d="M67.596,242.223c12.074,0,21.862,9.788,21.862,21.862l0,0c0,12.074-9.788,21.862-21.862,21.862H8.251
	v-43.726h59.345V242.223z"/>
<path style="opacity:0.1;enable-background:new    ;" d="M67.596,242.223H45.593c12.074,0,21.863,9.788,21.863,21.863l0,0
	c0,12.074-9.788,21.863-21.863,21.863h22.003c12.074,0,21.863-9.788,21.863-21.863l0,0C89.458,252.011,79.67,242.223,67.596,242.223
	z"/>
<polygon style="opacity:0.1;enable-background:new    ;" points="455.128,285.949 481.404,274.023 491.516,279.421 477.132,285.949 
	451.828,396.82 451.828,435.325 429.825,435.325 429.825,396.82 "/>
<path style="fill:#D7565A;" d="M122.329,21.711c0,26.887,21.796,48.683,48.683,48.683s48.683-21.796,48.683-48.683H122.329z"/>
<rect x="8.251" y="396.815" style="fill:#C89173;" width="495.5" height="93.469"/>
<path style="fill:#FF6465;" d="M315.364,21.711c0,32.786-26.579,59.364-59.364,59.364s-59.364-26.579-59.364-59.364H315.364z"/>
<path style="fill:#FFD782;" d="M444.405,242.223c-12.074,0-21.862,9.788-21.862,21.862l0,0c0,12.074,9.788,21.862,21.862,21.862
	h59.345v-43.726h-59.345V242.223z"/>
<path style="opacity:0.1;enable-background:new    ;" d="M444.405,242.223h22.003c-12.074,0-21.863,9.788-21.863,21.863l0,0
	c0,12.074,9.788,21.863,21.863,21.863h-22.003c-12.074,0-21.863-9.788-21.863-21.863l0,0
	C422.542,252.011,432.33,242.223,444.405,242.223z"/>
<rect x="8.251" y="396.815" style="fill:#E0A381;" width="495.5" height="25.249"/>
<path d="M8.251,498.54h495.498c4.558,0,8.251-3.694,8.251-8.251v-93.468V285.949v-43.726V21.711c0-4.557-3.693-8.251-8.251-8.251
	H389.672h-74.306c-0.001,0-0.002,0-0.002,0H196.637c-0.001,0-0.002,0-0.002,0h-74.306H8.251C3.694,13.46,0,17.154,0,21.711v220.512
	v43.726V396.82v93.468C0,494.846,3.694,498.54,8.251,498.54z M67.596,250.474c7.505,0,13.612,6.106,13.612,13.612
	s-6.106,13.612-13.612,13.612H56.872H16.502v-27.223h50.744h0.35V250.474z M16.502,294.2h33.789l21.537,94.368H16.502V294.2z
	 M444.405,277.698c-7.505,0-13.612-6.106-13.612-13.612c0-7.506,6.107-13.612,13.612-13.612h0.349h50.744v27.223h-40.369h-10.723
	V277.698z M495.498,233.972h-46.472c-21.344-30.589-55.946-90.508-68.429-171.366c-0.057-0.37,2.377-2.438,2.717-2.813
	c7.423-8.234,12.328-18.609,13.971-29.572c0.013-0.087,0.031-0.173,0.043-0.259h98.169V233.972z M306.071,31.982
	c-0.027,0.134-0.054,0.268-0.083,0.403C301.065,55.461,280.522,72.823,256,72.823c-24.526,0-45.069-17.367-49.99-40.446
	c-0.027-0.128-0.053-0.255-0.079-0.383c-0.117-0.57-0.222-1.143-0.32-1.718c-0.018-0.105-0.035-0.209-0.053-0.314h100.883
	c-0.018,0.107-0.035,0.215-0.054,0.321C306.292,30.852,306.187,31.419,306.071,31.982z M196.221,53.327
	c-7.122,5.722-15.883,8.816-25.209,8.816c-10.939,0-20.877-4.367-28.163-11.448c-0.013-0.013-0.027-0.025-0.041-0.039
	c-5.656-5.513-9.64-12.632-11.305-20.36c-0.024-0.111-0.043-0.223-0.066-0.334h57.448c0.345,2.842,0.881,5.665,1.59,8.438
	c0.019,0.075,0.035,0.151,0.054,0.226C191.841,43.722,193.742,48.653,196.221,53.327z M321.469,38.636
	c0.025-0.098,0.046-0.198,0.072-0.296c0.696-2.75,1.232-5.561,1.575-8.379h57.448c-0.022,0.106-0.04,0.211-0.063,0.317
	c-3.958,18.362-20.757,31.864-39.512,31.864c-9.327,0-18.087-3.095-25.209-8.817C318.257,48.656,320.157,43.729,321.469,38.636z
	 M16.502,29.962h98.169c0.013,0.091,0.032,0.182,0.045,0.273c1.67,11.097,6.677,21.591,14.251,29.869
	c0.305,0.333,2.485,2.17,2.435,2.502c-3.245,21.011-8.205,41.974-14.761,62.379c-1.394,4.339,0.993,8.985,5.332,10.38
	c4.337,1.394,8.985-0.993,10.38-5.332c5.996-18.665,10.686-37.785,14.034-56.993c7.456,3.592,15.809,5.606,24.624,5.606
	c12.583,0,24.795-4.236,34.68-11.818C218.08,80.628,236.041,89.327,256,89.327s37.921-8.699,50.309-22.499
	c9.884,7.583,22.097,11.819,34.68,11.819c8.813,0,17.166-2.014,24.622-5.605c13.047,74.888,43.986,131.737,65.543,164.013
	c-9.977,4.911-16.862,15.181-16.862,27.033c0,16.605,13.509,30.115,30.115,30.115h0.377l-6.949,30.447
	c-1.013,4.442,1.766,8.866,6.209,9.879c4.439,1.014,8.866-1.766,9.88-6.209l7.786-34.118H495.5v94.368h-55.327l6.218-27.245
	c1.014-4.444-1.765-8.866-6.208-9.88c-4.44-1.013-8.867,1.765-9.879,6.208l-7.056,30.918H194.982c-4.558,0-8.251,3.694-8.251,8.251
	s3.693,8.251,8.251,8.251h234.843h65.673v76.966H16.502v-76.966h65.673h79.802c4.557,0,8.251-3.694,8.251-8.251
	s-3.694-8.251-8.251-8.251H88.756L67.219,294.2h0.377c16.605,0,30.115-13.509,30.115-30.115c0-11.852-6.885-22.122-16.862-27.033
	c11.481-17.19,25.826-41.63,38.612-72.147c1.761-4.204-0.219-9.038-4.422-10.799c-4.205-1.761-9.038,0.22-10.799,4.422
	c-13.905,33.188-29.702,58.872-41.265,75.443H16.502V29.962z"/>
<g>
</g>
<g>
</g>
<g>
</g>
<g>
</g>
<g>
</g>
<g>
</g>
<g>
</g>
<g>
</g>
<g>
</g>
<g>
</g>
<g>
</g>
<g>
</g>
<g>
</g>
<g>
</g>
<g>
</g>
</svg>
