<?xml version="1.0" encoding="iso-8859-1"?>
<!-- Generator: Adobe Illustrator 19.0.0, SVG Export Plug-In . SVG Version: 6.00 Build 0)  -->
<svg version="1.1" id="Layer_1" xmlns="http://www.w3.org/2000/svg" xmlns:xlink="http://www.w3.org/1999/xlink" x="0px" y="0px"
	 viewBox="0 0 512 512" style="enable-background:new 0 0 512 512;" xml:space="preserve">
<path style="fill:#F2CC7B;" d="M183.367,103.764c0-13.372-10.84-24.21-24.211-24.21c-13.372,0-24.211,10.84-24.211,24.21v51.605
	h48.422h22.928v-51.605H183.367z"/>
<path style="opacity:0.1;enable-background:new    ;" d="M164.581,80.171c-1.744-0.399-3.558-0.617-5.424-0.617
	c-13.372,0-24.21,10.84-24.21,24.21v51.605h10.847v-51.605C145.793,92.258,153.822,82.634,164.581,80.171z"/>
<path style="fill:#F2CC7B;" d="M328.633,103.764c0-13.372,10.84-24.21,24.211-24.21s24.211,10.84,24.211,24.21v51.605h-48.422
	h-22.928v-51.605H328.633z"/>
<path style="fill:#FFD782;" d="M231.79,76.645c0-13.372-10.84-24.21-24.211-24.21c-13.372,0-24.211,10.84-24.211,24.21v78.724
	h48.422h27.349V76.645H231.79z"/>
<path style="opacity:0.1;enable-background:new    ;" d="M213.002,53.052c-1.744-0.399-3.558-0.617-5.424-0.617
	c-13.372,0-24.211,10.84-24.211,24.21v78.724h10.847V76.645C194.216,65.14,202.244,55.516,213.002,53.052z"/>
<path style="opacity:0.1;enable-background:new    ;" d="M347.419,80.171c1.744-0.399,3.558-0.617,5.424-0.617
	c13.372,0,24.21,10.84,24.21,24.21v51.605h-10.847v-51.605C366.207,92.258,358.178,82.634,347.419,80.171z"/>
<path style="fill:#FFD782;" d="M280.211,76.645c0-13.372,10.84-24.21,24.211-24.21s24.211,10.84,24.211,24.21v78.724h-48.422
	h-27.349V76.645H280.211z"/>
<path style="opacity:0.1;enable-background:new    ;" d="M298.998,53.052c1.744-0.399,3.558-0.617,5.424-0.617
	c13.372,0,24.211,10.84,24.211,24.21v78.724h-10.847V76.645C317.786,65.14,309.756,55.516,298.998,53.052z"/>
<path style="fill:#FFDF9C;" d="M256,19.893c-13.372,0-24.211,10.84-24.211,24.21v111.266h48.422V44.103
	C280.211,30.733,269.372,19.893,256,19.893z"/>
<path style="opacity:0.1;enable-background:new    ;" d="M261.424,20.51c-1.744-0.399-3.558-0.617-5.424-0.617
	c-13.372,0-24.21,10.84-24.21,24.21v111.266h10.847V44.103C242.637,32.597,250.665,22.974,261.424,20.51z"/>
<rect x="71.541" y="247.027" style="fill:#D7565A;" width="368.919" height="245.085"/>
<path style="fill:#F2CC7B;" d="M256,312.495L256,312.495c-34.169,0-61.869,27.7-61.869,61.868v117.743h123.737V374.364
	C317.869,340.195,290.169,312.495,256,312.495z"/>
<path style="fill:#FFF7E6;" d="M226.673,400.989v-26.625c0-16.171,13.156-29.327,29.327-29.327c16.17,0,29.326,13.156,29.326,29.327
	v26.625H226.673z"/>
<rect x="226.677" y="435.142" style="fill:#FF6465;" width="58.652" height="56.97"/>
<rect x="71.541" y="139.096" style="fill:#BF4D50;" width="368.919" height="126.773"/>
<rect x="147.361" y="171.638" style="fill:#FFF7E6;" width="217.284" height="61.686"/>
<path style="fill:#FF7374;" d="M71.541,68.112L71.541,68.112c-23.9,0-43.276,19.376-43.276,43.276v27.712h86.551v-27.712
	C114.816,87.486,95.442,68.112,71.541,68.112z"/>
<path style="opacity:0.1;enable-background:new    ;" d="M82.388,69.483c-3.467-0.895-7.101-1.371-10.847-1.371l0,0
	c-23.9,0-43.276,19.374-43.276,43.276v27.712H49.96v-27.712C49.961,91.233,63.738,74.297,82.388,69.483z"/>
<path style="fill:#FF7374;" d="M440.459,68.112L440.459,68.112c23.9,0,43.276,19.376,43.276,43.276v27.712h-86.551v-27.712
	C397.184,87.486,416.558,68.112,440.459,68.112z"/>
<rect x="28.268" y="139.096" style="fill:#FF6465;" width="86.551" height="353.006"/>
<rect x="28.268" y="139.096" style="opacity:0.1;enable-background:new    ;" width="21.695" height="353.006"/>
<rect x="397.187" y="139.096" style="fill:#FF6465;" width="86.551" height="353.006"/>
<rect x="28.268" y="139.096" style="opacity:0.1;enable-background:new    ;" width="86.551" height="43.389"/>
<path style="fill:#F2CC7B;" d="M118.675,122.827H24.407c-8.986,0-16.271,7.285-16.271,16.271l0,0
	c0,8.986,7.285,16.271,16.271,16.271h94.268c8.986,0,16.271-7.285,16.271-16.271l0,0
	C134.946,130.112,127.662,122.827,118.675,122.827z"/>
<path style="opacity:0.1;enable-background:new    ;" d="M40.678,139.098L40.678,139.098c0-8.986,7.285-16.271,16.271-16.271H24.407
	c-8.986,0-16.271,7.285-16.271,16.271l0,0c0,8.986,7.285,16.271,16.271,16.271h32.542C47.963,155.369,40.678,148.085,40.678,139.098
	z"/>
<path style="opacity:0.1;enable-background:new    ;" d="M429.612,69.483c3.467-0.895,7.101-1.371,10.847-1.371l0,0
	c23.9,0,43.276,19.374,43.276,43.276v27.712H462.04v-27.712C462.04,91.233,448.262,74.297,429.612,69.483z"/>
<rect x="462.044" y="139.096" style="opacity:0.1;enable-background:new    ;" width="21.695" height="353.006"/>
<rect x="397.187" y="139.096" style="opacity:0.1;enable-background:new    ;" width="86.551" height="43.389"/>
<path style="fill:#F2CC7B;" d="M393.326,122.827h94.268c8.986,0,16.271,7.285,16.271,16.271l0,0c0,8.986-7.285,16.271-16.271,16.271
	h-94.268c-8.986,0-16.271-7.285-16.271-16.271l0,0C377.054,130.112,384.338,122.827,393.326,122.827z"/>
<path style="opacity:0.1;enable-background:new    ;" d="M471.322,139.098L471.322,139.098c0-8.986-7.285-16.271-16.271-16.271
	h32.542c8.986,0,16.271,7.285,16.271,16.271l0,0c0,8.986-7.285,16.271-16.271,16.271h-32.542
	C464.037,155.369,471.322,148.085,471.322,139.098z"/>
<path d="M364.641,163.505H147.357c-4.494,0-8.136,3.643-8.136,8.136v61.686c0,4.493,3.641,8.136,8.136,8.136h30.295
	c4.494,0,8.136-3.643,8.136-8.136c0-4.493-3.641-8.136-8.136-8.136h-22.159v-45.415h201.013v45.415H210.194
	c-4.494,0-8.136,3.643-8.136,8.136c0,4.493,3.641,8.136,8.136,8.136h154.447c4.494,0,8.136-3.643,8.136-8.136V171.64
	C372.776,167.147,369.135,163.505,364.641,163.505z"/>
<path d="M256,336.902c-20.657,0-37.461,16.806-37.461,37.462v26.625c0,4.493,3.641,8.136,8.136,8.136h58.652
	c4.494,0,8.136-3.643,8.136-8.136v-26.625C293.461,353.708,276.657,336.902,256,336.902z M277.19,392.854H234.81v-18.489
	c0-11.685,9.507-21.191,21.19-21.191c11.684,0,21.19,9.507,21.19,21.191V392.854L277.19,392.854z"/>
<path d="M491.869,115.074v-3.687c0-28.347-23.063-51.411-51.411-51.411s-51.411,23.063-51.411,51.411v3.687
	c-1.326,0.235-2.615,0.576-3.86,1.017v-12.328c0-17.835-14.511-32.346-32.346-32.346c-5.86,0-11.355,1.574-16.1,4.309
	C336.253,58.315,321.947,44.3,304.421,44.3c-5.85,0-11.337,1.569-16.076,4.296v-4.492c0-17.835-14.511-32.346-32.346-32.346
	s-32.346,14.511-32.346,32.346v4.492c-4.739-2.727-10.227-4.296-16.076-4.296c-17.526,0-31.833,14.016-32.322,31.427
	c-4.745-2.735-10.24-4.309-16.1-4.309c-17.835,0-32.346,14.511-32.346,32.346v12.327c-1.243-0.441-2.533-0.781-3.859-1.017v-3.687
	c0-28.347-23.063-51.411-51.411-51.411s-51.411,23.063-51.411,51.411v3.687C8.706,117.104,0,127.1,0,139.098
	c0,11.998,8.706,21.995,20.131,24.024v249.549c0,4.493,3.641,8.136,8.136,8.136s8.136-3.643,8.136-8.136V163.505h70.279v102.363
	v218.104H36.402v-38.759c0-4.493-3.641-8.135-8.136-8.135s-8.136,3.643-8.136,8.135v46.894c0,4.493,3.641,8.136,8.136,8.136h86.55
	h79.315h32.543h58.652h32.543h79.315h86.55c4.494,0,8.136-3.643,8.136-8.136V225.374c0-4.493-3.641-8.136-8.136-8.136
	c-4.494,0-8.135,3.643-8.135,8.136v258.598h-70.279V265.868V163.505h70.279v29.326c0,4.493,3.641,8.136,8.135,8.136
	c4.494,0,8.136-3.643,8.136-8.136v-29.709C503.294,161.093,512,151.096,512,139.098S503.294,117.104,491.869,115.074z
	 M440.459,76.247c19.376,0,35.14,15.763,35.14,35.14v3.305H405.32v-3.305C405.319,92.011,421.083,76.247,440.459,76.247z
	 M385.637,162.244c1.039,0.354,2.102,0.635,3.183,0.837c0.077,0.014,0.151,0.035,0.228,0.049v94.602H122.952v-94.603
	c0.054-0.01,0.106-0.026,0.161-0.036c8.394-1.556,15.699-7.769,18.57-15.859h41.686h48.422h48.422h48.422h41.681
	c0.012,0.035,0.027,0.067,0.04,0.101C372.834,154.27,378.678,159.876,385.637,162.244z M352.843,87.689
	c8.864,0,16.075,7.211,16.075,16.075v27.199h-32.152v-27.199C336.767,94.9,343.979,87.689,352.843,87.689z M304.423,60.571
	c8.863,0,16.074,7.211,16.074,16.075v27.118v27.199h-32.151V76.645C288.346,67.782,295.558,60.571,304.423,60.571z M239.925,44.103
	c0-8.863,7.21-16.075,16.075-16.075c8.864,0,16.075,7.211,16.075,16.075v32.542v54.317h-32.15V76.645V44.103H239.925z
	 M191.504,76.645c0-8.863,7.21-16.075,16.074-16.075c8.864,0,16.076,7.211,16.076,16.075v54.317h-32.151v-27.199V76.645H191.504z
	 M143.081,103.764c0-8.863,7.21-16.075,16.075-16.075c8.864,0,16.076,7.211,16.076,16.075v27.199H143.08v-27.199H143.081z
	 M71.541,76.247c19.376,0,35.14,15.763,35.14,35.14v3.305H36.402v-3.305C36.402,92.011,52.165,76.247,71.541,76.247z
	 M16.271,139.098c0-4.486,3.649-8.136,8.136-8.136h94.268c4.486,0,8.136,3.649,8.136,8.14c0,0.291-0.016,0.569-0.044,0.84
	c-0.408,4.001-4.004,7.275-8.091,7.292H24.407C19.92,147.234,16.271,143.584,16.271,139.098z M234.81,483.972v-40.694h42.381v40.694
	L234.81,483.972L234.81,483.972z M293.461,483.972v-48.829c0-4.494-3.641-8.136-8.136-8.136h-58.652
	c-4.494,0-8.136,3.641-8.136,8.136v48.829h-16.272V374.364c0-29.628,24.105-53.734,53.734-53.734c14.895,0,29.255,6.274,39.4,17.214
	c3.054,3.294,8.203,3.49,11.497,0.434c3.294-3.056,3.488-8.203,0.433-11.497c-13.213-14.249-31.923-22.422-51.33-22.422
	c-38.6,0-70.005,31.404-70.005,70.005v109.607h-63.044V274.003h266.098v209.968h-63.044V374.364c0-5.458-0.651-10.948-1.932-16.318
	c-1.044-4.369-5.426-7.067-9.803-6.024c-4.369,1.044-7.067,5.432-6.024,9.803c0.987,4.133,1.487,8.351,1.487,12.538v109.607
	L293.461,483.972L293.461,483.972z M487.593,147.234h-94.268c-2.523,0-4.783-1.154-6.275-2.964c-1.162-1.407-1.86-3.21-1.86-5.172
	c0-4.486,3.649-8.136,8.136-8.136h94.268c4.486,0,8.135,3.649,8.135,8.136C495.729,143.584,492.08,147.234,487.593,147.234z"/>
<g>
</g>
<g>
</g>
<g>
</g>
<g>
</g>
<g>
</g>
<g>
</g>
<g>
</g>
<g>
</g>
<g>
</g>
<g>
</g>
<g>
</g>
<g>
</g>
<g>
</g>
<g>
</g>
<g>
</g>
</svg>
