<?xml version="1.0" encoding="iso-8859-1"?>
<!-- Generator: Adobe Illustrator 19.0.0, SVG Export Plug-In . SVG Version: 6.00 Build 0)  -->
<svg version="1.1" id="Layer_1" xmlns="http://www.w3.org/2000/svg" xmlns:xlink="http://www.w3.org/1999/xlink" x="0px" y="0px"
	 viewBox="0 0 512 512" style="enable-background:new 0 0 512 512;" xml:space="preserve">
<rect x="130.852" y="115.197" style="fill:#CC5051;" width="250.306" height="364.014"/>
<path style="opacity:0.1;enable-background:new    ;" d="M130.848,180.52c6.304,2.199,13.067,3.409,20.111,3.409
	c13.009,0,25.085-4.08,35.014-11.025c9.929,6.945,22.004,11.025,35.014,11.025s25.085-4.08,35.014-11.025
	c9.929,6.945,22.004,11.025,35.014,11.025s25.085-4.08,35.014-11.025c9.929,6.945,22.004,11.025,35.014,11.025
	c7.044,0,13.807-1.21,20.111-3.409v-65.322H130.848V180.52z"/>
<rect x="185.976" y="7.864" style="fill:#FF6465;" width="70.027" height="113.488"/>
<rect x="115.941" y="7.864" style="fill:#E6DFD0;" width="70.027" height="113.488"/>
<path style="fill:#FFF7E6;" d="M115.946,106.064v16.638c0,19.338,15.676,35.014,35.014,35.014l0,0
	c19.338,0,35.014-15.676,35.014-35.014v-16.638H115.946z"/>
<rect x="256" y="7.864" style="fill:#E6DFD0;" width="70.027" height="113.488"/>
<path style="fill:#FFF7E6;" d="M326.027,106.064v16.638c0,19.338-15.676,35.014-35.014,35.014l0,0
	c-19.338,0-35.014-15.676-35.014-35.014v-16.638H326.027z"/>
<rect x="326.024" y="7.864" style="fill:#FF6465;" width="70.027" height="113.488"/>
<rect x="169.671" y="195.13" style="fill:#7DD2F0;" width="172.669" height="124.456"/>
<path style="fill:#FFF7E6;" d="M256,233.938L256,233.938c-23.744,0-42.992,19.248-42.992,42.992v42.656h85.983V276.93
	C298.992,253.187,279.744,233.938,256,233.938z"/>
<rect x="169.671" y="348.6" style="fill:#F2CC7B;" width="172.669" height="130.621"/>
<g>
	<path style="fill:#FF8080;" d="M185.973,106.064v16.638c0,19.338,15.676,35.014,35.014,35.014l0,0
		c19.338,0,35.014-15.676,35.014-35.014v-16.638H185.973z"/>
	<path style="fill:#FF8080;" d="M396.056,106.064v16.638c0,19.338-15.676,35.014-35.014,35.014l0,0
		c-19.338,0-35.014-15.676-35.014-35.014v-16.638H396.056z"/>
</g>
<rect x="105.875" y="454.297" style="fill:#FF6465;" width="300.261" height="49.843"/>
<path d="M169.667,187.27c-4.344,0-7.864,3.521-7.864,7.864v124.452c0,4.343,3.52,7.864,7.864,7.864h43.342h85.983h43.341
	c4.344,0,7.864-3.521,7.864-7.864V195.134c0-4.343-3.52-7.864-7.864-7.864H169.667z M334.469,311.721h-27.612V276.93
	c0-28.042-22.814-50.856-50.856-50.856c-6.332,0-12.533,1.163-18.428,3.457c-4.048,1.575-6.051,6.134-4.477,10.181
	s6.133,6.052,10.181,4.477c4.071-1.584,8.351-2.387,12.724-2.387c19.369,0,35.127,15.758,35.127,35.127v34.792h-70.255V276.93
	c0-5.361,1.175-10.506,3.493-15.288c1.895-3.909,0.261-8.613-3.648-10.508c-3.91-1.896-8.612-0.261-10.507,3.648
	c-3.363,6.938-5.068,14.391-5.068,22.148v34.792h-27.613V202.999h156.938v108.723H334.469z"/>
<path d="M108.081,7.864c0,0,0,98.178-0.001,98.198c0,7.421-0.598,15.16,0.41,22.518c1.342,9.8,6.197,18.958,13.457,25.66
	c0.128,0.117,0.256,0.235,0.385,0.35c0.218,0.196,0.428,0.401,0.65,0.592v217.855c0,4.343,3.52,7.864,7.864,7.864
	c4.344,0,7.864-3.521,7.864-7.864v-209.25c3.883,1.16,7.992,1.792,12.247,1.792c14.448,0,27.241-7.191,35.013-18.175
	c7.772,10.984,20.565,18.175,35.014,18.175c14.448,0,27.241-7.191,35.014-18.175c7.772,10.983,20.565,18.175,35.014,18.175
	c14.449,0,27.241-7.191,35.014-18.175c7.772,10.983,20.565,18.175,35.014,18.175c4.255,0,8.363-0.632,12.246-1.791v40.725
	c0,4.343,3.52,7.864,7.864,7.864s7.864-3.521,7.864-7.864v-49.328c9.327-8.051,14.901-20.157,14.903-32.483v-16.639V7.864
	c0-4.343-3.52-7.864-7.864-7.864h-70.027h-70.027h-70.027h-70.027C111.602,0,108.081,3.521,108.081,7.864z M178.107,122.702
	c0,14.97-12.178,27.15-27.15,27.15c-10.086,0-19.57-5.83-24.165-14.806c-3.388-6.618-2.983-13.91-2.983-21.117h54.298V122.702z
	 M220.987,149.851L220.987,149.851c-14.971,0-27.15-12.179-27.15-27.15v-8.775h54.299v8.775
	C248.137,137.671,235.956,149.851,220.987,149.851z M291.014,149.851c-14.97,0-27.15-12.179-27.15-27.15v-8.775h54.299v8.775
	C318.164,137.671,305.984,149.851,291.014,149.851z M333.893,122.702v-8.775h54.299c0,4.261,0.324,8.682-0.322,12.904
	c-0.389,2.54-1.148,5.021-2.238,7.347c-4.419,9.44-14.163,15.672-24.589,15.672C346.072,149.851,333.893,137.671,333.893,122.702z
	 M388.191,98.198h-54.299v-82.47h54.299V98.198z M318.164,98.198h-54.299v-82.47h54.299V98.198z M248.137,98.198h-54.299v-82.47
	h54.299V98.198z M123.81,15.729h54.299v82.47H123.81C123.81,98.198,123.81,15.729,123.81,15.729z"/>
<path d="M413.994,504.136L413.994,504.136v-49.843c0-4.343-3.52-7.864-7.864-7.864h-17.113V235.97c0-4.343-3.52-7.864-7.864-7.864
	s-7.864,3.521-7.864,7.864v210.458h-23.091v-97.832c0-4.343-3.52-7.864-7.864-7.864H169.667c-4.344,0-7.864,3.521-7.864,7.864
	v97.832h-23.091v-41.932c0-4.343-3.52-7.864-7.864-7.864c-4.344,0-7.864,3.521-7.864,7.864v41.932h-17.113
	c-4.344,0-7.864,3.521-7.864,7.864v49.843l0,0c0,4.343,3.52,7.864,7.864,7.864H406.13C410.473,512,413.994,508.479,413.994,504.136z
	 M177.532,356.461h156.938v89.968H177.532V356.461z M113.735,462.157h17.113h38.819h172.666h38.819h17.113v34.114H113.735V462.157z"
	/>
<g>
</g>
<g>
</g>
<g>
</g>
<g>
</g>
<g>
</g>
<g>
</g>
<g>
</g>
<g>
</g>
<g>
</g>
<g>
</g>
<g>
</g>
<g>
</g>
<g>
</g>
<g>
</g>
<g>
</g>
</svg>
