<?xml version="1.0" encoding="iso-8859-1"?>
<!-- Generator: Adobe Illustrator 19.0.0, SVG Export Plug-In . SVG Version: 6.00 Build 0)  -->
<svg version="1.1" id="Layer_1" xmlns="http://www.w3.org/2000/svg" xmlns:xlink="http://www.w3.org/1999/xlink" x="0px" y="0px"
	 viewBox="0 0 512 512" style="enable-background:new 0 0 512 512;" xml:space="preserve">
<g>
	<rect x="27.548" y="283.857" style="fill:#363640;" width="72.116" height="51.164"/>
	<rect x="355.558" y="271.085" style="fill:#363640;" width="84.568" height="86.155"/>
</g>
<rect x="82.862" y="238.696" style="fill:#464754;" width="287.681" height="184.316"/>
<path style="fill:#595B6B;" d="M338.154,344.269v-73.181H115.247V390.63h176.547C291.794,365.025,312.55,344.269,338.154,344.269z"
	/>
<rect x="176.208" y="302.244" style="fill:#A9ACCC;" width="101" height="32.764"/>
<g>
	<polygon style="fill:#464754;" points="46.998,335.012 8.097,357.241 8.097,261.623 46.998,283.852 	"/>
	<polygon style="fill:#464754;" points="472.334,229.02 407.901,271.087 407.901,357.241 472.334,399.308 472.334,403.495 
		488.118,403.495 488.118,229.02 	"/>
</g>
<path style="fill:#595B6B;" d="M488.118,209.049c-8.717,0-15.784,7.067-15.784,15.784v178.662c0,8.717,7.067,15.784,15.784,15.784
	s15.784-7.067,15.784-15.784V224.833C503.903,216.115,496.836,209.049,488.118,209.049z"/>
<circle style="fill:#363640;" cx="270.893" cy="169.232" r="80.26"/>
<path style="fill:#464754;" d="M270.895,217.105c-26.394,0-47.868-21.474-47.868-47.868s21.474-47.868,47.868-47.868
	c26.395,0,47.869,21.474,47.869,47.868S297.29,217.105,270.895,217.105z"/>
<circle style="fill:#363640;" cx="138.485" cy="197.346" r="52.147"/>
<path style="fill:#464754;" d="M138.487,217.105c-10.897,0-19.762-8.865-19.762-19.762s8.865-19.762,19.762-19.762
	c10.897,0,19.762,8.865,19.762,19.762S149.383,217.105,138.487,217.105z"/>
<path d="M162.585,390.628c0,4.472,3.624,8.097,8.097,8.097h121.112c4.473,0,8.097-3.625,8.097-8.097
	c0-21.098,17.164-38.262,38.262-38.262c4.473,0,8.097-3.625,8.097-8.097v-73.182c0-4.472-3.624-8.097-8.097-8.097H115.246
	c-4.473,0-8.097,3.625-8.097,8.097v119.542c0,4.472,3.624,8.097,8.097,8.097h23.047c4.473,0,8.097-3.625,8.097-8.097
	s-3.624-8.097-8.097-8.097h-14.95V279.184h206.713v57.588c-23.559,3.527-42.232,22.201-45.759,45.759H170.683
	C166.21,382.531,162.585,386.157,162.585,390.628z"/>
<circle cx="330.392" cy="382.86" r="14.251"/>
<path d="M277.198,343.109c4.473,0,8.097-3.625,8.097-8.097v-32.764c0-4.473-3.624-8.097-8.097-8.097H176.203
	c-4.473,0-8.097,3.624-8.097,8.097v32.764c0,4.472,3.624,8.097,8.097,8.097L277.198,343.109L277.198,343.109z M184.3,310.345h84.8
	v16.569h-84.8V310.345z"/>
<path d="M270.894,113.271c-30.859,0-55.965,25.106-55.965,55.965s25.106,55.966,55.965,55.966c30.86,0,55.966-25.106,55.966-55.966
	C326.86,138.377,301.754,113.271,270.894,113.271z M270.894,209.008c-21.93,0-39.771-17.841-39.771-39.772
	c0-21.93,17.841-39.771,39.771-39.771c21.931,0,39.772,17.841,39.772,39.771S292.824,209.008,270.894,209.008z"/>
<path d="M138.487,225.203c15.362,0,27.859-12.498,27.859-27.859c0-15.362-12.497-27.859-27.859-27.859s-27.859,12.497-27.859,27.859
	C110.628,212.705,123.124,225.203,138.487,225.203z M138.487,185.679c6.431,0,11.664,5.232,11.664,11.664
	c0,6.431-5.233,11.664-11.664,11.664c-6.431,0-11.664-5.233-11.664-11.664C126.822,190.912,132.054,185.679,138.487,185.679z"/>
<path d="M488.118,200.951c-13.101,0-23.769,10.606-23.876,23.683l-58.75,38.356h-26.852v-24.292c0-4.472-3.624-8.097-8.097-8.097
	h-36.168c15.382-15.906,24.875-37.541,24.875-61.364c0-18.792-5.839-36.749-16.887-51.929c-2.631-3.617-7.697-4.414-11.312-1.782
	c-3.617,2.632-4.415,7.696-1.783,11.312c9.019,12.393,13.787,27.055,13.787,42.4c0,27.3-15.24,51.104-37.658,63.361
	c-0.064,0.035-0.125,0.071-0.189,0.106c-10.453,5.651-22.368,8.693-34.255,8.693c-0.019,0-0.04,0.001-0.059,0.001
	c-0.019,0-0.04-0.001-0.059-0.001c-17.415-0.009-34.567-6.531-47.619-18.042c-11.414-10.068-19.509-23.684-22.791-38.553
	c-1.127-5.107-1.691-10.334-1.691-15.564c0-39.789,32.371-72.16,72.16-72.16c13.034,0,25.814,3.521,36.956,10.182
	c3.84,2.294,8.812,1.044,11.105-2.795c2.294-3.839,1.043-8.811-2.795-11.105c-13.653-8.162-29.307-12.476-45.267-12.476
	c-44.641,0-81.632,33.285-87.516,76.337c-11.04-12.339-27.071-20.122-44.893-20.122c-26.588,0-49.724,17.055-57.569,42.44
	c-1.32,4.273,1.073,8.807,5.345,10.127c4.278,1.32,8.807-1.073,10.128-5.345c5.735-18.558,22.651-31.027,42.095-31.027
	c24.291,0,44.054,19.763,44.054,44.054c0,14.413-6.958,27.232-17.691,35.273c-0.021,0.015-0.041,0.03-0.063,0.045
	c-7.416,5.668-16.888,8.731-26.2,8.731c-0.033,0-0.067,0.002-0.1,0.002c-9.536,0-19.308-3.181-26.82-9.118
	c-0.023-0.018-0.049-0.029-0.071-0.046c-6.679-5.148-11.9-12.217-14.771-20.578c-1.454-4.23-6.065-6.48-10.289-5.028
	c-4.229,1.453-6.48,6.059-5.028,10.288c1.687,4.912,3.976,9.492,6.752,13.684h-5.401c-4.473,0-8.097,3.625-8.097,8.097v37.058
	H49.146l-37.033-21.162c-2.506-1.433-5.584-1.422-8.081,0.027C1.536,256.069,0,258.736,0,261.623v95.616
	c0,2.887,1.536,5.555,4.032,7.004c2.345,1.36,5.545,1.478,8.082,0.027l37.032-21.162H74.76v79.91c0,4.472,3.624,8.097,8.097,8.097
	h184.329c4.473,0,8.097-3.625,8.097-8.097c0-4.472-3.624-8.097-8.097-8.097H90.954v-79.91v-51.16v-37.058h13.127
	c0.159,0.111,0.322,0.214,0.48,0.323c9.775,6.689,21.599,10.376,33.443,10.465c0.161,0.001,0.32,0.01,0.48,0.01
	c0.027,0,0.053-0.002,0.079-0.002c12.229,0,24.302-3.793,34.326-10.795h55.696c9.545,5.215,20.137,8.64,30.919,10.047
	c3.752,0.489,7.549,0.747,11.333,0.748c0.018,0,0.037,0.001,0.055,0.001s0.037-0.001,0.055-0.001
	c10.878-0.004,21.782-2.063,31.92-6.003c3.537-1.374,7.003-2.973,10.333-4.793h49.245v24.292v86.153v57.681h-62.987
	c-4.473,0-8.097,3.625-8.097,8.097s3.624,8.097,8.097,8.097h71.085c4.473,0,8.097-3.625,8.097-8.097v-57.679h26.851l58.751,38.357
	c0.109,13.076,10.775,23.682,23.876,23.682c13.168,0,23.882-10.713,23.882-23.882V224.833
	C512,211.665,501.288,200.951,488.118,200.951z M207.414,230.6h-18.723c3.022-4.546,5.44-9.525,7.147-14.821
	C199.168,221.129,203.054,226.092,207.414,230.6z M16.195,275.577l22.705,12.975v41.762l-22.705,12.974V275.577z M55.094,326.915
	v-34.965H74.76v34.965L55.094,326.915L55.094,326.915z M378.641,279.185h21.163v69.959h-21.163V279.185z M415.998,275.471
	l48.239-31.494v140.375l-48.239-31.494V275.471z M495.805,403.495c0,4.239-3.448,7.687-7.687,7.687
	c-4.239,0-7.687-3.448-7.687-7.687v-4.187V229.02v-4.187c0-4.239,3.448-7.687,7.687-7.687c4.239,0,7.687,3.448,7.687,7.687V403.495z
	"/>
<g>
</g>
<g>
</g>
<g>
</g>
<g>
</g>
<g>
</g>
<g>
</g>
<g>
</g>
<g>
</g>
<g>
</g>
<g>
</g>
<g>
</g>
<g>
</g>
<g>
</g>
<g>
</g>
<g>
</g>
</svg>
